<svg width="24" height="24" viewBox="0 0 24 24" fill="none" xmlns="http://www.w3.org/2000/svg">
<path d="M12 3.75005C10.22 3.75005 8.4799 4.27789 6.99986 5.26682C5.51982 6.25576 4.36626 7.66137 3.68507 9.3059C3.00389 10.9504 2.82566 12.76 3.17292 14.5059C3.52019 16.2517 4.37736 17.8553 5.63603 19.114C6.8947 20.3727 8.49835 21.2299 10.2442 21.5771C11.99 21.9244 13.7996 21.7462 15.4441 21.065C17.0887 20.3838 18.4943 19.2302 19.4832 17.7502C20.4721 16.2701 21 14.5301 21 12.7501C20.9973 10.3639 20.0482 8.07634 18.3609 6.3891C16.6737 4.70187 14.3861 3.75278 12 3.75005ZM12 20.2501C10.5166 20.2501 9.06658 19.8102 7.83321 18.9861C6.59984 18.162 5.63855 16.9906 5.07089 15.6202C4.50324 14.2497 4.35471 12.7417 4.6441 11.2869C4.93349 9.83202 5.6478 8.49564 6.69669 7.44675C7.74558 6.39786 9.08195 5.68355 10.5368 5.39416C11.9917 5.10477 13.4997 5.2533 14.8701 5.82095C16.2406 6.38861 17.4119 7.34991 18.236 8.58327C19.0601 9.81664 19.5 11.2667 19.5 12.7501C19.4978 14.7385 18.7069 16.6448 17.3008 18.0509C15.8948 19.4569 13.9884 20.2478 12 20.2501ZM5.78061 3.53068L2.78061 6.53068C2.63988 6.67141 2.44901 6.75047 2.24999 6.75047C2.05097 6.75047 1.8601 6.67141 1.71936 6.53068C1.57863 6.38995 1.49957 6.19907 1.49957 6.00005C1.49957 5.80103 1.57863 5.61016 1.71936 5.46943L4.71936 2.46943C4.8601 2.3287 5.05097 2.24963 5.24999 2.24963C5.44901 2.24963 5.63988 2.3287 5.78061 2.46943C5.92135 2.61016 6.00041 2.80103 6.00041 3.00005C6.00041 3.19907 5.92135 3.38995 5.78061 3.53068ZM22.2806 6.53068C22.211 6.60041 22.1282 6.65573 22.0372 6.69347C21.9461 6.73121 21.8486 6.75064 21.75 6.75064C21.6514 6.75064 21.5538 6.73121 21.4628 6.69347C21.3717 6.65573 21.289 6.60041 21.2194 6.53068L18.2194 3.53068C18.0786 3.38995 17.9996 3.19907 17.9996 3.00005C17.9996 2.80103 18.0786 2.61016 18.2194 2.46943C18.3601 2.3287 18.551 2.24963 18.75 2.24963C18.949 2.24963 19.1399 2.3287 19.2806 2.46943L22.2806 5.46943C22.3503 5.53908 22.4057 5.6218 22.4434 5.71285C22.4812 5.80389 22.5006 5.90149 22.5006 6.00005C22.5006 6.09861 22.4812 6.19621 22.4434 6.28726C22.4057 6.3783 22.3503 6.46102 22.2806 6.53068ZM17.25 12.0001C17.4489 12.0001 17.6397 12.0791 17.7803 12.2197C17.921 12.3604 18 12.5511 18 12.7501C18 12.949 17.921 13.1397 17.7803 13.2804C17.6397 13.421 17.4489 13.5001 17.25 13.5001H12C11.8011 13.5001 11.6103 13.421 11.4697 13.2804C11.329 13.1397 11.25 12.949 11.25 12.7501V7.50005C11.25 7.30114 11.329 7.11037 11.4697 6.96972C11.6103 6.82907 11.8011 6.75005 12 6.75005C12.1989 6.75005 12.3897 6.82907 12.5303 6.96972C12.671 7.11037 12.75 7.30114 12.75 7.50005V12.0001H17.25Z" fill="#343330"/>
</svg>
