<svg width="24" height="24" viewBox="0 0 24 24" fill="none" xmlns="http://www.w3.org/2000/svg">
<path d="M22.2806 12.5306L19.2806 15.5306C19.1399 15.6713 18.949 15.7504 18.75 15.7504C18.551 15.7504 18.3601 15.6713 18.2194 15.5306C18.0786 15.3899 17.9996 15.199 17.9996 15C17.9996 14.801 18.0786 14.6101 18.2194 14.4694L19.9397 12.75H4.06031L5.78062 14.4694C5.92135 14.6101 6.00041 14.801 6.00041 15C6.00041 15.199 5.92135 15.3899 5.78062 15.5306C5.63989 15.6713 5.44902 15.7504 5.24999 15.7504C5.05097 15.7504 4.8601 15.6713 4.71937 15.5306L1.71937 12.5306C1.64964 12.461 1.59432 12.3782 1.55658 12.2872C1.51883 12.1961 1.4994 12.0986 1.4994 12C1.4994 11.9014 1.51883 11.8038 1.55658 11.7128C1.59432 11.6217 1.64964 11.539 1.71937 11.4694L4.71937 8.46936C4.8601 8.32863 5.05097 8.24957 5.24999 8.24957C5.44902 8.24957 5.63989 8.32863 5.78062 8.46936C5.92135 8.61009 6.00041 8.80097 6.00041 8.99999C6.00041 9.19901 5.92135 9.38988 5.78062 9.53062L4.06031 11.25H19.9397L18.2194 9.53062C18.0786 9.38988 17.9996 9.19901 17.9996 8.99999C17.9996 8.80097 18.0786 8.61009 18.2194 8.46936C18.3601 8.32863 18.551 8.24957 18.75 8.24957C18.949 8.24957 19.1399 8.32863 19.2806 8.46936L22.2806 11.4694C22.3504 11.539 22.4057 11.6217 22.4434 11.7128C22.4812 11.8038 22.5006 11.9014 22.5006 12C22.5006 12.0986 22.4812 12.1961 22.4434 12.2872C22.4057 12.3782 22.3504 12.461 22.2806 12.5306Z" fill="#343330"/>
</svg>
