<svg width="24" height="24" viewBox="0 0 24 24" fill="none" xmlns="http://www.w3.org/2000/svg">
<path d="M21.5306 10.7194L12.5306 1.71939C12.461 1.64965 12.3783 1.59433 12.2872 1.55659C12.1962 1.51885 12.0986 1.49942 12 1.49942C11.9015 1.49942 11.8039 1.51885 11.7128 1.55659C11.6218 1.59433 11.539 1.64965 11.4694 1.71939L2.46939 10.7194C2.36438 10.8243 2.29285 10.958 2.26386 11.1035C2.23488 11.2491 2.24973 11.4 2.30654 11.5371C2.36336 11.6742 2.45958 11.7914 2.58302 11.8738C2.70647 11.9562 2.85159 12.0001 3.00001 12H6.75001V19.5C6.75001 19.8978 6.90805 20.2794 7.18935 20.5607C7.47066 20.842 7.85219 21 8.25001 21H15.75C16.1478 21 16.5294 20.842 16.8107 20.5607C17.092 20.2794 17.25 19.8978 17.25 19.5V12H21C21.1484 12.0001 21.2936 11.9562 21.417 11.8738C21.5404 11.7914 21.6367 11.6742 21.6935 11.5371C21.7503 11.4 21.7651 11.2491 21.7362 11.1035C21.7072 10.958 21.6356 10.8243 21.5306 10.7194ZM16.5 10.5C16.3011 10.5 16.1103 10.579 15.9697 10.7197C15.829 10.8603 15.75 11.0511 15.75 11.25V19.5H8.25001V11.25C8.25001 11.0511 8.17099 10.8603 8.03034 10.7197C7.88969 10.579 7.69892 10.5 7.50001 10.5H4.81032L12 3.31032L19.1897 10.5H16.5Z" fill="#343330"/>
</svg>
