<svg width="24" height="24" viewBox="0 0 24 24" fill="none" xmlns="http://www.w3.org/2000/svg">
<path d="M15.5306 18.2194C15.6004 18.289 15.6557 18.3718 15.6934 18.4628C15.7312 18.5539 15.7506 18.6514 15.7506 18.75C15.7506 18.8486 15.7312 18.9462 15.6934 19.0372C15.6557 19.1283 15.6004 19.211 15.5306 19.2806L12.5306 22.2806C12.461 22.3504 12.3783 22.4057 12.2872 22.4434C12.1962 22.4812 12.0986 22.5006 12 22.5006C11.9014 22.5006 11.8038 22.4812 11.7128 22.4434C11.6217 22.4057 11.539 22.3504 11.4694 22.2806L8.46937 19.2806C8.32864 19.1399 8.24958 18.949 8.24958 18.75C8.24958 18.551 8.32864 18.3601 8.46937 18.2194C8.6101 18.0787 8.80097 17.9996 9 17.9996C9.19902 17.9996 9.38989 18.0787 9.53062 18.2194L11.25 19.9397V4.06032L9.53062 5.78064C9.38989 5.92137 9.19902 6.00043 9 6.00043C8.80097 6.00043 8.6101 5.92137 8.46937 5.78064C8.32864 5.6399 8.24958 5.44903 8.24958 5.25001C8.24958 5.05099 8.32864 4.86012 8.46937 4.71939L11.4694 1.71939C11.539 1.64965 11.6217 1.59433 11.7128 1.55659C11.8038 1.51885 11.9014 1.49942 12 1.49942C12.0986 1.49942 12.1962 1.51885 12.2872 1.55659C12.3783 1.59433 12.461 1.64965 12.5306 1.71939L15.5306 4.71939C15.6714 4.86012 15.7504 5.05099 15.7504 5.25001C15.7504 5.44903 15.6714 5.6399 15.5306 5.78064C15.3899 5.92137 15.199 6.00043 15 6.00043C14.801 6.00043 14.6101 5.92137 14.4694 5.78064L12.75 4.06032V19.9397L14.4694 18.2194C14.539 18.1497 14.6217 18.0943 14.7128 18.0566C14.8038 18.0188 14.9014 17.9994 15 17.9994C15.0986 17.9994 15.1962 18.0188 15.2872 18.0566C15.3783 18.0943 15.461 18.1497 15.5306 18.2194Z" fill="#343330"/>
</svg>
