<svg width="24" height="24" viewBox="0 0 24 24" fill="none" xmlns="http://www.w3.org/2000/svg">
<path d="M21.5306 13.2806L12.5306 22.2806C12.461 22.3504 12.3783 22.4057 12.2872 22.4434C12.1962 22.4812 12.0986 22.5006 12 22.5006C11.9014 22.5006 11.8038 22.4812 11.7128 22.4434C11.6217 22.4057 11.539 22.3504 11.4694 22.2806L2.46937 13.2806C2.36436 13.1757 2.29284 13.042 2.26385 12.8965C2.23486 12.7509 2.24971 12.6 2.30653 12.4629C2.36334 12.3258 2.45956 12.2086 2.58301 12.1262C2.70645 12.0438 2.85157 11.9999 3 12H6.75V4.5C6.75 4.10218 6.90803 3.72064 7.18934 3.43934C7.47064 3.15804 7.85217 3 8.25 3H15.75C16.1478 3 16.5294 3.15804 16.8107 3.43934C17.092 3.72064 17.25 4.10218 17.25 4.5V12H21C21.1484 11.9999 21.2935 12.0438 21.417 12.1262C21.5404 12.2086 21.6366 12.3258 21.6935 12.4629C21.7503 12.6 21.7651 12.7509 21.7361 12.8965C21.7072 13.042 21.6356 13.1757 21.5306 13.2806Z" fill="#343330"/>
</svg>
