<svg width="24" height="24" viewBox="0 0 24 24" fill="none" xmlns="http://www.w3.org/2000/svg">
<path d="M22.2806 12.5306L13.2806 21.5306C13.1757 21.6356 13.042 21.7072 12.8965 21.7362C12.7509 21.7651 12.6 21.7503 12.4629 21.6935C12.3258 21.6367 12.2086 21.5404 12.1262 21.417C12.0438 21.2936 11.9999 21.1484 12 21V17.25H4.5C4.10218 17.25 3.72064 17.092 3.43934 16.8107C3.15804 16.5294 3 16.1478 3 15.75V8.25001C3 7.85219 3.15804 7.47066 3.43934 7.18935C3.72064 6.90805 4.10218 6.75001 4.5 6.75001H12V3.00001C11.9999 2.85159 12.0438 2.70647 12.1262 2.58302C12.2086 2.45958 12.3258 2.36336 12.4629 2.30654C12.6 2.24973 12.7509 2.23488 12.8965 2.26386C13.042 2.29285 13.1757 2.36438 13.2806 2.46939L22.2806 11.4694C22.3504 11.539 22.4057 11.6218 22.4434 11.7128C22.4812 11.8039 22.5006 11.9015 22.5006 12C22.5006 12.0986 22.4812 12.1962 22.4434 12.2872C22.4057 12.3783 22.3504 12.461 22.2806 12.5306Z" fill="#343330"/>
</svg>
