<svg width="24" height="24" viewBox="0 0 24 24" fill="none" xmlns="http://www.w3.org/2000/svg">
<path d="M11.1928 16.2131C11.2497 16.3502 11.2646 16.501 11.2357 16.6465C11.2069 16.792 11.1355 16.9257 11.0306 17.0306L8.03063 20.0306C7.96097 20.1004 7.87826 20.1557 7.78721 20.1934C7.69616 20.2312 7.59857 20.2506 7.5 20.2506C7.40144 20.2506 7.30385 20.2312 7.2128 20.1934C7.12175 20.1557 7.03903 20.1004 6.96938 20.0306L3.96938 17.0306C3.86437 16.9257 3.79284 16.7921 3.76386 16.6465C3.73487 16.5009 3.74972 16.35 3.80654 16.2129C3.86335 16.0758 3.95957 15.9586 4.08302 15.8762C4.20646 15.7938 4.35158 15.7499 4.5 15.75H6.75V4.50001C6.75 4.3011 6.82902 4.11033 6.96967 3.96968C7.11033 3.82903 7.30109 3.75001 7.5 3.75001C7.69892 3.75001 7.88968 3.82903 8.03033 3.96968C8.17099 4.11033 8.25 4.3011 8.25 4.50001V15.75H10.5C10.6483 15.75 10.7933 15.7941 10.9167 15.8765C11.04 15.9589 11.1361 16.0761 11.1928 16.2131ZM20.0306 6.96938L17.0306 3.96939C16.961 3.89965 16.8783 3.84433 16.7872 3.80659C16.6962 3.76885 16.5986 3.74942 16.5 3.74942C16.4014 3.74942 16.3038 3.76885 16.2128 3.80659C16.1218 3.84433 16.039 3.89965 15.9694 3.96939L12.9694 6.96938C12.8644 7.07428 12.7928 7.20797 12.7639 7.35353C12.7349 7.49909 12.7497 7.64999 12.8065 7.7871C12.8634 7.92422 12.9596 8.0414 13.083 8.1238C13.2065 8.2062 13.3516 8.25013 13.5 8.25001H15.75V19.5C15.75 19.6989 15.829 19.8897 15.9697 20.0303C16.1103 20.171 16.3011 20.25 16.5 20.25C16.6989 20.25 16.8897 20.171 17.0303 20.0303C17.171 19.8897 17.25 19.6989 17.25 19.5V8.25001H19.5C19.6484 8.25013 19.7935 8.2062 19.917 8.1238C20.0404 8.0414 20.1367 7.92422 20.1935 7.7871C20.2503 7.64999 20.2651 7.49909 20.2362 7.35353C20.2072 7.20797 20.1356 7.07428 20.0306 6.96938Z" fill="#343330"/>
</svg>
