<svg width="24" height="24" viewBox="0 0 24 24" fill="none" xmlns="http://www.w3.org/2000/svg">
<path d="M20.0306 17.0306L17.0306 20.0306C16.8899 20.1713 16.699 20.2504 16.5 20.2504C16.301 20.2504 16.1101 20.1713 15.9694 20.0306C15.8287 19.8899 15.7496 19.699 15.7496 19.5C15.7496 19.301 15.8287 19.1101 15.9694 18.9694L17.6897 17.25H4.50001C4.3011 17.25 4.11033 17.171 3.96968 17.0303C3.82903 16.8897 3.75001 16.6989 3.75001 16.5C3.75001 16.3011 3.82903 16.1103 3.96968 15.9697C4.11033 15.829 4.3011 15.75 4.50001 15.75H17.6897L15.9694 14.0306C15.8287 13.8899 15.7496 13.699 15.7496 13.5C15.7496 13.301 15.8287 13.1101 15.9694 12.9694C16.1101 12.8286 16.301 12.7496 16.5 12.7496C16.699 12.7496 16.8899 12.8286 17.0306 12.9694L20.0306 15.9694C20.1004 16.039 20.1557 16.1217 20.1934 16.2128C20.2312 16.3038 20.2506 16.4014 20.2506 16.5C20.2506 16.5986 20.2312 16.6961 20.1934 16.7872C20.1557 16.8782 20.1004 16.961 20.0306 17.0306ZM6.96938 11.0306C7.11012 11.1713 7.30099 11.2504 7.50001 11.2504C7.69903 11.2504 7.8899 11.1713 8.03064 11.0306C8.17137 10.8899 8.25043 10.699 8.25043 10.5C8.25043 10.301 8.17137 10.1101 8.03064 9.96936L6.31032 8.24999H19.5C19.6989 8.24999 19.8897 8.17097 20.0303 8.03032C20.171 7.88967 20.25 7.6989 20.25 7.49999C20.25 7.30108 20.171 7.11031 20.0303 6.96966C19.8897 6.82901 19.6989 6.74999 19.5 6.74999H6.31032L8.03064 5.03061C8.17137 4.88988 8.25043 4.69901 8.25043 4.49999C8.25043 4.30097 8.17137 4.1101 8.03063 3.96936C7.8899 3.82863 7.69903 3.74957 7.50001 3.74957C7.30099 3.74957 7.11012 3.82863 6.96938 3.96936L3.96939 6.96936C3.89965 7.03902 3.84433 7.12174 3.80659 7.21278C3.76885 7.30383 3.74942 7.40143 3.74942 7.49999C3.74942 7.59855 3.76885 7.69615 3.80659 7.7872C3.84433 7.87824 3.89965 7.96096 3.96939 8.03061L6.96938 11.0306Z" fill="#343330"/>
</svg>
