<svg width="24" height="24" viewBox="0 0 24 24" fill="none" xmlns="http://www.w3.org/2000/svg">
<path d="M22.2806 12.5306L19.2806 15.5306C19.1757 15.6356 19.0421 15.7072 18.8965 15.7362C18.7509 15.7651 18.6 15.7503 18.4629 15.6935C18.3258 15.6367 18.2086 15.5404 18.1262 15.417C18.0438 15.2936 17.9999 15.1484 18 15V12.75H6.00001V15C6.00013 15.1484 5.9562 15.2936 5.8738 15.417C5.7914 15.5404 5.67422 15.6367 5.5371 15.6935C5.39999 15.7503 5.24909 15.7651 5.10353 15.7362C4.95797 15.7072 4.82428 15.6356 4.71939 15.5306L1.71939 12.5306C1.64965 12.461 1.59433 12.3783 1.55659 12.2872C1.51885 12.1962 1.49942 12.0986 1.49942 12C1.49942 11.9014 1.51885 11.8039 1.55659 11.7128C1.59433 11.6218 1.64965 11.539 1.71939 11.4694L4.71939 8.46939C4.82428 8.36438 4.95797 8.29285 5.10353 8.26386C5.24909 8.23488 5.39999 8.24973 5.5371 8.30654C5.67422 8.36336 5.7914 8.45958 5.8738 8.58302C5.9562 8.70647 6.00013 8.85159 6.00001 9.00001V11.25H18V9.00001C17.9999 8.85159 18.0438 8.70647 18.1262 8.58302C18.2086 8.45958 18.3258 8.36336 18.4629 8.30654C18.6 8.24973 18.7509 8.23488 18.8965 8.26386C19.0421 8.29285 19.1757 8.36438 19.2806 8.46939L22.2806 11.4694C22.3504 11.539 22.4057 11.6218 22.4434 11.7128C22.4812 11.8039 22.5006 11.9014 22.5006 12C22.5006 12.0986 22.4812 12.1962 22.4434 12.2872C22.4057 12.3783 22.3504 12.461 22.2806 12.5306Z" fill="#343330"/>
</svg>
