<svg width="24" height="24" viewBox="0 0 24 24" fill="none" xmlns="http://www.w3.org/2000/svg">
<path d="M22.5 5.25001V9.75001C22.5 9.94892 22.421 10.1397 22.2803 10.2803C22.1397 10.421 21.9489 10.5 21.75 10.5H17.25C17.0511 10.5 16.8603 10.421 16.7197 10.2803C16.579 10.1397 16.5 9.94892 16.5 9.75001C16.5 9.5511 16.579 9.36033 16.7197 9.21968C16.8603 9.07903 17.0511 9.00001 17.25 9.00001H19.8188L17.3259 6.71626L17.3025 6.69376C16.2601 5.65172 14.9337 4.93994 13.4891 4.64734C12.0445 4.35473 10.5457 4.49428 9.17991 5.04854C7.81414 5.60281 6.64197 6.54721 5.80982 7.76379C4.97768 8.98036 4.52245 10.4152 4.501 11.889C4.47956 13.3627 4.89286 14.8102 5.68926 16.0505C6.48566 17.2907 7.62986 18.2688 8.97892 18.8626C10.328 19.4564 11.8221 19.6395 13.2746 19.389C14.7271 19.1386 16.0736 18.4657 17.1459 17.4544C17.2905 17.3176 17.4835 17.2439 17.6825 17.2495C17.8814 17.255 18.07 17.3393 18.2067 17.4839C18.3435 17.6285 18.4172 17.8215 18.4117 18.0204C18.4061 18.2194 18.3218 18.4079 18.1772 18.5447C16.5098 20.126 14.298 21.0052 12 21H11.8763C10.4023 20.9798 8.95579 20.5979 7.66398 19.8878C6.37216 19.1776 5.27455 18.161 4.46762 16.9274C3.6607 15.6937 3.16915 14.2807 3.0362 12.8126C2.90324 11.3445 3.13294 9.86616 3.70511 8.5076C4.27728 7.14903 5.1744 5.95181 6.31762 5.02116C7.46085 4.09051 8.81517 3.45492 10.2616 3.17026C11.7079 2.88559 13.2021 2.96057 14.6127 3.38859C16.0234 3.81662 17.3073 4.58459 18.3516 5.62501L21 8.04376V5.25001C21 5.0511 21.079 4.86033 21.2197 4.71968C21.3603 4.57903 21.5511 4.50001 21.75 4.50001C21.9489 4.50001 22.1397 4.57903 22.2803 4.71968C22.421 4.86033 22.5 5.0511 22.5 5.25001Z" fill="#343330"/>
</svg>
