<svg width="24" height="24" viewBox="0 0 24 24" fill="none" xmlns="http://www.w3.org/2000/svg">
<path d="M11.0306 15.9694C11.1003 16.039 11.1557 16.1218 11.1934 16.2128C11.2312 16.3039 11.2506 16.4014 11.2506 16.5C11.2506 16.5986 11.2312 16.6962 11.1934 16.7872C11.1557 16.8783 11.1003 16.961 11.0306 17.0306L8.03061 20.0306C7.96096 20.1004 7.87824 20.1557 7.7872 20.1934C7.69615 20.2312 7.59855 20.2506 7.49999 20.2506C7.40143 20.2506 7.30383 20.2312 7.21278 20.1934C7.12174 20.1557 7.03902 20.1004 6.96936 20.0306L3.96936 17.0306C3.89968 16.961 3.84441 16.8782 3.80669 16.7872C3.76898 16.6961 3.74957 16.5986 3.74957 16.5C3.74957 16.4015 3.76898 16.3039 3.80669 16.2128C3.84441 16.1218 3.89968 16.0391 3.96936 15.9694C4.1101 15.8287 4.30097 15.7496 4.49999 15.7496C4.59854 15.7496 4.69612 15.769 4.78716 15.8067C4.87821 15.8444 4.96093 15.8997 5.03061 15.9694L6.74999 17.6897V4.50001C6.74999 4.3011 6.82901 4.11033 6.96966 3.96968C7.11031 3.82903 7.30108 3.75001 7.49999 3.75001C7.6989 3.75001 7.88967 3.82903 8.03032 3.96968C8.17097 4.11033 8.24999 4.3011 8.24999 4.50001V17.6897L9.96936 15.9694C10.039 15.8997 10.1217 15.8443 10.2128 15.8066C10.3038 15.7688 10.4014 15.7494 10.5 15.7494C10.5986 15.7494 10.6961 15.7688 10.7872 15.8066C10.8782 15.8443 10.961 15.8997 11.0306 15.9694ZM20.0306 6.96938L17.0306 3.96939C16.961 3.89965 16.8782 3.84433 16.7872 3.80659C16.6961 3.76885 16.5986 3.74942 16.5 3.74942C16.4014 3.74942 16.3038 3.76885 16.2128 3.80659C16.1217 3.84433 16.039 3.89965 15.9694 3.96939L12.9694 6.96938C12.8286 7.11012 12.7496 7.30099 12.7496 7.50001C12.7496 7.69903 12.8286 7.8899 12.9694 8.03064C13.1101 8.17137 13.301 8.25043 13.5 8.25043C13.699 8.25043 13.8899 8.17137 14.0306 8.03064L15.75 6.31032V19.5C15.75 19.6989 15.829 19.8897 15.9697 20.0303C16.1103 20.171 16.3011 20.25 16.5 20.25C16.6989 20.25 16.8897 20.171 17.0303 20.0303C17.171 19.8897 17.25 19.6989 17.25 19.5V6.31032L18.9694 8.03064C19.1101 8.17137 19.301 8.25043 19.5 8.25043C19.699 8.25043 19.8899 8.17137 20.0306 8.03064C20.1713 7.8899 20.2504 7.69903 20.2504 7.50001C20.2504 7.30099 20.1713 7.11012 20.0306 6.96938Z" fill="#343330"/>
</svg>
