<svg width="24" height="24" viewBox="0 0 24 24" fill="none" xmlns="http://www.w3.org/2000/svg">
<path d="M22.2806 11.4694L13.2806 2.46939C13.1757 2.36438 13.042 2.29285 12.8965 2.26386C12.7509 2.23488 12.6 2.24973 12.4629 2.30654C12.3258 2.36336 12.2086 2.45958 12.1262 2.58302C12.0438 2.70647 11.9999 2.85159 12 3.00001V6.75001H4.5C4.10218 6.75001 3.72064 6.90805 3.43934 7.18935C3.15804 7.47066 3 7.85219 3 8.25001V15.75C3 16.1478 3.15804 16.5294 3.43934 16.8107C3.72064 17.092 4.10218 17.25 4.5 17.25H12V21C11.9999 21.1484 12.0438 21.2936 12.1262 21.417C12.2086 21.5404 12.3258 21.6367 12.4629 21.6935C12.6 21.7503 12.7509 21.7651 12.8965 21.7362C13.042 21.7072 13.1757 21.6356 13.2806 21.5306L22.2806 12.5306C22.3504 12.461 22.4057 12.3783 22.4434 12.2872C22.4812 12.1962 22.5006 12.0986 22.5006 12C22.5006 11.9015 22.4812 11.8039 22.4434 11.7128C22.4057 11.6218 22.3504 11.539 22.2806 11.4694ZM13.5 19.1897V16.5C13.5 16.3011 13.421 16.1103 13.2803 15.9697C13.1397 15.829 12.9489 15.75 12.75 15.75H4.5V8.25001H12.75C12.9489 8.25001 13.1397 8.17099 13.2803 8.03034C13.421 7.88969 13.5 7.69892 13.5 7.50001V4.81032L20.6897 12L13.5 19.1897Z" fill="#343330"/>
</svg>
