<svg width="24" height="24" viewBox="0 0 24 24" fill="none" xmlns="http://www.w3.org/2000/svg">
<path d="M19.5 6.75001H12V3.00001C12.0001 2.85159 11.9562 2.70647 11.8738 2.58302C11.7914 2.45958 11.6742 2.36336 11.5371 2.30654C11.4 2.24973 11.2491 2.23488 11.1035 2.26386C10.958 2.29285 10.8243 2.36438 10.7194 2.46939L1.71937 11.4694C1.64964 11.539 1.59432 11.6218 1.55658 11.7128C1.51883 11.8039 1.4994 11.9015 1.4994 12C1.4994 12.0986 1.51883 12.1962 1.55658 12.2872C1.59432 12.3783 1.64964 12.461 1.71937 12.5306L10.7194 21.5306C10.8243 21.6356 10.958 21.7072 11.1035 21.7362C11.2491 21.7651 11.4 21.7503 11.5371 21.6935C11.6742 21.6367 11.7914 21.5404 11.8738 21.417C11.9562 21.2936 12.0001 21.1484 12 21V17.25H19.5C19.8978 17.25 20.2794 17.092 20.5607 16.8107C20.842 16.5294 21 16.1478 21 15.75V8.25001C21 7.85219 20.842 7.47066 20.5607 7.18935C20.2794 6.90805 19.8978 6.75001 19.5 6.75001ZM19.5 15.75H11.25C11.0511 15.75 10.8603 15.829 10.7197 15.9697C10.579 16.1103 10.5 16.3011 10.5 16.5V19.1897L3.31031 12L10.5 4.81032V7.50001C10.5 7.69892 10.579 7.88969 10.7197 8.03034C10.8603 8.17099 11.0511 8.25001 11.25 8.25001H19.5V15.75Z" fill="#343330"/>
</svg>
