<svg width="24" height="24" viewBox="0 0 24 24" fill="none" xmlns="http://www.w3.org/2000/svg">
<path d="M21 8.25001V15.75C21 16.1478 20.842 16.5294 20.5607 16.8107C20.2794 17.092 19.8978 17.25 19.5 17.25H12V21C12.0001 21.1484 11.9562 21.2936 11.8738 21.417C11.7914 21.5404 11.6742 21.6367 11.5371 21.6935C11.4 21.7503 11.2491 21.7651 11.1035 21.7362C10.958 21.7072 10.8243 21.6356 10.7194 21.5306L1.71939 12.5306C1.64965 12.461 1.59433 12.3783 1.55659 12.2872C1.51885 12.1962 1.49942 12.0986 1.49942 12C1.49942 11.9015 1.51885 11.8039 1.55659 11.7128C1.59433 11.6218 1.64965 11.539 1.71939 11.4694L10.7194 2.46939C10.8243 2.36438 10.958 2.29285 11.1035 2.26386C11.2491 2.23488 11.4 2.24973 11.5371 2.30654C11.6742 2.36336 11.7914 2.45958 11.8738 2.58302C11.9562 2.70647 12.0001 2.85159 12 3.00001V6.75001H19.5C19.8978 6.75001 20.2794 6.90805 20.5607 7.18935C20.842 7.47066 21 7.85219 21 8.25001Z" fill="#343330"/>
</svg>
