<svg width="24" height="24" viewBox="0 0 24 24" fill="none" xmlns="http://www.w3.org/2000/svg">
<path d="M21.6928 11.5369C21.6361 11.6739 21.54 11.7911 21.4166 11.8735C21.2933 11.956 21.1483 12 21 12H17.25V19.5C17.25 19.8978 17.092 20.2794 16.8107 20.5607C16.5294 20.842 16.1478 21 15.75 21H8.25C7.85217 21 7.47064 20.842 7.18934 20.5607C6.90803 20.2794 6.75 19.8978 6.75 19.5V12H3C2.85157 12.0001 2.70645 11.9562 2.58301 11.8738C2.45956 11.7914 2.36334 11.6742 2.30653 11.5371C2.24971 11.4 2.23486 11.2491 2.26385 11.1035C2.29284 10.958 2.36436 10.8243 2.46937 10.7194L11.4694 1.71939C11.539 1.64965 11.6217 1.59433 11.7128 1.55659C11.8038 1.51885 11.9014 1.49942 12 1.49942C12.0986 1.49942 12.1962 1.51885 12.2872 1.55659C12.3783 1.59433 12.461 1.64965 12.5306 1.71939L21.5306 10.7194C21.6355 10.8243 21.7069 10.958 21.7357 11.1035C21.7646 11.249 21.7497 11.3999 21.6928 11.5369Z" fill="#343330"/>
</svg>
