<svg width="24" height="24" viewBox="0 0 24 24" fill="none" xmlns="http://www.w3.org/2000/svg">
<path d="M19.4428 10.7869C19.3861 10.9239 19.29 11.0411 19.1667 11.1235C19.0433 11.2059 18.8983 11.2499 18.75 11.25H12.75V20.25C12.75 20.4489 12.671 20.6397 12.5303 20.7803C12.3897 20.921 12.1989 21 12 21C11.8011 21 11.6103 20.921 11.4697 20.7803C11.329 20.6397 11.25 20.4489 11.25 20.25V11.25H5.25C5.10158 11.2501 4.95646 11.2062 4.83302 11.1238C4.70957 11.0414 4.61335 10.9242 4.55654 10.7871C4.49972 10.65 4.48487 10.4991 4.51386 10.3535C4.54284 10.2079 4.61437 10.0742 4.71938 9.96935L11.4694 3.21935C11.539 3.14962 11.6218 3.0943 11.7128 3.05656C11.8038 3.01882 11.9014 2.99939 12 2.99939C12.0986 2.99939 12.1962 3.01882 12.2872 3.05656C12.3783 3.0943 12.461 3.14962 12.5306 3.21935L19.2806 9.96935C19.3855 10.0743 19.4569 10.208 19.4857 10.3535C19.5146 10.499 19.4997 10.6498 19.4428 10.7869Z" fill="#343330"/>
</svg>
