<svg width="24" height="24" viewBox="0 0 24 24" fill="none" xmlns="http://www.w3.org/2000/svg">
<path d="M19.2806 14.0306L12.5306 20.7806C12.461 20.8504 12.3783 20.9057 12.2872 20.9434C12.1962 20.9812 12.0986 21.0006 12 21.0006C11.9014 21.0006 11.8038 20.9812 11.7128 20.9434C11.6217 20.9057 11.539 20.8504 11.4694 20.7806L4.71937 14.0306C4.61436 13.9257 4.54284 13.792 4.51385 13.6465C4.48486 13.5009 4.49971 13.35 4.55653 13.2129C4.61334 13.0758 4.70956 12.9586 4.83301 12.8762C4.95645 12.7938 5.10157 12.7499 5.25 12.75H11.25V3.75C11.25 3.55109 11.329 3.36032 11.4697 3.21967C11.6103 3.07902 11.8011 3 12 3C12.1989 3 12.3897 3.07902 12.5303 3.21967C12.671 3.36032 12.75 3.55109 12.75 3.75V12.75H18.75C18.8984 12.7499 19.0435 12.7938 19.167 12.8762C19.2904 12.9586 19.3866 13.0758 19.4435 13.2129C19.5003 13.35 19.5151 13.5009 19.4861 13.6465C19.4572 13.792 19.3856 13.9257 19.2806 14.0306Z" fill="#343330"/>
</svg>
