<svg width="24" height="24" viewBox="0 0 24 24" fill="none" xmlns="http://www.w3.org/2000/svg">
<path d="M15.6928 18.4631C15.7497 18.6002 15.7646 18.751 15.7357 18.8965C15.7069 19.042 15.6355 19.1757 15.5306 19.2806L12.5306 22.2806C12.461 22.3504 12.3783 22.4057 12.2872 22.4434C12.1962 22.4812 12.0986 22.5006 12 22.5006C11.9014 22.5006 11.8039 22.4812 11.7128 22.4434C11.6218 22.4057 11.539 22.3504 11.4694 22.2806L8.46939 19.2806C8.36438 19.1757 8.29285 19.0421 8.26386 18.8965C8.23488 18.7509 8.24973 18.6 8.30654 18.4629C8.36336 18.3258 8.45958 18.2086 8.58302 18.1262C8.70647 18.0438 8.85159 17.9999 9.00001 18H11.25V6.00001H9.00001C8.85159 6.00013 8.70647 5.9562 8.58302 5.8738C8.45958 5.7914 8.36336 5.67422 8.30654 5.5371C8.24973 5.39999 8.23488 5.24909 8.26386 5.10353C8.29285 4.95797 8.36438 4.82428 8.46939 4.71939L11.4694 1.71939C11.539 1.64965 11.6218 1.59433 11.7128 1.55659C11.8039 1.51885 11.9014 1.49942 12 1.49942C12.0986 1.49942 12.1962 1.51885 12.2872 1.55659C12.3783 1.59433 12.461 1.64965 12.5306 1.71939L15.5306 4.71939C15.6356 4.82428 15.7072 4.95797 15.7362 5.10353C15.7651 5.24909 15.7503 5.39999 15.6935 5.5371C15.6367 5.67422 15.5404 5.7914 15.417 5.8738C15.2936 5.9562 15.1484 6.00013 15 6.00001H12.75V18H15C15.1483 18 15.2933 18.0441 15.4167 18.1265C15.54 18.2089 15.6361 18.3261 15.6928 18.4631Z" fill="#343330"/>
</svg>
