<svg width="24" height="24" viewBox="0 0 24 24" fill="none" xmlns="http://www.w3.org/2000/svg">
<path d="M20.25 3.75H6.42469C6.16579 3.75075 5.91144 3.81816 5.68615 3.94574C5.46087 4.07333 5.27224 4.25679 5.13844 4.47844L0.856879 11.6137C0.786796 11.7304 0.749771 11.8639 0.749771 12C0.749771 12.1361 0.786796 12.2696 0.856879 12.3862L5.13844 19.5216C5.27224 19.7432 5.46087 19.9267 5.68615 20.0543C5.91144 20.1818 6.16579 20.2493 6.42469 20.25H20.25C20.6478 20.25 21.0294 20.092 21.3107 19.8107C21.592 19.5294 21.75 19.1478 21.75 18.75V5.25C21.75 4.85218 21.592 4.47064 21.3107 4.18934C21.0294 3.90804 20.6478 3.75 20.25 3.75ZM20.25 18.75H6.42469L2.37469 12L6.42469 5.25H20.25V18.75ZM9.96938 13.7194L11.6897 12L9.96938 10.2806C9.82865 10.1399 9.74959 9.94902 9.74959 9.75C9.74959 9.55098 9.82865 9.36011 9.96938 9.21937C10.1101 9.07864 10.301 8.99958 10.5 8.99958C10.699 8.99958 10.8899 9.07864 11.0306 9.21937L12.75 10.9397L14.4694 9.21937C14.5391 9.14969 14.6218 9.09442 14.7128 9.0567C14.8039 9.01899 14.9015 8.99958 15 8.99958C15.0985 8.99958 15.1961 9.01899 15.2872 9.0567C15.3782 9.09442 15.4609 9.14969 15.5306 9.21937C15.6003 9.28906 15.6556 9.37178 15.6933 9.46283C15.731 9.55387 15.7504 9.65145 15.7504 9.75C15.7504 9.84855 15.731 9.94613 15.6933 10.0372C15.6556 10.1282 15.6003 10.2109 15.5306 10.2806L13.8103 12L15.5306 13.7194C15.6003 13.7891 15.6556 13.8718 15.6933 13.9628C15.731 14.0539 15.7504 14.1515 15.7504 14.25C15.7504 14.3485 15.731 14.4461 15.6933 14.5372C15.6556 14.6282 15.6003 14.7109 15.5306 14.7806C15.4609 14.8503 15.3782 14.9056 15.2872 14.9433C15.1961 14.981 15.0985 15.0004 15 15.0004C14.9015 15.0004 14.8039 14.981 14.7128 14.9433C14.6218 14.9056 14.5391 14.8503 14.4694 14.7806L12.75 13.0603L11.0306 14.7806C10.9609 14.8503 10.8782 14.9056 10.7872 14.9433C10.6961 14.981 10.5986 15.0004 10.5 15.0004C10.4015 15.0004 10.3039 14.981 10.2128 14.9433C10.1218 14.9056 10.0391 14.8503 9.96938 14.7806C9.8997 14.7109 9.84442 14.6282 9.80671 14.5372C9.769 14.4461 9.74959 14.3485 9.74959 14.25C9.74959 14.1515 9.769 14.0539 9.80671 13.9628C9.84442 13.8718 9.8997 13.7891 9.96938 13.7194Z" fill="#343330"/>
</svg>
