<svg width="24" height="24" viewBox="0 0 24 24" fill="none" xmlns="http://www.w3.org/2000/svg">
<path d="M20.25 3.75H6.42469C6.16586 3.75111 5.91165 3.81867 5.68643 3.94622C5.4612 4.07377 5.27251 4.25703 5.13844 4.47844L0.856879 11.6137C0.786796 11.7304 0.749771 11.8639 0.749771 12C0.749771 12.1361 0.786796 12.2696 0.856879 12.3862L5.13844 19.5216C5.27244 19.743 5.46112 19.9263 5.68636 20.0539C5.9116 20.1815 6.16584 20.249 6.42469 20.25H20.25C20.6478 20.25 21.0294 20.092 21.3107 19.8107C21.592 19.5294 21.75 19.1478 21.75 18.75V5.25C21.75 4.85218 21.592 4.47064 21.3107 4.18934C21.0294 3.90804 20.6478 3.75 20.25 3.75ZM15.5306 13.7194C15.6003 13.7891 15.6556 13.8718 15.6933 13.9628C15.731 14.0539 15.7504 14.1515 15.7504 14.25C15.7504 14.3485 15.731 14.4461 15.6933 14.5372C15.6556 14.6282 15.6003 14.7109 15.5306 14.7806C15.4609 14.8503 15.3782 14.9056 15.2872 14.9433C15.1961 14.981 15.0986 15.0004 15 15.0004C14.9015 15.0004 14.8039 14.981 14.7128 14.9433C14.6218 14.9056 14.5391 14.8503 14.4694 14.7806L12.75 13.0603L11.0297 14.7806C10.889 14.9212 10.6981 15.0002 10.4992 15.0001C10.3003 15 10.1095 14.9209 9.96891 14.7802C9.8283 14.6394 9.74936 14.4486 9.74945 14.2497C9.74954 14.0507 9.82865 13.86 9.96938 13.7194L11.6897 12L9.96938 10.2806C9.82865 10.14 9.74954 9.94927 9.74945 9.75033C9.74941 9.65183 9.76876 9.55428 9.80642 9.46326C9.84408 9.37224 9.89929 9.28953 9.96891 9.21984C10.0385 9.15016 10.1212 9.09487 10.2122 9.05714C10.3032 9.0194 10.4007 8.99996 10.4992 8.99991C10.6981 8.99983 10.889 9.07877 11.0297 9.21937L12.75 10.9397L14.4694 9.21937C14.5391 9.14969 14.6218 9.09442 14.7128 9.0567C14.8039 9.01899 14.9015 8.99958 15 8.99958C15.0986 8.99958 15.1961 9.01899 15.2872 9.0567C15.3782 9.09442 15.4609 9.14969 15.5306 9.21937C15.6003 9.28906 15.6556 9.37178 15.6933 9.46283C15.731 9.55387 15.7504 9.65145 15.7504 9.75C15.7504 9.84855 15.731 9.94613 15.6933 10.0372C15.6556 10.1282 15.6003 10.2109 15.5306 10.2806L13.8103 12L15.5306 13.7194Z" fill="#343330"/>
</svg>
