<svg width="24" height="24" viewBox="0 0 24 24" fill="none" xmlns="http://www.w3.org/2000/svg">
<path d="M8.25 12C7.73083 12 7.22331 12.154 6.79163 12.4424C6.35995 12.7309 6.0235 13.1408 5.82482 13.6205C5.62614 14.1001 5.57416 14.6279 5.67544 15.1371C5.77673 15.6463 6.02674 16.1141 6.39385 16.4812C6.76096 16.8483 7.22869 17.0983 7.73789 17.1996C8.24709 17.3009 8.77489 17.2489 9.25455 17.0502C9.73421 16.8515 10.1442 16.5151 10.4326 16.0834C10.7211 15.6517 10.875 15.1442 10.875 14.625C10.875 13.9288 10.5984 13.2612 10.1062 12.7689C9.61388 12.2766 8.9462 12 8.25 12ZM8.25 15.75C8.0275 15.75 7.80999 15.6841 7.62499 15.5604C7.43998 15.4368 7.29579 15.2611 7.21064 15.0556C7.12549 14.85 7.10321 14.6238 7.14662 14.4056C7.19003 14.1873 7.29718 13.9869 7.45451 13.8295C7.61184 13.6722 7.8123 13.5651 8.03053 13.5217C8.24876 13.4782 8.47496 13.5005 8.68052 13.5857C8.88609 13.6708 9.06179 13.815 9.18541 14C9.30903 14.185 9.375 14.4025 9.375 14.625C9.375 14.9234 9.25648 15.2095 9.0455 15.4205C8.83452 15.6315 8.54837 15.75 8.25 15.75ZM23.25 11.25H20.9719C20.7804 8.73469 19.6215 6.39144 17.7386 4.71263C15.8558 3.03382 13.3955 2.15013 10.8747 2.24722C8.35398 2.34431 5.96897 3.41463 4.22081 5.2333C2.47264 7.05197 1.49741 9.47741 1.50001 12V14.25C1.50199 16.0396 2.21379 17.7554 3.47923 19.0208C4.74467 20.2863 6.4604 20.998 8.25 21H12C13.7896 20.998 15.5053 20.2863 16.7708 19.0208C18.0362 17.7554 18.748 16.0396 18.75 14.25V12.75H23.25C23.4489 12.75 23.6397 12.671 23.7803 12.5304C23.921 12.3897 24 12.1989 24 12C24 11.8011 23.921 11.6104 23.7803 11.4697C23.6397 11.3291 23.4489 11.25 23.25 11.25ZM17.25 14.25C17.2486 15.5521 16.764 16.8072 15.89 17.7723C15.016 18.7374 13.8149 19.3437 12.5194 19.4738C13.2947 18.8418 13.9195 18.0451 14.3486 17.1416C14.7777 16.238 15.0002 15.2503 15 14.25V12.75H17.25V14.25ZM14.25 11.25C14.0511 11.25 13.8603 11.3291 13.7197 11.4697C13.579 11.6104 13.5 11.8011 13.5 12V14.25C13.5 15.6424 12.9469 16.9778 11.9623 17.9623C10.9777 18.9469 9.64239 19.5 8.25 19.5C6.85762 19.5 5.52226 18.9469 4.53769 17.9623C3.55313 16.9778 3.00001 15.6424 3.00001 14.25V12C2.99884 9.8762 3.81678 7.83373 5.28357 6.29777C6.75036 4.7618 8.75299 3.85068 10.8746 3.75404C12.9963 3.65741 15.0734 4.38271 16.6738 5.77897C18.2741 7.17523 19.2743 9.13489 19.4663 11.25H14.25Z" fill="#343330"/>
</svg>
