<svg width="24" height="24" viewBox="0 0 24 24" fill="none" xmlns="http://www.w3.org/2000/svg">
<path d="M12.75 11.2501V16.5001C12.75 16.699 12.671 16.8897 12.5303 17.0304C12.3897 17.171 12.1989 17.2501 12 17.2501C11.8011 17.2501 11.6103 17.171 11.4697 17.0304C11.329 16.8897 11.25 16.699 11.25 16.5001V11.2501C11.25 11.0511 11.329 10.8604 11.4697 10.7197C11.6103 10.5791 11.8011 10.5001 12 10.5001C12.1989 10.5001 12.3897 10.5791 12.5303 10.7197C12.671 10.8604 12.75 11.0511 12.75 11.2501ZM16.2038 11.1751L15.6788 16.4251C15.6684 16.5234 15.6775 16.6227 15.7057 16.7175C15.7339 16.8122 15.7805 16.9005 15.8428 16.9771C15.9052 17.0538 15.9821 17.1174 16.0692 17.1642C16.1562 17.2111 16.2517 17.2402 16.35 17.2501C16.3753 17.2515 16.4006 17.2515 16.4259 17.2501C16.6117 17.2498 16.7908 17.1807 16.9285 17.056C17.0662 16.9313 17.1527 16.7599 17.1713 16.5751L17.6963 11.3251C17.7161 11.1271 17.6566 10.9294 17.5307 10.7754C17.4048 10.6214 17.2229 10.5237 17.025 10.5038C16.8271 10.4839 16.6294 10.5435 16.4754 10.6693C16.3213 10.7952 16.2236 10.9771 16.2038 11.1751ZM7.79625 11.1751C7.77636 10.9771 7.67866 10.7952 7.52465 10.6693C7.37064 10.5435 7.17292 10.4839 6.975 10.5038C6.77709 10.5237 6.59518 10.6214 6.46929 10.7754C6.34341 10.9294 6.28386 11.1271 6.30375 11.3251L6.82875 16.5751C6.84741 16.7607 6.93459 16.9327 7.07327 17.0575C7.21195 17.1824 7.39218 17.251 7.57875 17.2501C7.60405 17.2515 7.6294 17.2515 7.65469 17.2501C7.75269 17.2402 7.84779 17.2112 7.93456 17.1646C8.02133 17.118 8.09807 17.0547 8.16041 16.9785C8.22274 16.9022 8.26944 16.8144 8.29784 16.7201C8.32624 16.6258 8.33579 16.5268 8.32594 16.4288L7.79625 11.1751ZM22.4934 8.34943L21.0806 18.9488C21.0313 19.3085 20.8537 19.6383 20.5805 19.8775C20.3073 20.1166 19.9568 20.2489 19.5938 20.2501H4.40625C4.04317 20.2489 3.69274 20.1166 3.41951 19.8775C3.14628 19.6383 2.96866 19.3085 2.91938 18.9488L1.50657 8.34943C1.4924 8.24349 1.50105 8.13574 1.53193 8.03341C1.56281 7.93107 1.6152 7.83652 1.6856 7.75609C1.756 7.67566 1.84278 7.61121 1.94012 7.56705C2.03746 7.52289 2.14312 7.50005 2.25 7.50006H6.40969L11.4375 1.756C11.5079 1.67619 11.5944 1.61228 11.6914 1.5685C11.7884 1.52472 11.8936 1.50208 12 1.50208C12.1064 1.50208 12.2116 1.52472 12.3086 1.5685C12.4056 1.61228 12.4921 1.67619 12.5625 1.756L17.5903 7.50006H21.75C21.8569 7.50005 21.9625 7.52289 22.0599 7.56705C22.1572 7.61121 22.244 7.67566 22.3144 7.75609C22.3848 7.83652 22.4372 7.93107 22.4681 8.03341C22.499 8.13574 22.5076 8.24349 22.4934 8.34943ZM8.40282 7.50006H15.5972L12 3.38912L8.40282 7.50006ZM20.8931 9.00006H3.10688L4.40625 18.7501H19.5938L20.8931 9.00006Z" fill="#343330"/>
</svg>
