<svg width="24" height="24" viewBox="0 0 24 24" fill="none" xmlns="http://www.w3.org/2000/svg">
<path d="M20.7975 18C20.7836 18.0239 20.7642 18.0441 20.7409 18.059C20.7177 18.0739 20.6912 18.083 20.6636 18.0856C20.6361 18.0882 20.6084 18.0841 20.5828 18.0738C20.5571 18.0635 20.5343 18.0472 20.5163 18.0263L7.80656 4.04906C7.77084 4.00879 7.7442 3.96129 7.72847 3.90979C7.71273 3.8583 7.70827 3.80403 7.71539 3.75066C7.72251 3.69729 7.74103 3.64608 7.76971 3.60051C7.79838 3.55494 7.83653 3.51607 7.88156 3.48656C9.13427 2.65803 10.608 2.22704 12.1097 2.25C16.2188 2.31188 19.4813 5.72813 19.5 9.83625C19.5131 13.1063 20.2791 15.6056 20.7956 16.4925C20.93 16.7209 21.001 16.981 21.0013 17.246C21.0017 17.511 20.9313 17.7713 20.7975 18ZM20.055 19.7456C20.1888 19.8929 20.2585 20.0874 20.249 20.2861C20.2394 20.4849 20.1512 20.6717 20.0039 20.8055C19.8566 20.9392 19.6622 21.009 19.4634 20.9994C19.2646 20.9898 19.0778 20.9017 18.9441 20.7544L17.1206 18.75H15.6713C15.4996 19.5982 15.0398 20.361 14.3699 20.9089C13.7 21.4567 12.8612 21.7561 11.9958 21.7561C11.1304 21.7561 10.2916 21.4567 9.62168 20.9089C8.95178 20.361 8.492 19.5982 8.32031 18.75H4.49156C4.23581 18.7516 3.98399 18.687 3.76069 18.5622C3.53739 18.4375 3.35024 18.2571 3.2175 18.0384C3.07654 17.8023 3.00141 17.5327 2.99993 17.2577C2.99845 16.9827 3.07066 16.7123 3.20906 16.4747C3.72938 15.5625 4.49344 13.0397 4.49344 9.75C4.49241 8.42715 4.84384 7.1279 5.51156 5.98594L3.9375 4.25438C3.86988 4.18173 3.81734 4.09639 3.78294 4.00329C3.74854 3.9102 3.73296 3.8112 3.73711 3.71204C3.74125 3.61288 3.76503 3.51552 3.80708 3.42562C3.84912 3.33572 3.90859 3.25506 3.98204 3.18831C4.05549 3.12156 4.14146 3.07005 4.23496 3.03677C4.32846 3.00349 4.42764 2.9891 4.52674 2.99443C4.62585 2.99976 4.72291 3.02471 4.8123 3.06783C4.90169 3.11095 4.98164 3.17138 5.0475 3.24563L20.055 19.7456ZM14.1178 18.75H9.87375C10.0286 19.1892 10.3158 19.5695 10.6959 19.8385C11.0759 20.1075 11.5301 20.252 11.9958 20.252C12.4614 20.252 12.9156 20.1075 13.2957 19.8385C13.6758 19.5695 13.963 19.1892 14.1178 18.75Z" fill="#343330"/>
</svg>
