<svg width="24" height="24" viewBox="0 0 24 24" fill="none" xmlns="http://www.w3.org/2000/svg">
<path d="M5.05501 3.24563C4.98915 3.17138 4.9092 3.11095 4.81981 3.06783C4.73042 3.02471 4.63336 2.99976 4.53425 2.99443C4.43515 2.9891 4.33597 3.00349 4.24247 3.03677C4.14897 3.07005 4.063 3.12156 3.98955 3.18831C3.9161 3.25506 3.85663 3.33572 3.81459 3.42562C3.77254 3.51552 3.74876 3.61288 3.74462 3.71204C3.74047 3.8112 3.75605 3.9102 3.79045 4.00329C3.82485 4.09639 3.87739 4.18173 3.94501 4.25438L5.51439 5.98125C4.84788 7.12526 4.49778 8.426 4.50001 9.75C4.50001 13.0631 3.72564 15.5981 3.20532 16.4944C3.07245 16.7222 3.00201 16.9811 3.00111 17.2449C3.0002 17.5086 3.06886 17.768 3.20017 17.9967C3.33147 18.2255 3.52077 18.4156 3.74899 18.5478C3.9772 18.6801 4.23625 18.7498 4.50001 18.75H8.32501C8.49715 19.5977 8.95706 20.3599 9.62682 20.9073C10.2966 21.4547 11.135 21.7538 12 21.7538C12.865 21.7538 13.7034 21.4547 14.3732 20.9073C15.043 20.3599 15.5029 19.5977 15.675 18.75H17.1225L18.945 20.7544C19.0109 20.8286 19.0908 20.8891 19.1802 20.9322C19.2696 20.9753 19.3667 21.0002 19.4658 21.0056C19.5649 21.0109 19.6641 20.9965 19.7576 20.9632C19.8511 20.93 19.937 20.8784 20.0105 20.8117C20.0839 20.7449 20.1434 20.6643 20.1854 20.5744C20.2275 20.4845 20.2513 20.3871 20.2554 20.288C20.2595 20.1888 20.244 20.0898 20.2096 19.9967C20.1752 19.9036 20.1226 19.8183 20.055 19.7456L5.05501 3.24563ZM12 20.25C11.5348 20.2499 11.0812 20.1055 10.7014 19.8369C10.3216 19.5683 10.0344 19.1886 9.87939 18.75H14.1206C13.9656 19.1886 13.6784 19.5683 13.2986 19.8369C12.9189 20.1055 12.4652 20.2499 12 20.25ZM4.50001 17.25C5.22189 16.0088 6.00001 13.1325 6.00001 9.75C5.9987 8.85376 6.19929 7.96873 6.58689 7.16063L15.7584 17.25H4.50001ZM20.0625 16.8066C19.9749 16.8405 19.8818 16.858 19.7878 16.8581C19.6372 16.858 19.4901 16.8125 19.3657 16.7275C19.2413 16.6426 19.1453 16.5221 19.0903 16.3819C18.4078 14.6428 18 12.1641 18 9.75C18.0003 8.70057 17.7254 7.66942 17.2026 6.75946C16.6798 5.8495 15.9276 5.09257 15.0208 4.56421C14.1141 4.03586 13.0847 3.75455 12.0353 3.74839C10.9859 3.74222 9.95319 4.0114 9.04032 4.52906C8.86771 4.62259 8.66531 4.64471 8.47657 4.59067C8.28784 4.53663 8.12781 4.41074 8.03086 4.24003C7.93391 4.06932 7.90776 3.8674 7.95802 3.67762C8.00829 3.48784 8.13096 3.32534 8.2997 3.225C9.44071 2.5778 10.7315 2.24118 12.0433 2.24875C13.3551 2.25632 14.6419 2.60781 15.7754 3.26814C16.9088 3.92847 17.8493 4.87454 18.5029 6.01192C19.1564 7.1493 19.5002 8.43821 19.5 9.75C19.5 13.0641 20.2547 15.2428 20.4863 15.8325C20.559 16.0176 20.5552 16.224 20.4757 16.4063C20.3962 16.5887 20.2476 16.7319 20.0625 16.8047V16.8066Z" fill="#343330"/>
</svg>
