<svg width="24" height="24" viewBox="0 0 24 24" fill="none" xmlns="http://www.w3.org/2000/svg">
<path d="M21 6.66563C20.8234 6.75705 20.6178 6.77464 20.4283 6.71452C20.2388 6.65439 20.0809 6.52149 19.9894 6.34501C19.2735 4.93078 18.1899 3.73548 16.8525 2.88469C16.7691 2.83212 16.697 2.76365 16.6401 2.68319C16.5832 2.60272 16.5427 2.51184 16.5209 2.41573C16.4992 2.31963 16.4966 2.22017 16.5132 2.12305C16.5299 2.02593 16.5655 1.93304 16.6181 1.84969C16.6707 1.76635 16.7392 1.69417 16.8196 1.63728C16.9001 1.5804 16.991 1.53991 17.0871 1.51815C17.1832 1.49639 17.2826 1.49377 17.3798 1.51044C17.4769 1.52711 17.5698 1.56275 17.6531 1.61532C19.2118 2.61332 20.4774 4.00741 21.3206 5.65501C21.412 5.83156 21.4296 6.03718 21.3695 6.22669C21.3094 6.41619 21.1765 6.57408 21 6.66563ZM3.3478 6.75001C3.4852 6.74995 3.61995 6.71215 3.73733 6.64073C3.85471 6.5693 3.95022 6.46701 4.01343 6.34501C4.7293 4.93078 5.81288 3.73548 7.1503 2.88469C7.31863 2.77852 7.43789 2.60984 7.48184 2.41573C7.5258 2.22163 7.49084 2.01802 7.38468 1.84969C7.27851 1.68136 7.10982 1.5621 6.91572 1.51815C6.72162 1.4742 6.518 1.50915 6.34968 1.61532C4.79099 2.61332 3.52534 4.00741 2.68218 5.65501C2.62296 5.76931 2.59416 5.89692 2.59855 6.02557C2.60294 6.15423 2.64037 6.27958 2.70723 6.38958C2.7741 6.49958 2.86815 6.59052 2.98034 6.65364C3.09253 6.71677 3.21907 6.74995 3.3478 6.75001ZM20.7947 16.4944C20.9275 16.7222 20.998 16.9811 20.9989 17.2449C20.9998 17.5086 20.9311 17.768 20.7998 17.9967C20.6685 18.2255 20.4792 18.4156 20.251 18.5478C20.0228 18.6801 19.7638 18.7498 19.5 18.75H15.675C15.5029 19.5977 15.0429 20.3599 14.3732 20.9073C13.7034 21.4547 12.865 21.7538 12 21.7538C11.135 21.7538 10.2966 21.4547 9.62679 20.9073C8.95704 20.3599 8.49712 19.5977 8.32499 18.75H4.49999C4.23638 18.7495 3.97757 18.6795 3.74962 18.5471C3.52167 18.4147 3.33263 18.2246 3.20155 17.9959C3.07047 17.7672 3.00197 17.508 3.00296 17.2444C3.00395 16.9808 3.07438 16.7221 3.20717 16.4944C4.05186 15.0366 4.49999 12.9638 4.49999 10.5C4.49999 8.51088 5.29016 6.60323 6.69669 5.19671C8.10321 3.79018 10.0109 3.00001 12 3.00001C13.9891 3.00001 15.8968 3.79018 17.3033 5.19671C18.7098 6.60323 19.5 8.51088 19.5 10.5C19.5 12.9628 19.9481 15.0356 20.7947 16.4944ZM14.1206 18.75H9.87936C10.0347 19.1882 10.3221 19.5675 10.7018 19.8358C11.0815 20.104 11.5351 20.248 12 20.248C12.4649 20.248 12.9184 20.104 13.2982 19.8358C13.6779 19.5675 13.9652 19.1882 14.1206 18.75ZM19.5 17.25C18.5025 15.5372 18 13.2666 18 10.5C18 8.90871 17.3678 7.38258 16.2426 6.25737C15.1174 5.13215 13.5913 4.50001 12 4.50001C10.4087 4.50001 8.88257 5.13215 7.75735 6.25737C6.63213 7.38258 5.99999 8.90871 5.99999 10.5C5.99999 13.2675 5.49561 15.5381 4.49999 17.25H19.5Z" fill="#343330"/>
</svg>
