<svg width="24" height="24" viewBox="0 0 24 24" fill="none" xmlns="http://www.w3.org/2000/svg">
<path d="M21 6.66563C20.8235 6.75706 20.6178 6.77464 20.4283 6.71452C20.2388 6.65439 20.0809 6.52149 19.9894 6.34501C19.2735 4.93078 18.1899 3.73548 16.8525 2.88469C16.7692 2.83212 16.697 2.76365 16.6401 2.68319C16.5832 2.60272 16.5427 2.51184 16.521 2.41573C16.4992 2.31963 16.4966 2.22017 16.5132 2.12305C16.5299 2.02593 16.5656 1.93304 16.6181 1.84969C16.6707 1.76635 16.7392 1.69417 16.8196 1.63728C16.9001 1.5804 16.991 1.53991 17.0871 1.51815C17.1832 1.49639 17.2827 1.49377 17.3798 1.51044C17.4769 1.52711 17.5698 1.56275 17.6531 1.61532C19.2118 2.61332 20.4775 4.00741 21.3206 5.65501C21.4121 5.83156 21.4296 6.03718 21.3695 6.22669C21.3094 6.41619 21.1765 6.57408 21 6.66563ZM3.34782 6.75001C3.48522 6.74995 3.61996 6.71215 3.73735 6.64073C3.85473 6.5693 3.95024 6.46701 4.01344 6.34501C4.72932 4.93078 5.81289 3.73548 7.15032 2.88469C7.31864 2.77852 7.4379 2.60984 7.48186 2.41573C7.52581 2.22163 7.49086 2.01802 7.38469 1.84969C7.27852 1.68136 7.10983 1.5621 6.91573 1.51815C6.72163 1.4742 6.51802 1.50915 6.34969 1.61532C4.79101 2.61332 3.52536 4.00741 2.68219 5.65501C2.62298 5.76931 2.59418 5.89692 2.59857 6.02557C2.60295 6.15423 2.64038 6.27958 2.70725 6.38958C2.77411 6.49958 2.86817 6.59052 2.98035 6.65364C3.09254 6.71677 3.21909 6.74995 3.34782 6.75001ZM20.7947 16.4944C20.9276 16.7222 20.998 16.9811 20.9989 17.2449C20.9998 17.5086 20.9312 17.768 20.7998 17.9967C20.6685 18.2255 20.4792 18.4156 20.251 18.5478C20.0228 18.6801 19.7638 18.7498 19.5 18.75H15.675C15.5029 19.5977 15.043 20.3599 14.3732 20.9073C13.7034 21.4547 12.865 21.7538 12 21.7538C11.135 21.7538 10.2966 21.4547 9.62681 20.9073C8.95705 20.3599 8.49714 19.5977 8.325 18.75H4.5C4.2364 18.7495 3.97758 18.6795 3.74963 18.5471C3.52168 18.4147 3.33265 18.2246 3.20156 17.9959C3.07048 17.7672 3.00199 17.508 3.00297 17.2444C3.00396 16.9808 3.0744 16.7221 3.20719 16.4944C4.05188 15.0366 4.5 12.9638 4.5 10.5C4.5 8.51088 5.29018 6.60323 6.6967 5.19671C8.10322 3.79018 10.0109 3.00001 12 3.00001C13.9891 3.00001 15.8968 3.79018 17.3033 5.19671C18.7098 6.60323 19.5 8.51088 19.5 10.5C19.5 12.9628 19.9481 15.0356 20.7947 16.4944ZM14.1206 18.75H9.87938C10.0348 19.1882 10.3221 19.5675 10.7018 19.8358C11.0816 20.104 11.5351 20.248 12 20.248C12.4649 20.248 12.9185 20.104 13.2982 19.8358C13.6779 19.5675 13.9652 19.1882 14.1206 18.75Z" fill="#343330"/>
</svg>
