<svg width="24" height="24" viewBox="0 0 24 24" fill="none" xmlns="http://www.w3.org/2000/svg">
<path d="M22.1662 6.87563L19.9884 5.42438C19.6272 4.28538 18.9126 3.29102 17.9482 2.58542C16.9839 1.87982 15.8199 1.49964 14.625 1.5H14.5978C11.5116 1.515 9 4.07531 9 7.20844V9.05906L1.09031 18.5513L1.08093 18.5625C0.904408 18.783 0.793718 19.0488 0.7616 19.3294C0.729482 19.61 0.777241 19.894 0.899383 20.1487C1.02152 20.4033 1.21308 20.6183 1.45202 20.769C1.69095 20.9196 1.96756 20.9996 2.25 21H10.5C13.085 20.9973 15.5634 19.9692 17.3913 18.1413C19.2192 16.3134 20.2473 13.835 20.25 11.25V9.40125L22.1662 8.12438C22.2691 8.05591 22.3535 7.96309 22.4118 7.85416C22.4702 7.74523 22.5007 7.62357 22.5007 7.5C22.5007 7.37643 22.4702 7.25477 22.4118 7.14584C22.3535 7.03691 22.2691 6.94409 22.1662 6.87563ZM11.8266 12.48L6.20156 19.23C6.13923 19.3079 6.06201 19.3725 5.9744 19.4201C5.88679 19.4678 5.79056 19.4975 5.69133 19.5075C5.59211 19.5175 5.49189 19.5076 5.39652 19.4784C5.30116 19.4493 5.21258 19.4013 5.13597 19.3375C5.05935 19.2737 4.99623 19.1952 4.95031 19.1067C4.90438 19.0181 4.87658 18.9213 4.86851 18.8219C4.86045 18.7225 4.87229 18.6225 4.90335 18.5277C4.9344 18.433 4.98404 18.3454 5.04937 18.27L10.6744 11.52C10.7367 11.4421 10.8139 11.3775 10.9015 11.3299C10.9891 11.2822 11.0854 11.2525 11.1846 11.2425C11.2838 11.2325 11.384 11.2424 11.4794 11.2716C11.5748 11.3007 11.6633 11.3487 11.74 11.4125C11.8166 11.4763 11.8797 11.5548 11.9256 11.6433C11.9715 11.7319 11.9994 11.8287 12.0074 11.9281C12.0155 12.0275 12.0036 12.1275 11.9726 12.2223C11.9415 12.317 11.8919 12.4046 11.8266 12.48ZM15.375 7.5C15.1525 7.5 14.935 7.43402 14.75 7.3104C14.565 7.18679 14.4208 7.01109 14.3356 6.80552C14.2505 6.59995 14.2282 6.37375 14.2716 6.15552C14.315 5.93729 14.4222 5.73684 14.5795 5.5795C14.7368 5.42217 14.9373 5.31503 15.1555 5.27162C15.3738 5.22821 15.5999 5.25049 15.8055 5.33564C16.0111 5.42078 16.1868 5.56498 16.3104 5.74998C16.434 5.93499 16.5 6.1525 16.5 6.375C16.5 6.67337 16.3815 6.95952 16.1705 7.1705C15.9595 7.38147 15.6734 7.5 15.375 7.5Z" fill="#343330"/>
</svg>
