<svg width="24" height="24" viewBox="0 0 24 24" fill="none" xmlns="http://www.w3.org/2000/svg">
<path d="M23.25 3C23.0511 3 22.8603 3.07902 22.7197 3.21967C22.579 3.36032 22.5 3.55109 22.5 3.75C22.4815 4.30846 22.3683 4.85973 22.1653 5.38031C21.7856 6.30188 21.1594 6.75 20.25 6.75C19.2131 6.75 18.4828 5.835 17.4853 4.43906C16.5 3.06187 15.3862 1.5 13.5 1.5C11.9634 1.5 10.7812 2.33344 10.1784 3.84375C10.0018 4.29653 9.87909 4.76853 9.81281 5.25H8.25C7.85217 5.25 7.47064 5.40804 7.18934 5.68934C6.90803 5.97064 6.75 6.35218 6.75 6.75V7.64906C5.09845 8.4905 3.77836 9.86358 3.00256 11.547C2.22676 13.2303 2.04043 15.1259 2.47363 16.9281C2.90683 18.7304 3.93431 20.3342 5.39042 21.4811C6.84654 22.628 8.64645 23.2511 10.5 23.25H10.6491C12.49 23.2183 14.2674 22.5718 15.6985 21.4132C17.1295 20.2547 18.1318 18.6507 18.5459 16.8567C18.96 15.0626 18.762 13.1816 17.9836 11.5131C17.2051 9.84454 15.8908 8.48436 14.25 7.64906V6.75C14.25 6.35218 14.092 5.97064 13.8107 5.68934C13.5294 5.40804 13.1478 5.25 12.75 5.25H11.3325C11.3857 4.9492 11.4702 4.65479 11.5847 4.37156C11.9644 3.44813 12.5906 3 13.5 3C14.5369 3 15.2672 3.915 16.2647 5.31094C17.25 6.68813 18.3637 8.25 20.25 8.25C21.7866 8.25 22.9687 7.41656 23.5716 5.90625C23.8369 5.21737 23.9818 4.48799 24 3.75C24 3.55109 23.921 3.36032 23.7803 3.21967C23.6397 3.07902 23.4489 3 23.25 3ZM13.2 8.8125C14.6213 9.4328 15.7856 10.5236 16.4973 11.9014C17.2089 13.2792 17.4244 14.86 17.1076 16.3781C16.7908 17.8961 15.9609 19.2588 14.7576 20.2369C13.5542 21.215 12.0507 21.749 10.5 21.749C8.94925 21.749 7.4458 21.215 6.24244 20.2369C5.03908 19.2588 4.20921 17.8961 3.89238 16.3781C3.57555 14.86 3.79107 13.2792 4.50272 11.9014C5.21436 10.5236 6.37872 9.4328 7.8 8.8125C7.93386 8.75408 8.04776 8.65784 8.1277 8.5356C8.20764 8.41336 8.25014 8.27043 8.25 8.12438V6.75H12.75V8.12438C12.7499 8.27043 12.7924 8.41336 12.8723 8.5356C12.9522 8.65784 13.0661 8.75408 13.2 8.8125ZM10.4897 19.6238C10.4604 19.7988 10.37 19.9577 10.2346 20.0724C10.0992 20.1871 9.92745 20.25 9.75 20.25C9.70823 20.2498 9.66654 20.2464 9.62531 20.2397C8.53801 20.0468 7.53619 19.5246 6.75534 18.7437C5.9745 17.9629 5.4523 16.9611 5.25937 15.8738C5.24212 15.7762 5.24437 15.6762 5.26599 15.5795C5.28761 15.4828 5.32817 15.3913 5.38533 15.3104C5.4425 15.2295 5.51513 15.1607 5.59903 15.108C5.68293 15.0553 5.77644 15.0198 5.87416 15.0034C5.97188 14.9871 6.07187 14.9902 6.16835 15.0128C6.26483 15.0353 6.3559 15.0767 6.43629 15.1346C6.51668 15.1925 6.5848 15.2658 6.63671 15.3502C6.68863 15.4345 6.72331 15.5284 6.73875 15.6262C6.87742 16.4067 7.25233 17.1257 7.81283 17.6862C8.37332 18.2467 9.09237 18.6216 9.87281 18.7603C9.97003 18.7765 10.0631 18.8116 10.1467 18.8637C10.2304 18.9159 10.3029 18.984 10.3602 19.0642C10.4175 19.1444 10.4584 19.2351 10.4806 19.3311C10.5028 19.4271 10.5059 19.5265 10.4897 19.6238Z" fill="#343330"/>
</svg>
