<svg width="24" height="24" viewBox="0 0 24 24" fill="none" xmlns="http://www.w3.org/2000/svg">
<path d="M21.6675 10.0987C21.1402 10.7037 20.4141 11.1004 19.6201 11.2172C18.8261 11.3341 18.0165 11.1635 17.3372 10.7362C17.3342 10.7351 17.3308 10.7351 17.3278 10.7362L10.7325 17.3325C10.7325 17.3325 10.7325 17.3325 10.7325 17.34C10.9997 17.7704 11.1666 18.2555 11.2208 18.7593C11.2749 19.263 11.215 19.7725 11.0454 20.2499C10.8758 20.7273 10.6009 21.1604 10.241 21.5171C9.8812 21.8737 9.44568 22.1448 8.96679 22.3102C8.48789 22.4756 7.97791 22.531 7.47466 22.4724C6.97141 22.4138 6.48782 22.2426 6.05975 21.9716C5.63169 21.7006 5.27013 21.3367 5.0019 20.9069C4.73367 20.477 4.56565 19.9923 4.51031 19.4887C4.0067 19.4334 3.522 19.2654 3.09218 18.9971C2.66236 18.7289 2.29844 18.3674 2.02743 17.9393C1.75641 17.5112 1.58524 17.0276 1.52663 16.5244C1.46801 16.0211 1.52345 15.5111 1.68883 15.0322C1.85421 14.5534 2.12529 14.1178 2.48196 13.758C2.83863 13.3982 3.27173 13.1233 3.74915 12.9536C4.22657 12.784 4.73604 12.7241 5.23979 12.7783C5.74353 12.8324 6.22862 12.9993 6.65906 13.2665C6.66208 13.2677 6.66542 13.2677 6.66844 13.2665L13.2637 6.67029C13.2637 6.67029 13.2637 6.67029 13.2637 6.66279C12.9965 6.23234 12.8296 5.74726 12.7755 5.24351C12.7213 4.73977 12.7813 4.23029 12.9509 3.75287C13.1205 3.27546 13.3954 2.84235 13.7552 2.48568C14.115 2.12902 14.5506 1.85794 15.0295 1.69256C15.5084 1.52718 16.0183 1.47174 16.5216 1.53035C17.0248 1.58897 17.5084 1.76013 17.9365 2.03115C18.3646 2.30217 18.7261 2.66608 18.9944 3.09591C19.2626 3.52573 19.4306 4.01042 19.4859 4.51404C20.1015 4.57883 20.6874 4.81166 21.1795 5.18705C21.6716 5.56244 22.0511 6.06594 22.2763 6.64248C22.5015 7.21901 22.5638 7.84638 22.4565 8.45595C22.3491 9.06553 22.0761 9.63384 21.6675 10.0987Z" fill="#343330"/>
</svg>
