<svg width="24" height="24" viewBox="0 0 24 24" fill="none" xmlns="http://www.w3.org/2000/svg">
<path d="M21.8156 4.7325C21.4687 4.28437 20.7975 3.75 19.5937 3.75C18.0141 3.75 15.9881 4.8075 14.1741 6.5775C13.6554 7.08022 13.1791 7.62488 12.75 8.20594V5.25C12.75 5.05109 12.671 4.86032 12.5303 4.71967C12.3897 4.57902 12.1989 4.5 12 4.5C11.8011 4.5 11.6103 4.57902 11.4697 4.71967C11.329 4.86032 11.25 5.05109 11.25 5.25V8.20594C10.8221 7.62503 10.3471 7.08037 9.82968 6.5775C8.01468 4.8075 5.98875 3.75 4.40625 3.75C3.2025 3.75 2.53125 4.28437 2.18437 4.7325C1.545 5.55469 1.0425 6.99 2.16468 11.4075C2.73187 13.6416 3.99375 14.5012 5.03625 14.8219C4.46773 15.745 4.2855 16.8549 4.52899 17.9113C4.77247 18.9678 5.42209 19.886 6.33731 20.4672C7.25253 21.0483 8.35977 21.2459 9.4195 21.017C10.4792 20.7881 11.4062 20.1512 12 19.2441C12.5938 20.1512 13.5208 20.7881 14.5805 21.017C15.6402 21.2459 16.7475 21.0483 17.6627 20.4672C18.5779 19.886 19.2275 18.9678 19.471 17.9113C19.7145 16.8549 19.5323 15.745 18.9637 14.8219C20.0062 14.5031 21.2672 13.6416 21.8353 11.4075C22.4653 8.92875 22.9547 6.19687 21.8156 4.7325ZM8.625 19.5C7.95945 19.4883 7.32296 19.2253 6.84332 18.7638C6.36367 18.3022 6.07637 17.6763 6.0391 17.0117C6.00184 16.3471 6.21736 15.693 6.64241 15.1808C7.06746 14.6685 7.67056 14.336 8.33062 14.25C8.4299 14.2409 8.52637 14.2121 8.61439 14.1653C8.70241 14.1185 8.78022 14.0546 8.84326 13.9774C8.90631 13.9002 8.95332 13.8112 8.98156 13.7156C9.0098 13.62 9.0187 13.5197 9.00773 13.4206C8.99676 13.3215 8.96615 13.2256 8.91769 13.1385C8.86922 13.0514 8.80387 12.9748 8.72546 12.9132C8.64706 12.8517 8.55716 12.8064 8.46104 12.7799C8.36491 12.7535 8.26448 12.7465 8.16562 12.7594C7.4645 12.8346 6.79472 13.0897 6.22125 13.5C5.43093 13.5084 4.15875 13.1653 3.61875 11.0381C3.34875 9.97406 2.53125 6.73687 3.36937 5.65312C3.50343 5.48062 3.75843 5.25 4.40625 5.25C6.96281 5.25 11.25 9.4575 11.25 11.9691V16.875C11.25 17.5712 10.9734 18.2389 10.4812 18.7312C9.98887 19.2234 9.32119 19.5 8.625 19.5ZM20.3812 11.0381C19.8403 13.1653 18.5691 13.5075 17.7778 13.5C17.2049 13.0879 16.535 12.8311 15.8334 12.7547C15.7346 12.7418 15.6341 12.7488 15.538 12.7752C15.4419 12.8017 15.352 12.847 15.2736 12.9085C15.1952 12.9701 15.1298 13.0467 15.0814 13.1338C15.0329 13.2209 15.0023 13.3168 14.9913 13.4159C14.9804 13.515 14.9893 13.6153 15.0175 13.7109C15.0457 13.8065 15.0927 13.8955 15.1558 13.9727C15.2188 14.05 15.2966 14.1138 15.3847 14.1606C15.4727 14.2074 15.5692 14.2362 15.6684 14.2453C16.1742 14.3 16.6534 14.4999 17.0481 14.8208C17.4427 15.1418 17.7361 15.5702 17.8927 16.0542C18.0493 16.5383 18.0624 17.0573 17.9305 17.5486C17.7986 18.0399 17.5273 18.4826 17.1494 18.8231C16.7714 19.1637 16.303 19.3876 15.8006 19.4677C15.2983 19.5479 14.7834 19.481 14.3183 19.275C13.8531 19.069 13.4575 18.7328 13.1792 18.3069C12.9009 17.881 12.7519 17.3837 12.75 16.875V11.9691C12.75 9.4575 17.0334 5.25 19.5937 5.25C20.2453 5.25 20.4994 5.48062 20.6344 5.65312C21.4734 6.73687 20.6512 9.97406 20.3812 11.0381Z" fill="#343330"/>
</svg>
