<svg width="24" height="24" viewBox="0 0 24 24" fill="none" xmlns="http://www.w3.org/2000/svg">
<path d="M20.1928 12.4631C20.2497 12.6002 20.2646 12.751 20.2357 12.8965C20.2069 13.042 20.1355 13.1757 20.0306 13.2806L12.5306 20.7806C12.461 20.8504 12.3783 20.9057 12.2872 20.9434C12.1962 20.9812 12.0986 21.0006 12 21.0006C11.9014 21.0006 11.8038 20.9812 11.7128 20.9434C11.6218 20.9057 11.539 20.8504 11.4694 20.7806L3.96938 13.2806C3.86437 13.1757 3.79284 13.042 3.76386 12.8965C3.73487 12.7509 3.74972 12.6 3.80654 12.4629C3.86335 12.3258 3.95957 12.2086 4.08302 12.1262C4.20646 12.0438 4.35158 11.9999 4.5 12H10.1897L3.96938 5.78063C3.86437 5.67573 3.79284 5.54204 3.76386 5.39648C3.73487 5.25092 3.74972 5.10002 3.80654 4.96291C3.86335 4.82579 3.95957 4.70861 4.08302 4.62621C4.20646 4.54381 4.35158 4.49988 4.5 4.5H19.5C19.6484 4.49988 19.7935 4.54381 19.917 4.62621C20.0404 4.70861 20.1367 4.82579 20.1935 4.96291C20.2503 5.10002 20.2651 5.25092 20.2362 5.39648C20.2072 5.54204 20.1356 5.67573 20.0306 5.78063L13.8103 12H19.5C19.6483 12 19.7933 12.044 19.9167 12.1265C20.04 12.2089 20.1361 12.3261 20.1928 12.4631Z" fill="#343330"/>
</svg>
