<svg width="24" height="24" viewBox="0 0 24 24" fill="none" xmlns="http://www.w3.org/2000/svg">
<path d="M15.75 4.49998V19.5C15.7501 19.6484 15.7062 19.7935 15.6238 19.917C15.5414 20.0404 15.4242 20.1366 15.2871 20.1934C15.15 20.2503 14.9991 20.2651 14.8535 20.2361C14.708 20.2071 14.5743 20.1356 14.4694 20.0306L6.96938 12.5306C6.89965 12.461 6.84433 12.3782 6.80659 12.2872C6.76885 12.1961 6.74942 12.0985 6.74942 12C6.74942 11.9014 6.76885 11.8038 6.80659 11.7128C6.84433 11.6217 6.89965 11.539 6.96938 11.4694L14.4694 3.96936C14.5743 3.86435 14.708 3.79282 14.8535 3.76383C14.9991 3.73485 15.15 3.7497 15.2871 3.80651C15.4242 3.86333 15.5414 3.95955 15.6238 4.08299C15.7062 4.20644 15.7501 4.35156 15.75 4.49998Z" fill="#343330"/>
</svg>
