<svg width="24" height="24" viewBox="0 0 24 24" fill="none" xmlns="http://www.w3.org/2000/svg">
<path d="M20.7806 12.5306L13.2806 20.0306C13.1757 20.1356 13.042 20.2072 12.8965 20.2362C12.7509 20.2651 12.6 20.2503 12.4629 20.1935C12.3258 20.1367 12.2086 20.0404 12.1262 19.917C12.0438 19.7936 11.9999 19.6484 12 19.5V13.8103L5.78063 20.0306C5.67573 20.1356 5.54204 20.2072 5.39648 20.2362C5.25092 20.2651 5.10002 20.2503 4.96291 20.1935C4.82579 20.1367 4.70861 20.0404 4.62621 19.917C4.54381 19.7936 4.49988 19.6484 4.5 19.5V4.50001C4.49988 4.35159 4.54381 4.20647 4.62621 4.08302C4.70861 3.95958 4.82579 3.86336 4.96291 3.80654C5.10002 3.74973 5.25092 3.73488 5.39648 3.76386C5.54204 3.79285 5.67573 3.86438 5.78063 3.96939L12 10.1897V4.50001C11.9999 4.35159 12.0438 4.20647 12.1262 4.08302C12.2086 3.95958 12.3258 3.86336 12.4629 3.80654C12.6 3.74973 12.7509 3.73488 12.8965 3.76386C13.042 3.79285 13.1757 3.86438 13.2806 3.96939L20.7806 11.4694C20.8504 11.539 20.9057 11.6218 20.9434 11.7128C20.9812 11.8039 21.0006 11.9015 21.0006 12C21.0006 12.0986 20.9812 12.1962 20.9434 12.2872C20.9057 12.3783 20.8504 12.461 20.7806 12.5306Z" fill="#343330"/>
</svg>
