<svg width="24" height="24" viewBox="0 0 24 24" fill="none" xmlns="http://www.w3.org/2000/svg">
<path d="M20.1928 15.2869C20.1361 15.4239 20.04 15.5411 19.9167 15.6235C19.7933 15.7059 19.6483 15.7499 19.5 15.75H4.50001C4.35159 15.7501 4.20647 15.7062 4.08302 15.6238C3.95958 15.5414 3.86336 15.4242 3.80654 15.2871C3.74973 15.15 3.73488 14.9991 3.76386 14.8535C3.79285 14.7079 3.86438 14.5742 3.96939 14.4694L11.4694 6.96935C11.539 6.89962 11.6218 6.8443 11.7128 6.80656C11.8039 6.76882 11.9015 6.74939 12 6.74939C12.0986 6.74939 12.1962 6.76882 12.2872 6.80656C12.3783 6.8443 12.461 6.89962 12.5306 6.96935L20.0306 14.4694C20.1355 14.5743 20.2069 14.708 20.2357 14.8535C20.2646 14.999 20.2497 15.1498 20.1928 15.2869Z" fill="#343330"/>
</svg>
