<svg width="24" height="24" viewBox="0 0 24 24" fill="none" xmlns="http://www.w3.org/2000/svg">
<path d="M20.0306 18.2194C20.1356 18.3243 20.2072 18.458 20.2361 18.6035C20.2651 18.7491 20.2503 18.9 20.1935 19.0371C20.1367 19.1742 20.0404 19.2914 19.917 19.3738C19.7935 19.4562 19.6484 19.5001 19.5 19.5H4.5C4.35158 19.5001 4.20646 19.4562 4.08301 19.3738C3.95957 19.2914 3.86335 19.1742 3.80653 19.0371C3.74972 18.9 3.73486 18.7491 3.76385 18.6035C3.79284 18.458 3.86437 18.3243 3.96937 18.2194L10.1897 12H4.5C4.35158 12.0001 4.20646 11.9562 4.08301 11.8738C3.95957 11.7914 3.86335 11.6742 3.80653 11.5371C3.74972 11.4 3.73486 11.2491 3.76385 11.1035C3.79284 10.958 3.86437 10.8243 3.96937 10.7194L11.4694 3.21939C11.539 3.14965 11.6217 3.09433 11.7128 3.05659C11.8038 3.01885 11.9014 2.99942 12 2.99942C12.0986 2.99942 12.1962 3.01885 12.2872 3.05659C12.3783 3.09433 12.461 3.14965 12.5306 3.21939L20.0306 10.7194C20.1356 10.8243 20.2072 10.958 20.2361 11.1035C20.2651 11.2491 20.2503 11.4 20.1935 11.5371C20.1367 11.6742 20.0404 11.7914 19.917 11.8738C19.7935 11.9562 19.6484 12.0001 19.5 12H13.8103L20.0306 18.2194Z" fill="#343330"/>
</svg>
