<svg width="24" height="24" viewBox="0 0 24 24" fill="none" xmlns="http://www.w3.org/2000/svg">
<path d="M20.0306 12.2194C20.1003 12.289 20.1557 12.3717 20.1934 12.4628C20.2312 12.5538 20.2506 12.6514 20.2506 12.75C20.2506 12.8486 20.2312 12.9461 20.1934 13.0372C20.1557 13.1282 20.1003 13.211 20.0306 13.2806L12.5306 20.7806C12.461 20.8503 12.3782 20.9057 12.2872 20.9434C12.1961 20.9812 12.0986 21.0006 12 21.0006C11.9014 21.0006 11.8038 20.9812 11.7128 20.9434C11.6217 20.9057 11.539 20.8503 11.4694 20.7806L3.96936 13.2806C3.82863 13.1399 3.74957 12.949 3.74957 12.75C3.74957 12.551 3.82863 12.3601 3.96936 12.2194C4.1101 12.0786 4.30097 11.9996 4.49999 11.9996C4.69901 11.9996 4.88988 12.0786 5.03061 12.2194L12 19.1897L18.9694 12.2194C19.039 12.1496 19.1217 12.0943 19.2128 12.0566C19.3038 12.0188 19.4014 11.9994 19.5 11.9994C19.5986 11.9994 19.6961 12.0188 19.7872 12.0566C19.8782 12.0943 19.961 12.1496 20.0306 12.2194ZM11.4694 13.2806C11.539 13.3503 11.6217 13.4057 11.7128 13.4434C11.8038 13.4812 11.9014 13.5006 12 13.5006C12.0986 13.5006 12.1961 13.4812 12.2872 13.4434C12.3782 13.4057 12.461 13.3503 12.5306 13.2806L20.0306 5.78061C20.1713 5.63988 20.2504 5.44901 20.2504 5.24999C20.2504 5.05097 20.1713 4.8601 20.0306 4.71936C19.8899 4.57863 19.699 4.49957 19.5 4.49957C19.301 4.49957 19.1101 4.57863 18.9694 4.71936L12 11.6897L5.03061 4.71936C4.88988 4.57863 4.69901 4.49957 4.49999 4.49957C4.30097 4.49957 4.1101 4.57863 3.96936 4.71936C3.82863 4.8601 3.74957 5.05097 3.74957 5.24999C3.74957 5.44901 3.82863 5.63988 3.96936 5.78061L11.4694 13.2806Z" fill="#343330"/>
</svg>
