<svg width="24" height="24" viewBox="0 0 24 24" fill="none" xmlns="http://www.w3.org/2000/svg">
<path d="M20.0306 18.2194C20.1003 18.2891 20.1556 18.3718 20.1933 18.4628C20.231 18.5539 20.2504 18.6515 20.2504 18.75C20.2504 18.8486 20.231 18.9461 20.1933 19.0372C20.1556 19.1282 20.1003 19.211 20.0306 19.2806C19.9609 19.3503 19.8782 19.4056 19.7872 19.4433C19.6961 19.481 19.5985 19.5004 19.5 19.5004C19.4014 19.5004 19.3039 19.481 19.2128 19.4433C19.1218 19.4056 19.039 19.3503 18.9694 19.2806L12 12.3103L5.03061 19.2806C4.88988 19.4214 4.69901 19.5004 4.49999 19.5004C4.30097 19.5004 4.1101 19.4214 3.96936 19.2806C3.82863 19.1399 3.74957 18.949 3.74957 18.75C3.74957 18.551 3.82863 18.3601 3.96936 18.2194L11.4694 10.7194C11.539 10.6497 11.6217 10.5943 11.7128 10.5566C11.8038 10.5188 11.9014 10.4994 12 10.4994C12.0986 10.4994 12.1961 10.5188 12.2872 10.5566C12.3782 10.5943 12.461 10.6497 12.5306 10.7194L20.0306 18.2194ZM5.03061 11.7806L12 4.81032L18.9694 11.7806C19.039 11.8503 19.1218 11.9056 19.2128 11.9433C19.3039 11.981 19.4014 12.0004 19.5 12.0004C19.5985 12.0004 19.6961 11.981 19.7872 11.9433C19.8782 11.9056 19.9609 11.8503 20.0306 11.7806C20.1003 11.711 20.1556 11.6282 20.1933 11.5372C20.231 11.4461 20.2504 11.3486 20.2504 11.25C20.2504 11.1515 20.231 11.0539 20.1933 10.9628C20.1556 10.8718 20.1003 10.7891 20.0306 10.7194L12.5306 3.21939C12.461 3.14965 12.3782 3.09433 12.2872 3.05659C12.1961 3.01885 12.0986 2.99942 12 2.99942C11.9014 2.99942 11.8038 3.01885 11.7128 3.05659C11.6217 3.09433 11.539 3.14965 11.4694 3.21939L3.96936 10.7194C3.82863 10.8601 3.74957 11.051 3.74957 11.25C3.74957 11.449 3.82863 11.6399 3.96936 11.7806C4.1101 11.9214 4.30097 12.0004 4.49999 12.0004C4.69901 12.0004 4.88988 11.9214 5.03061 11.7806Z" fill="#343330"/>
</svg>
