<svg width="24" height="24" viewBox="0 0 24 24" fill="none" xmlns="http://www.w3.org/2000/svg">
<path d="M19.5 4.50001V19.5C19.5001 19.6484 19.4562 19.7936 19.3738 19.917C19.2914 20.0404 19.1742 20.1367 19.0371 20.1935C18.9 20.2503 18.7491 20.2651 18.6035 20.2362C18.458 20.2072 18.3243 20.1356 18.2194 20.0306L12 13.8103V19.5C12.0001 19.6484 11.9562 19.7936 11.8738 19.917C11.7914 20.0404 11.6742 20.1367 11.5371 20.1935C11.4 20.2503 11.2491 20.2651 11.1035 20.2362C10.958 20.2072 10.8243 20.1356 10.7194 20.0306L3.21938 12.5306C3.14965 12.461 3.09433 12.3783 3.05658 12.2872C3.01884 12.1962 2.99941 12.0986 2.99941 12C2.99941 11.9015 3.01884 11.8039 3.05658 11.7128C3.09433 11.6218 3.14965 11.539 3.21938 11.4694L10.7194 3.96939C10.8243 3.86438 10.958 3.79285 11.1035 3.76386C11.2491 3.73488 11.4 3.74973 11.5371 3.80654C11.6742 3.86336 11.7914 3.95958 11.8738 4.08302C11.9562 4.20647 12.0001 4.35159 12 4.50001V10.1897L18.2194 3.96939C18.3243 3.86438 18.458 3.79285 18.6035 3.76386C18.7491 3.73488 18.9 3.74973 19.0371 3.80654C19.1742 3.86336 19.2914 3.95958 19.3738 4.08302C19.4562 4.20647 19.5001 4.35159 19.5 4.50001Z" fill="#343330"/>
</svg>
