<svg width="24" height="24" viewBox="0 0 24 24" fill="none" xmlns="http://www.w3.org/2000/svg">
<path d="M20.8903 3.14431C20.6109 3.01241 20.2976 2.96999 19.9933 3.02285C19.6889 3.07571 19.4082 3.22126 19.1897 3.43963C19.1766 3.45275 19.1653 3.46494 19.1541 3.47806L17.5359 5.34369C15.8769 4.30565 13.9593 3.75519 12.0023 3.75519C10.0453 3.75519 8.12777 4.30565 6.46874 5.34369L4.84593 3.47806C4.83468 3.46494 4.82343 3.45275 4.8103 3.43963C4.59176 3.22126 4.31111 3.07571 4.00672 3.02285C3.70234 2.96999 3.38905 3.01241 3.10968 3.14431C2.84885 3.2724 2.62966 3.47177 2.4775 3.71933C2.32535 3.96689 2.24646 4.2525 2.24999 4.54306V12.7499C2.24999 17.3437 6.00562 21.1528 10.8337 21.6862C10.8863 21.692 10.9396 21.6866 10.9899 21.6704C11.0403 21.6542 11.0867 21.6275 11.126 21.5921C11.1653 21.5567 11.1967 21.5133 11.2181 21.4649C11.2394 21.4165 11.2503 21.3641 11.25 21.3112V18.3112L9.99187 17.0521C9.84923 16.9137 9.7656 16.7255 9.75843 16.5269C9.75127 16.3282 9.82113 16.1345 9.95343 15.9862C10.0222 15.9129 10.105 15.8542 10.1969 15.8136C10.2888 15.773 10.388 15.7512 10.4884 15.7496C10.5889 15.7481 10.6887 15.7667 10.7818 15.8044C10.875 15.8422 10.9596 15.8982 11.0306 15.9693L12 16.9387L12.9694 15.9684C13.0404 15.8973 13.125 15.8412 13.2181 15.8035C13.3113 15.7658 13.4111 15.7471 13.5115 15.7487C13.612 15.7503 13.7111 15.772 13.8031 15.8127C13.895 15.8533 13.9778 15.912 14.0466 15.9853C14.1788 16.1336 14.2487 16.3273 14.2415 16.5259C14.2344 16.7246 14.1508 16.9128 14.0081 17.0512L12.75 18.3103V21.3103C12.7497 21.3632 12.7606 21.4156 12.7819 21.464C12.8033 21.5124 12.8347 21.5557 12.874 21.5911C12.9133 21.6266 12.9597 21.6533 13.01 21.6695C13.0604 21.6857 13.1136 21.6911 13.1662 21.6853C17.9944 21.1518 21.75 17.3437 21.75 12.7499V4.54306C21.7535 4.2525 21.6746 3.96689 21.5225 3.71933C21.3703 3.47177 21.1511 3.2724 20.8903 3.14431ZM7.87499 14.2499C7.65249 14.2499 7.43498 14.184 7.24997 14.0603C7.06497 13.9367 6.92077 13.761 6.83563 13.5555C6.75048 13.3499 6.7282 13.1237 6.77161 12.9055C6.81502 12.6872 6.92216 12.4868 7.0795 12.3294C7.23683 12.1721 7.43729 12.065 7.65551 12.0216C7.87374 11.9781 8.09994 12.0004 8.30551 12.0856C8.51108 12.1707 8.68678 12.3149 8.81039 12.4999C8.93401 12.6849 8.99999 12.9024 8.99999 13.1249C8.99999 13.4233 8.88146 13.7095 8.67049 13.9204C8.45951 14.1314 8.17336 14.2499 7.87499 14.2499ZM9.74999 8.24994C9.74999 8.44885 9.67097 8.63962 9.53032 8.78027C9.38967 8.92092 9.1989 8.99994 8.99999 8.99994C8.80108 8.99994 8.61031 8.92092 8.46966 8.78027C8.32901 8.63962 8.24999 8.44885 8.24999 8.24994V6.46869C8.24999 6.26978 8.32901 6.07901 8.46966 5.93836C8.61031 5.79771 8.80108 5.71869 8.99999 5.71869C9.1989 5.71869 9.38967 5.79771 9.53032 5.93836C9.67097 6.07901 9.74999 6.26978 9.74999 6.46869V8.24994ZM12.75 8.24994C12.75 8.44885 12.671 8.63962 12.5303 8.78027C12.3897 8.92092 12.1989 8.99994 12 8.99994C11.8011 8.99994 11.6103 8.92092 11.4697 8.78027C11.329 8.63962 11.25 8.44885 11.25 8.24994V5.99994C11.25 5.80103 11.329 5.61026 11.4697 5.46961C11.6103 5.32896 11.8011 5.24994 12 5.24994C12.1989 5.24994 12.3897 5.32896 12.5303 5.46961C12.671 5.61026 12.75 5.80103 12.75 5.99994V8.24994ZM14.25 8.24994V6.46869C14.25 6.26978 14.329 6.07901 14.4697 5.93836C14.6103 5.79771 14.8011 5.71869 15 5.71869C15.1989 5.71869 15.3897 5.79771 15.5303 5.93836C15.671 6.07901 15.75 6.26978 15.75 6.46869V8.24994C15.75 8.44885 15.671 8.63962 15.5303 8.78027C15.3897 8.92092 15.1989 8.99994 15 8.99994C14.8011 8.99994 14.6103 8.92092 14.4697 8.78027C14.329 8.63962 14.25 8.44885 14.25 8.24994ZM16.125 14.2499C15.9025 14.2499 15.685 14.184 15.5 14.0603C15.315 13.9367 15.1708 13.761 15.0856 13.5555C15.0005 13.3499 14.9782 13.1237 15.0216 12.9055C15.065 12.6872 15.1722 12.4868 15.3295 12.3294C15.4868 12.1721 15.6873 12.065 15.9055 12.0216C16.1237 11.9781 16.3499 12.0004 16.5555 12.0856C16.7611 12.1707 16.9368 12.3149 17.0604 12.4999C17.184 12.6849 17.25 12.9024 17.25 13.1249C17.25 13.4233 17.1315 13.7095 16.9205 13.9204C16.7095 14.1314 16.4234 14.2499 16.125 14.2499Z" fill="#343330"/>
</svg>
