<svg width="24" height="24" viewBox="0 0 24 24" fill="none" xmlns="http://www.w3.org/2000/svg">
<path d="M20.25 4.5H3.75C3.35217 4.5 2.97064 4.65804 2.68934 4.93934C2.40803 5.22064 2.25 5.60218 2.25 6V21C2.2483 21.2859 2.32913 21.5662 2.48278 21.8074C2.63643 22.0485 2.85638 22.2401 3.11625 22.3594C3.31482 22.4516 3.53106 22.4996 3.75 22.5C4.10212 22.4992 4.44257 22.3736 4.71093 22.1456L4.71937 22.1391L7.78125 19.5H20.25C20.6478 19.5 21.0294 19.342 21.3107 19.0607C21.592 18.7794 21.75 18.3978 21.75 18V6C21.75 5.60218 21.592 5.22064 21.3107 4.93934C21.0294 4.65804 20.6478 4.5 20.25 4.5ZM20.25 18H7.5C7.31991 18.0001 7.14587 18.065 7.00968 18.1828L3.75 21V6H20.25V18ZM8.25 10.5C8.25 10.3011 8.32901 10.1103 8.46967 9.96967C8.61032 9.82902 8.80108 9.75 9 9.75H15C15.1989 9.75 15.3897 9.82902 15.5303 9.96967C15.671 10.1103 15.75 10.3011 15.75 10.5C15.75 10.6989 15.671 10.8897 15.5303 11.0303C15.3897 11.171 15.1989 11.25 15 11.25H9C8.80108 11.25 8.61032 11.171 8.46967 11.0303C8.32901 10.8897 8.25 10.6989 8.25 10.5ZM8.25 13.5C8.25 13.3011 8.32901 13.1103 8.46967 12.9697C8.61032 12.829 8.80108 12.75 9 12.75H15C15.1989 12.75 15.3897 12.829 15.5303 12.9697C15.671 13.1103 15.75 13.3011 15.75 13.5C15.75 13.6989 15.671 13.8897 15.5303 14.0303C15.3897 14.171 15.1989 14.25 15 14.25H9C8.80108 14.25 8.61032 14.171 8.46967 14.0303C8.32901 13.8897 8.25 13.6989 8.25 13.5Z" fill="#343330"/>
</svg>
