<svg width="24" height="24" viewBox="0 0 24 24" fill="none" xmlns="http://www.w3.org/2000/svg">
<path d="M20.25 4.5H3.75C3.35217 4.5 2.97064 4.65804 2.68934 4.93934C2.40803 5.22064 2.25 5.60218 2.25 6V21C2.24827 21.286 2.32918 21.5665 2.48302 21.8076C2.63686 22.0488 2.85707 22.2404 3.11718 22.3594C3.3154 22.4517 3.53135 22.4997 3.75 22.5C4.10213 22.4992 4.44257 22.3736 4.71093 22.1456L4.71937 22.1391L7.78125 19.5H20.25C20.6478 19.5 21.0294 19.342 21.3107 19.0607C21.592 18.7794 21.75 18.3978 21.75 18V6C21.75 5.60218 21.592 5.22064 21.3107 4.93934C21.0294 4.65804 20.6478 4.5 20.25 4.5ZM20.25 18H7.5C7.31991 18.0001 7.14587 18.065 7.00968 18.1828L3.75 21V6H20.25V18Z" fill="#343330"/>
</svg>
