<svg width="24" height="24" viewBox="0 0 24 24" fill="none" xmlns="http://www.w3.org/2000/svg">
<path d="M5.05499 3.24563C4.98912 3.17138 4.90918 3.11095 4.81979 3.06783C4.7304 3.02471 4.63333 2.99976 4.53423 2.99443C4.43512 2.9891 4.33595 3.00349 4.24245 3.03677C4.14894 3.07005 4.06298 3.12156 3.98953 3.18831C3.91608 3.25506 3.85661 3.33572 3.81456 3.42562C3.77252 3.51552 3.74874 3.61288 3.74459 3.71204C3.74045 3.8112 3.75603 3.9102 3.79043 4.00329C3.82483 4.09639 3.87736 4.18173 3.94499 4.25438L4.90592 5.31188C3.50692 6.79638 2.60845 8.68208 2.33686 10.7038C2.06528 12.7255 2.43424 14.7814 3.39186 16.5825L2.3278 19.7747C2.23966 20.039 2.22687 20.3226 2.29086 20.5938C2.35485 20.8649 2.49309 21.1129 2.6901 21.3099C2.8871 21.5069 3.13508 21.6451 3.40623 21.7091C3.67739 21.7731 3.961 21.7603 4.2253 21.6722L7.41749 20.6081C9.07881 21.4919 10.9604 21.876 12.8352 21.7141C14.71 21.5523 16.4978 20.8514 17.9831 19.6959L18.945 20.7544C19.0109 20.8286 19.0908 20.8891 19.1802 20.9322C19.2696 20.9753 19.3666 21.0002 19.4657 21.0056C19.5648 21.0109 19.664 20.9965 19.7575 20.9632C19.851 20.93 19.937 20.8784 20.0104 20.8117C20.0839 20.7449 20.1434 20.6643 20.1854 20.5744C20.2275 20.4845 20.2512 20.3871 20.2554 20.288C20.2595 20.1888 20.2439 20.0898 20.2095 19.9967C20.1751 19.9036 20.1226 19.8183 20.055 19.7456L5.05499 3.24563ZM12 20.25C10.5497 20.251 9.12477 19.8691 7.86936 19.1428C7.77738 19.0897 7.67515 19.0567 7.56945 19.046C7.46375 19.0353 7.35699 19.0472 7.25624 19.0809L3.74999 20.25L4.91905 16.7438C4.95275 16.643 4.96466 16.5362 4.95399 16.4305C4.94332 16.3248 4.91032 16.2226 4.85717 16.1306C3.97841 14.6105 3.60757 12.8496 3.7986 11.1041C3.98964 9.35869 4.73258 7.71971 5.91936 6.42563L16.9687 18.5841C15.5383 19.6661 13.7935 20.251 12 20.25ZM21.75 12C21.75 13.6113 21.3513 15.1975 20.5894 16.6172C20.4942 16.7907 20.3344 16.9197 20.1446 16.9759C19.9549 17.0321 19.7506 17.011 19.5763 16.9172C19.4021 16.8235 19.2719 16.6646 19.2142 16.4753C19.1565 16.286 19.176 16.0816 19.2684 15.9066C20.0776 14.4035 20.4005 12.6864 20.1928 10.992C19.985 9.29765 19.2568 7.70944 18.1085 6.44635C16.9602 5.18326 15.4483 4.30747 13.7814 3.93973C12.1144 3.57199 10.3744 3.7304 8.80124 4.39313C8.61786 4.47033 8.41133 4.47153 8.22708 4.39645C8.04282 4.32138 7.89594 4.17619 7.81874 3.99281C7.74153 3.80944 7.74034 3.60291 7.81541 3.41866C7.89048 3.2344 8.03568 3.08752 8.21905 3.01031C9.70147 2.38816 11.3147 2.14201 12.9152 2.29375C14.5157 2.4455 16.0539 2.99043 17.3929 3.88009C18.732 4.76975 19.8305 5.97656 20.5906 7.39318C21.3508 8.8098 21.749 10.3923 21.75 12Z" fill="#343330"/>
</svg>
