<svg width="24" height="24" viewBox="0 0 24 24" fill="none" xmlns="http://www.w3.org/2000/svg">
<path d="M5.055 3.24563C4.98914 3.17138 4.9092 3.11095 4.8198 3.06783C4.73041 3.02471 4.63335 2.99976 4.53425 2.99443C4.43514 2.9891 4.33596 3.00349 4.24246 3.03677C4.14896 3.07005 4.06299 3.12156 3.98954 3.18831C3.9161 3.25506 3.85663 3.33572 3.81458 3.42562C3.77254 3.51552 3.74875 3.61288 3.74461 3.71204C3.74047 3.8112 3.75605 3.9102 3.79044 4.00329C3.82484 4.09639 3.87738 4.18173 3.945 4.25438L4.16813 4.5H3.75C3.35218 4.5 2.97065 4.65804 2.68934 4.93934C2.40804 5.22065 2.25 5.60218 2.25 6V21C2.24831 21.2859 2.32913 21.5662 2.48278 21.8074C2.63644 22.0485 2.85639 22.2401 3.11625 22.3594C3.31483 22.4516 3.53106 22.4996 3.75 22.5C4.10238 22.499 4.44306 22.3735 4.71188 22.1456L4.71938 22.1391L7.78125 19.5H17.805L18.945 20.7544C19.0109 20.8286 19.0908 20.8891 19.1802 20.9322C19.2696 20.9753 19.3667 21.0002 19.4658 21.0056C19.5649 21.0109 19.664 20.9965 19.7575 20.9632C19.851 20.93 19.937 20.8784 20.0105 20.8117C20.0839 20.7449 20.1434 20.6643 20.1854 20.5744C20.2275 20.4845 20.2513 20.3871 20.2554 20.288C20.2595 20.1888 20.244 20.0898 20.2096 19.9967C20.1752 19.9036 20.1226 19.8183 20.055 19.7456L5.055 3.24563ZM7.5 18C7.31992 18.0001 7.14588 18.065 7.00969 18.1828L3.75 21V6H5.53125L16.4409 18H7.5ZM21.75 6V17.4375C21.75 17.6364 21.671 17.8272 21.5303 17.9678C21.3897 18.1085 21.1989 18.1875 21 18.1875C20.8011 18.1875 20.6103 18.1085 20.4697 17.9678C20.329 17.8272 20.25 17.6364 20.25 17.4375V6H9.91782C9.7189 6 9.52814 5.92098 9.38749 5.78033C9.24683 5.63968 9.16782 5.44891 9.16782 5.25C9.16782 5.05109 9.24683 4.86032 9.38749 4.71967C9.52814 4.57902 9.7189 4.5 9.91782 4.5H20.25C20.6478 4.5 21.0294 4.65804 21.3107 4.93934C21.592 5.22065 21.75 5.60218 21.75 6Z" fill="#343330"/>
</svg>
