<svg width="24" height="24" viewBox="0 0 24 24" fill="none" xmlns="http://www.w3.org/2000/svg">
<path d="M22.8075 6.3975L20.5575 4.18875C20.2763 3.90852 19.8956 3.75116 19.4986 3.75116C19.1016 3.75116 18.7208 3.90852 18.4397 4.18875L9.75 12.7716L6.31031 9.43406C6.02857 9.15474 5.64764 8.9984 5.25091 8.99928C4.85417 9.00016 4.47394 9.15818 4.19344 9.43875L1.94344 11.6887C1.66263 11.97 1.50491 12.3512 1.50491 12.7486C1.50491 13.146 1.66263 13.5272 1.94344 13.8084L8.65781 20.5584C8.7971 20.6978 8.96248 20.8083 9.14449 20.8837C9.3265 20.9591 9.52158 20.9979 9.71859 20.9979C9.91561 20.9979 10.1107 20.9591 10.2927 20.8837C10.4747 20.8083 10.6401 20.6978 10.7794 20.5584L22.8122 8.52281C22.9518 8.38314 23.0624 8.21729 23.1377 8.03476C23.2131 7.85224 23.2516 7.65664 23.2512 7.45918C23.2507 7.26172 23.2113 7.06629 23.1352 6.8841C23.0591 6.70191 22.9477 6.53655 22.8075 6.3975ZM9.71438 19.5L3 12.75L5.25 10.5C5.25273 10.5023 5.25524 10.5048 5.2575 10.5075L9.22781 14.3597C9.36797 14.4968 9.55626 14.5736 9.75234 14.5736C9.94843 14.5736 10.1367 14.4968 10.2769 14.3597L19.5056 5.25L21.75 7.4625L9.71438 19.5Z" fill="#343330"/>
</svg>
