<svg width="24" height="24" viewBox="0 0 24 24" fill="none" xmlns="http://www.w3.org/2000/svg">
<path d="M22.8103 8.52282L10.7728 20.5603C10.4915 20.8414 10.1102 20.9993 9.71251 20.9993C9.31486 20.9993 8.93347 20.8414 8.6522 20.5603L1.93782 13.8103C1.65702 13.5291 1.4993 13.1479 1.4993 12.7505C1.4993 12.353 1.65702 11.9719 1.93782 11.6906L3.81282 9.81563C4.09394 9.53568 4.47452 9.37851 4.87126 9.37851C5.268 9.37851 5.64858 9.53568 5.9297 9.81563L9.75001 13.5206L18.8213 4.56094C19.1024 4.28071 19.4832 4.12335 19.8802 4.12335C20.2771 4.12335 20.6579 4.28071 20.9391 4.56094L22.8094 6.39282C22.95 6.5322 23.0617 6.69805 23.1379 6.88081C23.2142 7.06356 23.2535 7.2596 23.2536 7.45762C23.2536 7.65564 23.2145 7.85171 23.1384 8.03454C23.0624 8.21736 22.9509 8.38331 22.8103 8.52282Z" fill="#343330"/>
</svg>
