<svg width="24" height="24" viewBox="0 0 24 24" fill="none" xmlns="http://www.w3.org/2000/svg">
<path d="M22.5 10.5C22.4985 9.10811 21.9449 7.77362 20.9607 6.78937C19.9764 5.80513 18.6419 5.25153 17.25 5.25004C17.0841 5.25004 16.9181 5.25941 16.7541 5.27441C16.3308 4.37093 15.6588 3.60677 14.8168 3.07146C13.9748 2.53614 12.9978 2.25183 12 2.25183C11.0023 2.25183 10.0252 2.53614 9.18323 3.07146C8.34126 3.60677 7.66926 4.37093 7.24595 5.27441C7.08189 5.25941 6.91595 5.25004 6.75002 5.25004C5.55825 5.25033 4.40204 5.65609 3.47146 6.40062C2.54088 7.14515 1.8913 8.18415 1.62951 9.34681C1.36773 10.5095 1.50931 11.7266 2.03098 12.7981C2.55266 13.8697 3.42338 14.7318 4.50002 15.2429V19.5C4.50002 19.8979 4.65805 20.2794 4.93935 20.5607C5.22066 20.842 5.60219 21 6.00001 21H18C18.3978 21 18.7794 20.842 19.0607 20.5607C19.342 20.2794 19.5 19.8979 19.5 19.5V15.2429C20.3969 14.8163 21.1547 14.1445 21.6856 13.3051C22.2165 12.4658 22.4989 11.4932 22.5 10.5ZM18 19.5H6.00001V15.6957C6.24838 15.7319 6.49903 15.75 6.75002 15.75H17.25C17.501 15.75 17.7517 15.7319 18 15.6957V19.5ZM17.25 14.25H15.961L16.4775 12.1819C16.5219 11.9903 16.4893 11.7889 16.3867 11.6211C16.2841 11.4534 16.1196 11.3326 15.9288 11.2849C15.738 11.2372 15.5361 11.2664 15.3666 11.3661C15.197 11.4659 15.0735 11.6282 15.0225 11.8182L14.4141 14.25H12.75V12C12.75 11.8011 12.671 11.6104 12.5303 11.4697C12.3897 11.3291 12.1989 11.25 12 11.25C11.8011 11.25 11.6103 11.3291 11.4697 11.4697C11.329 11.6104 11.25 11.8011 11.25 12V14.25H9.58595L8.97752 11.8182C8.95503 11.7212 8.91344 11.6296 8.8552 11.5489C8.79695 11.4681 8.72321 11.3997 8.63827 11.3478C8.55333 11.2958 8.45889 11.2613 8.36046 11.2462C8.26204 11.2311 8.1616 11.2358 8.065 11.26C7.9684 11.2841 7.87757 11.3273 7.79782 11.3869C7.71807 11.4465 7.65099 11.5214 7.60049 11.6072C7.55 11.693 7.5171 11.7881 7.50371 11.8867C7.49032 11.9854 7.49671 12.0857 7.52252 12.1819L8.03908 14.25H6.75002C5.75545 14.25 4.80163 13.855 4.09836 13.1517C3.3951 12.4484 3.00001 11.4946 3.00001 10.5C3.00001 9.50548 3.3951 8.55165 4.09836 7.84839C4.80163 7.14513 5.75545 6.75004 6.75002 6.75004H6.80439C6.76811 6.99839 6.74993 7.24905 6.75002 7.50004C6.75002 7.69895 6.82903 7.88972 6.96969 8.03037C7.11034 8.17102 7.3011 8.25004 7.50002 8.25004C7.69893 8.25004 7.88969 8.17102 8.03035 8.03037C8.171 7.88972 8.25002 7.69895 8.25002 7.50004C8.25002 6.50548 8.6451 5.55165 9.34837 4.84839C10.0516 4.14513 11.0055 3.75004 12 3.75004C12.9946 3.75004 13.9484 4.14513 14.6517 4.84839C15.3549 5.55165 15.75 6.50548 15.75 7.50004C15.75 7.69895 15.829 7.88972 15.9697 8.03037C16.1103 8.17102 16.3011 8.25004 16.5 8.25004C16.6989 8.25004 16.8897 8.17102 17.0303 8.03037C17.171 7.88972 17.25 7.69895 17.25 7.50004C17.2501 7.24905 17.2319 6.99839 17.1956 6.75004H17.25C18.2446 6.75004 19.1984 7.14513 19.9017 7.84839C20.6049 8.55165 21 9.50548 21 10.5C21 11.4946 20.6049 12.4484 19.9017 13.1517C19.1984 13.855 18.2446 14.25 17.25 14.25Z" fill="#343330"/>
</svg>
