<svg width="24" height="24" viewBox="0 0 24 24" fill="none" xmlns="http://www.w3.org/2000/svg">
<path d="M15.375 6.74995C14.7333 6.74956 14.0944 6.83565 13.4756 7.00589C13.2314 6.60736 12.9347 6.24347 12.5934 5.92401L13.485 4.65182C13.5415 4.57112 13.5816 4.48008 13.6029 4.3839C13.6242 4.28771 13.6264 4.18827 13.6093 4.09125C13.5922 3.99423 13.5561 3.90152 13.5032 3.81843C13.4503 3.73534 13.3815 3.66349 13.3008 3.60698C13.2201 3.55047 13.129 3.51041 13.0329 3.48909C12.9367 3.46776 12.8372 3.46559 12.7402 3.4827C12.6432 3.4998 12.5505 3.53585 12.4674 3.58878C12.3843 3.64172 12.3125 3.7105 12.2559 3.7912L11.3644 5.06245C10.6312 4.69227 9.82132 4.49959 9.00001 4.49995C8.94563 4.49995 8.89126 4.49995 8.83688 4.49995L8.56595 2.97276C8.55173 2.87325 8.51765 2.77761 8.46574 2.69154C8.41382 2.60546 8.34514 2.53069 8.26376 2.47168C8.18238 2.41267 8.08997 2.37063 7.99202 2.34804C7.89407 2.32545 7.79258 2.32278 7.69358 2.34019C7.59458 2.35761 7.50008 2.39474 7.41572 2.44939C7.33135 2.50405 7.25883 2.5751 7.20247 2.65833C7.14611 2.74157 7.10705 2.83528 7.08763 2.93391C7.0682 3.03253 7.0688 3.13406 7.08938 3.23245L7.35938 4.76432C6.52759 5.03944 5.7777 5.51799 5.17782 6.15651L3.90094 5.26307C3.82031 5.20518 3.72898 5.16386 3.63225 5.14153C3.53553 5.11919 3.43533 5.11628 3.33747 5.13297C3.23961 5.14965 3.14604 5.18559 3.06218 5.23871C2.97832 5.29184 2.90584 5.36108 2.84894 5.44242C2.79204 5.52377 2.75186 5.6156 2.73072 5.71259C2.70958 5.80959 2.7079 5.90981 2.72579 6.00746C2.74368 6.1051 2.78078 6.19823 2.83493 6.28142C2.88909 6.36462 2.95922 6.43625 3.04126 6.49214L4.31251 7.38464C3.94101 8.11765 3.74826 8.92817 3.75001 9.74995C3.75001 9.80339 3.75001 9.85776 3.75001 9.9112L2.22282 10.1812C2.03797 10.2136 1.87198 10.3141 1.75761 10.4629C1.64324 10.6117 1.5888 10.7979 1.60505 10.9849C1.6213 11.1718 1.70705 11.3459 1.84537 11.4727C1.98369 11.5996 2.16453 11.6699 2.35219 11.6699C2.39587 11.6699 2.43947 11.6661 2.48251 11.6587L4.01251 11.3887C4.14694 11.798 4.33146 12.1891 4.56188 12.5531C3.8445 13.2194 3.34438 14.0863 3.12666 15.0409C2.90894 15.9955 2.98371 16.9935 3.34123 17.905C3.69875 18.8165 4.32245 19.5993 5.1311 20.1513C5.93976 20.7033 6.8959 20.999 7.87501 20.9999H15.375C17.2647 20.9999 19.0769 20.2493 20.4131 18.9131C21.7493 17.5769 22.5 15.7646 22.5 13.8749C22.5 11.9853 21.7493 10.173 20.4131 8.83681C19.0769 7.50062 17.2647 6.74995 15.375 6.74995ZM5.25001 9.74995C5.25046 8.95575 5.50304 8.1822 5.97136 7.54078C6.43968 6.89935 7.09955 6.42317 7.85588 6.18087C8.61221 5.93856 9.42595 5.94263 10.1798 6.19249C10.9337 6.44236 11.5888 6.92512 12.0506 7.5712C10.5207 8.37633 9.33436 9.70856 8.71126 11.3212C7.72533 11.151 6.71092 11.2875 5.80501 11.7121C5.44231 11.1219 5.25021 10.4427 5.25001 9.74995ZM15.375 19.4999H7.87501C7.41341 19.4991 6.95688 19.4036 6.53367 19.2193C6.11046 19.035 5.72955 18.7658 5.41451 18.4284C5.09946 18.091 4.85697 17.6926 4.70202 17.2578C4.54708 16.823 4.48299 16.361 4.51369 15.9004C4.5444 15.4398 4.66927 14.9905 4.88057 14.5801C5.09186 14.1697 5.3851 13.807 5.74215 13.5144C6.0992 13.2218 6.51247 13.0056 6.95641 12.8791C7.40034 12.7526 7.8655 12.7186 8.32313 12.779C8.28845 13.0012 8.26407 13.2281 8.25095 13.4568C8.23951 13.6557 8.30756 13.851 8.44012 13.9998C8.57269 14.1485 8.75891 14.2385 8.95782 14.2499C9.15673 14.2614 9.35204 14.1933 9.50078 14.0608C9.64952 13.9282 9.73951 13.742 9.75095 13.5431C9.77199 13.169 9.83104 12.798 9.9272 12.4359C9.9272 12.4209 9.93563 12.4059 9.93845 12.3909C10.2141 11.3779 10.7675 10.4621 11.5361 9.74697C12.3048 9.03184 13.258 8.54586 14.2883 8.34388C15.3185 8.14191 16.3847 8.23199 17.3665 8.60396C18.3482 8.97593 19.2064 9.61496 19.8442 10.4489C20.4819 11.2829 20.8738 12.2785 20.9756 13.3234C21.0774 14.3683 20.885 15.4209 20.4202 16.3622C19.9554 17.3036 19.2366 18.0962 18.3451 18.6507C17.4536 19.2051 16.4249 19.4993 15.375 19.4999Z" fill="#343330"/>
</svg>
