<svg width="24" height="24" viewBox="0 0 24 24" fill="none" xmlns="http://www.w3.org/2000/svg">
<path d="M11.25 19.5H6.75C6.55109 19.5 6.36032 19.421 6.21967 19.2804C6.07902 19.1397 6 18.9489 6 18.75C6 18.5511 6.07902 18.3603 6.21967 18.2197C6.36032 18.079 6.55109 18 6.75 18H11.25C11.4489 18 11.6397 18.079 11.7803 18.2197C11.921 18.3603 12 18.5511 12 18.75C12 18.9489 11.921 19.1397 11.7803 19.2804C11.6397 19.421 11.4489 19.5 11.25 19.5ZM17.25 18H15C14.8011 18 14.6103 18.079 14.4697 18.2197C14.329 18.3603 14.25 18.5511 14.25 18.75C14.25 18.9489 14.329 19.1397 14.4697 19.2804C14.6103 19.421 14.8011 19.5 15 19.5H17.25C17.4489 19.5 17.6397 19.421 17.7803 19.2804C17.921 19.1397 18 18.9489 18 18.75C18 18.5511 17.921 18.3603 17.7803 18.2197C17.6397 18.079 17.4489 18 17.25 18ZM15 21H9.75C9.55109 21 9.36032 21.079 9.21967 21.2197C9.07902 21.3603 9 21.5511 9 21.75C9 21.9489 9.07902 22.1397 9.21967 22.2804C9.36032 22.421 9.55109 22.5 9.75 22.5H15C15.1989 22.5 15.3897 22.421 15.5303 22.2804C15.671 22.1397 15.75 21.9489 15.75 21.75C15.75 21.5511 15.671 21.3603 15.5303 21.2197C15.3897 21.079 15.1989 21 15 21ZM21.75 9.37503C21.748 11.2641 20.9967 13.0752 19.6609 14.411C18.3252 15.7467 16.5141 16.498 14.625 16.5H7.125C5.83207 16.5 4.59209 15.9864 3.67785 15.0722C2.76361 14.1579 2.25 12.918 2.25 11.625C2.25 10.3321 2.76361 9.09212 3.67785 8.17788C4.59209 7.26364 5.83207 6.75003 7.125 6.75003C7.40526 6.75026 7.68499 6.7741 7.96125 6.82128C8.55939 5.26762 9.68217 3.97214 11.1351 3.1593C12.588 2.34645 14.2794 2.06745 15.9164 2.37062C17.5534 2.6738 19.0327 3.54006 20.0982 4.81931C21.1636 6.09856 21.7479 7.71021 21.75 9.37503ZM20.25 9.37503C20.244 7.91445 19.6707 6.51337 18.6511 5.46755C17.6315 4.42174 16.2454 3.81305 14.7855 3.76998C13.3255 3.72691 11.9059 4.25284 10.8265 5.23673C9.747 6.22062 9.09209 7.58547 9 9.04315C8.99434 9.14164 8.96933 9.23805 8.92641 9.32688C8.88348 9.41571 8.82348 9.49521 8.74984 9.56085C8.6011 9.69341 8.40579 9.76146 8.20687 9.75003C8.00796 9.73859 7.82174 9.6486 7.68918 9.49986C7.55661 9.35112 7.48856 9.15581 7.5 8.9569C7.51312 8.72815 7.53719 8.50221 7.57219 8.27909C7.42388 8.26005 7.27452 8.25035 7.125 8.25003C6.22989 8.25003 5.37145 8.60561 4.73851 9.23854C4.10558 9.87148 3.75 10.7299 3.75 11.625C3.75 12.5201 4.10558 13.3786 4.73851 14.0115C5.37145 14.6444 6.22989 15 7.125 15H14.625C16.1163 14.9983 17.546 14.4051 18.6006 13.3506C19.6551 12.2961 20.2483 10.8663 20.25 9.37503Z" fill="#343330"/>
</svg>
