<svg width="24" height="24" viewBox="0 0 24 24" fill="none" xmlns="http://www.w3.org/2000/svg">
<path d="M8.25 18.375C8.25 18.5975 8.18402 18.815 8.0604 19C7.93679 19.185 7.76109 19.3292 7.55552 19.4144C7.34995 19.4995 7.12375 19.5218 6.90552 19.4784C6.68729 19.435 6.48684 19.3279 6.3295 19.1705C6.17217 19.0132 6.06502 18.8127 6.02162 18.5945C5.97821 18.3763 6.00049 18.1501 6.08564 17.9445C6.17078 17.7389 6.31498 17.5632 6.49998 17.4396C6.68499 17.316 6.9025 17.25 7.125 17.25C7.42337 17.25 7.70952 17.3686 7.9205 17.5795C8.13147 17.7905 8.25 18.0767 8.25 18.375ZM10.875 18.75C10.6525 18.75 10.435 18.816 10.25 18.9396C10.065 19.0632 9.92078 19.2389 9.83564 19.4445C9.75049 19.6501 9.72821 19.8763 9.77162 20.0945C9.81502 20.3127 9.92217 20.5132 10.0795 20.6705C10.2368 20.8279 10.4373 20.935 10.6555 20.9784C10.8738 21.0218 11.1 20.9995 11.3055 20.9144C11.5111 20.8292 11.6868 20.685 11.8104 20.5C11.934 20.315 12 20.0975 12 19.875C12 19.5767 11.8815 19.2905 11.6705 19.0795C11.4595 18.8686 11.1734 18.75 10.875 18.75ZM15.375 17.25C15.1525 17.25 14.935 17.316 14.75 17.4396C14.565 17.5632 14.4208 17.7389 14.3356 17.9445C14.2505 18.1501 14.2282 18.3763 14.2716 18.5945C14.315 18.8127 14.4222 19.0132 14.5795 19.1705C14.7368 19.3279 14.9373 19.435 15.1555 19.4784C15.3738 19.5218 15.6 19.4995 15.8055 19.4144C16.0111 19.3292 16.1868 19.185 16.3104 19C16.434 18.815 16.5 18.5975 16.5 18.375C16.5 18.0767 16.3815 17.7905 16.1705 17.5795C15.9595 17.3686 15.6734 17.25 15.375 17.25ZM6.375 21C6.1525 21 5.93499 21.066 5.74998 21.1896C5.56498 21.3132 5.42078 21.4889 5.33564 21.6945C5.25049 21.9001 5.22821 22.1263 5.27162 22.3445C5.31502 22.5627 5.42217 22.7632 5.5795 22.9205C5.73684 23.0779 5.93729 23.185 6.15552 23.2284C6.37375 23.2718 6.59995 23.2495 6.80552 23.1644C7.01109 23.0792 7.18679 22.935 7.3104 22.75C7.43402 22.565 7.5 22.3475 7.5 22.125C7.5 21.8267 7.38147 21.5405 7.1705 21.3295C6.95952 21.1186 6.67337 21 6.375 21ZM14.625 21C14.4025 21 14.185 21.066 14 21.1896C13.815 21.3132 13.6708 21.4889 13.5856 21.6945C13.5005 21.9001 13.4782 22.1263 13.5216 22.3445C13.565 22.5627 13.6722 22.7632 13.8295 22.9205C13.9868 23.0779 14.1873 23.185 14.4055 23.2284C14.6238 23.2718 14.85 23.2495 15.0555 23.1644C15.2611 23.0792 15.4368 22.935 15.5604 22.75C15.684 22.565 15.75 22.3475 15.75 22.125C15.75 21.8267 15.6315 21.5405 15.4205 21.3295C15.2095 21.1186 14.9234 21 14.625 21ZM21.75 8.62503C21.748 10.5141 20.9967 12.3252 19.6609 13.661C18.3252 14.9967 16.5141 15.748 14.625 15.75H7.125C5.83207 15.75 4.59209 15.2364 3.67785 14.3222C2.76361 13.4079 2.25 12.168 2.25 10.875C2.25 9.5821 2.76361 8.34212 3.67785 7.42788C4.59209 6.51364 5.83207 6.00003 7.125 6.00003C7.40526 6.00026 7.68499 6.0241 7.96125 6.07128C8.55939 4.51762 9.68217 3.22214 11.1351 2.4093C12.588 1.59645 14.2794 1.31745 15.9164 1.62062C17.5534 1.9238 19.0327 2.79006 20.0982 4.06931C21.1636 5.34856 21.7479 6.96021 21.75 8.62503ZM20.25 8.62503C20.244 7.16445 19.6707 5.76337 18.6511 4.71755C17.6315 3.67174 16.2454 3.06305 14.7855 3.01998C13.3255 2.97691 11.9059 3.50284 10.8265 4.48673C9.747 5.47062 9.09209 6.83547 9 8.29315C8.99434 8.39164 8.96933 8.48805 8.92641 8.57688C8.88348 8.66571 8.82348 8.74521 8.74984 8.81085C8.6011 8.94341 8.40579 9.01146 8.20687 9.00003C8.00796 8.98859 7.82174 8.8986 7.68918 8.74986C7.55661 8.60112 7.48856 8.40581 7.5 8.2069C7.51312 7.97815 7.53719 7.75221 7.57219 7.52909C7.42388 7.51005 7.27452 7.50035 7.125 7.50003C6.22989 7.50003 5.37145 7.85561 4.73851 8.48854C4.10558 9.12148 3.75 9.97992 3.75 10.875C3.75 11.7701 4.10558 12.6286 4.73851 13.2615C5.37145 13.8944 6.22989 14.25 7.125 14.25H14.625C16.1163 14.2483 17.546 13.6551 18.6006 12.6006C19.6551 11.5461 20.2483 10.1163 20.25 8.62503Z" fill="#343330"/>
</svg>
