<svg width="24" height="24" viewBox="0 0 24 24" fill="none" xmlns="http://www.w3.org/2000/svg">
<path d="M16.125 6.74995C15.7368 6.74977 15.3493 6.78112 14.9662 6.8437C14.83 5.43591 14.2545 4.10659 13.3213 3.04381C12.3881 1.98103 11.1443 1.23858 9.76593 0.921508C9.64214 0.893069 9.51315 0.896533 9.39107 0.931576C9.26899 0.96662 9.1578 1.03209 9.06794 1.12186C8.97808 1.21162 8.9125 1.32274 8.87732 1.44479C8.84215 1.56683 8.83855 1.69581 8.86686 1.81963C9.04352 2.58919 9.04447 3.38867 8.86966 4.15865C8.69485 4.92863 8.34876 5.64932 7.85712 6.26715C7.36548 6.88499 6.74093 7.38409 6.02988 7.72736C5.31883 8.07063 4.53956 8.24925 3.74999 8.24995C3.3528 8.25 2.95687 8.20535 2.56968 8.11682C2.44579 8.08832 2.3167 8.09177 2.19452 8.12686C2.07234 8.16194 1.96108 8.22751 1.87119 8.3174C1.7813 8.40728 1.71574 8.51854 1.68065 8.64072C1.64557 8.76291 1.64211 8.892 1.67061 9.01588C1.8721 9.8847 2.24325 10.7051 2.76275 11.4301C3.28225 12.155 3.93986 12.7702 4.6978 13.2403C4.16474 13.9665 3.84333 14.8262 3.76923 15.724C3.69513 16.6218 3.87126 17.5225 4.27805 18.3263C4.68484 19.1301 5.30639 19.8054 6.07372 20.2774C6.84104 20.7493 7.72414 20.9994 8.62499 20.9999H16.125C18.0147 20.9999 19.8269 20.2493 21.1631 18.9131C22.4993 17.5769 23.25 15.7646 23.25 13.8749C23.25 11.9853 22.4993 10.173 21.1631 8.83681C19.8269 7.50061 18.0147 6.74995 16.125 6.74995ZM3.50343 9.74995C3.58499 9.74995 3.66749 9.74995 3.74999 9.74995C5.53959 9.74796 7.25533 9.03616 8.52077 7.77072C9.78621 6.50528 10.498 4.78955 10.5 2.99995C10.5 2.91651 10.5 2.83307 10.5 2.74963C11.3636 3.15379 12.1 3.78699 12.6289 4.58037C13.1578 5.37376 13.4591 6.29698 13.5 7.24963C12.5839 7.6134 11.753 8.16261 11.0592 8.86279C10.3655 9.56297 9.82401 10.399 9.46874 11.3184C8.83464 11.2087 8.1851 11.2256 7.55757 11.3681C6.93004 11.5107 6.33694 11.7761 5.81249 12.149C4.80378 11.6198 3.99365 10.7781 3.50343 9.74995ZM16.125 19.4999H8.62499C8.16339 19.4991 7.70687 19.4036 7.28365 19.2193C6.86044 19.035 6.47954 18.7658 6.16449 18.4284C5.84944 18.091 5.60695 17.6926 5.45201 17.2578C5.29706 16.823 5.23297 16.361 5.26368 15.9004C5.29439 15.4398 5.41925 14.9905 5.63055 14.58C5.84185 14.1696 6.13508 13.807 6.49213 13.5144C6.84918 13.2218 7.26245 13.0056 7.70639 12.8791C8.15032 12.7526 8.61549 12.7186 9.07311 12.779C9.03843 13.0012 9.01405 13.2281 9.00093 13.4568C8.99526 13.5553 9.00906 13.654 9.04151 13.7471C9.07397 13.8403 9.12446 13.9261 9.1901 13.9998C9.25574 14.0734 9.33524 14.1334 9.42407 14.1764C9.5129 14.2193 9.60931 14.2443 9.7078 14.2499C9.80629 14.2556 9.90494 14.2418 9.9981 14.2094C10.0913 14.1769 10.1771 14.1264 10.2508 14.0608C10.3244 13.9951 10.3844 13.9156 10.4273 13.8268C10.4703 13.738 10.4953 13.6416 10.5009 13.5431C10.522 13.169 10.581 12.798 10.6772 12.4359C10.6772 12.4209 10.6856 12.4059 10.6884 12.3909C10.9641 11.3779 11.5175 10.4621 12.2861 9.74696C13.0547 9.03184 14.008 8.54585 15.0382 8.34388C16.0685 8.1419 17.1347 8.23199 18.1164 8.60395C19.0982 8.97592 19.9564 9.61496 20.5942 10.4489C21.2319 11.2829 21.6238 12.2785 21.7256 13.3234C21.8274 14.3683 21.635 15.4209 21.1702 16.3622C20.7054 17.3036 19.9866 18.0962 19.0951 18.6507C18.2036 19.2051 17.1748 19.4993 16.125 19.4999Z" fill="#343330"/>
</svg>
