<svg width="24" height="24" viewBox="0 0 24 24" fill="none" xmlns="http://www.w3.org/2000/svg">
<path d="M14.8744 18.4162L11.8744 22.9162C11.8197 22.9982 11.7494 23.0686 11.6676 23.1235C11.5857 23.1783 11.4938 23.2165 11.3972 23.2358C11.202 23.2748 10.9993 23.2347 10.8337 23.1243C10.6682 23.0139 10.5532 22.8423 10.5142 22.6471C10.4751 22.452 10.5152 22.2493 10.6256 22.0837L13.6256 17.5837C13.736 17.4181 13.9077 17.3032 14.1028 17.2641C14.298 17.2251 14.5007 17.2652 14.6662 17.3756C14.8318 17.486 14.9468 17.6576 14.9858 17.8528C15.0249 18.0479 14.9848 18.2506 14.8744 18.4162ZM21.7378 8.20777C21.6314 6.38728 20.8309 4.67691 19.5014 3.42883C18.1718 2.18074 16.4143 1.48997 14.5907 1.49874C12.7671 1.50751 11.0163 2.21516 9.69881 3.47597C8.3813 4.73679 7.59736 6.45478 7.50844 8.27621C7.4975 8.47058 7.41304 8.65351 7.2722 8.78792C7.13136 8.92232 6.94467 8.99812 6.75 8.99996H6.69375C6.49576 8.98226 6.31249 8.88802 6.18293 8.73727C6.05336 8.58652 5.98773 8.39117 6 8.19277C6.02606 7.67131 6.09917 7.15326 6.21844 6.64496C6.23382 6.58113 6.23219 6.51439 6.21369 6.45139C6.19519 6.3884 6.16047 6.33137 6.11302 6.286C6.06556 6.24063 6.00703 6.20852 5.94327 6.19287C5.87951 6.17722 5.81275 6.17859 5.74969 6.19683C4.73446 6.49678 3.84419 7.11849 3.21298 7.96834C2.58177 8.81818 2.24381 9.85011 2.25 10.9087C2.26875 13.6003 4.51125 15.75 7.20375 15.75H10.5984L8.37562 19.0837C8.26523 19.2493 8.22514 19.452 8.26417 19.6471C8.3032 19.8423 8.41816 20.0139 8.58375 20.1243C8.74934 20.2347 8.95201 20.2748 9.14717 20.2358C9.34232 20.1968 9.51398 20.0818 9.62438 19.9162L12.4012 15.75H14.625C15.5955 15.7489 16.5556 15.5498 17.4464 15.1648C18.3373 14.7798 19.1402 14.2171 19.8061 13.511C20.4719 12.805 20.9867 11.9705 21.3188 11.0586C21.651 10.1467 21.7936 9.17666 21.7378 8.20777Z" fill="#343330"/>
</svg>
