<svg width="24" height="24" viewBox="0 0 24 24" fill="none" xmlns="http://www.w3.org/2000/svg">
<path d="M15.75 21.75C15.75 21.9489 15.671 22.1396 15.5303 22.2803C15.3897 22.4209 15.1989 22.5 15 22.5H9.75001C9.5511 22.5 9.36033 22.4209 9.21968 22.2803C9.07903 22.1396 9.00001 21.9489 9.00001 21.75C9.00001 21.551 9.07903 21.3603 9.21968 21.2196C9.36033 21.079 9.5511 21 9.75001 21H15C15.1989 21 15.3897 21.079 15.5303 21.2196C15.671 21.3603 15.75 21.551 15.75 21.75ZM12 18.75C12 18.551 11.921 18.3603 11.7803 18.2196C11.6397 18.079 11.4489 18 11.25 18H6.75001C6.5511 18 6.36033 18.079 6.21968 18.2196C6.07903 18.3603 6.00001 18.551 6.00001 18.75C6.00001 18.9489 6.07903 19.1396 6.21968 19.2803C6.36033 19.4209 6.5511 19.5 6.75001 19.5H11.25C11.4489 19.5 11.6397 19.4209 11.7803 19.2803C11.921 19.1396 12 18.9489 12 18.75ZM17.25 18H15C14.8011 18 14.6103 18.079 14.4697 18.2196C14.329 18.3603 14.25 18.551 14.25 18.75C14.25 18.9489 14.329 19.1396 14.4697 19.2803C14.6103 19.4209 14.8011 19.5 15 19.5H17.25C17.4489 19.5 17.6397 19.4209 17.7803 19.2803C17.921 19.1396 18 18.9489 18 18.75C18 18.551 17.921 18.3603 17.7803 18.2196C17.6397 18.079 17.4489 18 17.25 18ZM21.7378 8.95777C21.6314 7.13728 20.831 5.42691 19.5014 4.17883C18.1718 2.93074 16.4143 2.23997 14.5907 2.24874C12.7671 2.25751 11.0163 2.96516 9.69882 4.22597C8.3813 5.48679 7.59737 7.20478 7.50844 9.02621C7.49751 9.22058 7.41305 9.40351 7.27221 9.53792C7.13137 9.67232 6.94468 9.74812 6.75001 9.74996H6.69376C6.49577 9.73226 6.3125 9.63802 6.18294 9.48727C6.05337 9.33652 5.98774 9.14117 6.00001 8.94277C6.02607 8.42131 6.09918 7.90326 6.21845 7.39496C6.23383 7.33113 6.23219 7.26439 6.21369 7.20139C6.19519 7.1384 6.16048 7.08137 6.11302 7.036C6.06557 6.99063 6.00703 6.95852 5.94327 6.94287C5.87951 6.92722 5.81276 6.92859 5.7497 6.94683C4.73447 7.24678 3.8442 7.86849 3.21299 8.71834C2.58178 9.56818 2.24382 10.6001 2.25001 11.6587C2.26876 14.3503 4.51126 16.5 7.20376 16.5H14.625C15.5955 16.4989 16.5556 16.2998 17.4464 15.9148C18.3373 15.5298 19.1402 14.9671 19.8061 14.261C20.4719 13.555 20.9867 12.7205 21.3188 11.8086C21.651 10.8967 21.7936 9.92666 21.7378 8.95777Z" fill="#343330"/>
</svg>
