<svg width="24" height="24" viewBox="0 0 24 24" fill="none" xmlns="http://www.w3.org/2000/svg">
<path d="M15.375 6.74995C14.7333 6.74956 14.0944 6.83565 13.4756 7.00589C13.2314 6.60736 12.9347 6.24347 12.5934 5.92401L13.485 4.65182C13.5415 4.57112 13.5816 4.48008 13.6029 4.3839C13.6242 4.28771 13.6264 4.18827 13.6093 4.09125C13.5922 3.99423 13.5561 3.90152 13.5032 3.81843C13.4503 3.73534 13.3815 3.66349 13.3008 3.60698C13.2201 3.55047 13.129 3.51041 13.0329 3.48909C12.9367 3.46776 12.8372 3.46559 12.7402 3.4827C12.6432 3.4998 12.5505 3.53585 12.4674 3.58878C12.3843 3.64172 12.3124 3.7105 12.2559 3.7912L11.3644 5.06245C10.6312 4.69227 9.82131 4.49959 9 4.49995C8.94469 4.49995 8.89125 4.49995 8.83688 4.49995L8.56594 2.97276C8.55172 2.87325 8.51764 2.77761 8.46573 2.69154C8.41382 2.60546 8.34513 2.53069 8.26375 2.47168C8.18237 2.41267 8.08996 2.37063 7.99201 2.34804C7.89406 2.32545 7.79257 2.32278 7.69357 2.34019C7.59457 2.35761 7.50008 2.39474 7.41571 2.44939C7.33134 2.50405 7.25883 2.5751 7.20246 2.65833C7.1461 2.74157 7.10705 2.83528 7.08762 2.93391C7.06819 3.03253 7.06879 3.13406 7.08938 3.23245L7.35938 4.76432C6.52758 5.03944 5.77769 5.51799 5.17781 6.15651L3.90094 5.26307C3.8203 5.20518 3.72897 5.16386 3.63225 5.14153C3.53552 5.11919 3.43532 5.11628 3.33746 5.13297C3.23961 5.14965 3.14603 5.18559 3.06217 5.23871C2.97831 5.29184 2.90583 5.36108 2.84893 5.44242C2.79203 5.52377 2.75185 5.6156 2.73071 5.71259C2.70957 5.80959 2.7079 5.90981 2.72579 6.00746C2.74368 6.1051 2.78077 6.19823 2.83493 6.28142C2.88908 6.36462 2.95921 6.43625 3.04125 6.49214L4.3125 7.38464C3.94101 8.11765 3.74825 8.92817 3.75 9.74995C3.75 9.80339 3.75 9.85776 3.75 9.9112L2.22281 10.1812C2.03796 10.2136 1.87197 10.3141 1.7576 10.4629C1.64323 10.6117 1.5888 10.7979 1.60504 10.9849C1.62129 11.1718 1.70704 11.3459 1.84536 11.4727C1.98368 11.5996 2.16452 11.6699 2.35219 11.6699C2.39586 11.6699 2.43946 11.6661 2.4825 11.6587L4.0125 11.3887C4.14693 11.798 4.33145 12.1891 4.56187 12.5531C3.84449 13.2194 3.34437 14.0863 3.12666 15.0409C2.90894 15.9955 2.9837 16.9935 3.34122 17.905C3.69874 18.8165 4.32244 19.5993 5.1311 20.1513C5.93975 20.7033 6.8959 20.999 7.875 20.9999H15.375C17.2647 20.9999 19.0769 20.2493 20.4131 18.9131C21.7493 17.5769 22.5 15.7646 22.5 13.8749C22.5 11.9853 21.7493 10.173 20.4131 8.83681C19.0769 7.50062 17.2647 6.74995 15.375 6.74995ZM8.71125 11.3212C7.72532 11.151 6.71091 11.2875 5.805 11.7121C5.30371 10.8842 5.14199 9.89441 5.35365 8.94993C5.56531 8.00545 6.13396 7.17939 6.94067 6.64453C7.74737 6.10967 8.72964 5.90745 9.68202 6.08016C10.6344 6.25287 11.4831 6.78713 12.0506 7.5712C10.5207 8.37633 9.33436 9.70856 8.71125 11.3212Z" fill="#343330"/>
</svg>
