<svg width="24" height="24" viewBox="0 0 24 24" fill="none" xmlns="http://www.w3.org/2000/svg">
<path d="M14.8744 18.4163L11.8744 22.9163C11.8197 22.9983 11.7494 23.0687 11.6676 23.1235C11.5857 23.1784 11.4938 23.2165 11.3972 23.2359C11.202 23.2749 10.9993 23.2348 10.8337 23.1244C10.6682 23.014 10.5532 22.8423 10.5142 22.6472C10.4751 22.452 10.5152 22.2494 10.6256 22.0838L13.6256 17.5838C13.736 17.4182 13.9077 17.3032 14.1028 17.2642C14.298 17.2252 14.5007 17.2653 14.6663 17.3756C14.8318 17.486 14.9468 17.6577 14.9858 17.8529C15.0249 18.048 14.9848 18.2507 14.8744 18.4163ZM21.75 8.62502C21.748 10.5141 20.9967 12.3252 19.6609 13.661C18.3252 14.9967 16.5141 15.748 14.625 15.75H12.4012L9.62438 19.9163C9.56971 19.9983 9.49943 20.0687 9.41756 20.1235C9.33568 20.1784 9.2438 20.2165 9.14717 20.2359C9.05054 20.2552 8.95104 20.2553 8.85437 20.2362C8.7577 20.217 8.66574 20.1791 8.58375 20.1244C8.50176 20.0697 8.43133 19.9995 8.3765 19.9176C8.32166 19.8357 8.28349 19.7438 8.26417 19.6472C8.24484 19.5506 8.24474 19.4511 8.26386 19.3544C8.28298 19.2577 8.32096 19.1658 8.37562 19.0838L10.5984 15.75H7.125C5.83207 15.75 4.59209 15.2364 3.67785 14.3222C2.76361 13.4079 2.25 12.168 2.25 10.875C2.25 9.58209 2.76361 8.34212 3.67785 7.42788C4.59209 6.51364 5.83207 6.00002 7.125 6.00002C7.40526 6.00026 7.68499 6.0241 7.96125 6.07128C8.55939 4.51762 9.68217 3.22214 11.1351 2.4093C12.588 1.59645 14.2794 1.31745 15.9164 1.62062C17.5534 1.9238 19.0327 2.79006 20.0982 4.06931C21.1636 5.34856 21.7479 6.96021 21.75 8.62502ZM20.25 8.62502C20.244 7.16445 19.6707 5.76337 18.6511 4.71755C17.6315 3.67174 16.2454 3.06305 14.7855 3.01998C13.3255 2.97691 11.9059 3.50284 10.8265 4.48673C9.747 5.47062 9.09209 6.83547 9 8.29315C8.99434 8.39164 8.96933 8.48805 8.92641 8.57688C8.88348 8.66571 8.82348 8.74521 8.74984 8.81085C8.6011 8.94341 8.40579 9.01146 8.20687 9.00002C8.00796 8.98859 7.82174 8.8986 7.68918 8.74986C7.55661 8.60112 7.48856 8.40581 7.5 8.2069C7.51312 7.97815 7.53719 7.75221 7.57219 7.52909C7.42388 7.51005 7.27452 7.50035 7.125 7.50002C6.22989 7.50002 5.37145 7.8556 4.73851 8.48854C4.10558 9.12147 3.75 9.97992 3.75 10.875C3.75 11.7701 4.10558 12.6286 4.73851 13.2615C5.37145 13.8944 6.22989 14.25 7.125 14.25H14.625C16.1163 14.2483 17.546 13.6551 18.6006 12.6006C19.6551 11.5461 20.2483 10.1163 20.25 8.62502Z" fill="#343330"/>
</svg>
