<svg width="24" height="24" viewBox="0 0 24 24" fill="none" xmlns="http://www.w3.org/2000/svg">
<path d="M14.625 15.75H12.4247L11.0747 18H13.5C13.6328 18 13.7632 18.0352 13.8779 18.102C13.9926 18.1689 14.0875 18.265 14.1529 18.3806C14.2183 18.4961 14.2519 18.627 14.2502 18.7597C14.2484 18.8925 14.2115 19.0224 14.1431 19.1363L11.8931 22.8863C11.8424 22.9707 11.7755 23.0443 11.6964 23.103C11.6172 23.1616 11.5272 23.204 11.4316 23.2279C11.3361 23.2517 11.2367 23.2565 11.1393 23.242C11.0418 23.2274 10.9482 23.1938 10.8638 23.1431C10.7793 23.0924 10.7057 23.0255 10.647 22.9464C10.5884 22.8672 10.546 22.7772 10.5221 22.6816C10.4983 22.5861 10.4935 22.4867 10.508 22.3893C10.5226 22.2918 10.5562 22.1982 10.6069 22.1138L12.1753 19.5H9.75C9.61722 19.5 9.48681 19.4648 9.3721 19.398C9.25738 19.3311 9.16247 19.235 9.09707 19.1194C9.03167 19.0039 8.99811 18.873 8.99983 18.7403C9.00156 18.6075 9.0385 18.4776 9.10688 18.3638L10.6753 15.75H7.20657C4.51125 15.75 2.26875 13.6003 2.25 10.9088C2.24393 9.84992 2.58217 8.8178 3.21373 7.96793C3.8453 7.11806 4.73599 6.49648 5.75157 6.19688C5.81463 6.17863 5.88139 6.17727 5.94515 6.19292C6.00891 6.20857 6.06744 6.24068 6.1149 6.28605C6.16235 6.33142 6.19707 6.38845 6.21557 6.45144C6.23407 6.51443 6.2357 6.58118 6.22032 6.645C6.10042 7.15325 6.02668 7.67129 6 8.19281C5.98775 8.39136 6.05351 8.58684 6.18327 8.73762C6.31303 8.88839 6.49654 8.98254 6.69469 9H6.75094C6.94545 8.99793 7.1319 8.92202 7.27255 8.78764C7.41319 8.65327 7.49751 8.47046 7.50844 8.27625C7.57669 6.88359 8.05207 5.54156 8.87566 4.41645C9.69926 3.29135 10.8349 2.43263 12.1418 1.94669C13.4487 1.46076 14.8695 1.36897 16.2281 1.6827C17.5866 1.99644 18.8233 2.7019 19.7848 3.71168C20.7463 4.72145 21.3905 5.99116 21.6373 7.36347C21.8842 8.73577 21.723 10.1504 21.1737 11.4319C20.6244 12.7135 19.7111 13.8057 18.5471 14.5733C17.383 15.3408 16.0193 15.75 14.625 15.75Z" fill="#343330"/>
</svg>
