<svg width="24" height="24" viewBox="0 0 24 24" fill="none" xmlns="http://www.w3.org/2000/svg">
<path d="M8.25 18.375C8.25 18.5975 8.18402 18.815 8.0604 19C7.93679 19.185 7.76109 19.3292 7.55552 19.4143C7.34995 19.4995 7.12375 19.5217 6.90552 19.4783C6.68729 19.4349 6.48684 19.3278 6.3295 19.1704C6.17217 19.0131 6.06502 18.8127 6.02162 18.5944C5.97821 18.3762 6.00049 18.15 6.08564 17.9444C6.17078 17.7389 6.31498 17.5632 6.49998 17.4396C6.68499 17.3159 6.9025 17.25 7.125 17.25C7.42337 17.25 7.70952 17.3685 7.9205 17.5795C8.13147 17.7904 8.25 18.0766 8.25 18.375ZM10.875 18.75C10.6525 18.75 10.435 18.8159 10.25 18.9396C10.065 19.0632 9.92078 19.2389 9.83564 19.4444C9.75049 19.65 9.72821 19.8762 9.77162 20.0944C9.81502 20.3127 9.92217 20.5131 10.0795 20.6704C10.2368 20.8278 10.4373 20.9349 10.6555 20.9783C10.8738 21.0217 11.1 20.9995 11.3055 20.9143C11.5111 20.8292 11.6868 20.685 11.8104 20.5C11.934 20.315 12 20.0975 12 19.875C12 19.5766 11.8815 19.2904 11.6705 19.0795C11.4595 18.8685 11.1734 18.75 10.875 18.75ZM15.375 17.25C15.1525 17.25 14.935 17.3159 14.75 17.4396C14.565 17.5632 14.4208 17.7389 14.3356 17.9444C14.2505 18.15 14.2282 18.3762 14.2716 18.5944C14.315 18.8127 14.4222 19.0131 14.5795 19.1704C14.7368 19.3278 14.9373 19.4349 15.1555 19.4783C15.3738 19.5217 15.6 19.4995 15.8055 19.4143C16.0111 19.3292 16.1868 19.185 16.3104 19C16.434 18.815 16.5 18.5975 16.5 18.375C16.5 18.0766 16.3815 17.7904 16.1705 17.5795C15.9595 17.3685 15.6734 17.25 15.375 17.25ZM6.375 21C6.1525 21 5.93499 21.0659 5.74998 21.1896C5.56498 21.3132 5.42078 21.4889 5.33564 21.6944C5.25049 21.9 5.22821 22.1262 5.27162 22.3444C5.31502 22.5627 5.42217 22.7631 5.5795 22.9204C5.73684 23.0778 5.93729 23.1849 6.15552 23.2283C6.37375 23.2717 6.59995 23.2495 6.80552 23.1643C7.01109 23.0792 7.18679 22.935 7.3104 22.75C7.43402 22.565 7.5 22.3475 7.5 22.125C7.5 21.8266 7.38147 21.5404 7.1705 21.3295C6.95952 21.1185 6.67337 21 6.375 21ZM14.625 21C14.4025 21 14.185 21.0659 14 21.1896C13.815 21.3132 13.6708 21.4889 13.5856 21.6944C13.5005 21.9 13.4782 22.1262 13.5216 22.3444C13.565 22.5627 13.6722 22.7631 13.8295 22.9204C13.9868 23.0778 14.1873 23.1849 14.4055 23.2283C14.6238 23.2717 14.85 23.2495 15.0555 23.1643C15.2611 23.0792 15.4368 22.935 15.5604 22.75C15.684 22.565 15.75 22.3475 15.75 22.125C15.75 21.8266 15.6315 21.5404 15.4205 21.3295C15.2095 21.1185 14.9234 21 14.625 21ZM21.7378 8.20777C21.6314 6.38728 20.8309 4.67691 19.5014 3.42883C18.1718 2.18074 16.4143 1.48997 14.5907 1.49874C12.7671 1.50751 11.0163 2.21516 9.69881 3.47597C8.3813 4.73679 7.59736 6.45478 7.50844 8.27621C7.4975 8.47058 7.41304 8.65351 7.2722 8.78792C7.13136 8.92232 6.94467 8.99812 6.75 8.99996H6.69375C6.49576 8.98226 6.31249 8.88802 6.18293 8.73727C6.05336 8.58652 5.98773 8.39117 6 8.19277C6.02606 7.67131 6.09917 7.15326 6.21844 6.64496C6.23382 6.58113 6.23219 6.51439 6.21369 6.45139C6.19519 6.3884 6.16047 6.33137 6.11302 6.286C6.06556 6.24063 6.00703 6.20852 5.94327 6.19287C5.87951 6.17722 5.81275 6.17859 5.74969 6.19683C4.73446 6.49678 3.84419 7.11849 3.21298 7.96834C2.58177 8.81818 2.24381 9.85011 2.25 10.9087C2.26875 13.6003 4.51125 15.75 7.20375 15.75H14.625C15.5955 15.7489 16.5556 15.5498 17.4464 15.1648C18.3373 14.7798 19.1402 14.2171 19.8061 13.511C20.4719 12.805 20.9867 11.9705 21.3188 11.0586C21.651 10.1467 21.7936 9.17666 21.7378 8.20777Z" fill="#343330"/>
</svg>
