<svg width="24" height="24" viewBox="0 0 24 24" fill="none" xmlns="http://www.w3.org/2000/svg">
<path d="M16.125 6.74995C15.7369 6.74973 15.3493 6.78108 14.9663 6.8437C14.83 5.43591 14.2546 4.10659 13.3213 3.04381C12.3881 1.98103 11.1443 1.23858 9.76594 0.921508C9.64215 0.893069 9.51317 0.896533 9.39109 0.931576C9.269 0.96662 9.15782 1.03209 9.06796 1.12186C8.9781 1.21162 8.91251 1.32274 8.87734 1.44479C8.84217 1.56683 8.83857 1.69581 8.86688 1.81963C9.04353 2.58919 9.04449 3.38867 8.86967 4.15865C8.69486 4.92863 8.34878 5.64932 7.85714 6.26715C7.3655 6.88499 6.74095 7.38409 6.0299 7.72736C5.31885 8.07063 4.53958 8.24925 3.75 8.24995C3.35282 8.25 2.95689 8.20535 2.56969 8.11682C2.44581 8.08832 2.31671 8.09177 2.19453 8.12686C2.07235 8.16194 1.96109 8.22751 1.8712 8.3174C1.78132 8.40728 1.71575 8.51854 1.68067 8.64072C1.64558 8.76291 1.64213 8.892 1.67063 9.01588C1.87211 9.8847 2.24326 10.7051 2.76276 11.4301C3.28226 12.155 3.93987 12.7702 4.69782 13.2403C4.16476 13.9665 3.84334 14.8262 3.76925 15.724C3.69515 16.6218 3.87127 17.5225 4.27806 18.3263C4.68485 19.1301 5.3064 19.8054 6.07373 20.2774C6.84106 20.7493 7.72415 20.9994 8.625 20.9999H16.125C18.0147 20.9999 19.8269 20.2493 21.1631 18.9131C22.4993 17.5769 23.25 15.7646 23.25 13.8749C23.25 11.9853 22.4993 10.173 21.1631 8.83681C19.8269 7.50061 18.0147 6.74995 16.125 6.74995ZM3.50344 9.74995C3.585 9.74995 3.6675 9.74995 3.75 9.74995C5.53961 9.74796 7.25534 9.03616 8.52078 7.77072C9.78622 6.50528 10.498 4.78955 10.5 2.99995C10.5 2.91651 10.5 2.83307 10.5 2.74963C11.3643 3.15424 12.101 3.78818 12.6299 4.58245C13.1589 5.37672 13.4598 6.30088 13.5 7.25432C12.5843 7.61868 11.7536 8.1681 11.06 8.8682C10.3663 9.5683 9.82462 10.404 9.46875 11.3231C9.19014 11.2744 8.90784 11.25 8.625 11.2499C7.61681 11.2498 6.63365 11.564 5.8125 12.149C4.8038 11.6198 3.99367 10.7781 3.50344 9.74995Z" fill="#343330"/>
</svg>
