<svg width="24" height="24" viewBox="0 0 24 24" fill="none" xmlns="http://www.w3.org/2000/svg">
<path d="M17.25 8.24997C17.1769 8.24997 17.1037 8.24997 17.0316 8.24997C17.2649 7.46643 17.3121 6.63921 17.1693 5.83422C17.0265 5.02924 16.6976 4.26873 16.2089 3.61329C15.7203 2.95786 15.0853 2.4256 14.3545 2.05894C13.6238 1.69228 12.8176 1.50134 12 1.50134C11.1824 1.50134 10.3762 1.69228 9.64545 2.05894C8.91473 2.4256 8.27973 2.95786 7.79106 3.61329C7.30239 4.26873 6.97354 5.02924 6.83072 5.83422C6.6879 6.63921 6.73506 7.46643 6.96843 8.24997C6.89531 8.24997 6.82312 8.24997 6.75 8.24997C5.96045 8.25035 5.18115 8.42881 4.47012 8.77207C3.75909 9.11532 3.13464 9.61453 2.64325 10.2325C2.15186 10.8505 1.80618 11.5714 1.63196 12.3415C1.45774 13.1116 1.45945 13.911 1.63697 14.6804C1.81449 15.4497 2.16325 16.1691 2.65728 16.785C3.15132 17.4009 3.7779 17.8974 4.4904 18.2376C5.20289 18.5778 5.98295 18.7529 6.77249 18.7499C7.56203 18.7469 8.34073 18.5659 9.05062 18.2203L8.28187 20.7843C8.24826 20.8963 8.24129 21.0146 8.26152 21.1297C8.28175 21.2449 8.32862 21.3537 8.39839 21.4475C8.46816 21.5413 8.55889 21.6175 8.66334 21.6701C8.7678 21.7226 8.88308 21.7499 9 21.75H15C15.1169 21.7499 15.2322 21.7226 15.3366 21.6701C15.4411 21.6175 15.5318 21.5413 15.6016 21.4475C15.6714 21.3537 15.7182 21.2449 15.7385 21.1297C15.7587 21.0146 15.7517 20.8963 15.7181 20.7843L14.9494 18.2203C15.6593 18.5659 16.438 18.7469 17.2275 18.7499C18.017 18.7529 18.7971 18.5778 19.5096 18.2376C20.2221 17.8974 20.8487 17.4009 21.3427 16.785C21.8367 16.1691 22.1855 15.4497 22.363 14.6804C22.5405 13.911 22.5423 13.1116 22.368 12.3415C22.1938 11.5714 21.8481 10.8505 21.3567 10.2325C20.8654 9.61453 20.2409 9.11532 19.5299 8.77207C18.8188 8.42881 18.0395 8.25035 17.25 8.24997ZM17.25 17.25C16.6292 17.2499 16.0181 17.0956 15.4716 16.8011C14.925 16.5066 14.4602 16.081 14.1187 15.5625C14.0193 15.4129 13.8694 15.3039 13.6964 15.2555C13.5235 15.207 13.3388 15.2223 13.1761 15.2985C13.0134 15.3747 12.8835 15.5067 12.8099 15.6706C12.7364 15.8345 12.7241 16.0193 12.7753 16.1915L13.9941 20.2472H10.0097L11.2284 16.1915C11.2829 16.0181 11.2725 15.8309 11.1992 15.6646C11.126 15.4983 10.9948 15.3642 10.8302 15.2873C10.6655 15.2104 10.4785 15.1959 10.304 15.2466C10.1295 15.2972 9.97924 15.4094 9.88125 15.5625C9.49374 16.1494 8.94899 16.6155 8.30921 16.9076C7.66943 17.1997 6.9604 17.306 6.2631 17.2143C5.5658 17.1226 4.90832 16.8367 4.36575 16.3892C3.82319 15.9417 3.4174 15.3507 3.19472 14.6836C2.97205 14.0164 2.94147 13.3001 3.10648 12.6165C3.27148 11.9328 3.62542 11.3093 4.12788 10.8172C4.63033 10.3251 5.26105 9.98419 5.948 9.83344C6.63496 9.68269 7.35046 9.72816 8.01281 9.96466C8.16154 10.0178 8.32327 10.0227 8.47493 9.97854C8.62659 9.93439 8.76044 9.84349 8.8574 9.71879C8.95435 9.59409 9.00946 9.44196 9.01486 9.2841C9.02027 9.12624 8.9757 8.9707 8.8875 8.83966C8.50826 8.27532 8.28959 7.6185 8.25489 6.93946C8.22018 6.26043 8.37074 5.58473 8.69046 4.98467C9.01018 4.38461 9.48703 3.88277 10.07 3.53283C10.6529 3.1829 11.3201 2.99804 12 2.99804C12.6799 2.99804 13.347 3.1829 13.93 3.53283C14.513 3.88277 14.9898 4.38461 15.3095 4.98467C15.6293 5.58473 15.7798 6.26043 15.7451 6.93946C15.7104 7.6185 15.4917 8.27532 15.1125 8.83966C15.0243 8.9707 14.9797 9.12624 14.9851 9.2841C14.9905 9.44196 15.0456 9.59409 15.1426 9.71879C15.2395 9.84349 15.3734 9.93439 15.5251 9.97854C15.6767 10.0227 15.8384 10.0178 15.9872 9.96466C16.5016 9.78269 17.0495 9.71518 17.5927 9.76682C18.1359 9.81847 18.6613 9.98803 19.1322 10.2637C19.6031 10.5393 20.0081 10.9144 20.3191 11.3627C20.6301 11.8111 20.8395 12.3219 20.9327 12.8595C21.0258 13.3971 21.0006 13.9486 20.8587 14.4755C20.7167 15.0023 20.4615 15.4919 20.1109 15.9099C19.7602 16.328 19.3225 16.6645 18.8284 16.8959C18.3343 17.1274 17.7956 17.2482 17.25 17.25Z" fill="#343330"/>
</svg>
