<svg width="24" height="24" viewBox="0 0 24 24" fill="none" xmlns="http://www.w3.org/2000/svg">
<path d="M10.4522 4.93406C10.276 4.75837 10.0585 4.62988 9.81957 4.56045C9.58066 4.49101 9.32812 4.48287 9.08524 4.53677C8.84236 4.59067 8.61697 4.70488 8.42987 4.86885C8.24276 5.03283 8.09998 5.24129 8.01468 5.475L3.09374 19.0106C3.01291 19.2338 2.98679 19.4732 3.0176 19.7086C3.04841 19.944 3.13523 20.1685 3.27079 20.3634C3.40635 20.5583 3.58668 20.7178 3.79665 20.8286C4.00662 20.9394 4.2401 20.9981 4.47749 21C4.65228 20.9988 4.82551 20.9671 4.98937 20.9062L18.5241 15.9844C18.7578 15.8992 18.9664 15.7565 19.1305 15.5694C19.2945 15.3824 19.4089 15.157 19.4629 14.9141C19.5169 14.6712 19.5088 14.4186 19.4394 14.1797C19.3701 13.9407 19.2416 13.7231 19.0659 13.5469L10.4522 4.93406ZM9.67125 17.61L6.38999 14.3287L7.62374 10.9341L13.0659 16.3762L9.67125 17.61ZM4.51499 19.485L5.82749 15.8841L8.11968 18.1763L4.51499 19.485ZM14.625 15.81L8.18999 9.375L9.40875 6.01219L17.9803 14.5837L14.625 15.81ZM15 6.75C15.0141 6.24297 15.1368 5.74488 15.36 5.28937C15.8569 4.29656 16.7944 3.75 18 3.75C18.6281 3.75 19.0312 3.53531 19.2797 3.07406C19.4105 2.81601 19.4856 2.53333 19.5 2.24437C19.5007 2.04546 19.5805 1.85499 19.7217 1.71487C19.8628 1.57474 20.0539 1.49644 20.2528 1.49719C20.4517 1.49793 20.6422 1.57767 20.7823 1.71885C20.9224 1.86003 21.0007 2.05109 21 2.25C21 3.45563 20.2012 5.25 18 5.25C17.3719 5.25 16.9687 5.46469 16.7203 5.92594C16.5895 6.18399 16.5144 6.46667 16.5 6.75562C16.4996 6.85412 16.4799 6.95157 16.4418 7.04242C16.4038 7.13328 16.3482 7.21575 16.2783 7.28513C16.2084 7.35451 16.1255 7.40945 16.0344 7.4468C15.9433 7.48415 15.8457 7.50318 15.7472 7.50281C15.6487 7.50244 15.5512 7.48268 15.4604 7.44465C15.3695 7.40661 15.2871 7.35106 15.2177 7.28115C15.1483 7.21125 15.0934 7.12836 15.056 7.03723C15.0187 6.94609 14.9996 6.84849 15 6.75ZM12.75 3.75V1.5C12.75 1.30109 12.829 1.11032 12.9697 0.96967C13.1103 0.829018 13.3011 0.75 13.5 0.75C13.6989 0.75 13.8897 0.829018 14.0303 0.96967C14.171 1.11032 14.25 1.30109 14.25 1.5V3.75C14.25 3.94891 14.171 4.13968 14.0303 4.28033C13.8897 4.42098 13.6989 4.5 13.5 4.5C13.3011 4.5 13.1103 4.42098 12.9697 4.28033C12.829 4.13968 12.75 3.94891 12.75 3.75ZM22.2806 11.4694C22.3502 11.5391 22.4055 11.6218 22.4431 11.7128C22.4808 11.8038 22.5001 11.9014 22.5001 11.9999C22.5 12.0984 22.4806 12.1959 22.4429 12.2869C22.4051 12.3779 22.3498 12.4605 22.2802 12.5302C22.2105 12.5998 22.1278 12.655 22.0367 12.6926C21.9457 12.7303 21.8482 12.7497 21.7497 12.7496C21.6512 12.7496 21.5536 12.7301 21.4626 12.6924C21.3717 12.6547 21.289 12.5994 21.2194 12.5297L19.7194 11.0297C19.5786 10.889 19.4996 10.6981 19.4996 10.4991C19.4996 10.3 19.5786 10.1092 19.7194 9.96844C19.8601 9.82771 20.051 9.74865 20.25 9.74865C20.449 9.74865 20.6399 9.82771 20.7806 9.96844L22.2806 11.4694ZM22.7372 7.46156L20.4872 8.21156C20.2985 8.27447 20.0925 8.25983 19.9146 8.17087C19.7366 8.0819 19.6013 7.92591 19.5384 7.73719C19.4755 7.54847 19.4902 7.34249 19.5791 7.16457C19.6681 6.98664 19.8241 6.85134 20.0128 6.78844L22.2628 6.03844C22.4515 5.97553 22.6575 5.99017 22.8354 6.07913C23.0134 6.1681 23.1487 6.32409 23.2116 6.51281C23.2745 6.70153 23.2598 6.90751 23.1709 7.08543C23.0819 7.26336 22.9259 7.39866 22.7372 7.46156Z" fill="#343330"/>
</svg>
