<svg width="24" height="24" viewBox="0 0 24 24" fill="none" xmlns="http://www.w3.org/2000/svg">
<path d="M9.75 18C9.75 18.1989 9.67098 18.3897 9.53033 18.5303C9.38968 18.671 9.19891 18.75 9 18.75H7.5C7.30109 18.75 7.11032 18.671 6.96967 18.5303C6.82902 18.3897 6.75 18.1989 6.75 18C6.75 17.8011 6.82902 17.6103 6.96967 17.4697C7.11032 17.329 7.30109 17.25 7.5 17.25H9C9.19891 17.25 9.38968 17.329 9.53033 17.4697C9.67098 17.6103 9.75 17.8011 9.75 18ZM16.5 17.25H15C14.8011 17.25 14.6103 17.329 14.4697 17.4697C14.329 17.6103 14.25 17.8011 14.25 18C14.25 18.1989 14.329 18.3897 14.4697 18.5303C14.6103 18.671 14.8011 18.75 15 18.75H16.5C16.6989 18.75 16.8897 18.671 17.0303 18.5303C17.171 18.3897 17.25 18.1989 17.25 18C17.25 17.8011 17.171 17.6103 17.0303 17.4697C16.8897 17.329 16.6989 17.25 16.5 17.25ZM9.375 12.75C9.5975 12.75 9.81501 12.684 10 12.5604C10.185 12.4368 10.3292 12.2611 10.4144 12.0555C10.4995 11.85 10.5218 11.6238 10.4784 11.4055C10.435 11.1873 10.3278 10.9868 10.1705 10.8295C10.0132 10.6722 9.8127 10.565 9.59447 10.5216C9.37625 10.4782 9.15005 10.5005 8.94448 10.5856C8.73891 10.6708 8.56321 10.815 8.43959 11C8.31598 11.185 8.25 11.4025 8.25 11.625C8.25 11.9234 8.36852 12.2095 8.5795 12.4205C8.79048 12.6315 9.07663 12.75 9.375 12.75ZM14.625 12.75C14.8475 12.75 15.065 12.684 15.25 12.5604C15.435 12.4368 15.5792 12.2611 15.6644 12.0555C15.7495 11.85 15.7718 11.6238 15.7284 11.4055C15.685 11.1873 15.5778 10.9868 15.4205 10.8295C15.2632 10.6722 15.0627 10.565 14.8445 10.5216C14.6262 10.4782 14.4 10.5005 14.1945 10.5856C13.9889 10.6708 13.8132 10.815 13.6896 11C13.566 11.185 13.5 11.4025 13.5 11.625C13.5 11.9234 13.6185 12.2095 13.8295 12.4205C14.0405 12.6315 14.3266 12.75 14.625 12.75ZM22.9116 11.4488C22.7709 11.621 22.5937 11.7598 22.3928 11.8551C22.1919 11.9505 21.9724 12 21.75 12H18.75V15C19.3796 15.4722 19.8447 16.1306 20.0794 16.8819C20.3141 17.6331 20.3064 18.4392 20.0576 19.1859C19.8087 19.9325 19.3312 20.582 18.6927 21.0422C18.0542 21.5024 17.2871 21.75 16.5 21.75H7.5C6.71294 21.75 5.94583 21.5024 5.30733 21.0422C4.66884 20.582 4.19133 19.9325 3.94244 19.1859C3.69355 18.4392 3.6859 17.6331 3.92057 16.8819C4.15525 16.1306 4.62035 15.4722 5.25 15V12H2.25C2.02939 11.9996 1.81157 11.9506 1.61208 11.8564C1.41258 11.7623 1.23632 11.6252 1.09585 11.4551C0.955373 11.285 0.854151 11.086 0.799395 10.8723C0.744639 10.6586 0.737696 10.4354 0.77906 10.2188C1.01954 9.03004 1.66324 7.96088 2.60128 7.19215C3.53931 6.42341 4.71408 6.00228 5.92687 6H6.08062C5.58012 5.51213 5.18241 4.92897 4.91093 4.28491C4.63946 3.64085 4.49974 2.94894 4.5 2.25C4.5 2.05109 4.57902 1.86032 4.71967 1.71967C4.86032 1.57902 5.05109 1.5 5.25 1.5C5.44891 1.5 5.63968 1.57902 5.78033 1.71967C5.92098 1.86032 6 2.05109 6 2.25C6 3.24456 6.39509 4.19839 7.09835 4.90165C7.80161 5.60491 8.75544 6 9.75 6H14.25C14.7425 6 15.2301 5.903 15.6851 5.71455C16.14 5.52609 16.5534 5.24987 16.9016 4.90165C17.2499 4.55343 17.5261 4.14003 17.7145 3.68506C17.903 3.23009 18 2.74246 18 2.25C18 2.05109 18.079 1.86032 18.2197 1.71967C18.3603 1.57902 18.5511 1.5 18.75 1.5C18.9489 1.5 19.1397 1.57902 19.2803 1.71967C19.421 1.86032 19.5 2.05109 19.5 2.25C19.5003 2.94894 19.3605 3.64085 19.0891 4.28491C18.8176 4.92897 18.4199 5.51213 17.9194 6H18.0731C19.2859 6.00228 20.4607 6.42341 21.3987 7.19215C22.3368 7.96088 22.9805 9.03004 23.2209 10.2188C23.2635 10.4339 23.2579 10.6558 23.2044 10.8685C23.1509 11.0812 23.0509 11.2794 22.9116 11.4488ZM6.75 14.325C6.9969 14.2752 7.24813 14.2501 7.5 14.25H16.5C16.7519 14.2501 17.0031 14.2752 17.25 14.325V9.75C17.25 9.15326 17.0129 8.58097 16.591 8.15901C16.169 7.73705 15.5967 7.5 15 7.5H9C8.40326 7.5 7.83096 7.73705 7.40901 8.15901C6.98705 8.58097 6.75 9.15326 6.75 9.75V14.325ZM5.25 10.5V9.75C5.24871 8.9384 5.51201 8.1485 6 7.5H5.925C5.06093 7.50141 4.22373 7.8005 3.55437 8.34692C2.88501 8.89334 2.42436 9.6537 2.25 10.5H5.25ZM18.75 18C18.75 17.4033 18.5129 16.831 18.091 16.409C17.669 15.9871 17.0967 15.75 16.5 15.75H7.5C6.90326 15.75 6.33096 15.9871 5.90901 16.409C5.48705 16.831 5.25 17.4033 5.25 18C5.25 18.5967 5.48705 19.169 5.90901 19.591C6.33096 20.0129 6.90326 20.25 7.5 20.25H16.5C17.0967 20.25 17.669 20.0129 18.091 19.591C18.5129 19.169 18.75 18.5967 18.75 18ZM21.75 10.5C21.5758 9.65362 21.1152 8.89315 20.4458 8.34671C19.7764 7.80026 18.9391 7.50123 18.075 7.5H18C18.488 8.1485 18.7513 8.9384 18.75 9.75V10.5H21.75Z" fill="#343330"/>
</svg>
