<svg width="24" height="24" viewBox="0 0 24 24" fill="none" xmlns="http://www.w3.org/2000/svg">
<path d="M9.75001 18C9.75001 18.1989 9.67099 18.3897 9.53034 18.5303C9.38969 18.671 9.19893 18.75 9.00001 18.75H7.50001C7.3011 18.75 7.11034 18.671 6.96968 18.5303C6.82903 18.3897 6.75001 18.1989 6.75001 18C6.75001 17.8011 6.82903 17.6103 6.96968 17.4697C7.11034 17.329 7.3011 17.25 7.50001 17.25H9.00001C9.19893 17.25 9.38969 17.329 9.53034 17.4697C9.67099 17.6103 9.75001 17.8011 9.75001 18ZM16.5 17.25H15C14.8011 17.25 14.6103 17.329 14.4697 17.4697C14.329 17.6103 14.25 17.8011 14.25 18C14.25 18.1989 14.329 18.3897 14.4697 18.5303C14.6103 18.671 14.8011 18.75 15 18.75H16.5C16.6989 18.75 16.8897 18.671 17.0303 18.5303C17.171 18.3897 17.25 18.1989 17.25 18C17.25 17.8011 17.171 17.6103 17.0303 17.4697C16.8897 17.329 16.6989 17.25 16.5 17.25ZM22.9116 11.4488C22.7709 11.621 22.5937 11.7598 22.3929 11.8551C22.192 11.9505 21.9724 12 21.75 12H18.75V15C19.3797 15.4722 19.8448 16.1306 20.0794 16.8819C20.3141 17.6331 20.3065 18.4392 20.0576 19.1859C19.8087 19.9325 19.3312 20.582 18.6927 21.0422C18.0542 21.5024 17.2871 21.75 16.5 21.75H7.50001C6.71295 21.75 5.94585 21.5024 5.30735 21.0422C4.66885 20.582 4.19134 19.9325 3.94245 19.1859C3.69356 18.4392 3.68591 17.6331 3.92059 16.8819C4.15526 16.1306 4.62037 15.4722 5.25001 15V12H2.25001C2.0294 11.9996 1.81159 11.9506 1.61209 11.8564C1.4126 11.7623 1.23633 11.6252 1.09586 11.4551C0.955388 11.285 0.854167 11.086 0.79941 10.8723C0.744654 10.6586 0.737711 10.4354 0.779075 10.2188C1.01956 9.03004 1.66326 7.96088 2.60129 7.19215C3.53932 6.42341 4.7141 6.00228 5.92689 6H6.08064C5.58014 5.51213 5.18242 4.92897 4.91095 4.28491C4.63948 3.64085 4.49975 2.94894 4.50001 2.25C4.50001 2.05109 4.57903 1.86032 4.71968 1.71967C4.86034 1.57902 5.0511 1.5 5.25001 1.5C5.44893 1.5 5.63969 1.57902 5.78034 1.71967C5.921 1.86032 6.00001 2.05109 6.00001 2.25C6.00001 3.24456 6.3951 4.19839 7.09836 4.90165C7.80162 5.60491 8.75545 6 9.75001 6H14.25C14.7425 6 15.2301 5.903 15.6851 5.71455C16.14 5.52609 16.5534 5.24987 16.9017 4.90165C17.2499 4.55343 17.5261 4.14003 17.7146 3.68506C17.903 3.23009 18 2.74246 18 2.25C18 2.05109 18.079 1.86032 18.2197 1.71967C18.3603 1.57902 18.5511 1.5 18.75 1.5C18.9489 1.5 19.1397 1.57902 19.2803 1.71967C19.421 1.86032 19.5 2.05109 19.5 2.25C19.5003 2.94894 19.3605 3.64085 19.0891 4.28491C18.8176 4.92897 18.4199 5.51213 17.9194 6H18.0731C19.2859 6.00228 20.4607 6.42341 21.3987 7.19215C22.3368 7.96088 22.9805 9.03004 23.221 10.2188C23.2635 10.4339 23.2579 10.6558 23.2044 10.8685C23.1509 11.0812 23.0509 11.2794 22.9116 11.4488ZM13.5 11.625C13.5 11.8475 13.566 12.065 13.6896 12.25C13.8132 12.435 13.9889 12.5792 14.1945 12.6644C14.4001 12.7495 14.6263 12.7718 14.8445 12.7284C15.0627 12.685 15.2632 12.5778 15.4205 12.4205C15.5778 12.2632 15.685 12.0627 15.7284 11.8445C15.7718 11.6262 15.7495 11.4 15.6644 11.1945C15.5792 10.9889 15.435 10.8132 15.25 10.6896C15.065 10.566 14.8475 10.5 14.625 10.5C14.3266 10.5 14.0405 10.6185 13.8295 10.8295C13.6185 11.0405 13.5 11.3266 13.5 11.625ZM8.25001 11.625C8.25001 11.8475 8.31599 12.065 8.43961 12.25C8.56323 12.435 8.73893 12.5792 8.94449 12.6644C9.15006 12.7495 9.37626 12.7718 9.59449 12.7284C9.81272 12.685 10.0132 12.5778 10.1705 12.4205C10.3278 12.2632 10.435 12.0627 10.4784 11.8445C10.5218 11.6262 10.4995 11.4 10.4144 11.1945C10.3292 10.9889 10.185 10.8132 10 10.6896C9.81502 10.566 9.59752 10.5 9.37501 10.5C9.07664 10.5 8.7905 10.6185 8.57952 10.8295C8.36854 11.0405 8.25001 11.3266 8.25001 11.625ZM5.25001 10.5V9.75C5.24872 8.9384 5.51202 8.1485 6.00001 7.5H5.92501C5.06094 7.50141 4.22375 7.8005 3.55438 8.34692C2.88502 8.89334 2.42438 9.6537 2.25001 10.5H5.25001ZM18.75 18C18.75 17.4033 18.513 16.831 18.091 16.409C17.669 15.9871 17.0968 15.75 16.5 15.75H7.50001C6.90328 15.75 6.33098 15.9871 5.90902 16.409C5.48707 16.831 5.25001 17.4033 5.25001 18C5.25001 18.5967 5.48707 19.169 5.90902 19.591C6.33098 20.0129 6.90328 20.25 7.50001 20.25H16.5C17.0968 20.25 17.669 20.0129 18.091 19.591C18.513 19.169 18.75 18.5967 18.75 18ZM21.75 10.5C21.5758 9.65362 21.1152 8.89315 20.4458 8.34671C19.7764 7.80026 18.9391 7.50123 18.075 7.5H18C18.488 8.1485 18.7513 8.9384 18.75 9.75V10.5H21.75Z" fill="#343330"/>
</svg>
