<svg width="24" height="24" viewBox="0 0 24 24" fill="none" xmlns="http://www.w3.org/2000/svg">
<path d="M23.25 7.50002C23.2504 7.08889 23.1541 6.68342 22.9691 6.31628C22.7841 5.94914 22.5154 5.6306 22.1847 5.38632C21.854 5.14204 21.4705 4.97885 21.0652 4.90991C20.6599 4.84096 20.2441 4.86818 19.8512 4.98937C19.4583 5.11057 19.0994 5.32235 18.8034 5.60765C18.5074 5.89296 18.2825 6.24381 18.1469 6.63194C18.0113 7.02006 17.9688 7.43462 18.0227 7.8422C18.0767 8.24977 18.2256 8.63898 18.4575 8.97846L15.9459 12.0722L13.6875 6.88128C14.0994 6.5346 14.3947 6.06967 14.5335 5.54949C14.6723 5.02931 14.6477 4.47905 14.4632 3.97328C14.2787 3.46752 13.9431 3.03072 13.502 2.72209C13.0609 2.41346 12.5356 2.24792 11.9972 2.24792C11.4588 2.24792 10.9335 2.41346 10.4924 2.72209C10.0512 3.03072 9.71567 3.46752 9.53116 3.97328C9.34665 4.47905 9.32212 5.02931 9.46087 5.54949C9.59963 6.06967 9.89498 6.5346 10.3069 6.88128L8.05406 12.0694L5.5425 8.97565C5.86513 8.50291 6.02442 7.93768 5.9961 7.36604C5.96778 6.7944 5.75342 6.24768 5.38564 5.80915C5.01787 5.37061 4.51684 5.06429 3.95888 4.93683C3.40091 4.80938 2.81657 4.86778 2.29487 5.10313C1.77316 5.33849 1.34267 5.73791 1.06895 6.24056C0.795243 6.7432 0.693312 7.32154 0.778684 7.88747C0.864057 8.45341 1.13205 8.97594 1.54186 9.37547C1.95167 9.77501 2.48083 10.0297 3.04875 10.1006L4.40625 18.2466C4.46461 18.5968 4.6453 18.915 4.91619 19.1445C5.18707 19.374 5.53058 19.5 5.88562 19.5H18.1144C18.4694 19.5 18.8129 19.374 19.0838 19.1445C19.3547 18.915 19.5354 18.5968 19.5938 18.2466L20.9503 10.1044C21.5852 10.0251 22.1692 9.7167 22.5927 9.23712C23.0162 8.75754 23.2499 8.13981 23.25 7.50002ZM12 3.75002C12.2225 3.75002 12.44 3.816 12.625 3.93962C12.81 4.06324 12.9542 4.23894 13.0394 4.44451C13.1245 4.65007 13.1468 4.87627 13.1034 5.0945C13.06 5.31273 12.9528 5.51319 12.7955 5.67052C12.6382 5.82785 12.4377 5.935 12.2195 5.97841C12.0012 6.02182 11.775 5.99954 11.5695 5.91439C11.3639 5.82924 11.1882 5.68505 11.0646 5.50004C10.941 5.31504 10.875 5.09753 10.875 4.87502C10.875 4.57666 10.9935 4.29051 11.2045 4.07953C11.4155 3.86855 11.7016 3.75002 12 3.75002ZM2.25 7.50002C2.25 7.27752 2.31598 7.06001 2.4396 6.87501C2.56321 6.69 2.73891 6.54581 2.94448 6.46066C3.15005 6.37551 3.37625 6.35323 3.59448 6.39664C3.8127 6.44005 4.01316 6.5472 4.1705 6.70453C4.32783 6.86186 4.43497 7.06232 4.47838 7.28055C4.52179 7.49878 4.49951 7.72498 4.41436 7.93054C4.32922 8.13611 4.18502 8.31181 4.00002 8.43543C3.81501 8.55904 3.5975 8.62502 3.375 8.62502C3.07663 8.62502 2.79048 8.5065 2.5795 8.29552C2.36853 8.08454 2.25 7.79839 2.25 7.50002ZM18.1144 18H5.88562L4.58062 10.1738L7.66781 13.9688C7.73773 14.0561 7.82631 14.1267 7.92704 14.1754C8.02778 14.224 8.13813 14.2495 8.25 14.25C8.28386 14.2502 8.31769 14.248 8.35125 14.2435C8.47902 14.2261 8.60016 14.1761 8.70296 14.0982C8.80576 14.0204 8.88675 13.9174 8.93812 13.7991L11.685 7.48034C11.8942 7.50657 12.1058 7.50657 12.315 7.48034L15.0619 13.7991C15.1132 13.9174 15.1942 14.0204 15.297 14.0982C15.3998 14.1761 15.521 14.2261 15.6488 14.2435C15.6823 14.248 15.7161 14.2502 15.75 14.25C15.8619 14.2495 15.9722 14.224 16.073 14.1754C16.1737 14.1267 16.2623 14.0561 16.3322 13.9688L19.4194 10.17L18.1144 18ZM20.625 8.62502C20.4025 8.62502 20.185 8.55904 20 8.43543C19.815 8.31181 19.6708 8.13611 19.5856 7.93054C19.5005 7.72498 19.4782 7.49878 19.5216 7.28055C19.565 7.06232 19.6722 6.86186 19.8295 6.70453C19.9868 6.5472 20.1873 6.44005 20.4055 6.39664C20.6238 6.35323 20.85 6.37551 21.0555 6.46066C21.2611 6.54581 21.4368 6.69 21.5604 6.87501C21.684 7.06001 21.75 7.27752 21.75 7.50002C21.75 7.79839 21.6315 8.08454 21.4205 8.29552C21.2095 8.5065 20.9234 8.62502 20.625 8.62502Z" fill="#343330"/>
</svg>
