<svg width="24" height="24" viewBox="0 0 24 24" fill="none" xmlns="http://www.w3.org/2000/svg">
<path d="M21.6469 6.90004C21.3535 6.75626 21.021 6.71315 20.7007 6.77738C20.3804 6.84161 20.0902 7.00959 19.875 7.25535L16.7184 10.6575L13.3622 3.13035C13.362 3.12723 13.362 3.1241 13.3622 3.12097C13.2422 2.86067 13.0501 2.64021 12.8087 2.48568C12.5673 2.33115 12.2866 2.24902 12 2.24902C11.7134 2.24902 11.4327 2.33115 11.1913 2.48568C10.9499 2.64021 10.7578 2.86067 10.6378 3.12097C10.638 3.1241 10.638 3.12723 10.6378 3.13035L7.28157 10.6575L4.12501 7.25535C3.90841 7.00955 3.6173 6.84141 3.29615 6.77664C2.975 6.71187 2.64148 6.75402 2.34654 6.89665C2.0516 7.03929 1.81147 7.27456 1.66284 7.56652C1.51421 7.85848 1.46525 8.19107 1.52344 8.51347C1.52344 8.52379 1.52344 8.53316 1.53001 8.54347L3.65626 18.2813C3.72171 18.6242 3.90471 18.9335 4.17372 19.156C4.44274 19.3784 4.78092 19.5001 5.13001 19.5H18.8709C19.2199 19.4999 19.5578 19.3781 19.8267 19.1557C20.0955 18.9332 20.2783 18.624 20.3438 18.2813L22.47 8.54347C22.47 8.53316 22.47 8.52379 22.4766 8.51347C22.5359 8.19067 22.4866 7.85731 22.3365 7.56543C22.1865 7.27356 21.9439 7.03958 21.6469 6.90004ZM18.8766 17.97L18.8709 18H5.12907L5.12344 17.97L3.00001 8.25004L3.01313 8.26504L6.95063 12.5063C7.03494 12.5974 7.14055 12.6662 7.25799 12.7064C7.37542 12.7466 7.501 12.7571 7.62348 12.7368C7.74595 12.7166 7.86148 12.6662 7.9597 12.5903C8.05792 12.5144 8.13577 12.4153 8.18625 12.3019L12 3.75004L15.8147 12.3047C15.8652 12.4181 15.943 12.5172 16.0412 12.5931C16.1395 12.669 16.255 12.7194 16.3775 12.7396C16.4999 12.7599 16.6255 12.7494 16.743 12.7092C16.8604 12.669 16.966 12.6002 17.0503 12.5091L20.9878 8.26785L21 8.25004L18.8766 17.97Z" fill="#343330"/>
</svg>
