<svg width="24" height="24" viewBox="0 0 24 24" fill="none" xmlns="http://www.w3.org/2000/svg">
<path d="M19.3303 4.97532L13.5825 12H16.5C16.6989 12 16.8897 12.079 17.0303 12.2197C17.171 12.3603 17.25 12.5511 17.25 12.75C17.25 12.9489 17.171 13.1397 17.0303 13.2803C16.8897 13.421 16.6989 13.5 16.5 13.5H12.75V15H16.5C16.6989 15 16.8897 15.079 17.0303 15.2197C17.171 15.3603 17.25 15.5511 17.25 15.75C17.25 15.9489 17.171 16.1397 17.0303 16.2803C16.8897 16.421 16.6989 16.5 16.5 16.5H12.75V20.25C12.75 20.4489 12.671 20.6397 12.5303 20.7803C12.3897 20.921 12.1989 21 12 21C11.8011 21 11.6103 20.921 11.4697 20.7803C11.329 20.6397 11.25 20.4489 11.25 20.25V16.5H7.5C7.30109 16.5 7.11033 16.421 6.96967 16.2803C6.82902 16.1397 6.75 15.9489 6.75 15.75C6.75 15.5511 6.82902 15.3603 6.96967 15.2197C7.11033 15.079 7.30109 15 7.5 15H11.25V13.5H7.5C7.30109 13.5 7.11033 13.421 6.96967 13.2803C6.82902 13.1397 6.75 12.9489 6.75 12.75C6.75 12.5511 6.82902 12.3603 6.96967 12.2197C7.11033 12.079 7.30109 12 7.5 12H10.4175L4.66969 4.97532C4.54363 4.82141 4.48387 4.62373 4.50356 4.42576C4.52326 4.22779 4.62078 4.04575 4.77469 3.91969C4.9286 3.79363 5.12628 3.73387 5.32425 3.75356C5.52222 3.77326 5.70425 3.87078 5.83032 4.02469L12 11.5659L18.1697 4.02469C18.2321 3.94848 18.3089 3.88532 18.3958 3.8388C18.4826 3.79228 18.5777 3.76331 18.6758 3.75356C18.7738 3.74381 18.8728 3.75347 18.9671 3.78197C19.0614 3.81047 19.1491 3.85727 19.2253 3.91969C19.3015 3.98211 19.3647 4.05893 19.4112 4.14576C19.4577 4.23259 19.4867 4.32773 19.4964 4.42576C19.5062 4.52378 19.4965 4.62277 19.468 4.71706C19.4395 4.81135 19.3927 4.89911 19.3303 4.97532Z" fill="#343330"/>
</svg>
