<svg width="24" height="24" viewBox="0 0 24 24" fill="none" xmlns="http://www.w3.org/2000/svg">
<path d="M20.1281 19.6594C20.1253 19.6513 20.1218 19.6435 20.1178 19.6359L15.8541 10.5553L17.7759 7.53844C17.7797 7.53303 17.7832 7.52739 17.7863 7.52156C17.9261 7.28848 17.9999 7.02179 17.9999 6.75C17.9999 6.47821 17.9261 6.21152 17.7863 5.97844C17.7778 5.96344 17.7675 5.94844 17.7581 5.93437L15.75 3.06563V0.75C15.75 0.551088 15.671 0.360322 15.5303 0.21967C15.3897 0.0790176 15.1989 0 15 0C14.8011 0 14.6103 0.0790176 14.4697 0.21967C14.329 0.360322 14.25 0.551088 14.25 0.75V3.03937L13.7569 3.65625C13.5461 3.91971 13.2787 4.13239 12.9746 4.27855C12.6705 4.4247 12.3374 4.50059 12 4.50059C11.6626 4.50059 11.3295 4.4247 11.0254 4.27855C10.7213 4.13239 10.4539 3.91971 10.2431 3.65625L9.75 3.03937V0.75C9.75 0.551088 9.67098 0.360322 9.53033 0.21967C9.38968 0.0790176 9.19891 0 9 0C8.80109 0 8.61032 0.0790176 8.46967 0.21967C8.32902 0.360322 8.25 0.551088 8.25 0.75V3.06563L6.24188 5.93437C6.2325 5.94844 6.22219 5.96344 6.21375 5.97844C6.07395 6.21152 6.0001 6.47821 6.0001 6.75C6.0001 7.02179 6.07395 7.28848 6.21375 7.52156C6.21684 7.52739 6.22029 7.53303 6.22406 7.53844L8.14594 10.5553L3.88219 19.6359C3.87819 19.6435 3.87474 19.6513 3.87188 19.6594C3.77417 19.8875 3.73458 20.1362 3.75665 20.3834C3.77871 20.6306 3.86175 20.8684 3.99832 21.0756C4.13489 21.2827 4.32073 21.4528 4.53918 21.5705C4.75762 21.6882 5.00186 21.7499 5.25 21.75H18.75C18.9982 21.75 19.2426 21.6885 19.4611 21.5708C19.6797 21.4532 19.8657 21.2832 20.0024 21.076C20.139 20.8687 20.2222 20.6309 20.2443 20.3836C20.2664 20.1364 20.2268 19.8875 20.1291 19.6594H20.1281ZM7.5 6.75L9.04031 4.55344L9.07125 4.59281C9.42256 5.03214 9.86821 5.38681 10.3752 5.63054C10.8822 5.87427 11.4375 6.00082 12 6.00082C12.5625 6.00082 13.1178 5.87427 13.6248 5.63054C14.1318 5.38681 14.5774 5.03214 14.9288 4.59281L14.9597 4.55344L16.5 6.75L14.5894 9.75H9.41156L7.5 6.75ZM5.25 20.25L9.47531 11.25H14.5228L18.75 20.25H5.25Z" fill="#343330"/>
</svg>
