<svg width="24" height="24" viewBox="0 0 24 24" fill="none" xmlns="http://www.w3.org/2000/svg">
<path d="M20.055 19.7456C20.1226 19.8183 20.1752 19.9036 20.2096 19.9967C20.244 20.0898 20.2595 20.1888 20.2554 20.288C20.2513 20.3871 20.2275 20.4845 20.1854 20.5744C20.1434 20.6643 20.0839 20.7449 20.0105 20.8117C19.937 20.8784 19.851 20.93 19.7575 20.9632C19.664 20.9965 19.5649 21.0109 19.4658 21.0056C19.3667 21.0002 19.2696 20.9753 19.1802 20.9322C19.0908 20.8891 19.0109 20.8286 18.945 20.7544L15.6638 17.1497C15.3272 17.2536 14.9709 17.277 14.6236 17.2181C14.2763 17.1592 13.9477 17.0195 13.6642 16.8104C13.3808 16.6013 13.1503 16.3285 12.9916 16.014C12.8328 15.6996 12.75 15.3523 12.75 15C12.749 14.684 12.7871 14.3691 12.8634 14.0625L9.00001 9.81187C8.9918 10.0108 8.90491 10.1983 8.75846 10.3331C8.61201 10.468 8.41798 10.5391 8.21907 10.5309C8.02016 10.5227 7.83265 10.4358 7.6978 10.2894C7.56295 10.1429 7.4918 9.94891 7.50001 9.75C7.49947 9.29013 7.56967 8.83291 7.70813 8.39437L6.04688 6.5625C5.52083 7.5424 5.24697 8.63783 5.25001 9.75C5.25001 12.2531 6.04969 13.0237 6.89719 13.8412C7.70719 14.625 8.62501 15.5072 8.62501 17.625C8.62501 18.5201 8.98059 19.3785 9.61352 20.0115C10.2465 20.6444 11.1049 21 12 21C12.96 21 13.7297 20.61 14.4216 19.7728C14.4835 19.6947 14.5605 19.6298 14.6478 19.5818C14.7352 19.5337 14.8312 19.5036 14.9304 19.4932C15.0295 19.4827 15.1297 19.4921 15.2252 19.5209C15.3207 19.5496 15.4094 19.5971 15.4863 19.6605C15.5632 19.7239 15.6267 19.8021 15.6731 19.8903C15.7194 19.9786 15.7477 20.0752 15.7563 20.1745C15.7648 20.2738 15.7535 20.3739 15.723 20.4688C15.6925 20.5636 15.6433 20.6515 15.5784 20.7272C14.6072 21.9037 13.4063 22.5 12 22.5C10.7075 22.4985 9.46842 21.9844 8.5545 21.0705C7.64059 20.1566 7.12649 18.9175 7.12501 17.625C7.12501 16.1447 6.59251 15.6309 5.85563 14.9212C4.91813 14.0156 3.75001 12.8906 3.75001 9.75C3.74617 8.21307 4.17537 6.70614 4.98844 5.40187L3.94501 4.25437C3.87738 4.18173 3.82485 4.09639 3.79045 4.00329C3.75605 3.9102 3.74047 3.8112 3.74461 3.71204C3.74875 3.61287 3.77254 3.51552 3.81458 3.42562C3.85663 3.33572 3.9161 3.25505 3.98955 3.1883C4.063 3.12156 4.14896 3.07005 4.24246 3.03677C4.33597 3.00349 4.43514 2.9891 4.53425 2.99443C4.63335 2.99976 4.73041 3.02471 4.81981 3.06783C4.9092 3.11095 4.98914 3.17138 5.05501 3.24562L20.055 19.7456ZM8.53969 3.95344C9.5643 3.34168 10.7328 3.0125 11.9261 2.99942C13.1193 2.98635 14.2947 3.28985 15.3325 3.87901C16.3703 4.46817 17.2333 5.32192 17.8336 6.35326C18.434 7.38459 18.7502 8.55666 18.75 9.75C18.75 9.94891 18.829 10.1397 18.9697 10.2803C19.1103 10.421 19.3011 10.5 19.5 10.5C19.6989 10.5 19.8897 10.421 20.0303 10.2803C20.171 10.1397 20.25 9.94891 20.25 9.75C20.2502 8.2913 19.8637 6.85862 19.1298 5.59798C18.3959 4.33735 17.3409 3.29385 16.0722 2.57382C14.8036 1.8538 13.3668 1.48301 11.9082 1.49925C10.4496 1.51549 9.02134 1.91817 7.76907 2.66625C7.59838 2.76844 7.47527 2.93425 7.42683 3.12721C7.3784 3.32017 7.4086 3.52446 7.51079 3.69516C7.61298 3.86585 7.77879 3.98895 7.97175 4.03739C8.16471 4.08583 8.369 4.05563 8.53969 3.95344ZM15.03 11.9222C15.1175 11.9674 15.2131 11.9949 15.3113 12.0032C15.4094 12.0114 15.5083 12.0002 15.6021 11.9703C15.696 11.9403 15.783 11.8922 15.8582 11.8286C15.9335 11.765 15.9955 11.6872 16.0406 11.5997C16.3432 11.0301 16.5009 10.3949 16.5 9.75C16.5002 9.03357 16.3294 8.32745 16.0017 7.69035C15.6741 7.05325 15.199 6.50359 14.6161 6.0871C14.0331 5.67061 13.3592 5.39932 12.6503 5.29579C11.9414 5.19226 11.218 5.25948 10.5403 5.49187C10.3521 5.5564 10.1972 5.69305 10.1097 5.87176C10.0223 6.05048 10.0094 6.25662 10.0739 6.44484C10.1384 6.63306 10.2751 6.78794 10.4538 6.87541C10.6325 6.96288 10.8387 6.97577 11.0269 6.91125C11.4787 6.75632 11.9609 6.7115 12.4335 6.78052C12.9061 6.84954 13.3554 7.03041 13.744 7.30807C14.1327 7.58573 14.4494 7.95217 14.6678 8.3769C14.8863 8.80163 15.0002 9.27238 15 9.75C14.9999 10.1539 14.8993 10.5514 14.7075 10.9069C14.6623 10.9944 14.6348 11.09 14.6265 11.1881C14.6183 11.2863 14.6295 11.3851 14.6594 11.479C14.6893 11.5728 14.7375 11.6599 14.8011 11.7351C14.8647 11.8104 14.9425 11.8723 15.03 11.9175V11.9222Z" fill="#343330"/>
</svg>
