<svg width="24" height="24" viewBox="0 0 24 24" fill="none" xmlns="http://www.w3.org/2000/svg">
<path d="M20.25 10.5V19.5C20.25 19.8978 20.092 20.2794 19.8107 20.5607C19.5294 20.842 19.1478 21 18.75 21H5.25C4.85218 21 4.47064 20.842 4.18934 20.5607C3.90804 20.2794 3.75 19.8978 3.75 19.5V10.5C3.75 10.1022 3.90804 9.72064 4.18934 9.43933C4.47064 9.15803 4.85218 8.99999 5.25 9H7.5C7.69891 9 7.88968 9.07901 8.03033 9.21967C8.17098 9.36032 8.25 9.55108 8.25 9.75C8.25 9.94891 8.17098 10.1397 8.03033 10.2803C7.88968 10.421 7.69891 10.5 7.5 10.5H5.25V19.5H18.75V10.5H16.5C16.3011 10.5 16.1103 10.421 15.9697 10.2803C15.829 10.1397 15.75 9.94891 15.75 9.75C15.75 9.55108 15.829 9.36032 15.9697 9.21967C16.1103 9.07901 16.3011 9 16.5 9H18.75C19.1478 9 19.5294 9.15803 19.8107 9.43933C20.092 9.72064 20.25 10.1022 20.25 10.5ZM8.78063 6.53062L11.25 4.06031V12.75C11.25 12.9489 11.329 13.1397 11.4697 13.2803C11.6103 13.421 11.8011 13.5 12 13.5C12.1989 13.5 12.3897 13.421 12.5303 13.2803C12.671 13.1397 12.75 12.9489 12.75 12.75V4.06031L15.2194 6.53062C15.3601 6.67135 15.551 6.75041 15.75 6.75041C15.949 6.75041 16.1399 6.67135 16.2806 6.53062C16.4214 6.38989 16.5004 6.19902 16.5004 6C16.5004 5.80097 16.4214 5.6101 16.2806 5.46937L12.5306 1.71937C12.461 1.64964 12.3783 1.59432 12.2872 1.55658C12.1962 1.51883 12.0986 1.4994 12 1.4994C11.9014 1.4994 11.8038 1.51883 11.7128 1.55658C11.6217 1.59432 11.539 1.64964 11.4694 1.71937L7.71937 5.46937C7.57864 5.6101 7.49958 5.80097 7.49958 6C7.49958 6.19902 7.57864 6.38989 7.71938 6.53062C7.86011 6.67135 8.05098 6.75041 8.25 6.75041C8.44902 6.75041 8.63989 6.67135 8.78063 6.53062Z" fill="#343330"/>
</svg>
