<svg width="24" height="24" viewBox="0 0 24 24" fill="none" xmlns="http://www.w3.org/2000/svg">
<path d="M21.375 16.4062C21.2894 16.4551 21.1949 16.4866 21.0971 16.4989C20.9992 16.5112 20.8999 16.504 20.8048 16.4779C20.7097 16.4518 20.6207 16.4072 20.5429 16.3466C20.4651 16.2861 20.3999 16.2107 20.3513 16.125L18.57 13.0125C17.5344 13.7127 16.3921 14.2402 15.1875 14.5744L15.7378 17.8762C15.7541 17.9734 15.751 18.0729 15.7288 18.1689C15.7065 18.2649 15.6656 18.3556 15.6083 18.4358C15.551 18.516 15.4785 18.5841 15.3949 18.6362C15.3113 18.6884 15.2182 18.7235 15.121 18.7397C15.081 18.7462 15.0405 18.7497 15 18.75C14.8226 18.7497 14.651 18.6866 14.5157 18.5717C14.3805 18.4569 14.2903 18.2978 14.2613 18.1228L13.7203 14.8809C12.5796 15.0397 11.4223 15.0397 10.2816 14.8809L9.74064 18.1228C9.71153 18.2982 9.62109 18.4575 9.48545 18.5723C9.3498 18.6872 9.17776 18.7502 9.00001 18.75C8.95856 18.7498 8.91718 18.7464 8.87626 18.7397C8.77904 18.7235 8.68596 18.6884 8.60233 18.6362C8.5187 18.5841 8.44617 18.516 8.38888 18.4358C8.33159 18.3556 8.29067 18.2649 8.26845 18.1689C8.24623 18.0729 8.24315 17.9734 8.25939 17.8762L8.81251 14.5744C7.60842 14.2391 6.4667 13.7107 5.43189 13.0097L3.65626 16.125C3.55681 16.2983 3.39258 16.425 3.19971 16.4772C3.00684 16.5294 2.80113 16.5029 2.62783 16.4034C2.45452 16.304 2.32783 16.1397 2.27561 15.9469C2.22339 15.754 2.24993 15.5483 2.34939 15.375L4.22439 12.0937C3.56579 11.5247 2.96019 10.8972 2.41501 10.2187C2.34702 10.1428 2.29522 10.0539 2.26276 9.95726C2.2303 9.86066 2.21787 9.75846 2.22622 9.65689C2.23457 9.55533 2.26353 9.45654 2.31133 9.36654C2.35914 9.27654 2.42478 9.19723 2.50426 9.13344C2.58373 9.06966 2.67537 9.02274 2.77359 8.99555C2.8718 8.96836 2.97452 8.96147 3.07548 8.9753C3.17645 8.98913 3.27353 9.02339 3.36082 9.07599C3.4481 9.12859 3.52374 9.19843 3.58314 9.28124C5.13939 11.2069 7.86189 13.5 12 13.5C16.1381 13.5 18.8606 11.204 20.4169 9.28124C20.4756 9.19673 20.5511 9.12522 20.6386 9.07113C20.7262 9.01705 20.8239 8.98157 20.9257 8.96688C21.0276 8.95219 21.1314 8.95862 21.2306 8.98576C21.3299 9.0129 21.4225 9.06018 21.5027 9.12465C21.5829 9.18912 21.649 9.2694 21.6968 9.3605C21.7447 9.45161 21.7732 9.55158 21.7808 9.6542C21.7883 9.75683 21.7747 9.8599 21.7407 9.95702C21.7067 10.0541 21.653 10.1432 21.5831 10.2187C21.038 10.8972 20.4324 11.5247 19.7738 12.0937L21.6488 15.375C21.6991 15.4605 21.732 15.5552 21.7454 15.6535C21.7589 15.7518 21.7527 15.8519 21.7273 15.9478C21.7018 16.0437 21.6576 16.1336 21.5971 16.2123C21.5366 16.291 21.4611 16.3569 21.375 16.4062Z" fill="#343330"/>
</svg>
