<svg width="24" height="24" viewBox="0 0 24 24" fill="none" xmlns="http://www.w3.org/2000/svg">
<path d="M21.6506 15.375C21.7501 15.5477 21.7769 15.7528 21.7251 15.9452C21.6733 16.1377 21.5472 16.3016 21.3745 16.4011C21.289 16.4503 21.1947 16.4823 21.0968 16.495C20.999 16.5078 20.8996 16.5012 20.8043 16.4756C20.6119 16.4238 20.4479 16.2977 20.3484 16.125L18.5672 13.0125C17.5325 13.7124 16.3911 14.2399 15.1875 14.5744L15.7378 17.8762C15.7541 17.9735 15.751 18.0729 15.7288 18.1689C15.7065 18.2649 15.6656 18.3556 15.6083 18.4358C15.551 18.516 15.4785 18.5841 15.3949 18.6363C15.3112 18.6884 15.2182 18.7235 15.1209 18.7397C15.081 18.7462 15.0405 18.7497 15 18.75C14.8226 18.7497 14.651 18.6866 14.5157 18.5717C14.3805 18.4569 14.2903 18.2978 14.2613 18.1228L13.7203 14.8809C12.5796 15.0397 11.4223 15.0397 10.2816 14.8809L9.74063 18.1228C9.71152 18.2982 9.62108 18.4575 9.48543 18.5723C9.34979 18.6872 9.17775 18.7502 9 18.75C8.95855 18.7498 8.91717 18.7464 8.87625 18.7397C8.77903 18.7235 8.68595 18.6884 8.60232 18.6363C8.51869 18.5841 8.44616 18.516 8.38887 18.4358C8.33158 18.3556 8.29066 18.2649 8.26844 18.1689C8.24622 18.0729 8.24314 17.9735 8.25938 17.8762L8.8125 14.5744C7.6084 14.2391 6.46669 13.7107 5.43188 13.0097L3.65625 16.125C3.5568 16.2983 3.39257 16.425 3.1997 16.4772C3.00683 16.5294 2.80112 16.5029 2.62781 16.4034C2.45451 16.304 2.32782 16.1398 2.2756 15.9469C2.22338 15.754 2.24992 15.5483 2.34938 15.375L4.22438 12.0938C3.56554 11.525 2.95991 10.8974 2.415 10.2188C2.30708 10.0853 2.24821 9.91883 2.24821 9.74719C2.24821 9.57555 2.30708 9.4091 2.415 9.27563C4.1775 7.09875 7.27031 4.5 12 4.5C16.7297 4.5 19.8225 7.09875 21.5831 9.28125C21.691 9.41472 21.7499 9.58117 21.7499 9.75281C21.7499 9.92445 21.691 10.0909 21.5831 10.2244C21.0382 10.903 20.4326 11.5306 19.7738 12.0994L21.6506 15.375Z" fill="#343330"/>
</svg>
