<svg width="24" height="24" viewBox="0 0 24 24" fill="none" xmlns="http://www.w3.org/2000/svg">
<path d="M9.06375 5.42531C9.01946 5.37679 8.98869 5.31749 8.97453 5.25334C8.96037 5.18919 8.96331 5.12244 8.98305 5.05978C9.0028 4.99712 9.03866 4.94075 9.08705 4.89631C9.13543 4.85187 9.19464 4.82092 9.25875 4.80656C10.158 4.60107 11.0776 4.49823 12 4.5C15.27 4.5 18.2409 5.74313 20.5931 8.09531C22.3584 9.86063 23.1525 11.6222 23.1853 11.6963C23.228 11.7922 23.25 11.896 23.25 12.0009C23.25 12.1059 23.228 12.2097 23.1853 12.3056C23.1525 12.3797 22.3584 14.1403 20.5931 15.9056C20.3256 16.1719 20.0509 16.4241 19.7691 16.6622C19.6949 16.7252 19.5992 16.7568 19.5021 16.7505C19.405 16.7442 19.3142 16.7005 19.2487 16.6284L9.06375 5.42531ZM20.055 19.7456C20.1226 19.8183 20.1752 19.9036 20.2096 19.9967C20.244 20.0898 20.2595 20.1888 20.2554 20.288C20.2513 20.3871 20.2275 20.4845 20.1854 20.5744C20.1434 20.6643 20.0839 20.7449 20.0105 20.8117C19.937 20.8784 19.851 20.93 19.7575 20.9632C19.664 20.9965 19.5649 21.0109 19.4658 21.0056C19.3667 21.0002 19.2696 20.9753 19.1802 20.9322C19.0908 20.8891 19.0109 20.8286 18.945 20.7544L16.875 18.4809C15.3398 19.1599 13.6786 19.5072 12 19.5C8.73 19.5 5.75906 18.2569 3.40687 15.9056C1.64156 14.1403 0.843749 12.3797 0.814686 12.3056C0.772042 12.2097 0.750008 12.1059 0.750008 12.0009C0.750008 11.896 0.772042 11.7922 0.814686 11.6963C0.843749 11.625 1.64156 9.86063 3.40687 8.09531C4.11214 7.38679 4.89888 6.76433 5.75062 6.24094L3.945 4.25438C3.87737 4.18173 3.82484 4.09639 3.79044 4.00329C3.75604 3.9102 3.74046 3.8112 3.7446 3.71204C3.74875 3.61288 3.77253 3.51552 3.81458 3.42562C3.85662 3.33572 3.91609 3.25506 3.98954 3.18831C4.06299 3.12156 4.14896 3.07005 4.24246 3.03677C4.33596 3.00349 4.43514 2.9891 4.53424 2.99443C4.63335 2.99976 4.73041 3.02471 4.8198 3.06783C4.90919 3.11095 4.98913 3.17138 5.055 3.24563L20.055 19.7456ZM13.9153 15.2222L8.97562 9.78469C8.46662 10.4821 8.21387 11.3338 8.26003 12.1959C8.30619 13.0581 8.64844 13.8779 9.229 14.517C9.80956 15.156 10.5929 15.5752 11.4466 15.7037C12.3004 15.8322 13.1724 15.6621 13.9153 15.2222Z" fill="#343330"/>
</svg>
