<svg width="24" height="24" viewBox="0 0 24 24" fill="none" xmlns="http://www.w3.org/2000/svg">
<path d="M21.75 20.25H17.19C19.1769 18.9982 20.6449 17.0711 21.3241 14.8232C22.0032 12.5752 21.8478 10.1576 20.8865 8.0151C19.9251 5.8726 18.2224 4.14928 16.0917 3.16217C13.9609 2.17505 11.5454 1.99053 9.28939 2.64255C7.03342 3.29456 5.08875 4.73926 3.81311 6.71089C2.53748 8.68251 2.01667 11.0484 2.34651 13.3735C2.67634 15.6985 3.83463 17.8262 5.60829 19.3653C7.38196 20.9043 9.65171 21.7512 12 21.75H21.75C21.9489 21.75 22.1397 21.671 22.2803 21.5303C22.421 21.3897 22.5 21.1989 22.5 21C22.5 20.8011 22.421 20.6103 22.2803 20.4697C22.1397 20.329 21.9489 20.25 21.75 20.25ZM3.75001 12C3.75001 10.3683 4.23387 8.77325 5.14039 7.41655C6.04691 6.05984 7.33539 5.00242 8.84288 4.37799C10.3504 3.75357 12.0092 3.59019 13.6095 3.90852C15.2099 4.22685 16.6799 5.01259 17.8336 6.16637C18.9874 7.32015 19.7732 8.79016 20.0915 10.3905C20.4098 11.9908 20.2464 13.6496 19.622 15.1571C18.9976 16.6646 17.9402 17.9531 16.5835 18.8596C15.2268 19.7661 13.6317 20.25 12 20.25C9.81274 20.2475 7.71576 19.3775 6.16912 17.8309C4.62249 16.2843 3.7525 14.1873 3.75001 12ZM12 9.75C12.445 9.75 12.88 9.61804 13.25 9.37081C13.6201 9.12357 13.9084 8.77217 14.0787 8.36104C14.249 7.9499 14.2936 7.4975 14.2068 7.06105C14.12 6.62459 13.9057 6.22368 13.591 5.90901C13.2763 5.59434 12.8754 5.38005 12.439 5.29323C12.0025 5.20642 11.5501 5.25097 11.139 5.42127C10.7278 5.59157 10.3764 5.87996 10.1292 6.24997C9.88197 6.61998 9.75001 7.05499 9.75001 7.5C9.75001 8.09674 9.98707 8.66903 10.409 9.09099C10.831 9.51295 11.4033 9.75 12 9.75ZM12 6.75C12.1484 6.75 12.2934 6.79399 12.4167 6.8764C12.54 6.95881 12.6362 7.07594 12.6929 7.21299C12.7497 7.35003 12.7645 7.50083 12.7356 7.64632C12.7067 7.7918 12.6352 7.92544 12.5303 8.03033C12.4255 8.13522 12.2918 8.20665 12.1463 8.23559C12.0008 8.26453 11.85 8.24968 11.713 8.19291C11.576 8.13614 11.4588 8.04001 11.3764 7.91668C11.294 7.79334 11.25 7.64834 11.25 7.5C11.25 7.30109 11.329 7.11032 11.4697 6.96967C11.6103 6.82902 11.8011 6.75 12 6.75ZM14.25 16.5C14.25 16.055 14.1181 15.62 13.8708 15.25C13.6236 14.88 13.2722 14.5916 12.8611 14.4213C12.4499 14.251 11.9975 14.2064 11.5611 14.2932C11.1246 14.38 10.7237 14.5943 10.409 14.909C10.0944 15.2237 9.88006 15.6246 9.79325 16.061C9.70643 16.4975 9.75099 16.9499 9.92129 17.361C10.0916 17.7722 10.38 18.1236 10.75 18.3708C11.12 18.618 11.555 18.75 12 18.75C12.5968 18.75 13.169 18.5129 13.591 18.091C14.013 17.669 14.25 17.0967 14.25 16.5ZM11.25 16.5C11.25 16.3517 11.294 16.2067 11.3764 16.0833C11.4588 15.96 11.576 15.8639 11.713 15.8071C11.85 15.7503 12.0008 15.7355 12.1463 15.7644C12.2918 15.7934 12.4255 15.8648 12.5303 15.9697C12.6352 16.0746 12.7067 16.2082 12.7356 16.3537C12.7645 16.4992 12.7497 16.65 12.6929 16.787C12.6362 16.9241 12.54 17.0412 12.4167 17.1236C12.2934 17.206 12.1484 17.25 12 17.25C11.8011 17.25 11.6103 17.171 11.4697 17.0303C11.329 16.8897 11.25 16.6989 11.25 16.5ZM16.5 14.25C16.945 14.25 17.38 14.118 17.75 13.8708C18.1201 13.6236 18.4084 13.2722 18.5787 12.861C18.749 12.4499 18.7936 11.9975 18.7068 11.561C18.62 11.1246 18.4057 10.7237 18.091 10.409C17.7763 10.0943 17.3754 9.88005 16.939 9.79323C16.5025 9.70642 16.0501 9.75097 15.639 9.92127C15.2278 10.0916 14.8764 10.38 14.6292 10.75C14.382 11.12 14.25 11.555 14.25 12C14.25 12.5967 14.4871 13.169 14.909 13.591C15.331 14.0129 15.9033 14.25 16.5 14.25ZM16.5 11.25C16.6484 11.25 16.7934 11.294 16.9167 11.3764C17.04 11.4588 17.1362 11.5759 17.1929 11.713C17.2497 11.85 17.2645 12.0008 17.2356 12.1463C17.2067 12.2918 17.1352 12.4254 17.0303 12.5303C16.9255 12.6352 16.7918 12.7066 16.6463 12.7356C16.5008 12.7645 16.35 12.7497 16.213 12.6929C16.076 12.6361 15.9588 12.54 15.8764 12.4167C15.794 12.2933 15.75 12.1483 15.75 12C15.75 11.8011 15.829 11.6103 15.9697 11.4697C16.1103 11.329 16.3011 11.25 16.5 11.25ZM7.50001 9.75C7.05501 9.75 6.61999 9.88196 6.24998 10.1292C5.87997 10.3764 5.59158 10.7278 5.42129 11.139C5.25099 11.5501 5.20643 12.0025 5.29325 12.439C5.38006 12.8754 5.59436 13.2763 5.90902 13.591C6.22369 13.9057 6.6246 14.12 7.06106 14.2068C7.49752 14.2936 7.94992 14.249 8.36105 14.0787C8.77219 13.9084 9.12359 13.62 9.37082 13.25C9.61805 12.88 9.75001 12.445 9.75001 12C9.75001 11.4033 9.51296 10.831 9.09101 10.409C8.66905 9.98705 8.09675 9.75 7.50001 9.75ZM7.50001 12.75C7.35168 12.75 7.20667 12.706 7.08334 12.6236C6.96 12.5412 6.86387 12.4241 6.80711 12.287C6.75034 12.15 6.73549 11.9992 6.76443 11.8537C6.79336 11.7082 6.8648 11.5746 6.96968 11.4697C7.07457 11.3648 7.20821 11.2933 7.3537 11.2644C7.49918 11.2355 7.64998 11.2503 7.78703 11.3071C7.92407 11.3639 8.04121 11.46 8.12362 11.5833C8.20603 11.7067 8.25001 11.8517 8.25001 12C8.25001 12.1989 8.171 12.3897 8.03034 12.5303C7.88969 12.671 7.69893 12.75 7.50001 12.75Z" fill="#343330"/>
</svg>
