<svg width="24" height="24" viewBox="0 0 24 24" fill="none" xmlns="http://www.w3.org/2000/svg">
<path d="M15.75 7.12503C15.75 7.34753 15.684 7.56504 15.5604 7.75004C15.4368 7.93505 15.2611 8.07924 15.0555 8.16439C14.85 8.24954 14.6238 8.27182 14.4055 8.22841C14.1873 8.185 13.9868 8.07786 13.8295 7.92052C13.6722 7.76319 13.565 7.56273 13.5216 7.34451C13.4782 7.12628 13.5005 6.90008 13.5856 6.69451C13.6708 6.48894 13.815 6.31324 14 6.18962C14.185 6.06601 14.4025 6.00003 14.625 6.00003C14.9234 6.00003 15.2095 6.11855 15.4205 6.32953C15.6315 6.54051 15.75 6.82666 15.75 7.12503ZM20.3175 13.4663C18.5016 16.7382 15.12 18.5063 10.2638 18.7257L8.20125 23.5453C8.14328 23.6807 8.04677 23.7959 7.92374 23.8768C7.80071 23.9577 7.6566 24.0005 7.50938 24H7.46156C7.30701 23.9903 7.15925 23.9331 7.03856 23.836C6.91787 23.739 6.83017 23.607 6.7875 23.4582L5.4 18.5991L0.543752 17.2088C0.394475 17.1669 0.261862 17.0797 0.164165 16.9593C0.0664679 16.8389 0.00848964 16.6912 -0.00179026 16.5364C-0.0120702 16.3817 0.0258537 16.2276 0.106762 16.0954C0.18767 15.9631 0.307585 15.8591 0.450002 15.7978L5.26969 13.7353C5.49 8.88097 7.25813 5.50034 10.5281 3.68347C12.8484 2.39534 15.4725 2.19847 17.2669 2.26034C19.0144 2.32034 20.6419 2.66065 20.91 2.82284C21.0195 2.88737 21.1108 2.97867 21.1753 3.08815C21.3338 3.35534 21.675 4.98284 21.7378 6.73034C21.8016 8.52097 21.6056 11.146 20.3175 13.4663ZM19.9144 4.08472C18.5878 3.80347 13.905 3.05347 10.5113 5.46753C9.94954 5.86831 9.44492 6.3436 9.01125 6.88034C8.97572 7.3701 9.04748 7.86171 9.22153 8.32087C9.39559 8.78003 9.66774 9.19568 10.019 9.53881C10.3703 9.88195 10.7922 10.1443 11.2553 10.3076C11.7184 10.4708 12.2115 10.5311 12.7003 10.4841C12.8104 10.4735 12.9215 10.4874 13.0256 10.5248C13.1298 10.5621 13.2243 10.6221 13.3025 10.7003C13.3808 10.7785 13.4407 10.8731 13.4781 10.9772C13.5155 11.0813 13.5294 11.1924 13.5188 11.3025C13.4719 11.7915 13.5323 12.2848 13.6958 12.748C13.8593 13.2112 14.1219 13.6332 14.4653 13.9844C14.8088 14.3356 15.2247 14.6076 15.6841 14.7814C16.1436 14.9552 16.6354 15.0266 17.1253 14.9907C17.6601 14.5569 18.1332 14.0522 18.5316 13.4907C20.9456 10.0997 20.1956 5.41315 19.9144 4.08472Z" fill="#343330"/>
</svg>
