<svg width="24" height="24" viewBox="0 0 24 24" fill="none" xmlns="http://www.w3.org/2000/svg">
<path d="M19.7203 12.1275C19.6444 12.0835 19.5609 12.0413 19.4747 12C19.5609 11.9588 19.6444 11.9166 19.7203 11.8725C20.1502 11.6281 20.5276 11.3011 20.8306 10.9102C21.1336 10.5193 21.3563 10.0724 21.4859 9.59515C21.6154 9.11787 21.6493 8.61968 21.5856 8.12926C21.5218 7.63883 21.3617 7.16586 21.1144 6.73757C20.8671 6.30928 20.5376 5.93413 20.1447 5.63373C19.7519 5.33332 19.3035 5.11359 18.8254 4.98718C18.3472 4.86077 17.8488 4.83018 17.3588 4.89718C16.8689 4.96418 16.397 5.12743 15.9703 5.37755C15.8944 5.42161 15.8156 5.4713 15.7378 5.52661C15.7453 5.43286 15.75 5.33911 15.75 5.24536C15.75 4.2508 15.3549 3.29697 14.6517 2.59371C13.9484 1.89045 12.9946 1.49536 12 1.49536C11.0054 1.49536 10.0516 1.89045 9.34835 2.59371C8.64509 3.29697 8.25 4.2508 8.25 5.24536C8.25 5.33349 8.25 5.42724 8.26219 5.52661C8.18438 5.47317 8.10563 5.42161 8.02969 5.37755C7.60305 5.12743 7.13115 4.96418 6.64116 4.89718C6.15117 4.83018 5.65276 4.86077 5.17464 4.98718C4.69652 5.11359 4.24812 5.33332 3.85527 5.63373C3.46241 5.93413 3.13286 6.30928 2.88558 6.73757C2.6383 7.16586 2.47817 7.63883 2.41443 8.12926C2.35068 8.61968 2.38458 9.11787 2.51415 9.59515C2.64373 10.0724 2.86643 10.5193 3.16944 10.9102C3.47244 11.3011 3.84977 11.6281 4.27969 11.8725C4.35563 11.9166 4.43907 11.9588 4.52532 12C4.43907 12.0413 4.35563 12.0835 4.27969 12.1275C3.84977 12.372 3.47244 12.699 3.16944 13.0899C2.86643 13.4808 2.64373 13.9277 2.51415 14.405C2.38458 14.8822 2.35068 15.3804 2.41443 15.8708C2.47817 16.3613 2.6383 16.8342 2.88558 17.2625C3.13286 17.6908 3.46241 18.066 3.85527 18.3664C4.24812 18.6668 4.69652 18.8865 5.17464 19.0129C5.65276 19.1393 6.15117 19.1699 6.64116 19.1029C7.13115 19.0359 7.60305 18.8727 8.02969 18.6225C8.10563 18.5785 8.18438 18.5288 8.26219 18.4735C8.25469 18.5672 8.25 18.661 8.25 18.75C8.25 19.7446 8.64509 20.6984 9.34835 21.4017C10.0516 22.105 11.0054 22.5 12 22.5C12.9946 22.5 13.9484 22.105 14.6517 21.4017C15.3549 20.6984 15.75 19.7446 15.75 18.75C15.75 18.6619 15.7453 18.5682 15.7378 18.4735C15.8156 18.5269 15.8944 18.5785 15.9703 18.6225C16.5384 18.9516 17.1832 19.125 17.8397 19.125C18.1696 19.1246 18.498 19.0811 18.8166 18.9957C19.533 18.8037 20.1764 18.4035 20.6654 17.8458C21.1543 17.2881 21.467 16.598 21.5637 15.8626C21.6605 15.1273 21.5369 14.3797 21.2088 13.7145C20.8807 13.0494 20.3627 12.4964 19.7203 12.1257V12.1275ZM12 14.625C11.4808 14.625 10.9733 14.4711 10.5416 14.1827C10.11 13.8942 9.7735 13.4842 9.57482 13.0046C9.37614 12.5249 9.32415 11.9971 9.42544 11.4879C9.52673 10.9787 9.77673 10.511 10.1438 10.1439C10.511 9.77678 10.9787 9.52677 11.4879 9.42549C11.9971 9.3242 12.5249 9.37618 13.0045 9.57487C13.4842 9.77355 13.8942 10.11 14.1826 10.5417C14.471 10.9734 14.625 11.4809 14.625 12C14.625 12.6962 14.3484 13.3639 13.8562 13.8562C13.3639 14.3485 12.6962 14.625 12 14.625Z" fill="#343330"/>
</svg>
