<svg width="24" height="24" viewBox="0 0 24 24" fill="none" xmlns="http://www.w3.org/2000/svg">
<path d="M17.2116 20.0128C17.2745 20.2015 17.2598 20.4075 17.1709 20.5854C17.0819 20.7633 16.9259 20.8986 16.7372 20.9615C16.5485 21.0244 16.3425 21.0098 16.1646 20.9208C15.9866 20.8319 15.8513 20.6759 15.7884 20.4871L15.0384 18.2371C15.0073 18.1437 14.9949 18.045 15.0018 17.9468C15.0088 17.8485 15.0351 17.7526 15.0791 17.6645C15.1232 17.5764 15.1842 17.4979 15.2586 17.4333C15.333 17.3688 15.4194 17.3195 15.5128 17.2884C15.6063 17.2572 15.7049 17.2448 15.8032 17.2518C15.9014 17.2588 15.9973 17.285 16.0854 17.3291C16.1735 17.3731 16.2521 17.4341 16.3166 17.5085C16.3812 17.5829 16.4304 17.6693 16.4616 17.7628L17.2116 20.0128ZM12 17.25C11.8011 17.25 11.6103 17.329 11.4697 17.4696C11.329 17.6103 11.25 17.801 11.25 18V21C11.25 21.1989 11.329 21.3896 11.4697 21.5303C11.6103 21.6709 11.8011 21.75 12 21.75C12.1989 21.75 12.3897 21.6709 12.5303 21.5303C12.671 21.3896 12.75 21.1989 12.75 21V18C12.75 17.801 12.671 17.6103 12.5303 17.4696C12.3897 17.329 12.1989 17.25 12 17.25ZM8.48719 17.2884C8.39374 17.2572 8.29508 17.2448 8.19683 17.2518C8.09857 17.2587 8.00266 17.285 7.91456 17.3291C7.82646 17.3731 7.74789 17.4341 7.68336 17.5085C7.61882 17.5829 7.56958 17.6693 7.53844 17.7628L6.78844 20.0128C6.72553 20.2015 6.74017 20.4075 6.82913 20.5854C6.9181 20.7633 7.07409 20.8986 7.26281 20.9615C7.45153 21.0244 7.65751 21.0098 7.83543 20.9208C8.01336 20.8319 8.14866 20.6759 8.21156 20.4871L8.96156 18.2371C8.99272 18.1437 9.00516 18.045 8.99818 17.9468C8.9912 17.8485 8.96494 17.7526 8.92089 17.6645C8.87684 17.5764 8.81586 17.4978 8.74145 17.4333C8.66703 17.3688 8.58064 17.3195 8.48719 17.2884ZM23.25 10.5C23.25 12.0206 21.9966 13.3959 19.7203 14.3709C17.6456 15.2606 14.9062 15.75 12 15.75C9.09375 15.75 6.35437 15.2606 4.27969 14.3709C2.00344 13.3959 0.75 12.0206 0.75 10.5C0.75 9.71526 1.09406 8.55089 2.73469 7.45308C3.80063 6.73964 5.26031 6.16308 6.97031 5.77964C7.44717 5.02411 8.08762 4.38532 8.84438 3.91043C9.60115 3.43554 10.4549 3.13667 11.3426 3.03589C12.2304 2.9351 13.1294 3.03497 13.9733 3.32813C14.8173 3.62128 15.5847 4.10024 16.2188 4.72964C16.5422 5.04969 16.8287 5.40504 17.0728 5.78901C20.9466 6.66464 23.25 8.41308 23.25 10.5ZM7.5 9.07776V9.35901C7.49904 9.52749 7.55541 9.69128 7.65985 9.82348C7.76428 9.95568 7.91057 10.0484 8.07469 10.0865C9.36355 10.3707 10.6802 10.5094 12 10.5C13.319 10.5106 14.6351 10.3731 15.9234 10.0903C16.0878 10.0524 16.2344 9.95976 16.3392 9.82756C16.444 9.69535 16.5007 9.53145 16.5 9.36276V8.99995C16.5001 8.40392 16.3817 7.81382 16.1518 7.2639C15.9219 6.71399 15.5851 6.21523 15.1608 5.79657C14.7366 5.37791 14.2334 5.0477 13.6805 4.82512C13.1276 4.60253 12.536 4.492 11.94 4.49995C9.49219 4.53183 7.5 6.58589 7.5 9.07776ZM21.75 10.5C21.75 9.40308 20.1909 8.26026 17.8219 7.53839C17.9404 8.01653 18.0002 8.50734 18 8.99995V9.36745C18.0008 9.87493 17.829 10.3676 17.5128 10.7645C17.1966 11.1615 16.7548 11.4391 16.26 11.5518C14.8613 11.8602 13.4323 12.0105 12 12C10.5677 12.0105 9.13876 11.8601 7.74 11.5518C7.2452 11.4391 6.80343 11.1615 6.48724 10.7645C6.17105 10.3676 5.99923 9.87493 6 9.36745V9.08058C6.00016 8.55792 6.06727 8.03743 6.19969 7.53183C3.8175 8.24995 2.25 9.39839 2.25 10.5C2.25 12.2737 6.25406 14.25 12 14.25C17.7459 14.25 21.75 12.2737 21.75 10.5Z" fill="#343330"/>
</svg>
