<svg width="24" height="24" viewBox="0 0 24 24" fill="none" xmlns="http://www.w3.org/2000/svg">
<path d="M19.5056 17.25H14.25C14.0511 17.25 13.8603 17.329 13.7197 17.4697C13.579 17.6103 13.5 17.8011 13.5 18V19.125C13.5 20.0207 13.8558 20.8798 14.4892 21.5131C15.1226 22.1465 15.9816 22.5023 16.8773 22.5023C17.7731 22.5023 18.6321 22.1465 19.2655 21.5131C19.8989 20.8798 20.2547 20.0207 20.2547 19.125V18C20.2547 17.8012 20.1758 17.6106 20.0354 17.47C19.8949 17.3294 19.7044 17.2502 19.5056 17.25ZM18.7556 19.125C18.7556 19.6223 18.5581 20.0992 18.2065 20.4508C17.8548 20.8025 17.3779 21 16.8806 21C16.3833 21 15.9064 20.8025 15.5548 20.4508C15.2032 20.0992 15.0056 19.6223 15.0056 19.125V18.75H18.7556V19.125ZM9.75 15H4.5C4.30109 15 4.11033 15.079 3.96967 15.2197C3.82902 15.3603 3.75 15.5511 3.75 15.75V16.875C3.75 17.7701 4.10558 18.6285 4.73852 19.2615C5.37145 19.8944 6.2299 20.25 7.125 20.25C8.02011 20.25 8.87855 19.8944 9.51149 19.2615C10.1444 18.6285 10.5 17.7701 10.5 16.875V15.75C10.5 15.5511 10.421 15.3603 10.2803 15.2197C10.1397 15.079 9.94892 15 9.75 15ZM9 16.875C9 17.3723 8.80246 17.8492 8.45083 18.2008C8.0992 18.5525 7.62229 18.75 7.125 18.75C6.62772 18.75 6.15081 18.5525 5.79918 18.2008C5.44755 17.8492 5.25 17.3723 5.25 16.875V16.5H9V16.875ZM7.125 1.5C6.03375 1.5 4.97532 2.46656 4.14375 4.21875C2.83782 6.97312 2.40375 11.0625 4.17094 13.2187C4.24141 13.3048 4.33011 13.374 4.43064 13.4215C4.53117 13.469 4.641 13.4936 4.75219 13.4934H9.49125C9.60244 13.4936 9.71228 13.469 9.8128 13.4215C9.91333 13.374 10.002 13.3048 10.0725 13.2187C11.8397 11.0625 11.4056 6.97031 10.0997 4.21875C9.26719 2.46656 8.20969 1.5 7.125 1.5ZM9.10782 12H5.13563C4.06688 10.3031 4.45969 7.05937 5.50032 4.86469C6.10688 3.58312 6.76594 3 7.125 3C7.48407 3 8.13938 3.58312 8.74688 4.86469C9.78375 7.05937 10.1766 10.3031 9.10782 12ZM14.5088 15.75H19.2478C19.359 15.7502 19.4688 15.7256 19.5694 15.6781C19.6699 15.6306 19.7586 15.5613 19.8291 15.4753C21.5963 13.3191 21.1622 9.22687 19.8563 6.47531C19.0247 4.71656 17.9663 3.75 16.875 3.75C15.7838 3.75 14.7291 4.71656 13.8966 6.46875C12.5906 9.22312 12.1566 13.3125 13.9238 15.4687C13.9942 15.5562 14.0833 15.6268 14.1845 15.6755C14.2857 15.7241 14.3965 15.7496 14.5088 15.75ZM15.2588 7.11469C15.8644 5.83312 16.5234 5.25 16.875 5.25C17.2266 5.25 17.8894 5.83312 18.4959 7.11469C19.5366 9.30937 19.9294 12.5522 18.8616 14.25H14.8922C13.8234 12.5531 14.2163 9.30937 15.2569 7.11469H15.2588Z" fill="#343330"/>
</svg>
