<svg width="184" height="24" viewBox="0 0 184 24" fill="none" xmlns="http://www.w3.org/2000/svg">
<path d="M20.8435 11.6147C20.8378 11.6025 20.8322 11.5903 20.8256 11.5791L18 6.55313V3C18 2.60218 17.842 2.22064 17.5607 1.93934C17.2794 1.65804 16.8978 1.5 16.5 1.5H7.50001C7.10219 1.5 6.72066 1.65804 6.43935 1.93934C6.15805 2.22064 6.00001 2.60218 6.00001 3V6.555L3.17439 11.5791C3.16782 11.5903 3.1622 11.6025 3.15564 11.6147C3.03322 11.8611 2.98122 12.1366 3.00537 12.4107C3.02952 12.6848 3.12889 12.9469 3.29251 13.1681L3.30282 13.1813L11.4066 23.7075C11.4766 23.7984 11.5666 23.8719 11.6696 23.9225C11.7725 23.9732 11.8857 23.9995 12.0005 23.9995C12.1152 23.9995 12.2284 23.9732 12.3314 23.9225C12.4343 23.8719 12.5243 23.7984 12.5944 23.7075L20.6972 13.1813L20.7075 13.1681C20.8712 12.9469 20.9705 12.6847 20.9945 12.4106C21.0185 12.1364 20.9662 11.861 20.8435 11.6147ZM16.5 3V6H7.50001V3H16.5ZM12 13.5C11.7775 13.5 11.56 13.434 11.375 13.3104C11.19 13.1868 11.0458 13.0111 10.9606 12.8055C10.8755 12.6 10.8532 12.3738 10.8966 12.1555C10.94 11.9373 11.0472 11.7368 11.2045 11.5795C11.3619 11.4222 11.5623 11.315 11.7805 11.2716C11.9988 11.2282 12.225 11.2505 12.4305 11.3356C12.6361 11.4208 12.8118 11.565 12.9354 11.75C13.059 11.935 13.125 12.1525 13.125 12.375C13.125 12.6734 13.0065 12.9595 12.7955 13.1705C12.5845 13.3815 12.2984 13.5 12 13.5ZM12.75 21.0469V14.8903C13.3543 14.7102 13.8735 14.3185 14.2127 13.787C14.5519 13.2555 14.6885 12.6197 14.5975 11.9958C14.5065 11.3718 14.1939 10.8015 13.717 10.3891C13.24 9.9767 12.6305 9.74974 12 9.74974C11.3695 9.74974 10.76 9.9767 10.2831 10.3891C9.80611 10.8015 9.49354 11.3718 9.40251 11.9958C9.31148 12.6197 9.44807 13.2555 9.78731 13.787C10.1265 14.3185 10.6458 14.7102 11.25 14.8903V21.0459L4.50001 12.2813L7.1897 7.5H16.8113L19.5 12.2813L12.75 21.0469Z" fill="#343330"/>
<path d="M63.25 8.68876C63.2506 8.4917 63.2121 8.29649 63.1366 8.11446C63.0611 7.93244 62.9502 7.76723 62.8103 7.62845L56.3716 1.18876C56.2323 1.04943 56.0669 0.938915 55.8849 0.863512C55.7029 0.788108 55.5078 0.749298 55.3108 0.749298C55.1138 0.749298 54.9187 0.788108 54.7367 0.863512C54.5547 0.938915 54.3893 1.04943 54.25 1.18876L51.5847 3.85407L46.1472 5.89501C45.9001 5.98717 45.6815 6.14263 45.5133 6.34582C45.3452 6.54902 45.2334 6.79282 45.1891 7.05282L43.0103 20.1263C42.9923 20.2337 42.998 20.3438 43.0269 20.4489C43.0558 20.5539 43.1072 20.6514 43.1776 20.7346C43.248 20.8178 43.3357 20.8846 43.4345 20.9304C43.5334 20.9763 43.641 21 43.75 21C43.7915 20.9998 43.8328 20.9964 43.8737 20.9897L56.9462 18.8109C57.2059 18.7676 57.4496 18.6567 57.6529 18.4893C57.8561 18.322 58.0117 18.1041 58.1041 17.8575L60.145 12.42L62.8103 9.75001C62.9503 9.61108 63.0612 9.44572 63.1367 9.26353C63.2122 9.08134 63.2507 8.88596 63.25 8.68876ZM56.6997 17.3316L45.9362 19.125L50.3772 14.6841C50.9319 14.9838 51.5759 15.074 52.1915 14.9379C52.8072 14.8019 53.3533 14.4489 53.7301 13.9433C54.1068 13.4378 54.289 12.8135 54.2434 12.1847C54.1977 11.5558 53.9272 10.9644 53.4814 10.5186C53.0356 10.0728 52.4442 9.8023 51.8153 9.75665C51.1865 9.71099 50.5622 9.89319 50.0567 10.2699C49.5511 10.6467 49.1981 11.1928 49.0621 11.8085C48.926 12.4241 49.0162 13.0682 49.3159 13.6228L44.875 18.0656L46.6684 7.29938L51.8125 5.37095L58.6281 12.1875L56.6997 17.3316ZM50.5 12.375C50.5 12.1525 50.566 11.935 50.6896 11.75C50.8132 11.565 50.9889 11.4208 51.1945 11.3356C51.4 11.2505 51.6262 11.2282 51.8445 11.2716C52.0627 11.315 52.2632 11.4222 52.4205 11.5795C52.5778 11.7368 52.685 11.9373 52.7284 12.1555C52.7718 12.3738 52.7495 12.6 52.6644 12.8055C52.5792 13.0111 52.435 13.1868 52.25 13.3104C52.065 13.434 51.8475 13.5 51.625 13.5C51.3266 13.5 51.0405 13.3815 50.8295 13.1705C50.6185 12.9595 50.5 12.6734 50.5 12.375ZM59.5 10.9388L53.0603 4.50001L55.3103 2.25001L61.75 8.68876L59.5 10.9388Z" fill="#343330"/>
<path d="M98.8222 5.05219C97.0069 3.25462 94.5547 2.24739 92 2.25001H91.8997C89.3312 2.27643 86.877 3.31532 85.0702 5.14094C83.2633 6.96656 82.2499 9.43143 82.25 12C82.25 16.0313 84.7419 19.4119 88.7525 20.8284C89.2049 20.9879 89.6889 21.0366 90.1639 20.9704C90.639 20.9043 91.0912 20.7252 91.4828 20.4481C91.8743 20.1711 92.1937 19.8042 92.4142 19.3782C92.6347 18.9523 92.7499 18.4797 92.75 18C92.75 17.6022 92.908 17.2207 93.1893 16.9393C93.4706 16.658 93.8522 16.5 94.25 16.5H98.5822C99.2627 16.5033 99.9239 16.2737 100.456 15.8495C100.988 15.4252 101.359 14.8317 101.507 14.1675C101.675 13.4294 101.756 12.6744 101.75 11.9175C101.74 10.6364 101.477 9.36988 100.974 8.19141C100.472 7.01294 99.7401 5.94592 98.8222 5.05219ZM100.041 13.8375C99.9664 14.1684 99.7813 14.464 99.516 14.6753C99.2508 14.8867 98.9214 15.0012 98.5822 15H94.25C93.4543 15 92.6913 15.3161 92.1287 15.8787C91.5661 16.4413 91.25 17.2044 91.25 18C91.2497 18.2396 91.1919 18.4756 91.0816 18.6883C90.9713 18.901 90.8117 19.0842 90.6161 19.2225C90.4205 19.3609 90.1946 19.4503 89.9573 19.4834C89.72 19.5166 89.4782 19.4923 89.2522 19.4128C85.8584 18.2156 83.75 15.375 83.75 12C83.7499 9.82667 84.6074 7.74108 86.1361 6.19633C87.6649 4.65158 89.7415 3.77248 91.9147 3.75001H91.9991C94.1724 3.75845 96.2553 4.62073 97.7986 6.15091C99.3419 7.68109 100.222 9.75654 100.249 11.9297C100.255 12.5714 100.186 13.2116 100.045 13.8375H100.041ZM93.125 7.12501C93.125 7.34751 93.059 7.56502 92.9354 7.75002C92.8118 7.93503 92.6361 8.07922 92.4305 8.16437C92.225 8.24952 91.9988 8.2718 91.7805 8.22839C91.5623 8.18498 91.3618 8.07783 91.2045 7.9205C91.0472 7.76317 90.94 7.56271 90.8966 7.34448C90.8532 7.12625 90.8755 6.90005 90.9606 6.69449C91.0458 6.48892 91.19 6.31322 91.375 6.1896C91.56 6.06599 91.7775 6.00001 92 6.00001C92.2984 6.00001 92.5845 6.11853 92.7955 6.32951C93.0065 6.54049 93.125 6.82664 93.125 7.12501ZM89 9.37501C89 9.59751 88.934 9.81502 88.8104 10C88.6868 10.185 88.5111 10.3292 88.3055 10.4144C88.1 10.4995 87.8738 10.5218 87.6555 10.4784C87.4373 10.435 87.2368 10.3278 87.0795 10.1705C86.9222 10.0132 86.815 9.81271 86.7716 9.59448C86.7282 9.37625 86.7505 9.15005 86.8356 8.94449C86.9208 8.73892 87.065 8.56322 87.25 8.4396C87.435 8.31599 87.6525 8.25001 87.875 8.25001C88.1734 8.25001 88.4595 8.36853 88.6705 8.57951C88.8815 8.79049 89 9.07664 89 9.37501ZM89 14.625C89 14.8475 88.934 15.065 88.8104 15.25C88.6868 15.435 88.5111 15.5792 88.3055 15.6644C88.1 15.7495 87.8738 15.7718 87.6555 15.7284C87.4373 15.685 87.2368 15.5778 87.0795 15.4205C86.9222 15.2632 86.815 15.0627 86.7716 14.8445C86.7282 14.6263 86.7505 14.4001 86.8356 14.1945C86.9208 13.9889 87.065 13.8132 87.25 13.6896C87.435 13.566 87.6525 13.5 87.875 13.5C88.1734 13.5 88.4595 13.6185 88.6705 13.8295C88.8815 14.0405 89 14.3266 89 14.625ZM97.25 9.37501C97.25 9.59751 97.184 9.81502 97.0604 10C96.9368 10.185 96.7611 10.3292 96.5555 10.4144C96.3499 10.4995 96.1238 10.5218 95.9055 10.4784C95.6873 10.435 95.4868 10.3278 95.3295 10.1705C95.1722 10.0132 95.065 9.81271 95.0216 9.59448C94.9782 9.37625 95.0005 9.15005 95.0856 8.94449C95.1708 8.73892 95.315 8.56322 95.5 8.4396C95.685 8.31599 95.9025 8.25001 96.125 8.25001C96.4234 8.25001 96.7095 8.36853 96.9205 8.57951C97.1315 8.79049 97.25 9.07664 97.25 9.37501Z" fill="#343330"/>
<path d="M141.987 13.0378C142.108 12.9974 142.217 12.9266 142.303 12.8323C142.39 12.738 142.45 12.6233 142.48 12.4989C142.509 12.3746 142.506 12.2448 142.471 12.1219C142.437 11.999 142.371 11.887 142.281 11.7966L131.453 0.969374C131.313 0.828828 131.122 0.749878 130.923 0.749878C130.724 0.749878 130.534 0.828828 130.393 0.969374L126.586 4.78125L124.28 2.46937C124.139 2.32877 123.948 2.24983 123.749 2.24991C123.55 2.25 123.36 2.32911 123.219 2.46984C123.078 2.61057 122.999 2.8014 122.999 3.00033C123 3.19927 123.079 3.39002 123.219 3.53062L125.526 5.83687L121.406 9.95343C120.984 10.3754 120.747 10.9477 120.747 11.5444C120.747 12.1411 120.984 12.7134 121.406 13.1353L129.365 21.0937C129.787 21.5157 130.359 21.7527 130.956 21.7527C131.552 21.7527 132.125 21.5157 132.547 21.0937L139.905 13.7353L141.987 13.0378ZM138.969 12.5466L131.485 20.0306C131.345 20.1712 131.154 20.2501 130.955 20.2501C130.756 20.2501 130.566 20.1712 130.425 20.0306L122.469 12.075C122.329 11.9344 122.25 11.7437 122.25 11.5448C122.25 11.346 122.329 11.1553 122.469 11.0147L126.586 6.89719L129.316 9.62719C129.016 10.182 128.926 10.8261 129.063 11.4417C129.199 12.0573 129.552 12.6034 130.058 12.9799C130.564 13.3565 131.188 13.5385 131.817 13.4926C132.446 13.4467 133.037 13.1759 133.483 12.7299C133.928 12.2838 134.198 11.6923 134.244 11.0634C134.289 10.4345 134.107 9.81029 133.73 9.30491C133.353 8.79952 132.806 8.44673 132.191 8.31104C131.575 8.17535 130.931 8.26583 130.376 8.56594L127.647 5.83687L130.928 2.56031L140.362 12L139.263 12.3656C139.152 12.4026 139.052 12.4645 138.969 12.5466ZM130.829 10.08C131.041 9.82758 131.344 9.66947 131.672 9.64037C132 9.61127 132.326 9.71358 132.579 9.92481C132.832 10.1361 132.99 10.439 133.02 10.767C133.049 11.095 132.948 11.4214 132.737 11.6745C132.526 11.9275 132.223 12.0865 131.895 12.1166C131.567 12.1466 131.241 12.0453 130.987 11.8348C130.734 11.6243 130.574 11.3219 130.544 10.9939C130.513 10.666 130.614 10.3393 130.824 10.0856C130.824 10.0856 130.829 10.0809 130.829 10.08ZM142.374 15.33C142.306 15.2271 142.213 15.1428 142.104 15.0844C141.995 15.0261 141.874 14.9955 141.75 14.9955C141.626 14.9955 141.505 15.0261 141.396 15.0844C141.287 15.1428 141.194 15.2271 141.126 15.33C140.96 15.5841 139.5 17.8209 139.5 19.5C139.5 20.0967 139.737 20.669 140.159 21.091C140.581 21.5129 141.153 21.75 141.75 21.75C142.347 21.75 142.919 21.5129 143.341 21.091C143.763 20.669 144 20.0967 144 19.5C144 17.8209 142.54 15.5841 142.374 15.3337V15.33ZM141.75 20.25C141.551 20.25 141.36 20.171 141.22 20.0303C141.079 19.8897 141 19.6989 141 19.5C141 18.8625 141.375 17.97 141.75 17.2425C142.125 17.97 142.5 18.8681 142.5 19.5C142.5 19.6989 142.421 19.8897 142.28 20.0303C142.14 20.171 141.949 20.25 141.75 20.25Z" fill="#343330"/>
<path d="M172 2.25C170.072 2.25 168.187 2.82183 166.583 3.89317C164.98 4.96451 163.73 6.48726 162.992 8.26884C162.254 10.0504 162.061 12.0108 162.437 13.9021C162.814 15.7934 163.742 17.5307 165.106 18.8943C166.469 20.2579 168.207 21.1865 170.098 21.5627C171.989 21.9389 173.95 21.7458 175.731 21.0078C177.513 20.2699 179.035 19.0202 180.107 17.4168C181.178 15.8134 181.75 13.9284 181.75 12C181.747 9.41498 180.719 6.93661 178.891 5.10872C177.063 3.28084 174.585 2.25273 172 2.25ZM172 20.25C170.368 20.25 168.773 19.7661 167.417 18.8596C166.06 17.9531 165.002 16.6646 164.378 15.1571C163.754 13.6496 163.59 11.9908 163.909 10.3905C164.227 8.79016 165.013 7.32015 166.166 6.16637C167.32 5.01259 168.79 4.22685 170.391 3.90852C171.991 3.59019 173.65 3.75357 175.157 4.37799C176.665 5.00242 177.953 6.05984 178.86 7.41655C179.766 8.77325 180.25 10.3683 180.25 12C180.248 14.1873 179.378 16.2843 177.831 17.8309C176.284 19.3775 174.187 20.2475 172 20.25Z" fill="#343330"/>
</svg>
