<svg width="384" height="24" viewBox="0 0 384 24" fill="none" xmlns="http://www.w3.org/2000/svg">
<path d="M8.25 9C8.25 8.80109 8.32902 8.61032 8.46967 8.46967C8.61032 8.32902 8.80109 8.25 9 8.25H15C15.1989 8.25 15.3897 8.32902 15.5303 8.46967C15.671 8.61032 15.75 8.80109 15.75 9C15.75 9.19891 15.671 9.38968 15.5303 9.53033C15.3897 9.67098 15.1989 9.75 15 9.75H9C8.80109 9.75 8.61032 9.67098 8.46967 9.53033C8.32902 9.38968 8.25 9.19891 8.25 9ZM9 12.75H15C15.1989 12.75 15.3897 12.671 15.5303 12.5303C15.671 12.3897 15.75 12.1989 15.75 12C15.75 11.8011 15.671 11.6103 15.5303 11.4697C15.3897 11.329 15.1989 11.25 15 11.25H9C8.80109 11.25 8.61032 11.329 8.46967 11.4697C8.32902 11.6103 8.25 11.8011 8.25 12C8.25 12.1989 8.32902 12.3897 8.46967 12.5303C8.61032 12.671 8.80109 12.75 9 12.75ZM12 14.25H9C8.80109 14.25 8.61032 14.329 8.46967 14.4697C8.32902 14.6103 8.25 14.8011 8.25 15C8.25 15.1989 8.32902 15.3897 8.46967 15.5303C8.61032 15.671 8.80109 15.75 9 15.75H12C12.1989 15.75 12.3897 15.671 12.5303 15.5303C12.671 15.3897 12.75 15.1989 12.75 15C12.75 14.8011 12.671 14.6103 12.5303 14.4697C12.3897 14.329 12.1989 14.25 12 14.25ZM21 4.5V14.6897C21.0006 14.8867 20.9621 15.082 20.8866 15.264C20.8111 15.446 20.7002 15.6112 20.5603 15.75L15.75 20.5603C15.6112 20.7002 15.446 20.8111 15.264 20.8866C15.082 20.9621 14.8867 21.0006 14.6897 21H4.5C4.10218 21 3.72064 20.842 3.43934 20.5607C3.15804 20.2794 3 19.8978 3 19.5V4.5C3 4.10218 3.15804 3.72064 3.43934 3.43934C3.72064 3.15804 4.10218 3 4.5 3H19.5C19.8978 3 20.2794 3.15804 20.5607 3.43934C20.842 3.72064 21 4.10218 21 4.5ZM4.5 19.5H14.25V15C14.25 14.8011 14.329 14.6103 14.4697 14.4697C14.6103 14.329 14.8011 14.25 15 14.25H19.5V4.5H4.5V19.5ZM15.75 15.75V18.4406L18.4397 15.75H15.75Z" fill="#343330"/>
<path d="M61.3581 6.25875C61.5534 6.04383 61.6821 5.77684 61.7286 5.4902C61.7751 5.20355 61.7374 4.90957 61.6201 4.64393C61.5028 4.3783 61.3108 4.15243 61.0676 3.99375C60.8244 3.83507 60.5404 3.75039 60.25 3.75H43.75C43.4597 3.75057 43.1758 3.83538 42.9327 3.99413C42.6897 4.15288 42.4979 4.37876 42.3807 4.64436C42.2634 4.90996 42.2258 5.20387 42.2724 5.49043C42.3189 5.77699 42.4476 6.04389 42.6428 6.25875L42.6503 6.26719L49 13.0472V20.25C48.9999 20.5215 49.0736 20.7879 49.213 21.0208C49.3524 21.2537 49.5525 21.4445 49.7918 21.5726C50.0311 21.7008 50.3007 21.7616 50.5719 21.7486C50.8431 21.7356 51.1056 21.6493 51.3316 21.4988L54.3316 19.4981C54.5372 19.3611 54.7058 19.1755 54.8225 18.9576C54.9391 18.7398 55.0001 18.4965 55 18.2494V13.0472L61.3497 6.26719L61.3581 6.25875ZM53.7053 12.2428C53.5755 12.38 53.5021 12.5611 53.5 12.75V18.2494L50.5 20.25V12.75C50.4998 12.5599 50.4274 12.3769 50.2975 12.2381L43.75 5.25H60.25L53.7053 12.2428ZM63.0325 19.725C63.1732 19.8657 63.2523 20.0566 63.2523 20.2556C63.2523 20.4546 63.1732 20.6455 63.0325 20.7863C62.8918 20.927 62.7009 21.006 62.5019 21.006C62.3029 21.006 62.112 20.927 61.9713 20.7863L60.25 19.0613L58.5306 20.7816C58.3899 20.9222 58.1991 21.0011 58.0001 21.001C57.8012 21.0009 57.6105 20.9218 57.4699 20.7811C57.3292 20.6404 57.2503 20.4495 57.2504 20.2506C57.2505 20.0517 57.3296 19.8609 57.4703 19.7203L59.1897 18L57.4703 16.2797C57.3356 16.1379 57.2616 15.9491 57.2641 15.7535C57.2666 15.5579 57.3454 15.3711 57.4837 15.2328C57.622 15.0945 57.8089 15.0157 58.0045 15.0132C58.2 15.0107 58.3888 15.0847 58.5306 15.2194L60.25 16.9397L61.9694 15.2203C62.11 15.0796 62.3007 15.0005 62.4997 15.0004C62.6986 15.0003 62.8894 15.0792 63.0302 15.2198C63.1709 15.3604 63.25 15.5512 63.2501 15.7501C63.2502 15.9491 63.1712 16.1399 63.0306 16.2806L61.3103 18L63.0325 19.725Z" fill="#343330"/>
<path d="M101.619 4.64346C101.503 4.37675 101.312 4.14986 101.069 3.99101C100.825 3.83216 100.541 3.74836 100.25 3.75002H83.75C83.4597 3.7506 83.1758 3.8354 82.9327 3.99416C82.6897 4.15291 82.4979 4.37879 82.3807 4.64438C82.2634 4.90998 82.2258 5.20389 82.2724 5.49045C82.3189 5.77701 82.4476 6.04391 82.6428 6.25877L82.6503 6.26721L89 13.0472V20.25C88.9999 20.5215 89.0736 20.7879 89.213 21.0208C89.3524 21.2538 89.5525 21.4445 89.7918 21.5727C90.0311 21.7008 90.3007 21.7617 90.5719 21.7487C90.8431 21.7356 91.1056 21.6493 91.3316 21.4988L94.3316 19.4981C94.5372 19.3612 94.7058 19.1755 94.8225 18.9576C94.9391 18.7398 95.0001 18.4965 95 18.2494V13.0472L101.351 6.26721L101.358 6.25877C101.555 6.04489 101.685 5.77764 101.732 5.49037C101.778 5.2031 101.739 4.90854 101.619 4.64346ZM93.7044 12.2419C93.5746 12.3795 93.5016 12.5609 93.5 12.75V18.2494L90.5 20.25V12.75C90.5001 12.5596 90.4277 12.3762 90.2975 12.2372L83.75 5.25002H100.25L93.7044 12.2419Z" fill="#343330"/>
<path d="M142.969 10.3725C142.83 10.1795 142.646 10.0224 142.435 9.91416C142.223 9.80592 141.988 9.74965 141.75 9.75H140.25V8.25C140.25 7.85218 140.092 7.47064 139.811 7.18934C139.529 6.90804 139.148 6.75 138.75 6.75H132.25L129.651 4.8C129.391 4.60611 129.075 4.50094 128.751 4.5H123.75C123.352 4.5 122.971 4.65804 122.689 4.93934C122.408 5.22064 122.25 5.60218 122.25 6V19.5C122.25 19.6989 122.329 19.8897 122.47 20.0303C122.61 20.171 122.801 20.25 123 20.25H139.791C139.948 20.25 140.101 20.2005 140.229 20.1085C140.357 20.0164 140.452 19.8865 140.502 19.7372L143.173 11.7244C143.248 11.4989 143.269 11.2589 143.233 11.0239C143.198 10.7889 143.107 10.5657 142.969 10.3725ZM128.751 6L131.55 8.1C131.68 8.19737 131.838 8.25 132 8.25H138.75V9.75H126.541C126.226 9.74998 125.919 9.84902 125.664 10.0331C125.408 10.2172 125.217 10.4769 125.118 10.7756L123.75 14.8781V6H128.751ZM139.251 18.75H124.041L126.541 11.25H141.75L139.251 18.75Z" fill="#343330"/>
<path d="M180.25 6.75001H172.31L169.75 4.18969C169.611 4.0498 169.446 3.93889 169.264 3.86341C169.082 3.78792 168.887 3.74938 168.69 3.75001H163.75C163.352 3.75001 162.971 3.90804 162.689 4.18935C162.408 4.47065 162.25 4.85218 162.25 5.25001V18.8081C162.25 19.1904 162.403 19.5568 162.673 19.8271C162.943 20.0974 163.31 20.2495 163.692 20.25H180.333C180.709 20.2495 181.069 20.1001 181.335 19.8346C181.6 19.569 181.75 19.209 181.75 18.8334V8.25001C181.75 7.85218 181.592 7.47065 181.311 7.18935C181.029 6.90804 180.648 6.75001 180.25 6.75001ZM163.75 5.25001H168.69L170.19 6.75001H163.75V5.25001ZM180.25 18.75H163.75V8.25001H180.25V18.75Z" fill="#343330"/>
<path d="M220.56 6.75001L217.25 3.43969C217.111 3.2998 216.946 3.18889 216.764 3.11341C216.582 3.03792 216.387 2.99938 216.19 3.00001H204.5C204.102 3.00001 203.721 3.15804 203.439 3.43935C203.158 3.72065 203 4.10218 203 4.50001V19.5C203 19.8978 203.158 20.2794 203.439 20.5607C203.721 20.842 204.102 21 204.5 21H219.5C219.898 21 220.279 20.842 220.561 20.5607C220.842 20.2794 221 19.8978 221 19.5V7.81032C221.001 7.61326 220.962 7.41805 220.887 7.23602C220.811 7.054 220.7 6.88879 220.56 6.75001ZM215.75 19.5H208.25V14.25H215.75V19.5ZM219.5 19.5H217.25V14.25C217.25 13.8522 217.092 13.4707 216.811 13.1893C216.529 12.908 216.148 12.75 215.75 12.75H208.25C207.852 12.75 207.471 12.908 207.189 13.1893C206.908 13.4707 206.75 13.8522 206.75 14.25V19.5H204.5V4.50001H216.19L219.5 7.81032V19.5ZM215 6.75001C215 6.94892 214.921 7.13969 214.78 7.28034C214.64 7.42099 214.449 7.50001 214.25 7.50001H209C208.801 7.50001 208.61 7.42099 208.47 7.28034C208.329 7.13969 208.25 6.94892 208.25 6.75001C208.25 6.5511 208.329 6.36033 208.47 6.21968C208.61 6.07903 208.801 6.00001 209 6.00001H214.25C214.449 6.00001 214.64 6.07903 214.78 6.21968C214.921 6.36033 215 6.5511 215 6.75001Z" fill="#343330"/>
<path d="M260.031 7.71938L254.781 2.46938C254.711 2.39975 254.628 2.34454 254.537 2.3069C254.446 2.26926 254.349 2.24992 254.25 2.25H245.25C244.852 2.25 244.471 2.40804 244.189 2.68934C243.908 2.97064 243.75 3.35218 243.75 3.75V20.25C243.75 20.6478 243.908 21.0294 244.189 21.3107C244.471 21.592 244.852 21.75 245.25 21.75H258.75C259.148 21.75 259.529 21.592 259.811 21.3107C260.092 21.0294 260.25 20.6478 260.25 20.25V8.25C260.25 8.15148 260.231 8.05391 260.193 7.96286C260.155 7.87182 260.1 7.78908 260.031 7.71938ZM255 4.81031L257.69 7.5H255V4.81031ZM258.75 20.25H245.25V3.75H253.5V8.25C253.5 8.44891 253.579 8.63968 253.72 8.78033C253.86 8.92098 254.051 9 254.25 9H258.75V20.25Z" fill="#343330"/>
<path d="M297.25 6H283.75C283.551 6 283.36 6.07902 283.22 6.21967C283.079 6.36032 283 6.55109 283 6.75V20.25C283 20.4489 283.079 20.6397 283.22 20.7803C283.36 20.921 283.551 21 283.75 21H297.25C297.449 21 297.64 20.921 297.78 20.7803C297.921 20.6397 298 20.4489 298 20.25V6.75C298 6.55109 297.921 6.36032 297.78 6.21967C297.64 6.07902 297.449 6 297.25 6ZM296.5 19.5H284.5V7.5H296.5V19.5ZM301 3.75V17.25C301 17.4489 300.921 17.6397 300.78 17.7803C300.64 17.921 300.449 18 300.25 18C300.051 18 299.86 17.921 299.72 17.7803C299.579 17.6397 299.5 17.4489 299.5 17.25V4.5H286.75C286.551 4.5 286.36 4.42098 286.22 4.28033C286.079 4.13968 286 3.94891 286 3.75C286 3.55109 286.079 3.36032 286.22 3.21967C286.36 3.07902 286.551 3 286.75 3H300.25C300.449 3 300.64 3.07902 300.78 3.21967C300.921 3.36032 301 3.55109 301 3.75Z" fill="#343330"/>
<path d="M340.25 3H328.25C328.051 3 327.86 3.07902 327.72 3.21967C327.579 3.36032 327.5 3.55109 327.5 3.75V7.5H323.75C323.551 7.5 323.36 7.57902 323.22 7.71967C323.079 7.86032 323 8.05109 323 8.25V20.25C323 20.4489 323.079 20.6397 323.22 20.7803C323.36 20.921 323.551 21 323.75 21H335.75C335.949 21 336.14 20.921 336.28 20.7803C336.421 20.6397 336.5 20.4489 336.5 20.25V16.5H340.25C340.449 16.5 340.64 16.421 340.78 16.2803C340.921 16.1397 341 15.9489 341 15.75V3.75C341 3.55109 340.921 3.36032 340.78 3.21967C340.64 3.07902 340.449 3 340.25 3ZM335 19.5H324.5V9H335V19.5ZM339.5 15H336.5V8.25C336.5 8.05109 336.421 7.86032 336.28 7.71967C336.14 7.57902 335.949 7.5 335.75 7.5H329V4.5H339.5V15Z" fill="#343330"/>
<path d="M375.75 14.25C375.75 14.4489 375.671 14.6397 375.53 14.7803C375.39 14.921 375.199 15 375 15H369C368.801 15 368.61 14.921 368.47 14.7803C368.329 14.6397 368.25 14.4489 368.25 14.25C368.25 14.0511 368.329 13.8603 368.47 13.7197C368.61 13.579 368.801 13.5 369 13.5H375C375.199 13.5 375.39 13.579 375.53 13.7197C375.671 13.8603 375.75 14.0511 375.75 14.25ZM375 10.5H369C368.801 10.5 368.61 10.579 368.47 10.7197C368.329 10.8603 368.25 11.0511 368.25 11.25C368.25 11.4489 368.329 11.6397 368.47 11.7803C368.61 11.921 368.801 12 369 12H375C375.199 12 375.39 11.921 375.53 11.7803C375.671 11.6397 375.75 11.4489 375.75 11.25C375.75 11.0511 375.671 10.8603 375.53 10.7197C375.39 10.579 375.199 10.5 375 10.5ZM380.25 4.49999V20.25C380.25 20.6478 380.092 21.0293 379.811 21.3106C379.529 21.592 379.148 21.75 378.75 21.75H365.25C364.852 21.75 364.471 21.592 364.189 21.3106C363.908 21.0293 363.75 20.6478 363.75 20.25V4.49999C363.75 4.10216 363.908 3.72063 364.189 3.43933C364.471 3.15802 364.852 2.99999 365.25 2.99999H368.649C369.071 2.52817 369.587 2.15066 370.164 1.8922C370.742 1.63373 371.367 1.50012 372 1.50012C372.633 1.50012 373.258 1.63373 373.836 1.8922C374.413 2.15066 374.929 2.52817 375.351 2.99999H378.75C379.148 2.99999 379.529 3.15802 379.811 3.43933C380.092 3.72063 380.25 4.10216 380.25 4.49999ZM369 5.99999H375C375 5.20434 374.684 4.44127 374.121 3.87867C373.559 3.31606 372.796 2.99999 372 2.99999C371.204 2.99999 370.441 3.31606 369.879 3.87867C369.316 4.44127 369 5.20434 369 5.99999ZM378.75 4.49999H376.242C376.413 4.98169 376.5 5.48896 376.5 5.99999V6.74999C376.5 6.9489 376.421 7.13966 376.28 7.28032C376.14 7.42097 375.949 7.49999 375.75 7.49999H368.25C368.051 7.49999 367.86 7.42097 367.72 7.28032C367.579 7.13966 367.5 6.9489 367.5 6.74999V5.99999C367.5 5.48896 367.587 4.98169 367.758 4.49999H365.25V20.25H378.75V4.49999Z" fill="#343330"/>
</svg>
