<svg width="24" height="24" viewBox="0 0 24 24" fill="none" xmlns="http://www.w3.org/2000/svg">
<path d="M21.3581 6.25875C21.5534 6.04383 21.6821 5.77684 21.7286 5.4902C21.7751 5.20355 21.7374 4.90957 21.6201 4.64393C21.5028 4.3783 21.3108 4.15243 21.0676 3.99375C20.8244 3.83507 20.5404 3.75039 20.25 3.75H3.75001C3.45969 3.75057 3.17578 3.83538 2.93272 3.99413C2.68965 4.15288 2.49788 4.37876 2.38066 4.64436C2.26345 4.90996 2.22582 5.20387 2.27236 5.49043C2.31889 5.77699 2.44758 6.04389 2.64282 6.25875L2.65032 6.26719L9.00001 13.0472V20.25C8.99994 20.5215 9.07356 20.7879 9.213 21.0208C9.35244 21.2537 9.55249 21.4445 9.79181 21.5726C10.0311 21.7008 10.3007 21.7616 10.5719 21.7486C10.8431 21.7356 11.1056 21.6493 11.3316 21.4988L14.3316 19.4981C14.5372 19.3611 14.7058 19.1755 14.8225 18.9576C14.9391 18.7398 15.0001 18.4965 15 18.2494V13.0472L21.3497 6.26719L21.3581 6.25875ZM13.7053 12.2428C13.5755 12.38 13.5021 12.5611 13.5 12.75V18.2494L10.5 20.25V12.75C10.4998 12.5599 10.4274 12.3769 10.2975 12.2381L3.75001 5.25H20.25L13.7053 12.2428ZM23.0325 19.725C23.1732 19.8657 23.2523 20.0566 23.2523 20.2556C23.2523 20.4546 23.1732 20.6455 23.0325 20.7863C22.8918 20.927 22.7009 21.006 22.5019 21.006C22.3029 21.006 22.112 20.927 21.9713 20.7863L20.25 19.0613L18.5306 20.7816C18.3899 20.9222 18.1991 21.0011 18.0001 21.001C17.8012 21.0009 17.6105 20.9218 17.4699 20.7811C17.3292 20.6404 17.2503 20.4495 17.2504 20.2506C17.2505 20.0517 17.3296 19.8609 17.4703 19.7203L19.1897 18L17.4703 16.2797C17.3356 16.1379 17.2616 15.9491 17.2641 15.7535C17.2666 15.5579 17.3454 15.3711 17.4837 15.2328C17.622 15.0945 17.8089 15.0157 18.0045 15.0132C18.2 15.0107 18.3888 15.0847 18.5306 15.2194L20.25 16.9397L21.9694 15.2203C22.11 15.0796 22.3007 15.0005 22.4997 15.0004C22.6986 15.0003 22.8894 15.0792 23.0302 15.2198C23.1709 15.3604 23.25 15.5512 23.2501 15.7501C23.2502 15.9491 23.1712 16.1399 23.0306 16.2806L21.3103 18L23.0325 19.725Z" fill="#343330"/>
</svg>
