<svg width="24" height="24" viewBox="0 0 24 24" fill="none" xmlns="http://www.w3.org/2000/svg">
<path d="M16.5001 19.4287C17.0174 19.2249 17.5188 18.9827 18.0001 18.7041V22.5C18.0001 22.6989 17.9211 22.8897 17.7804 23.0303C17.6397 23.171 17.449 23.25 17.2501 23.25C17.0512 23.25 16.8604 23.171 16.7197 23.0303C16.5791 22.8897 16.5001 22.6989 16.5001 22.5V19.4287ZM17.6026 11.1384L12.3526 8.33812C12.1774 8.24866 11.9741 8.23158 11.7865 8.29056C11.5989 8.34955 11.4419 8.47989 11.3494 8.65349C11.257 8.82709 11.2364 9.03006 11.2922 9.21868C11.348 9.40729 11.4756 9.56645 11.6476 9.66187L16.0313 12L17.6251 11.1506L17.6026 11.1384ZM23.6026 8.33812L12.3526 2.33812C12.2441 2.28034 12.123 2.25012 12.0001 2.25012C11.8771 2.25012 11.7561 2.28034 11.6476 2.33812L0.397571 8.33812C0.277575 8.40207 0.177221 8.49744 0.107246 8.61403C0.0372702 8.73061 0.000305176 8.86402 0.000305176 9C0.000305176 9.13597 0.0372702 9.26938 0.107246 9.38597C0.177221 9.50255 0.277575 9.59792 0.397571 9.66187L3.00007 11.0503V15.5897C2.99929 15.9581 3.13487 16.3137 3.3807 16.5881C4.60882 17.9559 7.36038 20.25 12.0001 20.25C13.5385 20.2627 15.0653 19.9841 16.5001 19.4287V12.2503L16.0313 12L12.0001 14.1497L4.10913 9.9375L2.34382 9L12.0001 3.85031L21.6563 9L19.8957 9.9375H19.8901L17.6251 11.1506C17.7391 11.2165 17.8338 11.3112 17.8996 11.4252C17.9655 11.5393 18.0001 11.6686 18.0001 11.8003V18.7041C18.9781 18.1395 19.8619 17.4256 20.6194 16.5881C20.8653 16.3137 21.0009 15.9581 21.0001 15.5897V11.0503L23.6026 9.66187C23.7226 9.59792 23.8229 9.50255 23.8929 9.38597C23.9629 9.26938 23.9998 9.13597 23.9998 9C23.9998 8.86402 23.9629 8.73061 23.8929 8.61403C23.8229 8.49744 23.7226 8.40207 23.6026 8.33812Z" fill="#343330"/>
</svg>
