<svg width="24" height="24" viewBox="0 0 24 24" fill="none" xmlns="http://www.w3.org/2000/svg">
<path d="M4.99125 14.296L17.3306 9.75004L4.99125 5.2041C4.89511 5.17301 4.80624 5.12282 4.72997 5.05653C4.65371 4.99024 4.59163 4.90922 4.54746 4.81834C4.50329 4.72746 4.47793 4.62859 4.47292 4.52767C4.46791 4.42675 4.48335 4.32586 4.5183 4.23105C4.55325 4.13624 4.607 4.04947 4.67632 3.97595C4.74564 3.90244 4.82911 3.84368 4.9217 3.80322C5.01429 3.76276 5.1141 3.74143 5.21515 3.74051C5.31619 3.73959 5.41637 3.75909 5.50969 3.79785L19.7597 9.04785C19.9032 9.10113 20.027 9.19706 20.1144 9.32275C20.2018 9.44844 20.2487 9.59787 20.2487 9.75098C20.2487 9.90408 20.2018 10.0535 20.1144 10.1792C20.027 10.3049 19.9032 10.4008 19.7597 10.4541L5.50969 15.7041C5.42646 15.7344 5.33858 15.7499 5.25 15.75C5.07383 15.7501 4.90325 15.6882 4.76818 15.575C4.63311 15.4619 4.54217 15.3049 4.5113 15.1314C4.48044 14.958 4.51162 14.7792 4.59938 14.6264C4.68713 14.4737 4.82587 14.3567 4.99125 14.296ZM19.5 18H5.25C5.05109 18 4.86033 18.0791 4.71967 18.2197C4.57902 18.3604 4.5 18.5511 4.5 18.75C4.5 18.949 4.57902 19.1397 4.71967 19.2804C4.86033 19.421 5.05109 19.5 5.25 19.5H19.5C19.6989 19.5 19.8897 19.421 20.0303 19.2804C20.171 19.1397 20.25 18.949 20.25 18.75C20.25 18.5511 20.171 18.3604 20.0303 18.2197C19.8897 18.0791 19.6989 18 19.5 18Z" fill="#343330"/>
</svg>
