<svg width="24" height="24" viewBox="0 0 24 24" fill="none" xmlns="http://www.w3.org/2000/svg">
<path d="M19.8975 2.8124C19.6372 2.36447 19.2501 2.00359 18.785 1.77522C18.32 1.54685 17.7978 1.4612 17.2841 1.52906C16.7705 1.59692 16.2884 1.81526 15.8987 2.15657C15.5089 2.49789 15.2288 2.94691 15.0938 3.44709L13.875 7.97709L12.6609 3.44709C12.5827 3.10266 12.4357 2.77756 12.2288 2.49127C12.0219 2.20499 11.7594 1.9634 11.4569 1.78098C11.1544 1.59856 10.8183 1.47906 10.4685 1.42963C10.1188 1.38021 9.76266 1.40188 9.42149 1.49334C9.08032 1.5848 8.76111 1.74418 8.48299 1.96192C8.20488 2.17967 7.97356 2.4513 7.80291 2.76056C7.63226 3.06982 7.52577 3.41033 7.48983 3.76172C7.45389 4.1131 7.48924 4.46813 7.59375 4.80553L8.47313 8.08678L7.65469 7.92928C7.09515 7.81413 6.51332 7.88465 5.99749 8.13015C5.48167 8.37565 5.06001 8.78271 4.7965 9.28958C4.533 9.79644 4.44203 10.3754 4.53741 10.9387C4.63279 11.5019 4.90931 12.0187 5.325 12.4105C5.06261 12.6566 4.85389 12.9543 4.71193 13.2849C4.56996 13.6154 4.49781 13.9717 4.5 14.3315V14.9999C4.5 16.989 5.29018 18.8967 6.6967 20.3032C8.10322 21.7097 10.0109 22.4999 12 22.4999H12.0572C16.1616 22.469 19.5 19.0668 19.5 14.9155V14.6024C19.4993 13.4386 19.111 12.3082 18.3966 11.3896L20.1563 4.80553C20.2472 4.47272 20.2712 4.12516 20.2267 3.78302C20.1823 3.44088 20.0704 3.11096 19.8975 2.8124ZM9.15094 3.5624C9.26204 3.36921 9.42802 3.21336 9.62782 3.11464C9.82763 3.01591 10.0523 2.97875 10.2732 3.00788C10.4942 3.03701 10.7015 3.1311 10.8689 3.27823C11.0363 3.42536 11.1562 3.61889 11.2134 3.83428L12.5981 9.00459C12.1285 9.03332 11.6751 9.18777 11.2856 9.45178C11.2812 9.44332 11.2762 9.43518 11.2706 9.4274C10.9909 9.0029 10.5925 8.67003 10.125 8.47022L9.03938 4.4174C9.00053 4.27459 8.99038 4.12549 9.00953 3.97873C9.02868 3.83197 9.07674 3.69047 9.15094 3.5624ZM6.02344 10.2749C6.05312 10.1294 6.11131 9.99123 6.19465 9.86833C6.27799 9.74543 6.38484 9.64025 6.50904 9.55885C6.63323 9.47745 6.77231 9.42144 6.91825 9.39405C7.0642 9.36666 7.21412 9.36844 7.35938 9.39928L9.30094 9.77428C9.44574 9.8038 9.5833 9.86156 9.70577 9.94425C9.82824 10.0269 9.93321 10.133 10.0147 10.2562C10.0962 10.3795 10.1526 10.5176 10.1807 10.6627C10.2088 10.8078 10.208 10.957 10.1784 11.1018C10.1488 11.2473 10.0906 11.3855 10.0072 11.5084C9.92389 11.6313 9.81704 11.7364 9.69284 11.8178C9.56865 11.8992 9.42957 11.9552 9.28363 11.9826C9.13768 12.01 8.98776 12.0082 8.8425 11.9774L6.89719 11.6024C6.60565 11.5419 6.34997 11.3683 6.18619 11.1197C6.02241 10.871 5.96389 10.5676 6.02344 10.2758V10.2749ZM6.02344 14.0924C6.08299 13.8029 6.25404 13.5485 6.49963 13.3842C6.74523 13.2198 7.04564 13.1587 7.33594 13.214L8.28375 13.4015C8.57599 13.4611 8.83258 13.6343 8.99713 13.8831C9.16168 14.1318 9.22071 14.4358 9.16125 14.728C9.13165 14.8731 9.07369 15.011 8.9907 15.1336C8.90771 15.2562 8.80133 15.3613 8.67764 15.4427C8.55396 15.5242 8.41542 15.5804 8.26996 15.6082C8.1245 15.6359 7.97499 15.6347 7.83 15.6046L6.8925 15.4171C6.60042 15.357 6.34412 15.1835 6.17993 14.9346C6.01574 14.6857 5.95709 14.3817 6.01688 14.0896L6.02344 14.0924ZM18 14.9155C18 18.2465 15.3291 20.9755 12.0469 20.9999C10.7625 21.009 9.50899 20.6063 8.47031 19.8507C7.43163 19.0951 6.66244 18.0266 6.27563 16.8018C6.38254 16.8378 6.49148 16.8676 6.60188 16.8908L7.53938 17.0783C7.71248 17.1136 7.88866 17.1315 8.06531 17.1318C8.52733 17.1317 8.98112 17.0096 9.38086 16.7779C9.78059 16.5463 10.1121 16.2132 10.3419 15.8124C10.5717 15.4116 10.6916 14.9572 10.6896 14.4952C10.6876 14.0332 10.5636 13.5799 10.3303 13.1812C10.4044 13.1408 10.4775 13.0977 10.5478 13.0499L10.5628 13.0743C10.7524 13.3628 10.9973 13.6108 11.2835 13.8039C11.5696 13.997 11.8912 14.1314 12.2297 14.1993L12.8222 14.3174C12.7099 14.8594 12.7327 15.4208 12.8885 15.952C13.0443 16.4831 13.3283 16.9678 13.7156 17.3633C13.8562 17.4997 14.0444 17.5756 14.2402 17.575C14.436 17.5744 14.6238 17.4972 14.7635 17.36C14.9031 17.2228 14.9836 17.0364 14.9877 16.8407C14.9918 16.6449 14.9191 16.4553 14.7853 16.3124C14.505 16.0263 14.3236 15.658 14.2677 15.2614C14.2119 14.8648 14.2845 14.4607 14.475 14.1083C14.531 14.0051 14.562 13.8902 14.5655 13.7728C14.569 13.6555 14.5448 13.5389 14.495 13.4325C14.4452 13.3262 14.3712 13.233 14.2788 13.1605C14.1864 13.0881 14.0783 13.0383 13.9631 13.0152L12.525 12.7274C12.2329 12.6676 11.9766 12.4942 11.8122 12.2455C11.6479 11.9968 11.589 11.693 11.6484 11.4008C11.6781 11.2559 11.736 11.1183 11.8188 10.9958C11.9017 10.8733 12.0079 10.7683 12.1314 10.6869C12.2548 10.6055 12.3932 10.5492 12.5384 10.5213C12.6836 10.4934 12.833 10.4944 12.9778 10.5243L14.985 10.9255C15.8343 11.0971 16.5983 11.5567 17.1477 12.2267C17.697 12.8967 17.9981 13.736 18 14.6024V14.9155ZM18.7116 4.41553L17.1534 10.228C16.5854 9.84883 15.9483 9.58507 15.2784 9.45178L15.0441 9.4049L16.5375 3.83522C16.574 3.69062 16.6388 3.55472 16.7283 3.43542C16.8178 3.31612 16.9301 3.2158 17.0587 3.14029C17.1873 3.06478 17.3296 3.01559 17.4774 2.99557C17.6251 2.97556 17.7754 2.98513 17.9195 3.02372C18.0635 3.06231 18.1984 3.12915 18.3164 3.22036C18.4344 3.31157 18.5331 3.42532 18.6067 3.555C18.6803 3.68469 18.7274 3.82771 18.7452 3.97577C18.7631 4.12382 18.7513 4.27394 18.7106 4.4174L18.7116 4.41553Z" fill="#343330"/>
</svg>
