<svg width="24" height="24" viewBox="0 0 24 24" fill="none" xmlns="http://www.w3.org/2000/svg">
<path d="M17.875 5.50038C17.4374 5.49975 17.0066 5.60937 16.6225 5.81913C16.4837 5.38922 16.2363 5.0024 15.9043 4.6961C15.5722 4.38979 15.1667 4.17437 14.727 4.07067C14.2873 3.96696 13.8283 3.97849 13.3944 4.10414C12.9604 4.22978 12.5663 4.46529 12.25 4.78788C11.885 4.41539 11.4174 4.16005 10.9067 4.05442C10.396 3.94878 9.86546 3.99766 9.38267 4.1948C8.89987 4.39194 8.48674 4.72841 8.19596 5.1613C7.90518 5.5942 7.74992 6.10389 7.75 6.62538V8.50038H6.625C5.92881 8.50038 5.26113 8.77695 4.76884 9.26923C4.27656 9.76151 4 10.4292 4 11.1254V12.2504C4 14.4384 4.86919 16.5368 6.41637 18.084C7.96354 19.6312 10.062 20.5004 12.25 20.5004C14.438 20.5004 16.5365 19.6312 18.0836 18.084C19.6308 16.5368 20.5 14.4384 20.5 12.2504V8.12538C20.5 7.42919 20.2234 6.76151 19.7312 6.26923C19.2389 5.77695 18.5712 5.50038 17.875 5.50038ZM19 12.2504C19 14.0406 18.2888 15.7575 17.023 17.0234C15.7571 18.2892 14.0402 19.0004 12.25 19.0004C10.4598 19.0004 8.7429 18.2892 7.47703 17.0234C6.21116 15.7575 5.5 14.0406 5.5 12.2504V11.1254C5.5 10.827 5.61853 10.5409 5.8295 10.3299C6.04048 10.1189 6.32663 10.0004 6.625 10.0004H7.75V12.2504C7.75 12.4493 7.82902 12.6401 7.96967 12.7807C8.11032 12.9214 8.30109 13.0004 8.5 13.0004C8.69891 13.0004 8.88968 12.9214 9.03033 12.7807C9.17098 12.6401 9.25 12.4493 9.25 12.2504V6.62538C9.25 6.32702 9.36853 6.04087 9.5795 5.82989C9.79048 5.61891 10.0766 5.50038 10.375 5.50038C10.6734 5.50038 10.9595 5.61891 11.1705 5.82989C11.3815 6.04087 11.5 6.32702 11.5 6.62538V9.25038C11.5 9.4493 11.579 9.64006 11.7197 9.78071C11.8603 9.92137 12.0511 10.0004 12.25 10.0004C12.4489 10.0004 12.6397 9.92137 12.7803 9.78071C12.921 9.64006 13 9.4493 13 9.25038V6.62538C13 6.32702 13.1185 6.04087 13.3295 5.82989C13.5405 5.61891 13.8266 5.50038 14.125 5.50038C14.4234 5.50038 14.7095 5.61891 14.9205 5.82989C15.1315 6.04087 15.25 6.32702 15.25 6.62538V9.25038C15.25 9.4493 15.329 9.64006 15.4697 9.78071C15.6103 9.92137 15.8011 10.0004 16 10.0004C16.1989 10.0004 16.3897 9.92137 16.5303 9.78071C16.671 9.64006 16.75 9.4493 16.75 9.25038V8.12538C16.75 7.82702 16.8685 7.54087 17.0795 7.32989C17.2905 7.11891 17.5766 7.00038 17.875 7.00038C18.1734 7.00038 18.4595 7.11891 18.6705 7.32989C18.8815 7.54087 19 7.82702 19 8.12538V12.2504Z" fill="#343330"/>
</svg>
