<svg width="24" height="24" viewBox="0 0 24 24" fill="none" xmlns="http://www.w3.org/2000/svg">
<path d="M17.625 4.50003C17.2357 4.49948 16.8513 4.5863 16.5 4.75409V4.12503C16.5002 3.49938 16.277 2.89423 15.8705 2.41861C15.4641 1.943 14.9011 1.6282 14.2831 1.53094C13.665 1.43368 13.0326 1.56037 12.4997 1.88816C11.9668 2.21595 11.5685 2.7233 11.3766 3.31878C10.9768 3.10195 10.5276 2.9927 10.0729 3.00172C9.61825 3.01074 9.17371 3.13773 8.78288 3.37024C8.39205 3.60276 8.06833 3.93282 7.84344 4.32808C7.61855 4.72335 7.5002 5.17026 7.5 5.62503V11.625L7.14187 11.0503C6.79403 10.45 6.22268 10.0119 5.55272 9.83161C4.88276 9.65133 4.16868 9.74361 3.56656 10.0883C2.96444 10.433 2.52326 11.002 2.33945 11.671C2.15563 12.34 2.24414 13.0545 2.58562 13.6585C4.08562 16.8244 5.29781 19.0697 6.68438 20.4732C8.085 21.8944 9.675 22.5 12 22.5C14.1873 22.4975 16.2843 21.6276 17.8309 20.0809C19.3775 18.5343 20.2475 16.4373 20.25 14.25V7.12503C20.25 6.42883 19.9734 5.76115 19.4812 5.26887C18.9889 4.77659 18.3212 4.50003 17.625 4.50003ZM18.75 14.25C18.748 16.0396 18.0362 17.7554 16.7708 19.0208C15.5053 20.2862 13.7896 20.998 12 21C10.0894 21 8.85844 20.5425 7.75031 19.4203C6.51 18.1631 5.36812 16.0313 3.92812 12.9919C3.91969 12.9733 3.9103 12.9552 3.9 12.9375C3.75082 12.6791 3.71041 12.3719 3.78769 12.0837C3.86496 11.7954 4.05357 11.5497 4.31203 11.4005C4.57049 11.2513 4.87763 11.2109 5.16588 11.2882C5.45413 11.3655 5.69988 11.5541 5.84906 11.8125C5.85288 11.82 5.85727 11.8272 5.86219 11.8341L7.6125 14.6466C7.69848 14.7853 7.82738 14.8922 7.97963 14.9511C8.13188 15.0099 8.29917 15.0175 8.45611 14.9726C8.61305 14.9278 8.75107 14.8329 8.84923 14.7025C8.94739 14.5721 9.00032 14.4132 9 14.25V5.62503C9 5.32666 9.11853 5.04051 9.32951 4.82953C9.54048 4.61855 9.82663 4.50003 10.125 4.50003C10.4234 4.50003 10.7095 4.61855 10.9205 4.82953C11.1315 5.04051 11.25 5.32666 11.25 5.62503V11.25C11.25 11.4489 11.329 11.6397 11.4697 11.7804C11.6103 11.921 11.8011 12 12 12C12.1989 12 12.3897 11.921 12.5303 11.7804C12.671 11.6397 12.75 11.4489 12.75 11.25V4.12503C12.75 3.82666 12.8685 3.54051 13.0795 3.32953C13.2905 3.11855 13.5766 3.00003 13.875 3.00003C14.1734 3.00003 14.4595 3.11855 14.6705 3.32953C14.8815 3.54051 15 3.82666 15 4.12503V11.25C15 11.4489 15.079 11.6397 15.2197 11.7804C15.3603 11.921 15.5511 12 15.75 12C15.9489 12 16.1397 11.921 16.2803 11.7804C16.421 11.6397 16.5 11.4489 16.5 11.25V7.12503C16.5 6.82666 16.6185 6.54051 16.8295 6.32953C17.0405 6.11855 17.3266 6.00003 17.625 6.00003C17.9234 6.00003 18.2095 6.11855 18.4205 6.32953C18.6315 6.54051 18.75 6.82666 18.75 7.12503V14.25Z" fill="#343330"/>
</svg>
