<svg width="24" height="24" viewBox="0 0 24 24" fill="none" xmlns="http://www.w3.org/2000/svg">
<path d="M20.6409 9.37505L19.0181 6.56255C18.67 5.95983 18.0969 5.52002 17.4246 5.33982C16.7523 5.15962 16.036 5.25379 15.4331 5.60161C15.0969 5.79586 14.8086 6.06304 14.5894 6.38349L12.9562 3.56255C12.7257 3.16388 12.3944 2.83287 11.9955 2.60274C11.5967 2.37261 11.1443 2.25146 10.6837 2.25146C10.2232 2.25146 9.77084 2.37261 9.37195 2.60274C8.97307 2.83287 8.64175 3.16388 8.41125 3.56255C7.93188 3.1851 7.33599 2.98641 6.72602 3.00066C6.11605 3.01491 5.53009 3.24119 5.06887 3.64062C4.60764 4.04004 4.29996 4.58766 4.19871 5.18934C4.09746 5.79101 4.20897 6.40917 4.51406 6.93755L4.66312 7.1963C4.27523 7.22639 3.89907 7.34333 3.5625 7.53849C2.95968 7.88672 2.51988 8.46015 2.33985 9.13264C2.15982 9.80513 2.25429 10.5216 2.6025 11.1244L6.3525 17.6232C6.89201 18.5631 7.61248 19.3867 8.47226 20.0465C9.33203 20.7062 10.3141 21.189 11.3616 21.4669C12.0624 21.6542 12.7848 21.7487 13.5103 21.7482C14.9573 21.7457 16.3782 21.3627 17.6304 20.6376C18.8826 19.9125 19.922 18.8708 20.6445 17.6171C21.3669 16.3633 21.7468 14.9416 21.7462 13.4947C21.7456 12.0477 21.3644 10.6263 20.6409 9.37318V9.37505ZM20.0166 15.2476C19.6708 16.5368 18.9506 17.6946 17.9469 18.5745C16.9432 19.4545 15.7012 20.0171 14.3778 20.1913C13.0544 20.3655 11.7091 20.1434 10.512 19.5531C9.31477 18.9629 8.31947 18.0309 7.65187 16.8751L3.90187 10.3763C3.75912 10.1184 3.72333 9.81467 3.8022 9.53061C3.88107 9.24654 4.0683 9.00478 4.3236 8.85735C4.5789 8.70991 4.88188 8.66859 5.16734 8.74227C5.4528 8.81594 5.69793 8.99873 5.85 9.2513L7.65281 12.3751C7.7006 12.4631 7.76554 12.5406 7.84379 12.6031C7.92204 12.6656 8.01202 12.7118 8.10841 12.739C8.20481 12.7662 8.30567 12.7738 8.40505 12.7613C8.50443 12.7489 8.60031 12.7167 8.68704 12.6666C8.77376 12.6165 8.84957 12.5495 8.91 12.4697C8.97043 12.3898 9.01425 12.2986 9.03888 12.2016C9.06351 12.1045 9.06844 12.0035 9.05339 11.9044C9.03834 11.8054 9.00361 11.7104 8.95125 11.6251L5.8125 6.18755C5.7354 6.0595 5.6846 5.91738 5.66305 5.76948C5.6415 5.62157 5.64964 5.47086 5.68699 5.32614C5.72435 5.18142 5.79016 5.04559 5.8806 4.92659C5.97103 4.80759 6.08427 4.7078 6.2137 4.63306C6.34314 4.55831 6.48617 4.51011 6.63444 4.49126C6.78271 4.47242 6.93325 4.4833 7.07726 4.52329C7.22128 4.56327 7.35588 4.63156 7.47322 4.72415C7.59055 4.81674 7.68825 4.93178 7.76062 5.06255L10.6875 10.1251C10.7353 10.2131 10.8002 10.2906 10.8785 10.3531C10.9567 10.4156 11.0467 10.4618 11.1431 10.489C11.2395 10.5162 11.3404 10.5238 11.4397 10.5113C11.5391 10.4989 11.635 10.4667 11.7217 10.4166C11.8084 10.3665 11.8843 10.2995 11.9447 10.2197C12.0051 10.1398 12.0489 10.0486 12.0736 9.95157C12.0982 9.85449 12.1031 9.75346 12.0881 9.65444C12.073 9.55543 12.0383 9.46043 11.9859 9.37505L9.70968 5.43755C9.63259 5.3095 9.58179 5.16738 9.56024 5.01948C9.53869 4.87157 9.54683 4.72086 9.58418 4.57614C9.62153 4.43142 9.68735 4.29559 9.77778 4.17659C9.86822 4.05759 9.98146 3.9578 10.1109 3.88306C10.2403 3.80831 10.3834 3.76011 10.5316 3.74126C10.6799 3.72242 10.8304 3.7333 10.9745 3.77329C11.1185 3.81327 11.2531 3.88156 11.3704 3.97415C11.4877 4.06674 11.5854 4.18178 11.6578 4.31255L14.7909 9.74068C14.0612 10.4817 13.6106 11.4527 13.5159 12.4885C13.4212 13.5242 13.6882 14.5608 14.2716 15.4219C14.3834 15.5865 14.5561 15.6999 14.7516 15.7372C14.9472 15.7745 15.1495 15.7326 15.3141 15.6207C15.4787 15.5088 15.5921 15.3361 15.6293 15.1406C15.6666 14.9451 15.6247 14.7428 15.5128 14.5782C15.0821 13.9403 14.913 13.1612 15.0406 12.4022C15.1681 11.6431 15.5825 10.9621 16.1981 10.5001C16.3449 10.3901 16.4462 10.2301 16.483 10.0504C16.5198 9.87079 16.4895 9.68388 16.3978 9.52505L15.7716 8.43755C15.6919 8.30949 15.6388 8.16672 15.6155 8.01772C15.5921 7.86873 15.5989 7.71657 15.6355 7.57027C15.6722 7.42397 15.7378 7.28653 15.8286 7.16611C15.9194 7.0457 16.0335 6.94477 16.1641 6.86932C16.2947 6.79387 16.4391 6.74545 16.5888 6.72694C16.7384 6.70842 16.8903 6.72019 17.0353 6.76154C17.1804 6.80289 17.3156 6.87297 17.433 6.96763C17.5504 7.06229 17.6476 7.17959 17.7187 7.31255L19.3416 10.1251C19.7868 10.8916 20.0757 11.7389 20.1916 12.6178C20.3074 13.4967 20.248 14.3899 20.0166 15.2457V15.2476ZM17.2734 2.97286C17.3239 2.78081 17.4485 2.6166 17.6198 2.51625C17.7912 2.4159 17.9953 2.3876 18.1875 2.43755C18.9038 2.62633 19.5754 2.95561 20.1634 3.40625C20.7513 3.85689 21.2438 4.4199 21.6122 5.06255L21.6431 5.11599C21.6955 5.20137 21.7302 5.29636 21.7453 5.39538C21.7603 5.4944 21.7554 5.59542 21.7308 5.6925C21.7061 5.78958 21.6623 5.88075 21.6019 5.96061C21.5415 6.04048 21.4656 6.10744 21.3789 6.15753C21.2922 6.20763 21.1963 6.23985 21.0969 6.25228C20.9975 6.26472 20.8967 6.25713 20.8003 6.22996C20.7039 6.20278 20.6139 6.15658 20.5357 6.09407C20.4574 6.03155 20.3925 5.954 20.3447 5.86599L20.3137 5.81255C20.0434 5.34158 19.682 4.9291 19.2506 4.59915C18.8193 4.2692 18.3266 4.02837 17.8012 3.89068C17.6097 3.83864 17.4467 3.71284 17.3477 3.54081C17.2488 3.36878 17.2221 3.16455 17.2734 2.97286ZM7.58343 22.2188C7.4603 22.3749 7.28025 22.4757 7.08283 22.499C6.88542 22.5224 6.6868 22.4665 6.53062 22.3435C5.40886 21.4574 4.46693 20.365 3.75562 19.1251C3.70638 19.0397 3.67442 18.9456 3.66157 18.8479C3.64872 18.7502 3.65524 18.651 3.68074 18.5558C3.70625 18.4607 3.75025 18.3715 3.81023 18.2933C3.87021 18.2152 3.94499 18.1496 4.03031 18.1004C4.11563 18.0511 4.20981 18.0192 4.30748 18.0063C4.40515 17.9935 4.50439 18 4.59954 18.0255C4.69469 18.051 4.78389 18.095 4.86204 18.155C4.94018 18.215 5.00575 18.2897 5.055 18.3751C5.67151 19.4484 6.48738 20.3941 7.45875 21.1613C7.5367 21.2223 7.6018 21.2982 7.6503 21.3844C7.6988 21.4707 7.72973 21.5658 7.74133 21.6641C7.75292 21.7624 7.74493 21.862 7.71783 21.9572C7.69073 22.0524 7.64506 22.1413 7.58343 22.2188Z" fill="#343330"/>
</svg>
