<svg width="24" height="24" viewBox="0 0 24 24" fill="none" xmlns="http://www.w3.org/2000/svg">
<path d="M23.8406 10.1166L21.4481 5.3297C21.36 5.15352 21.238 4.99642 21.0891 4.86737C20.9403 4.73833 20.7675 4.63988 20.5805 4.57763C20.3936 4.51539 20.1963 4.49057 19.9998 4.5046C19.8033 4.51863 19.6115 4.57123 19.4353 4.65939L17.1037 5.8247L12.1922 4.52533C12.0661 4.49253 11.9338 4.49253 11.8078 4.52533L6.89624 5.8247L4.56468 4.65939C4.3885 4.57123 4.19669 4.51863 4.00018 4.5046C3.80368 4.49057 3.60634 4.51539 3.41943 4.57763C3.23252 4.63988 3.0597 4.73833 2.91084 4.86737C2.76198 4.99642 2.64 5.15352 2.55186 5.3297L0.159364 10.1156C0.0711983 10.2918 0.0185991 10.4836 0.00457085 10.6801C-0.00945745 10.8766 0.0153599 11.074 0.0776056 11.2609C0.139851 11.4478 0.238306 11.6206 0.367347 11.7695C0.496389 11.9183 0.653489 12.0403 0.829677 12.1285L3.36093 13.395L8.56311 17.1103C8.63977 17.1649 8.72593 17.2046 8.81718 17.2275L14.8172 18.7275C14.9428 18.759 15.0745 18.7575 15.1994 18.723C15.3242 18.6885 15.438 18.6222 15.5297 18.5306L20.6925 13.3669L23.1694 12.1285C23.5249 11.9504 23.7953 11.6385 23.921 11.2613C24.0467 10.884 24.0174 10.4723 23.8397 10.1166H23.8406ZM18.6947 13.245L15.4687 10.6613C15.3242 10.5455 15.142 10.4873 14.9571 10.4979C14.7723 10.5085 14.5979 10.587 14.4675 10.7185C12.7978 12.4003 10.9369 12.1875 9.74999 11.4375L13.8037 7.50002H16.7859L19.3369 12.601L18.6947 13.245ZM3.89343 6.00002L5.81249 6.95814L3.4153 11.7441L1.49999 10.7869L3.89343 6.00002ZM14.7684 17.1685L9.32061 15.8072L4.70811 12.5128L7.33311 7.26283L12 6.02627L12.9187 6.26908L8.69999 10.3641L8.69249 10.3725C8.53368 10.5313 8.41256 10.7238 8.33807 10.9356C8.26357 11.1475 8.2376 11.3734 8.26208 11.5967C8.28656 11.8199 8.36085 12.0348 8.47948 12.2255C8.59811 12.4162 8.75805 12.5778 8.94749 12.6985C10.875 13.9294 13.2009 13.7297 15.0328 12.2297L17.625 14.3119L14.7684 17.1685ZM20.5809 11.7431L18.1884 6.96189L20.1066 6.00002L22.5 10.7869L20.5809 11.7431ZM12.3544 20.431C12.3138 20.5931 12.2204 20.737 12.0887 20.8399C11.9571 20.9428 11.7949 20.9988 11.6278 20.9991C11.5662 20.999 11.5048 20.9914 11.445 20.9766L7.53843 19.9997C7.44706 19.9772 7.36083 19.9374 7.28436 19.8825L4.81405 18.1181C4.66216 17.9989 4.56212 17.8256 4.53477 17.6345C4.50742 17.4433 4.55487 17.2489 4.66723 17.0919C4.77959 16.9348 4.94821 16.8271 5.13797 16.7913C5.32773 16.7554 5.524 16.7942 5.68593 16.8994L8.03999 18.5813L11.8125 19.5225C12.0054 19.5708 12.1713 19.6937 12.2736 19.8642C12.3759 20.0348 12.4063 20.2389 12.3581 20.4319L12.3544 20.431Z" fill="#343330"/>
</svg>
