<svg width="24" height="24" viewBox="0 0 24 24" fill="none" xmlns="http://www.w3.org/2000/svg">
<path d="M23.7806 9.96936C23.711 9.89963 23.6283 9.84431 23.5372 9.80657C23.4462 9.76883 23.3486 9.7494 23.25 9.7494C23.1514 9.7494 23.0538 9.76883 22.9628 9.80657C22.8717 9.84431 22.789 9.89963 22.7194 9.96936L18 14.6897L10.0603 6.74999L14.7806 2.03061C14.8503 1.96093 14.9056 1.87821 14.9433 1.78716C14.981 1.69612 15.0004 1.59854 15.0004 1.49999C15.0004 1.40144 14.981 1.30386 14.9433 1.21282C14.9056 1.12177 14.8503 1.03905 14.7806 0.969365C14.7109 0.899682 14.6282 0.844407 14.5372 0.806695C14.4461 0.768983 14.3485 0.749573 14.25 0.749573C14.1515 0.749573 14.0539 0.768983 13.9628 0.806695C13.8718 0.844407 13.7891 0.899682 13.7194 0.969365L9 5.68968C8.77306 5.91665 8.62492 6.21043 8.57733 6.52785C8.52974 6.84526 8.58522 7.16957 8.73562 7.45311L6.75 9.43968C6.4689 9.72095 6.311 10.1023 6.311 10.5C6.311 10.8976 6.4689 11.279 6.75 11.5603L7.18968 12L1.71937 17.4694C1.62889 17.5598 1.56304 17.6718 1.52808 17.7949C1.49311 17.9179 1.4902 18.0478 1.5196 18.1723C1.54901 18.2968 1.60976 18.4117 1.69608 18.5061C1.78241 18.6004 1.89144 18.6712 2.01281 18.7116L8.76281 20.9616C8.83924 20.9872 8.91937 21.0002 9 21C9.09852 21.0001 9.19609 20.9807 9.28713 20.9431C9.37818 20.9055 9.46092 20.8502 9.53062 20.7806L12.75 17.5603L13.1897 18C13.471 18.2811 13.8523 18.439 14.25 18.439C14.6477 18.439 15.029 18.2811 15.3103 18L17.2959 16.0144C17.5796 16.165 17.9041 16.2206 18.2217 16.173C18.5393 16.1254 18.8333 15.9771 19.0603 15.75L23.7806 11.0306C23.8504 10.961 23.9057 10.8782 23.9434 10.7872C23.9812 10.6961 24.0006 10.5986 24.0006 10.5C24.0006 10.4014 23.9812 10.3038 23.9434 10.2128C23.9057 10.1217 23.8504 10.039 23.7806 9.96936ZM14.25 16.9397L7.81031 10.5L9.75 8.5603L16.1897 15L14.25 16.9397Z" fill="#343330"/>
</svg>
