<svg width="24" height="24" viewBox="0 0 24 24" fill="none" xmlns="http://www.w3.org/2000/svg">
<path d="M19.7981 18.4275L13.0847 12L19.7981 5.5725C19.802 5.56821 19.806 5.56414 19.8103 5.56031C20.02 5.35054 20.1627 5.08332 20.2205 4.79244C20.2784 4.50156 20.2486 4.20007 20.1352 3.92607C20.0217 3.65207 19.8295 3.41785 19.583 3.25302C19.3365 3.08819 19.0466 3.00014 18.75 3H5.25001C4.95344 3.00014 4.66356 3.08819 4.41702 3.25302C4.17047 3.41785 3.97832 3.65207 3.86484 3.92607C3.75137 4.20007 3.72167 4.50156 3.77949 4.79244C3.83731 5.08332 3.98006 5.35054 4.18969 5.56031C4.19399 5.56414 4.19806 5.56821 4.20188 5.5725L10.9153 12L4.20188 18.4275C4.19806 18.4318 4.19399 18.4359 4.18969 18.4397C3.98006 18.6495 3.83731 18.9167 3.77949 19.2076C3.72167 19.4984 3.75137 19.7999 3.86484 20.0739C3.97832 20.3479 4.17047 20.5822 4.41702 20.747C4.66356 20.9118 4.95344 20.9999 5.25001 21H18.75C19.0467 21 19.3367 20.9121 19.5834 20.7474C19.83 20.5826 20.0223 20.3484 20.1359 20.0744C20.2495 19.8003 20.2793 19.4988 20.2215 19.2078C20.1637 18.9168 20.021 18.6495 19.8113 18.4397C19.8066 18.4359 19.8023 18.4318 19.7981 18.4275ZM18.75 4.5L17.1844 6H6.81751L5.25001 4.5H18.75ZM5.25001 19.5L12 13.0387L18.75 19.5H5.25001Z" fill="#343330"/>
</svg>
