<svg width="24" height="24" viewBox="0 0 24 24" fill="none" xmlns="http://www.w3.org/2000/svg">
<path d="M19.5 9.12844V9C19.5 7.01088 18.7098 5.10322 17.3033 3.6967C15.8968 2.29018 13.9891 1.5 12 1.5C10.0109 1.5 8.10323 2.29018 6.6967 3.6967C5.29018 5.10322 4.5 7.01088 4.5 9V9.12844C3.99942 9.30524 3.57748 9.65335 3.30878 10.1112C3.04009 10.5691 2.94195 11.1072 3.03172 11.6305C3.12149 12.1537 3.39338 12.6283 3.79933 12.9705C4.20527 13.3126 4.71912 13.5002 5.25 13.5H5.55844L10.6978 22.4944C10.829 22.7239 11.0186 22.9146 11.2473 23.0473C11.4759 23.18 11.7356 23.2499 12 23.2499C12.2644 23.2499 12.5241 23.18 12.7527 23.0473C12.9814 22.9146 13.171 22.7239 13.3022 22.4944L18.4416 13.5H18.75C19.2809 13.5002 19.7947 13.3126 20.2007 12.9705C20.6066 12.6283 20.8785 12.1537 20.9683 11.6305C21.0581 11.1072 20.9599 10.5691 20.6912 10.1112C20.4225 9.65335 20.0006 9.30524 19.5 9.12844ZM7.28532 13.5H9.10032L12.9075 20.1619L12 21.75L7.28532 13.5ZM12.6366 13.5L14.6756 17.0681L13.7709 18.6506L10.8281 13.5H12.6366ZM15.5428 15.5569L14.3634 13.5H16.7147L15.5428 15.5569ZM18.75 12H5.25C5.05109 12 4.86033 11.921 4.71967 11.7803C4.57902 11.6397 4.5 11.4489 4.5 11.25C4.5 11.0511 4.57902 10.8603 4.71967 10.7197C4.86033 10.579 5.05109 10.5 5.25 10.5C5.44892 10.5 5.63968 10.421 5.78033 10.2803C5.92099 10.1397 6 9.94891 6 9.75V9C6 7.4087 6.63214 5.88258 7.75736 4.75736C8.88258 3.63214 10.4087 3 12 3C13.5913 3 15.1174 3.63214 16.2426 4.75736C17.3679 5.88258 18 7.4087 18 9V9.75C18 9.94891 18.079 10.1397 18.2197 10.2803C18.3603 10.421 18.5511 10.5 18.75 10.5C18.9489 10.5 19.1397 10.579 19.2803 10.7197C19.421 10.8603 19.5 11.0511 19.5 11.25C19.5 11.4489 19.421 11.6397 19.2803 11.7803C19.1397 11.921 18.9489 12 18.75 12Z" fill="#343330"/>
</svg>
