<svg width="24" height="24" viewBox="0 0 24 24" fill="none" xmlns="http://www.w3.org/2000/svg">
<path d="M11.75 2.25C9.82164 2.25 7.93657 2.82183 6.33319 3.89317C4.72982 4.96452 3.48013 6.48726 2.74218 8.26884C2.00422 10.0504 1.81114 12.0108 2.18735 13.9021C2.56355 15.7934 3.49215 17.5307 4.85571 18.8943C6.21928 20.2579 7.95656 21.1865 9.84787 21.5627C11.7392 21.9389 13.6996 21.7458 15.4812 21.0078C17.2627 20.2699 18.7855 19.0202 19.8568 17.4168C20.9282 15.8134 21.5 13.9284 21.5 12C21.4973 9.41498 20.4692 6.93661 18.6413 5.10872C16.8134 3.28084 14.335 2.25273 11.75 2.25ZM11.375 6.75C11.5975 6.75 11.815 6.81598 12 6.9396C12.185 7.06321 12.3292 7.23891 12.4144 7.44448C12.4995 7.65005 12.5218 7.87625 12.4784 8.09448C12.435 8.31271 12.3278 8.51316 12.1705 8.6705C12.0132 8.82783 11.8127 8.93498 11.5945 8.97838C11.3763 9.02179 11.1501 8.99951 10.9445 8.91436C10.7389 8.82922 10.5632 8.68502 10.4396 8.50002C10.316 8.31501 10.25 8.0975 10.25 7.875C10.25 7.57663 10.3685 7.29048 10.5795 7.0795C10.7905 6.86853 11.0766 6.75 11.375 6.75ZM12.5 17.25C12.1022 17.25 11.7206 17.092 11.4393 16.8107C11.158 16.5294 11 16.1478 11 15.75V12C10.8011 12 10.6103 11.921 10.4697 11.7803C10.329 11.6397 10.25 11.4489 10.25 11.25C10.25 11.0511 10.329 10.8603 10.4697 10.7197C10.6103 10.579 10.8011 10.5 11 10.5C11.3978 10.5 11.7794 10.658 12.0607 10.9393C12.342 11.2206 12.5 11.6022 12.5 12V15.75C12.6989 15.75 12.8897 15.829 13.0303 15.9697C13.171 16.1103 13.25 16.3011 13.25 16.5C13.25 16.6989 13.171 16.8897 13.0303 17.0303C12.8897 17.171 12.6989 17.25 12.5 17.25Z" fill="#343330"/>
</svg>
