<svg width="24" height="24" viewBox="0 0 24 24" fill="none" xmlns="http://www.w3.org/2000/svg">
<path d="M20.3034 3.69662C19.1121 2.50365 17.5536 1.74687 15.8794 1.54839C14.2052 1.3499 12.513 1.72129 11.0758 2.60263C9.63854 3.48396 8.54018 4.82383 7.95793 6.40603C7.37568 7.98822 7.34349 9.72045 7.86657 11.3232L2.6897 16.5001C2.5498 16.6388 2.43889 16.804 2.36341 16.9861C2.28792 17.1681 2.24938 17.3633 2.25001 17.5604V20.2501C2.25001 20.6479 2.40804 21.0294 2.68935 21.3107C2.97065 21.592 3.35218 21.7501 3.75001 21.7501H6.75001C6.94892 21.7501 7.13969 21.671 7.28034 21.5304C7.42099 21.3897 7.50001 21.199 7.50001 21.0001V19.5001H9.00001C9.19892 19.5001 9.38969 19.421 9.53034 19.2804C9.67099 19.1397 9.75001 18.949 9.75001 18.7501V17.2501H11.25C11.3485 17.2501 11.4461 17.2308 11.5371 17.1932C11.6282 17.1555 11.7109 17.1003 11.7806 17.0307L12.6769 16.1335C13.4271 16.3775 14.2111 16.5012 15 16.5001H15.0094C16.492 16.4983 17.9408 16.0571 19.1728 15.2323C20.4048 14.4074 21.3646 13.236 21.9312 11.8659C22.4977 10.4958 22.6454 8.98852 22.3557 7.5345C22.066 6.08048 21.3518 4.74495 20.3034 3.69662ZM21 9.19693C20.8978 12.3929 18.2109 14.9963 15.0103 15.0001H15C14.2408 15.0013 13.4883 14.8578 12.7828 14.5772C12.6448 14.5173 12.492 14.5003 12.3442 14.5284C12.1964 14.5565 12.0605 14.6284 11.9541 14.7347L10.9397 15.7501H9.00001C8.8011 15.7501 8.61033 15.8291 8.46968 15.9697C8.32903 16.1104 8.25001 16.3011 8.25001 16.5001V18.0001H6.75001C6.5511 18.0001 6.36033 18.0791 6.21968 18.2197C6.07903 18.3604 6.00001 18.5511 6.00001 18.7501V20.2501H3.75001V17.5604L9.26532 12.046C9.37166 11.9396 9.44355 11.8037 9.47163 11.6559C9.49972 11.5081 9.48271 11.3552 9.42282 11.2172C9.14133 10.5094 8.99782 9.75429 9.00001 8.99255C9.00001 5.79193 11.6072 3.10505 14.8031 3.00287C15.6241 2.97547 16.4419 3.11693 17.2059 3.41847C17.97 3.72002 18.664 4.17524 19.2449 4.75592C19.8259 5.33661 20.2814 6.0304 20.5833 6.7943C20.8852 7.55821 21.027 8.37597 21 9.19693ZM18 7.12505C18 7.34756 17.934 7.56506 17.8104 7.75007C17.6868 7.93507 17.5111 8.07927 17.3055 8.16442C17.1 8.24957 16.8738 8.27184 16.6555 8.22844C16.4373 8.18503 16.2368 8.07788 16.0795 7.92055C15.9222 7.76321 15.815 7.56276 15.7716 7.34453C15.7282 7.1263 15.7505 6.9001 15.8356 6.69453C15.9208 6.48897 16.065 6.31327 16.25 6.18965C16.435 6.06603 16.6525 6.00005 16.875 6.00005C17.1734 6.00005 17.4595 6.11858 17.6705 6.32956C17.8815 6.54054 18 6.82668 18 7.12505Z" fill="#343330"/>
</svg>
