<svg width="24" height="24" viewBox="0 0 24 24" fill="none" xmlns="http://www.w3.org/2000/svg">
<path d="M21.7378 3.01215C21.2485 2.52416 20.5857 2.25012 19.8947 2.25012C19.2037 2.25012 18.5408 2.52416 18.0516 3.01215L1.71938 19.35C1.62476 19.4446 1.55721 19.5629 1.52373 19.6925C1.49025 19.8221 1.49207 19.9583 1.52899 20.087C1.56592 20.2157 1.6366 20.3321 1.73372 20.4242C1.83083 20.5163 1.95082 20.5808 2.08125 20.6109C3.19409 20.8689 4.33266 20.9994 5.475 21C8.56406 21 11.655 20.0437 14.5641 18.1659C17.5416 16.244 19.2694 14.0578 19.3453 13.965C19.4583 13.8207 19.5146 13.6401 19.5036 13.4572C19.4925 13.2743 19.4149 13.1017 19.2853 12.9722L17.3738 11.0625L21.7378 6.69747C22.2253 6.20811 22.499 5.54553 22.499 4.85481C22.499 4.16409 22.2253 3.50151 21.7378 3.01215ZM17.7281 13.5412C16.5385 14.8377 15.1882 15.9769 13.71 16.9312C10.4822 19.0031 7.15313 19.83 3.79406 19.3968L13.6875 9.49965L17.7281 13.5412ZM20.6775 5.63809L16.3125 10.0031L14.7488 8.43747L19.1128 4.07247C19.3203 3.86497 19.6017 3.74841 19.8952 3.74841C20.1886 3.74841 20.47 3.86497 20.6775 4.07247C20.885 4.27996 21.0016 4.56137 21.0016 4.85481C21.0016 5.14825 20.885 5.42966 20.6775 5.63715V5.63809Z" fill="#343330"/>
</svg>
