<svg width="24" height="24" viewBox="0 0 24 24" fill="none" xmlns="http://www.w3.org/2000/svg">
<path d="M23.0906 11.3288L19.3406 3.82876C19.2167 3.57928 19.0255 3.36945 18.7886 3.22299C18.5517 3.07653 18.2785 2.99929 18 3H5.99999C5.72146 2.99929 5.44828 3.07653 5.21137 3.22299C4.97445 3.36945 4.78324 3.57928 4.65937 3.82876L0.909368 11.3288C0.794961 11.5574 0.740889 11.8115 0.752285 12.0669C0.763681 12.3223 0.840166 12.5705 0.974481 12.7881C1.1088 13.0056 1.29648 13.1852 1.51972 13.3098C1.74295 13.4344 1.99434 13.4999 2.24999 13.5H11.25V19.5H8.99999C8.80108 19.5 8.61032 19.579 8.46966 19.7197C8.32901 19.8603 8.24999 20.0511 8.24999 20.25C8.24999 20.4489 8.32901 20.6397 8.46966 20.7803C8.61032 20.921 8.80108 21 8.99999 21H15C15.1989 21 15.3897 20.921 15.5303 20.7803C15.671 20.6397 15.75 20.4489 15.75 20.25C15.75 20.0511 15.671 19.8603 15.5303 19.7197C15.3897 19.579 15.1989 19.5 15 19.5H12.75V13.5H21.75C22.0057 13.5 22.2572 13.4347 22.4806 13.3101C22.704 13.1856 22.8918 13.006 23.0262 12.7885C23.1606 12.5709 23.2372 12.3226 23.2486 12.0671C23.2601 11.8116 23.206 11.5575 23.0916 11.3288H23.0906ZM2.24999 12L5.99999 4.50001H18L21.75 12H2.24999ZM18 9.75001C18 9.94892 17.921 10.1397 17.7803 10.2803C17.6397 10.421 17.4489 10.5 17.25 10.5H6.74999C6.55108 10.5 6.36032 10.421 6.21966 10.2803C6.07901 10.1397 5.99999 9.94892 5.99999 9.75001C5.99999 9.55109 6.07901 9.36033 6.21966 9.21968C6.36032 9.07902 6.55108 9.00001 6.74999 9.00001H17.25C17.4489 9.00001 17.6397 9.07902 17.7803 9.21968C17.921 9.36033 18 9.55109 18 9.75001Z" fill="#343330"/>
</svg>
