<svg width="24" height="24" viewBox="0 0 24 24" fill="none" xmlns="http://www.w3.org/2000/svg">
<path d="M23.0906 11.3288L19.3406 3.82875C19.2167 3.57928 19.0255 3.36945 18.7886 3.22299C18.5517 3.07653 18.2785 2.99929 18 3H5.99999C5.72146 2.99929 5.44828 3.07653 5.21137 3.22299C4.97445 3.36945 4.78324 3.57928 4.65937 3.82875L0.909368 11.3288C0.794961 11.5574 0.740889 11.8115 0.752285 12.0669C0.763681 12.3223 0.840166 12.5705 0.974481 12.7881C1.1088 13.0056 1.29648 13.1852 1.51972 13.3098C1.74295 13.4344 1.99434 13.4999 2.24999 13.5H11.25V19.5H8.99999C8.80108 19.5 8.61032 19.579 8.46966 19.7197C8.32901 19.8603 8.24999 20.0511 8.24999 20.25C8.24999 20.4489 8.32901 20.6397 8.46966 20.7803C8.61032 20.921 8.80108 21 8.99999 21H15C15.1989 21 15.3897 20.921 15.5303 20.7803C15.671 20.6397 15.75 20.4489 15.75 20.25C15.75 20.0511 15.671 19.8603 15.5303 19.7197C15.3897 19.579 15.1989 19.5 15 19.5H12.75V13.5H21.75C22.0057 13.5 22.2572 13.4347 22.4806 13.3101C22.704 13.1856 22.8918 13.006 23.0262 12.7885C23.1606 12.5709 23.2372 12.3226 23.2486 12.0671C23.2601 11.8116 23.206 11.5575 23.0916 11.3288H23.0906ZM18 11.25H5.99999C5.80108 11.25 5.61032 11.171 5.46966 11.0303C5.32901 10.8897 5.24999 10.6989 5.24999 10.5C5.24999 10.3011 5.32901 10.1103 5.46966 9.96968C5.61032 9.82902 5.80108 9.75001 5.99999 9.75001H18C18.1989 9.75001 18.3897 9.82902 18.5303 9.96968C18.671 10.1103 18.75 10.3011 18.75 10.5C18.75 10.6989 18.671 10.8897 18.5303 11.0303C18.3897 11.171 18.1989 11.25 18 11.25Z" fill="#343330"/>
</svg>
