<svg width="24" height="24" viewBox="0 0 24 24" fill="none" xmlns="http://www.w3.org/2000/svg">
<path d="M21.75 7.50002C21.7517 8.18972 21.6168 8.87294 21.3529 9.51016C21.089 10.1474 20.7014 10.726 20.2125 11.2125L17.3934 14.0306C17.2527 14.1712 17.0619 14.2502 16.8629 14.2501C16.664 14.25 16.4733 14.1709 16.3327 14.0302C16.192 13.8894 16.1131 13.6986 16.1132 13.4997C16.1133 13.3007 16.1924 13.11 16.3331 12.9694L19.1522 10.1513C19.5068 9.80446 19.789 9.39077 19.9826 8.93412C20.1763 8.47748 20.2773 7.98697 20.2801 7.49099C20.2828 6.99501 20.1871 6.50341 19.9986 6.04467C19.81 5.58592 19.5323 5.16914 19.1816 4.81845C18.8308 4.46777 18.414 4.19015 17.9552 4.00166C17.4964 3.81318 17.0048 3.71758 16.5088 3.7204C16.0128 3.72322 15.5223 3.8244 15.0657 4.01809C14.6091 4.21177 14.1955 4.49411 13.8487 4.84877L11.0306 7.66595C10.8899 7.80668 10.699 7.88574 10.5 7.88574C10.301 7.88574 10.1101 7.80668 9.96937 7.66595C9.82864 7.52522 9.74958 7.33435 9.74958 7.13533C9.74958 6.9363 9.82864 6.74543 9.96937 6.6047L12.7875 3.78752C13.5217 3.05321 14.4572 2.55314 15.4757 2.35053C16.4941 2.14793 17.5498 2.2519 18.5091 2.64929C19.4685 3.04668 20.2885 3.71965 20.8653 4.58307C21.4422 5.4465 21.7501 6.46161 21.75 7.50002ZM12.9694 16.3331L10.1512 19.1513C9.80444 19.5059 9.39074 19.7881 8.9341 19.9817C8.47746 20.1753 7.98695 20.2764 7.49097 20.2792C6.99499 20.2819 6.50339 20.1862 6.04465 19.9976C5.5859 19.8091 5.16912 19.5314 4.81843 19.1806C4.46775 18.8299 4.19012 18.4131 4.00164 17.9543C3.81316 17.4955 3.71756 17.0039 3.72038 16.5079C3.7232 16.0119 3.82438 15.5214 4.01806 15.0648C4.21175 14.6082 4.49409 14.1946 4.84874 13.8478L7.66593 11.0306C7.80666 10.8899 7.88572 10.699 7.88572 10.5C7.88572 10.301 7.80666 10.1101 7.66593 9.96939C7.5252 9.82866 7.33433 9.7496 7.13531 9.7496C6.93628 9.7496 6.74541 9.82866 6.60468 9.96939L3.78749 12.7875C2.80288 13.7721 2.24973 15.1076 2.24973 16.5C2.24973 17.8925 2.80288 19.2279 3.78749 20.2125C4.77211 21.1971 6.10754 21.7503 7.49999 21.7503C8.89245 21.7503 10.2279 21.1971 11.2125 20.2125L14.0306 17.3935C14.1712 17.2527 14.2502 17.0619 14.2501 16.863C14.25 16.664 14.1709 16.4733 14.0301 16.3327C13.8894 16.1921 13.6986 16.1131 13.4997 16.1132C13.3007 16.1133 13.11 16.1924 12.9694 16.3331Z" fill="#343330"/>
</svg>
