<svg width="24" height="24" viewBox="0 0 24 24" fill="none" xmlns="http://www.w3.org/2000/svg">
<path d="M20.3438 3.26245C20.1428 3.12444 19.9111 3.03767 19.669 3.00973C19.4268 2.98178 19.1815 3.01351 18.9544 3.10214C17.6391 3.61402 14.9831 4.47277 12 4.47277C9.01688 4.47277 6.36 3.61402 5.04281 3.10214C4.81555 3.01392 4.5702 2.98242 4.32803 3.01037C4.08585 3.03832 3.85413 3.12488 3.65293 3.26255C3.45174 3.40022 3.28713 3.58485 3.17336 3.80046C3.05959 4.01608 3.00009 4.25617 3 4.49995V9.72839C3 13.0884 3.90469 16.2581 5.54813 18.6515C7.25063 21.1321 9.54187 22.4953 12 22.4953C14.4581 22.4953 16.7494 21.1293 18.4519 18.6515C20.0953 16.26 21 13.0903 21 9.73027V4.49995C20.9996 4.25586 20.9396 4.01555 20.8252 3.7999C20.7108 3.58425 20.5456 3.39976 20.3438 3.26245ZM19.5 9.7312C19.5 12.7912 18.6881 15.659 17.2153 17.8059C15.8006 19.8656 13.9491 21 12 21C10.0509 21 8.19938 19.8656 6.78469 17.805C5.31188 15.6562 4.5 12.7903 4.5 9.73027V4.49995C5.91656 5.05027 8.77313 5.97277 12 5.97277C15.2269 5.97277 18.0844 5.05027 19.5 4.49995V9.73214V9.7312ZM17.8125 11.5003C17.945 11.6495 18.0129 11.8452 18.0011 12.0444C17.9893 12.2436 17.8989 12.4299 17.7497 12.5625C17.6005 12.695 17.4048 12.7628 17.2056 12.751C17.0064 12.7393 16.82 12.6488 16.6875 12.4996C16.4362 12.2184 15.8578 12 15.375 12C14.8922 12 14.31 12.2193 14.0625 12.4996C13.9299 12.6488 13.7434 12.7392 13.5441 12.7509C13.3448 12.7626 13.149 12.6946 12.9998 12.562C12.8507 12.4293 12.7603 12.2429 12.7486 12.0436C12.7369 11.8443 12.8049 11.6485 12.9375 11.4993C13.4728 10.9012 14.4506 10.5 15.375 10.5C16.2994 10.5 17.2734 10.9012 17.8125 11.4993V11.5003ZM8.625 12C8.13844 12 7.56 12.2193 7.3125 12.4996C7.17985 12.6488 6.99337 12.7392 6.79408 12.7509C6.5948 12.7626 6.39903 12.6946 6.24984 12.562C6.10066 12.4293 6.01028 12.2429 5.99859 12.0436C5.9869 11.8443 6.05485 11.6485 6.1875 11.4993C6.72656 10.9012 7.70438 10.5 8.625 10.5C9.54562 10.5 10.5234 10.9012 11.0625 11.4993C11.1951 11.6485 11.2631 11.8443 11.2514 12.0436C11.2397 12.2429 11.1493 12.4293 11.0002 12.562C10.9263 12.6277 10.8402 12.6782 10.7468 12.7106C10.6534 12.743 10.5546 12.7567 10.4559 12.7509C10.2566 12.7392 10.0701 12.6488 9.9375 12.4996C9.69 12.2193 9.11156 12 8.625 12ZM15.7922 16.2365C15.3267 16.7889 14.7461 17.2329 14.0911 17.5375C13.436 17.842 12.7224 17.9998 12 17.9998C11.2776 17.9998 10.564 17.842 9.90895 17.5375C9.25392 17.2329 8.67334 16.7889 8.20781 16.2365C8.14386 16.1616 8.09528 16.0748 8.06486 15.9811C8.03444 15.8874 8.02277 15.7887 8.03052 15.6905C8.03826 15.5923 8.06528 15.4966 8.11001 15.4088C8.15475 15.3211 8.21634 15.243 8.29125 15.179C8.36617 15.1151 8.45294 15.0665 8.54663 15.0361C8.64032 15.0056 8.73908 14.994 8.83728 15.0017C8.93548 15.0095 9.03119 15.0365 9.11895 15.0812C9.20671 15.126 9.28479 15.1875 9.34875 15.2625C9.67336 15.65 10.079 15.9617 10.537 16.1755C10.9951 16.3893 11.4945 16.5002 12 16.5002C12.5055 16.5002 13.0049 16.3893 13.463 16.1755C13.921 15.9617 14.3266 15.65 14.6512 15.2625C14.7152 15.1875 14.7933 15.126 14.8811 15.0812C14.9688 15.0365 15.0645 15.0095 15.1627 15.0017C15.2609 14.994 15.3597 15.0056 15.4534 15.0361C15.5471 15.0665 15.6338 15.1151 15.7087 15.179C15.7837 15.243 15.8452 15.3211 15.89 15.4088C15.9347 15.4966 15.9617 15.5923 15.9695 15.6905C15.9772 15.7887 15.9656 15.8874 15.9351 15.9811C15.9047 16.0748 15.8561 16.1616 15.7922 16.2365Z" fill="#343330"/>
</svg>
