<svg width="24" height="24" viewBox="0 0 24 24" fill="none" xmlns="http://www.w3.org/2000/svg">
<path d="M23.25 11.25C23.2488 10.0569 22.7743 8.91304 21.9306 8.06939C21.087 7.22575 19.9431 6.75125 18.75 6.75H15.0187C14.7459 6.73407 9.99188 6.39938 5.46469 2.6025C5.24607 2.4189 4.97959 2.30149 4.69656 2.26408C4.41353 2.22667 4.12571 2.2708 3.86689 2.3913C3.60807 2.5118 3.38902 2.70366 3.23546 2.94433C3.0819 3.18501 3.00022 3.46451 3 3.75V18.75C3.00004 19.0356 3.0816 19.3152 3.23508 19.556C3.38857 19.7968 3.60761 19.9888 3.86646 20.1094C4.12532 20.2301 4.41322 20.2743 4.69633 20.2369C4.97945 20.1995 5.24601 20.0821 5.46469 19.8984C9.00563 16.9284 12.6834 16.0772 14.25 15.8391V18.8128C14.2497 19.06 14.3105 19.3034 14.4269 19.5214C14.5434 19.7395 14.7119 19.9253 14.9175 20.0625L15.9487 20.7497C16.1481 20.8827 16.3764 20.9661 16.6145 20.9927C16.8527 21.0194 17.0938 20.9886 17.3176 20.903C17.5414 20.8173 17.7414 20.6793 17.901 20.5004C18.0605 20.3216 18.1748 20.1071 18.2344 19.875L19.3378 15.7163C20.4204 15.5722 21.4138 15.04 22.1334 14.2185C22.853 13.397 23.2498 12.3421 23.25 11.25ZM4.5 18.7434V3.75C8.51344 7.11657 12.6216 7.96875 14.25 8.17875V14.3175C12.6234 14.5313 8.51625 15.3816 4.5 18.7434ZM16.7812 19.4934V19.5038L15.75 18.8166V15.75H17.775L16.7812 19.4934ZM18.75 14.25H15.75V8.25H18.75C19.5456 8.25 20.3087 8.56607 20.8713 9.12868C21.4339 9.69129 21.75 10.4544 21.75 11.25C21.75 12.0457 21.4339 12.8087 20.8713 13.3713C20.3087 13.9339 19.5456 14.25 18.75 14.25Z" fill="#343330"/>
</svg>
