<svg width="24" height="24" viewBox="0 0 24 24" fill="none" xmlns="http://www.w3.org/2000/svg">
<path d="M20.055 20.4956L5.055 3.99562C4.92052 3.85117 4.73453 3.76555 4.53735 3.75731C4.34017 3.74907 4.14769 3.81888 4.00163 3.95161C3.85558 4.08434 3.76773 4.26929 3.75713 4.46636C3.74652 4.66343 3.81403 4.85674 3.945 5.00437L7.5 8.91469V12C7.49982 12.764 7.69415 13.5154 8.06469 14.1836C8.43522 14.8517 8.96976 15.4145 9.61793 15.8189C10.2661 16.2233 11.0066 16.456 11.7696 16.4951C12.5325 16.5343 13.2929 16.3785 13.9791 16.0425L15.0197 17.1863C14.1038 17.7222 13.0611 18.0031 12 18C10.4092 17.9983 8.88412 17.3656 7.75927 16.2407C6.63443 15.1159 6.00173 13.5908 6 12C6 11.8011 5.92098 11.6103 5.78033 11.4697C5.63967 11.329 5.44891 11.25 5.25 11.25C5.05108 11.25 4.86032 11.329 4.71967 11.4697C4.57901 11.6103 4.5 11.8011 4.5 12C4.50228 13.8586 5.19367 15.6504 6.44047 17.0288C7.68728 18.4072 9.40091 19.2743 11.25 19.4625V22.5C11.25 22.6989 11.329 22.8897 11.4697 23.0303C11.6103 23.171 11.8011 23.25 12 23.25C12.1989 23.25 12.3897 23.171 12.5303 23.0303C12.671 22.8897 12.75 22.6989 12.75 22.5V19.4616C13.9244 19.3483 15.0547 18.9555 16.0462 18.3159L18.945 21.5034C19.0109 21.5777 19.0908 21.6381 19.1802 21.6812C19.2696 21.7244 19.3666 21.7493 19.4658 21.7546C19.5649 21.76 19.664 21.7456 19.7575 21.7123C19.851 21.679 19.937 21.6275 20.0105 21.5608C20.0839 21.494 20.1434 21.4133 20.1854 21.3234C20.2275 21.2335 20.2512 21.1362 20.2554 21.037C20.2595 20.9379 20.244 20.8389 20.2096 20.7458C20.1752 20.6527 20.1226 20.5673 20.055 20.4947V20.4956ZM12 15C11.2043 15 10.4413 14.6839 9.87868 14.1213C9.31607 13.5587 9 12.7956 9 12V10.5647L12.9056 14.8603C12.6127 14.953 12.3072 15.0001 12 15ZM17.3925 14.6334C17.7948 13.814 18.0027 12.9128 18 12C18 11.8011 18.079 11.6103 18.2197 11.4697C18.3603 11.329 18.5511 11.25 18.75 11.25C18.9489 11.25 19.1397 11.329 19.2803 11.4697C19.421 11.6103 19.5 11.8011 19.5 12C19.5031 13.1414 19.2429 14.2681 18.7397 15.2925C18.678 15.4188 18.5822 15.5252 18.463 15.5996C18.3438 15.674 18.2061 15.7135 18.0656 15.7134C17.9515 15.7136 17.8388 15.6873 17.7366 15.6366C17.5579 15.5491 17.4213 15.3944 17.3568 15.2062C17.2923 15.0181 17.3051 14.8121 17.3925 14.6334ZM7.875 4.20656C8.28805 3.25914 9.01466 2.48278 9.93268 2.00797C10.8507 1.53315 11.9042 1.38882 12.9161 1.59923C13.928 1.80964 14.8366 2.36197 15.4893 3.16338C16.142 3.9648 16.4988 4.96645 16.5 6V12C16.4998 12.1566 16.4917 12.313 16.4756 12.4688C16.4563 12.6539 16.3688 12.8252 16.2302 12.9495C16.0916 13.0737 15.9118 13.1419 15.7256 13.1409C15.6994 13.1423 15.6731 13.1423 15.6469 13.1409C15.4491 13.1201 15.2677 13.0217 15.1425 12.8671C15.0173 12.7126 14.9586 12.5147 14.9794 12.3169C14.9897 12.2137 14.9953 12.1069 14.9953 12.0019V6C14.9933 5.31189 14.7549 4.64538 14.3199 4.11219C13.8849 3.57901 13.2798 3.21156 12.6061 3.07146C11.9324 2.93136 11.231 3.02711 10.6196 3.34267C10.0081 3.65823 9.52364 4.17442 9.2475 4.80469C9.21244 4.90087 9.15806 4.98886 9.08772 5.06323C9.01737 5.1376 8.93254 5.19679 8.83846 5.23714C8.74438 5.27749 8.64303 5.29815 8.54066 5.29786C8.43829 5.29756 8.33706 5.27631 8.24321 5.23541C8.14936 5.19451 8.06488 5.13483 7.99497 5.06005C7.92506 4.98527 7.8712 4.89697 7.8367 4.80058C7.80221 4.7042 7.78781 4.60177 7.79439 4.49961C7.80098 4.39745 7.82841 4.29772 7.875 4.20656Z" fill="#343330"/>
</svg>
