<svg width="24" height="24" viewBox="0 0 24 24" fill="none" xmlns="http://www.w3.org/2000/svg">
<path d="M22.0819 14.0822C21.4762 16.0594 20.2624 17.7952 18.6131 19.0426C17.1651 20.1324 15.442 20.797 13.6373 20.962C11.8325 21.1269 10.0175 20.7855 8.39594 19.9762C6.7744 19.1669 5.41051 17.9217 4.45737 16.3803C3.50422 14.8389 2.99955 13.0623 2.99998 11.2501C2.99347 9.13473 3.68113 7.07568 4.95749 5.3888C6.20486 3.73955 7.94064 2.52572 9.9178 1.92005C10.0481 1.87993 10.1869 1.87608 10.3192 1.90894C10.4516 1.94179 10.5724 2.0101 10.6688 2.10651C10.7653 2.20292 10.8336 2.3238 10.8664 2.45613C10.8993 2.58846 10.8954 2.72724 10.8553 2.85755C10.423 4.28764 10.3867 5.80823 10.7504 7.2573C11.1141 8.70637 11.8641 10.0296 12.9206 11.086C13.977 12.1425 15.3002 12.8925 16.7493 13.2562C18.1984 13.6199 19.719 13.5836 21.149 13.1513C21.2794 13.1112 21.4181 13.1073 21.5505 13.1402C21.6828 13.173 21.8037 13.2413 21.9001 13.3378C21.9965 13.4342 22.0648 13.555 22.0977 13.6874C22.1305 13.8197 22.1267 13.9585 22.0865 14.0888L22.0819 14.0822Z" fill="#343330"/>
</svg>
