<svg width="24" height="24" viewBox="0 0 24 24" fill="none" xmlns="http://www.w3.org/2000/svg">
<path d="M12 9.74995C11.5045 9.75018 11.0114 9.82057 10.5356 9.95902L13.4063 4.86839C13.5038 4.69434 13.5283 4.48865 13.4742 4.29658C13.4202 4.1045 13.292 3.94176 13.118 3.84417C12.9439 3.74658 12.7382 3.72213 12.5462 3.77619C12.3541 3.83025 12.1913 3.9584 12.0938 4.13245L7.44844 12.3825C6.87244 13.3839 6.64286 14.5474 6.7953 15.6926C6.94773 16.8379 7.47366 17.9008 8.29157 18.7167C9.10949 19.5327 10.1737 20.056 11.3193 20.2057C12.4648 20.3554 13.6278 20.123 14.6279 19.5446C15.628 18.9661 16.4093 18.074 16.8509 17.0064C17.2924 15.9388 17.3694 14.7553 17.0701 13.6395C16.7707 12.5237 16.1116 11.5377 15.195 10.8345C14.2783 10.1313 13.1553 9.75009 12 9.74995ZM12 18.75C11.2583 18.75 10.5333 18.53 9.91662 18.118C9.29993 17.7059 8.81928 17.1202 8.53546 16.435C8.25163 15.7498 8.17736 14.9958 8.32206 14.2684C8.46675 13.5409 8.82391 12.8727 9.34835 12.3483C9.8728 11.8239 10.541 11.4667 11.2684 11.322C11.9958 11.1773 12.7498 11.2516 13.4351 11.5354C14.1203 11.8192 14.706 12.2999 15.118 12.9166C15.5301 13.5332 15.75 14.2583 15.75 15C15.75 15.9945 15.3549 16.9483 14.6517 17.6516C13.9484 18.3549 12.9946 18.75 12 18.75Z" fill="#343330"/>
</svg>
