<svg width="24" height="24" viewBox="0 0 24 24" fill="none" xmlns="http://www.w3.org/2000/svg">
<path d="M16.5 15C16.5 16.0134 16.2066 17.0052 15.6553 17.8555C15.1041 18.7059 14.3185 19.3785 13.3934 19.7923C12.4683 20.206 11.4432 20.3432 10.4418 20.1872C9.44051 20.0312 8.50573 19.5887 7.75032 18.9131C7.67318 18.8486 7.60981 18.7692 7.56398 18.6797C7.51815 18.5902 7.4908 18.4923 7.48354 18.392C7.47628 18.2917 7.48927 18.191 7.52174 18.0958C7.55421 18.0006 7.60549 17.9129 7.67253 17.8379C7.73957 17.763 7.82101 17.7023 7.91199 17.6594C8.00297 17.6165 8.10165 17.5924 8.20214 17.5885C8.30264 17.5845 8.4029 17.6008 8.49696 17.6364C8.59103 17.672 8.67698 17.7261 8.74969 17.7956C9.2028 18.2007 9.74758 18.4896 10.3371 18.6374C10.9267 18.7852 11.5433 18.7875 12.1339 18.6441C12.7246 18.5007 13.2715 18.2159 13.7276 17.8142C14.1837 17.4125 14.5353 16.9059 14.7522 16.3381C14.9691 15.7704 15.0447 15.1584 14.9726 14.5549C14.9004 13.9514 14.6827 13.3745 14.3381 12.8738C13.9935 12.3732 13.5323 11.9638 12.9944 11.6809C12.4564 11.398 11.8578 11.2501 11.25 11.25C11.1107 11.25 10.9742 11.2112 10.8557 11.138C10.7372 11.0648 10.6415 10.96 10.5792 10.8354C10.5169 10.7108 10.4905 10.5714 10.503 10.4326C10.5155 10.2939 10.5664 10.1614 10.65 10.05L14.25 5.25H8.25001C8.05109 5.25 7.86033 5.17098 7.71968 5.03033C7.57902 4.88968 7.50001 4.69891 7.50001 4.5C7.50001 4.30109 7.57902 4.11032 7.71968 3.96967C7.86033 3.82902 8.05109 3.75 8.25001 3.75H15.75C15.8893 3.75 16.0258 3.78879 16.1443 3.86201C16.2628 3.93524 16.3585 4.04001 16.4208 4.16459C16.4831 4.28917 16.5095 4.42863 16.497 4.56735C16.4845 4.70608 16.4336 4.83857 16.35 4.95L12.615 9.93C13.7292 10.2316 14.7132 10.8915 15.4153 11.8077C16.1174 12.7239 16.4986 13.8457 16.5 15Z" fill="#343330"/>
</svg>
