<svg width="24" height="24" viewBox="0 0 24 24" fill="none" xmlns="http://www.w3.org/2000/svg">
<path d="M17.25 15.0001H15.75V4.5001C15.7501 4.3446 15.7019 4.1929 15.612 4.06601C15.5222 3.93912 15.3951 3.8433 15.2483 3.79181C15.1016 3.74033 14.9425 3.73572 14.793 3.77864C14.6436 3.82155 14.5111 3.90986 14.4141 4.03135L5.41407 15.2813C5.32574 15.3917 5.27037 15.5247 5.25437 15.6652C5.23836 15.8056 5.26236 15.9477 5.3236 16.0751C5.38485 16.2025 5.48084 16.3099 5.60051 16.3851C5.72018 16.4603 5.85867 16.5002 6.00001 16.5001H14.25V19.5001C14.25 19.699 14.329 19.8898 14.4697 20.0304C14.6103 20.1711 14.8011 20.2501 15 20.2501C15.1989 20.2501 15.3897 20.1711 15.5303 20.0304C15.671 19.8898 15.75 19.699 15.75 19.5001V16.5001H17.25C17.4489 16.5001 17.6397 16.4211 17.7803 16.2804C17.921 16.1398 18 15.949 18 15.7501C18 15.5512 17.921 15.3604 17.7803 15.2198C17.6397 15.0791 17.4489 15.0001 17.25 15.0001ZM14.25 15.0001H7.56001L14.25 6.63854V15.0001Z" fill="#343330"/>
</svg>
