<svg width="24" height="24" viewBox="0 0 24 24" fill="none" xmlns="http://www.w3.org/2000/svg">
<path d="M16.5 15C16.4999 16.0134 16.2066 17.0052 15.6553 17.8555C15.1041 18.7059 14.3185 19.3785 13.3934 19.7923C12.4682 20.206 11.4432 20.3432 10.4418 20.1872C9.44049 20.0312 8.50571 19.5887 7.7503 18.9131C7.67317 18.8486 7.6098 18.7692 7.56397 18.6797C7.51814 18.5902 7.49078 18.4923 7.48352 18.392C7.47627 18.2917 7.48926 18.191 7.52172 18.0958C7.55419 18.0006 7.60547 17.9129 7.67251 17.8379C7.73956 17.763 7.82099 17.7023 7.91198 17.6594C8.00296 17.6165 8.10163 17.5924 8.20213 17.5885C8.30262 17.5845 8.40288 17.6008 8.49695 17.6364C8.59101 17.672 8.67696 17.7261 8.74968 17.7956C9.28621 18.2755 9.94953 18.5908 10.6604 18.7039C11.3713 18.817 12.0997 18.7232 12.7587 18.4335C13.4177 18.1438 13.9794 17.6706 14.3767 17.0704C14.774 16.4701 14.9902 15.7682 14.9994 15.0484C15.0085 14.3286 14.8104 13.6214 14.4285 13.0112C14.0467 12.401 13.4973 11.9136 12.8459 11.6072C12.1945 11.3008 11.4687 11.1884 10.7552 11.2833C10.0416 11.3782 9.37048 11.6765 8.82186 12.1425C8.70309 12.2424 8.55626 12.303 8.40161 12.3159C8.24695 12.3288 8.0921 12.2935 7.95839 12.2147C7.82469 12.1359 7.71871 12.0176 7.65508 11.876C7.59145 11.7345 7.57329 11.5767 7.60311 11.4244L9.01499 4.35281C9.049 4.18289 9.1408 4.02999 9.27479 3.92009C9.40878 3.8102 9.5767 3.7501 9.74999 3.75H15.75C15.9489 3.75 16.1397 3.82902 16.2803 3.96967C16.421 4.11032 16.5 4.30109 16.5 4.5C16.5 4.69891 16.421 4.88968 16.2803 5.03033C16.1397 5.17098 15.9489 5.25 15.75 5.25H10.365L9.39749 10.0875C10.192 9.78787 11.0474 9.68544 11.8902 9.78898C12.733 9.89252 13.5381 10.199 14.2364 10.682C14.9348 11.165 15.5056 11.8102 15.8998 12.5623C16.2941 13.3144 16.5 14.1509 16.5 15Z" fill="#343330"/>
</svg>
