<svg width="24" height="24" viewBox="0 0 24 24" fill="none" xmlns="http://www.w3.org/2000/svg">
<path d="M13.5 4.49999V19.5C13.5 19.6989 13.421 19.8897 13.2803 20.0303C13.1397 20.171 12.9489 20.25 12.75 20.25C12.5511 20.25 12.3603 20.171 12.2197 20.0303C12.079 19.8897 12 19.6989 12 19.5V5.82468L9.38625 7.39311C9.21569 7.49555 9.01141 7.52604 8.81837 7.47787C8.62532 7.42969 8.45932 7.30681 8.35688 7.13624C8.25444 6.96567 8.22395 6.7614 8.27213 6.56835C8.3203 6.37531 8.44319 6.2093 8.61375 6.10686L12.3638 3.85686C12.4776 3.78848 12.6075 3.75154 12.7403 3.74982C12.873 3.7481 13.0039 3.78165 13.1194 3.84705C13.235 3.91246 13.3311 4.00737 13.398 4.12208C13.4648 4.2368 13.5 4.36721 13.5 4.49999Z" fill="#343330"/>
</svg>
