<svg width="24" height="24" viewBox="0 0 24 24" fill="none" xmlns="http://www.w3.org/2000/svg">
<path d="M12 3.75C11.2479 3.74966 10.5044 3.91093 9.82004 4.22289C9.13565 4.53486 8.52628 4.99024 8.0332 5.5582C7.54011 6.12615 7.17481 6.79343 6.96204 7.51485C6.74927 8.23626 6.694 8.99497 6.79996 9.73961C6.90592 10.4842 7.17064 11.1974 7.5762 11.8309C7.98176 12.4643 8.51869 13.0032 9.15064 13.411C9.78258 13.8189 10.4948 14.0862 11.239 14.1949C11.9833 14.3036 12.7422 14.2511 13.4644 14.0409L10.5938 19.1316C10.4962 19.3056 10.4717 19.5113 10.5258 19.7034C10.5798 19.8955 10.708 20.0582 10.882 20.1558C11.0561 20.2534 11.2618 20.2778 11.4538 20.2238C11.6459 20.1697 11.8087 20.0415 11.9063 19.8675L16.5516 11.6175C17.0107 10.8192 17.2518 9.91424 17.2506 8.99336C17.2494 8.07247 17.0061 7.16809 16.5449 6.37099C16.0838 5.57389 15.4211 4.9121 14.6233 4.45206C13.8256 3.99201 12.9209 3.74989 12 3.75ZM12 12.75C11.2583 12.75 10.5333 12.5301 9.91661 12.118C9.29993 11.706 8.81928 11.1203 8.53545 10.4351C8.25163 9.74984 8.17736 8.99584 8.32206 8.26841C8.46675 7.54098 8.8239 6.8728 9.34835 6.34835C9.8728 5.8239 10.541 5.46675 11.2684 5.32206C11.9958 5.17736 12.7498 5.25162 13.4351 5.53545C14.1203 5.81928 14.706 6.29993 15.118 6.91661C15.5301 7.5333 15.75 8.25832 15.75 9C15.75 9.99456 15.3549 10.9484 14.6517 11.6517C13.9484 12.3549 12.9946 12.75 12 12.75Z" fill="#343330"/>
</svg>
