<svg width="24" height="24" viewBox="0 0 24 24" fill="none" xmlns="http://www.w3.org/2000/svg">
<path d="M21.9872 13.0378C22.1084 12.9974 22.2172 12.9266 22.3034 12.8323C22.3896 12.738 22.4503 12.6233 22.4797 12.4989C22.509 12.3746 22.5062 12.2448 22.4714 12.1219C22.4365 11.999 22.3709 11.887 22.2806 11.7966L11.4534 0.969374C11.3128 0.828828 11.1221 0.749878 10.9233 0.749878C10.7244 0.749878 10.5338 0.828828 10.3931 0.969374L6.58593 4.78125L4.27968 2.46937C4.13895 2.32877 3.94813 2.24983 3.74919 2.24991C3.55026 2.25 3.3595 2.32911 3.2189 2.46984C3.07829 2.61057 2.99935 2.8014 2.99944 3.00033C2.99952 3.19927 3.07864 3.39002 3.21937 3.53062L5.52562 5.83687L1.40624 9.95343C0.984316 10.3754 0.747284 10.9477 0.747284 11.5444C0.747284 12.1411 0.984316 12.7134 1.40624 13.1353L9.36468 21.0937C9.78663 21.5157 10.3589 21.7527 10.9556 21.7527C11.5523 21.7527 12.1246 21.5157 12.5466 21.0937L19.905 13.7353L21.9872 13.0378ZM18.9694 12.5466L11.4853 20.0306C11.3447 20.1712 11.154 20.2501 10.9551 20.2501C10.7563 20.2501 10.5656 20.1712 10.425 20.0306L2.46937 12.075C2.32882 11.9344 2.24987 11.7437 2.24987 11.5448C2.24987 11.346 2.32882 11.1553 2.46937 11.0147L6.58593 6.89719L9.31593 9.62719C9.01632 10.182 8.9264 10.8261 9.06264 11.4417C9.19887 12.0573 9.55215 12.6034 10.0579 12.9799C10.5636 13.3565 11.1879 13.5385 11.8168 13.4926C12.4456 13.4467 13.037 13.1759 13.4826 12.7299C13.9283 12.2838 14.1985 11.6923 14.2438 11.0634C14.2892 10.4345 14.1067 9.81029 13.7296 9.30491C13.3526 8.79952 12.8063 8.44673 12.1905 8.31104C11.5748 8.17535 10.9308 8.26583 10.3762 8.56594L7.64718 5.83687L10.9284 2.56031L20.3616 12L19.2628 12.3656C19.1524 12.4026 19.052 12.4645 18.9694 12.5466ZM10.8291 10.08C11.0407 9.82758 11.3438 9.66947 11.6719 9.64037C12 9.61127 12.3262 9.71358 12.5789 9.92481C12.8317 10.1361 12.9902 10.439 13.0198 10.767C13.0494 11.095 12.9476 11.4214 12.7367 11.6745C12.5258 11.9275 12.2232 12.0865 11.8952 12.1166C11.5672 12.1466 11.2406 12.0453 10.9873 11.8348C10.7339 11.6243 10.5745 11.3219 10.5439 10.9939C10.5134 10.666 10.6142 10.3393 10.8244 10.0856C10.8244 10.0856 10.8291 10.0809 10.8291 10.08ZM22.3744 15.33C22.3059 15.2271 22.2131 15.1428 22.1042 15.0844C21.9952 15.0261 21.8736 14.9955 21.75 14.9955C21.6264 14.9955 21.5048 15.0261 21.3958 15.0844C21.2869 15.1428 21.1941 15.2271 21.1256 15.33C20.9597 15.5841 19.5 17.8209 19.5 19.5C19.5 20.0967 19.737 20.669 20.159 21.091C20.581 21.5129 21.1533 21.75 21.75 21.75C22.3467 21.75 22.919 21.5129 23.341 21.091C23.7629 20.669 24 20.0967 24 19.5C24 17.8209 22.5403 15.5841 22.3744 15.3337V15.33ZM21.75 20.25C21.5511 20.25 21.3603 20.171 21.2197 20.0303C21.079 19.8897 21 19.6989 21 19.5C21 18.8625 21.375 17.97 21.75 17.2425C22.125 17.97 22.5 18.8681 22.5 19.5C22.5 19.6989 22.421 19.8897 22.2803 20.0303C22.1397 20.171 21.9489 20.25 21.75 20.25Z" fill="#343330"/>
</svg>
