<svg width="24" height="24" viewBox="0 0 24 24" fill="none" xmlns="http://www.w3.org/2000/svg">
<path d="M22.3031 18.7594L13.2984 3.01688C13.1679 2.78491 12.9781 2.59184 12.7483 2.45748C12.5186 2.32312 12.2572 2.2523 11.9911 2.2523C11.7249 2.2523 11.4636 2.32312 11.2338 2.45748C11.0041 2.59184 10.8142 2.78491 10.6837 3.01688L1.69405 18.7669C1.545 19.0327 1.48047 19.3377 1.50905 19.6411C1.53764 19.9446 1.65798 20.2321 1.85406 20.4654C2.05014 20.6988 2.31265 20.8668 2.60663 20.9473C2.90062 21.0277 3.21212 21.0167 3.49968 20.9156L12 18.0422L20.5003 20.9138C20.6609 20.9703 20.8298 20.9994 21 21C21.262 20.9991 21.5191 20.9297 21.7459 20.7985C21.9727 20.6674 22.1611 20.4791 22.2926 20.2525C22.424 20.0259 22.4938 19.7688 22.4949 19.5068C22.4961 19.2449 22.4287 18.9872 22.2994 18.7594H22.3031ZM20.9859 19.4944L12.75 16.7119V11.25C12.75 11.0511 12.671 10.8603 12.5303 10.7197C12.3897 10.579 12.1989 10.5 12 10.5C11.8011 10.5 11.6103 10.579 11.4697 10.7197C11.329 10.8603 11.25 11.0511 11.25 11.25V16.7119L3.01499 19.4944L2.99999 19.5L11.9869 3.75L21 19.5L20.9859 19.4944Z" fill="#343330"/>
</svg>
