<svg width="24" height="24" viewBox="0 0 24 24" fill="none" xmlns="http://www.w3.org/2000/svg">
<path d="M21.7378 10.6875L5.98781 1.69782C5.72214 1.54826 5.41721 1.48321 5.11364 1.51132C4.81007 1.53944 4.52228 1.65939 4.2886 1.85519C4.05492 2.05099 3.88645 2.31335 3.80563 2.60731C3.72482 2.90128 3.7355 3.21289 3.83625 3.50063L6.70781 12L3.83625 20.5003C3.75633 20.7265 3.73184 20.9686 3.76481 21.2062C3.79779 21.4438 3.88727 21.67 4.02576 21.8659C4.16424 22.0618 4.34769 22.2216 4.56071 22.332C4.77373 22.4423 5.0101 22.4999 5.25 22.5C5.51063 22.4995 5.7667 22.4316 5.99344 22.3031L21.7359 13.2984C21.9681 13.1684 22.1615 12.9789 22.2963 12.7494C22.4311 12.5198 22.5024 12.2586 22.5029 11.9925C22.5033 11.7263 22.433 11.4648 22.299 11.2348C22.1651 11.0049 21.9724 10.8147 21.7406 10.6838L21.7378 10.6875ZM5.25 21C5.2504 20.9963 5.2504 20.9925 5.25 20.9888L8.03812 12.75H13.5C13.6989 12.75 13.8897 12.671 14.0303 12.5303C14.171 12.3897 14.25 12.1989 14.25 12C14.25 11.8011 14.171 11.6103 14.0303 11.4697C13.8897 11.329 13.6989 11.25 13.5 11.25H8.03812L5.25562 3.015C5.2547 3.0097 5.25279 3.00461 5.25 3L21 11.9841L5.25 21Z" fill="#343330"/>
</svg>
