<svg width="24" height="24" viewBox="0 0 24 24" fill="none" xmlns="http://www.w3.org/2000/svg">
<path d="M21.3112 2.68875C21.1226 2.50025 20.8872 2.36544 20.6291 2.2982C20.3711 2.23097 20.0997 2.23375 19.8431 2.30625H19.8291L1.83469 7.76625C1.54256 7.85044 1.28291 8.02141 1.09014 8.25651C0.897378 8.4916 0.780601 8.77972 0.755286 9.08268C0.729972 9.38565 0.797314 9.68915 0.94839 9.95298C1.09947 10.2168 1.32714 10.4285 1.60125 10.56L9.5625 14.4375L13.4344 22.3941C13.5548 22.6511 13.7463 22.8682 13.9862 23.0199C14.226 23.1716 14.5043 23.2514 14.7881 23.25C14.8312 23.25 14.8744 23.2481 14.9175 23.2444C15.2202 23.2199 15.5082 23.1034 15.7428 22.9105C15.9774 22.7176 16.1474 22.4576 16.23 22.1653L21.6862 4.17094C21.6862 4.16625 21.6862 4.16156 21.6862 4.15687C21.7597 3.9009 21.7637 3.62999 21.6978 3.37198C21.6319 3.11396 21.4984 2.87814 21.3112 2.68875ZM14.7966 21.7359L14.7919 21.7491V21.7425L11.0363 14.0269L15.5362 9.52687C15.671 9.38508 15.745 9.19626 15.7425 9.00069C15.7399 8.80512 15.6611 8.61826 15.5228 8.47996C15.3845 8.34166 15.1977 8.26286 15.0021 8.26036C14.8065 8.25785 14.6177 8.33184 14.4759 8.46656L9.97594 12.9666L2.2575 9.21094H2.25094H2.26406L20.25 3.75L14.7966 21.7359Z" fill="#343330"/>
</svg>
