<svg width="24" height="24" viewBox="0 0 24 24" fill="none" xmlns="http://www.w3.org/2000/svg">
<path d="M21.3113 6.87843L17.1216 2.68967C16.9823 2.55035 16.8169 2.43983 16.6349 2.36443C16.4529 2.28902 16.2578 2.25021 16.0608 2.25021C15.8638 2.25021 15.6687 2.28902 15.4867 2.36443C15.3047 2.43983 15.1393 2.55035 15 2.68967L3.43969 14.25C3.2998 14.3888 3.18889 14.554 3.11341 14.736C3.03792 14.918 2.99938 15.1132 3.00001 15.3103V19.5C3.00001 19.8978 3.15804 20.2793 3.43935 20.5606C3.72065 20.842 4.10218 21 4.50001 21H20.25C20.4489 21 20.6397 20.921 20.7803 20.7803C20.921 20.6397 21 20.4489 21 20.25C21 20.0511 20.921 19.8603 20.7803 19.7197C20.6397 19.579 20.4489 19.5 20.25 19.5H10.8113L21.3113 8.99999C21.4506 8.8607 21.5611 8.69532 21.6365 8.51331C21.7119 8.3313 21.7507 8.13622 21.7507 7.93921C21.7507 7.74219 21.7119 7.54711 21.6365 7.3651C21.5611 7.18309 21.4506 7.01772 21.3113 6.87843ZM18 10.1897L13.8113 5.99999L16.0613 3.74999L20.25 7.93968L18 10.1897Z" fill="#343330"/>
</svg>
