<svg width="24" height="24" viewBox="0 0 24 24" fill="none" xmlns="http://www.w3.org/2000/svg">
<path d="M21.3113 6.87842L17.1216 2.68967C16.9823 2.55035 16.8169 2.43983 16.6349 2.36443C16.4529 2.28902 16.2578 2.25021 16.0608 2.25021C15.8638 2.25021 15.6687 2.28902 15.4867 2.36443C15.3047 2.43983 15.1393 2.55035 15 2.68967L10.8413 6.84842C10.773 6.91646 10.7335 7.00818 10.7311 7.10455C10.7286 7.20091 10.7634 7.29451 10.8281 7.36592L16.3341 13.4222C16.3683 13.4597 16.4097 13.4899 16.4559 13.5109C16.5021 13.532 16.5521 13.5434 16.6029 13.5445C16.6536 13.5457 16.7041 13.5365 16.7512 13.5176C16.7983 13.4986 16.841 13.4703 16.8769 13.4344L21.3113 8.99999C21.4506 8.86069 21.5611 8.69532 21.6365 8.51331C21.7119 8.3313 21.7507 8.13622 21.7507 7.9392C21.7507 7.74219 21.7119 7.54711 21.6365 7.3651C21.5611 7.18309 21.4506 7.01772 21.3113 6.87842ZM18 10.1897L13.8113 5.99999L16.0613 3.74999L20.25 7.93967L18 10.1897ZM20.055 19.7456C20.1226 19.8183 20.1752 19.9036 20.2096 19.9967C20.244 20.0898 20.2595 20.1888 20.2554 20.2879C20.2513 20.3871 20.2275 20.4845 20.1854 20.5744C20.1434 20.6643 20.0839 20.7449 20.0105 20.8117C19.937 20.8784 19.851 20.9299 19.7575 20.9632C19.664 20.9965 19.5649 21.0109 19.4658 21.0056C19.3667 21.0002 19.2696 20.9753 19.1802 20.9322C19.0908 20.889 19.0109 20.8286 18.945 20.7544L14.475 15.8362L9.75001 20.5603C9.61122 20.7002 9.44602 20.8111 9.26399 20.8866C9.08196 20.9621 8.88675 21.0006 8.68969 21H4.50001C4.10218 21 3.72065 20.842 3.43935 20.5606C3.15804 20.2793 3.00001 19.8978 3.00001 19.5V15.3103C2.99941 15.1133 3.03788 14.9182 3.11319 14.7362C3.1885 14.5542 3.29916 14.3889 3.43876 14.25L8.46376 9.22499L3.96376 4.27311C3.83713 4.1377 3.76385 3.96099 3.75747 3.77571C3.75109 3.59042 3.81205 3.4091 3.92907 3.2653C3.99804 3.18425 4.08348 3.1188 4.1797 3.07331C4.27591 3.02783 4.38071 3.00334 4.48712 3.00148C4.59354 2.99961 4.69913 3.02042 4.79688 3.06251C4.89463 3.10461 4.9823 3.16702 5.05407 3.24561L20.055 19.7456Z" fill="#343330"/>
</svg>
