<svg width="24" height="24" viewBox="0 0 24 24" fill="none" xmlns="http://www.w3.org/2000/svg">
<path d="M5.05501 3.24561C4.98914 3.17137 4.9092 3.11094 4.81981 3.06782C4.73042 3.0247 4.63335 2.99975 4.53425 2.99442C4.43514 2.98908 4.33597 3.00348 4.24247 3.03676C4.14896 3.07004 4.063 3.12154 3.98955 3.18829C3.9161 3.25504 3.85663 3.3357 3.81458 3.42561C3.77254 3.51551 3.74876 3.61286 3.74461 3.71202C3.74047 3.81119 3.75605 3.91018 3.79045 4.00328C3.82485 4.09638 3.87738 4.18172 3.94501 4.25436L8.46376 9.22311L3.43876 14.25C3.29916 14.3889 3.1885 14.5542 3.11319 14.7362C3.03788 14.9182 2.99941 15.1133 3.00001 15.3103V19.5C3.00001 19.8978 3.15804 20.2793 3.43935 20.5606C3.72065 20.842 4.10218 21 4.50001 21H8.68969C8.88675 21.0006 9.08196 20.9621 9.26399 20.8866C9.44602 20.8111 9.61122 20.7002 9.75001 20.5603L14.475 15.8362L18.9459 20.7544C19.0118 20.8286 19.0918 20.889 19.1811 20.9322C19.2705 20.9753 19.3676 21.0002 19.4667 21.0056C19.5658 21.0109 19.665 20.9965 19.7585 20.9632C19.852 20.9299 19.938 20.8784 20.0114 20.8117C20.0849 20.7449 20.1443 20.6643 20.1864 20.5744C20.2284 20.4845 20.2522 20.3871 20.2563 20.2879C20.2605 20.1888 20.2449 20.0898 20.2105 19.9967C20.1761 19.9036 20.1236 19.8183 20.0559 19.7456L5.05501 3.24561ZM8.68969 19.5H4.50001V15.3103L9.47438 10.3415L13.4644 14.73L8.68969 19.5ZM21.3113 6.87842L17.1216 2.68967C16.9823 2.55035 16.8169 2.43983 16.6349 2.36443C16.4529 2.28902 16.2578 2.25021 16.0608 2.25021C15.8638 2.25021 15.6687 2.28902 15.4867 2.36443C15.3047 2.43983 15.1393 2.55035 15 2.68967L11.0934 6.59624C11.0238 6.66592 10.9686 6.74863 10.931 6.83965C10.8933 6.93068 10.8739 7.02822 10.874 7.12672C10.8741 7.32566 10.9532 7.51641 11.0939 7.65702C11.2346 7.79762 11.4255 7.87657 11.6244 7.87648C11.8233 7.87639 12.0141 7.79728 12.1547 7.65655L12.75 7.0603L16.9397 11.25L16.0959 12.0937C15.955 12.2343 15.8756 12.4252 15.8754 12.6243C15.8751 12.8234 15.9539 13.0145 16.0945 13.1555C16.2351 13.2964 16.426 13.3758 16.6251 13.376C16.8242 13.3763 17.0153 13.2975 17.1563 13.1569L21.3113 8.99999C21.4506 8.86069 21.5611 8.69532 21.6365 8.51331C21.7119 8.3313 21.7507 8.13622 21.7507 7.93921C21.7507 7.74219 21.7119 7.54711 21.6365 7.3651C21.5611 7.18309 21.4506 7.01772 21.3113 6.87842ZM18 10.1897L13.8113 5.99999L16.0613 3.74999L20.25 7.93967L18 10.1897Z" fill="#343330"/>
</svg>
