<svg width="24" height="24" viewBox="0 0 24 24" fill="none" xmlns="http://www.w3.org/2000/svg">
<path d="M22.8103 7.62751L16.3716 1.18876C16.2323 1.04943 16.0669 0.938915 15.8849 0.863512C15.7029 0.788108 15.5078 0.749298 15.3108 0.749298C15.1138 0.749298 14.9187 0.788108 14.7367 0.863512C14.5547 0.938915 14.3893 1.04943 14.25 1.18876L11.5837 3.85501L6.14625 5.89501C5.89917 5.98695 5.68069 6.14238 5.51281 6.34564C5.34493 6.5489 5.23359 6.79282 5.19 7.05282L3.24281 18.7341C3.22976 18.8124 3.2419 18.8928 3.2775 18.9638C3.31309 19.0348 3.3703 19.0927 3.44088 19.129C3.51146 19.1654 3.59177 19.1785 3.67023 19.1663C3.7487 19.1541 3.82127 19.1173 3.8775 19.0613L9.22125 13.7175C9.05194 13.3653 8.97792 12.9748 9.00656 12.585C9.04142 12.1055 9.22896 11.6498 9.5417 11.2846C9.85443 10.9194 10.2759 10.664 10.7444 10.5558C11.2128 10.4477 11.7036 10.4924 12.1448 10.6834C12.586 10.8745 12.9544 11.2019 13.1959 11.6175C13.4375 12.0332 13.5396 12.5153 13.4872 12.9933C13.4349 13.4712 13.2308 13.9198 12.9049 14.2732C12.579 14.6267 12.1485 14.8665 11.6764 14.9575C11.2043 15.0485 10.7155 14.9858 10.2816 14.7788L4.93781 20.1225C4.88174 20.1787 4.84497 20.2513 4.83279 20.3298C4.82061 20.4082 4.83365 20.4885 4.87003 20.5591C4.90642 20.6297 4.96427 20.6869 5.03525 20.7225C5.10623 20.7581 5.18667 20.7702 5.265 20.7572L16.9472 18.81C17.2068 18.7668 17.4504 18.656 17.6536 18.4888C17.8569 18.3216 18.0125 18.1039 18.105 17.8575L20.1459 12.4134L22.8103 9.75001C22.9496 9.61072 23.0602 9.44534 23.1356 9.26333C23.211 9.08132 23.2498 8.88624 23.2498 8.68923C23.2498 8.49222 23.211 8.29713 23.1356 8.11512C23.0602 7.93311 22.9496 7.76774 22.8103 7.62845V7.62751ZM19.5 10.9388L13.0612 4.50001L15.3113 2.25001L21.75 8.68876L19.5 10.9388Z" fill="#343330"/>
</svg>
