<svg width="24" height="24" viewBox="0 0 24 24" fill="none" xmlns="http://www.w3.org/2000/svg">
<path d="M20.8434 11.6147C20.8378 11.6025 20.8322 11.5903 20.8256 11.5791L18 6.55406V3C18 2.60218 17.842 2.22064 17.5607 1.93934C17.2794 1.65804 16.8978 1.5 16.5 1.5H7.5C7.10217 1.5 6.72064 1.65804 6.43934 1.93934C6.15803 2.22064 6 2.60218 6 3V6.55313L3.17437 11.5791C3.16781 11.5903 3.16219 11.6025 3.15562 11.6147C3.03321 11.8611 2.98121 12.1366 3.00536 12.4107C3.02951 12.6848 3.12888 12.9469 3.2925 13.1681L3.30281 13.1813L10.5787 22.6322C10.6265 22.6937 10.6921 22.7388 10.7667 22.7613C10.8412 22.7838 10.9209 22.7825 10.9946 22.7577C11.0684 22.7329 11.1326 22.6857 11.1784 22.6227C11.2242 22.5597 11.2492 22.4841 11.25 22.4062V14.4966C10.7496 14.3196 10.3278 13.9715 10.0593 13.5137C9.79072 13.0559 9.69265 12.5179 9.7824 11.9948C9.87216 11.4716 10.144 10.9971 10.5498 10.655C10.9556 10.3129 11.4692 10.1252 12 10.1252C12.5308 10.1252 13.0444 10.3129 13.4502 10.655C13.856 10.9971 14.1278 11.4716 14.2176 11.9948C14.3073 12.5179 14.2093 13.0559 13.9407 13.5137C13.6722 13.9715 13.2504 14.3196 12.75 14.4966V22.4062C12.7502 22.4843 12.7748 22.5604 12.8204 22.6238C12.8659 22.6872 12.9301 22.7349 13.004 22.76C13.0779 22.7852 13.1579 22.7867 13.2327 22.7643C13.3074 22.7419 13.3734 22.6967 13.4212 22.635L20.6962 13.1841L20.7066 13.1709C20.8709 12.9495 20.9707 12.6869 20.9949 12.4122C21.019 12.1374 20.9666 11.8614 20.8434 11.6147ZM16.5 6H7.5V3H16.5V6Z" fill="#343330"/>
</svg>
