<svg width="24" height="24" viewBox="0 0 24 24" fill="none" xmlns="http://www.w3.org/2000/svg">
<path d="M15 3.75C15 3.15666 14.8241 2.57664 14.4944 2.08329C14.1648 1.58994 13.6962 1.20543 13.148 0.978363C12.5999 0.7513 11.9967 0.69189 11.4147 0.807646C10.8328 0.923401 10.2982 1.20912 9.87868 1.62868C9.45912 2.04824 9.1734 2.58279 9.05764 3.16473C8.94189 3.74667 9.0013 4.34987 9.22836 4.89805C9.45542 5.44623 9.83994 5.91477 10.3333 6.24441C10.8266 6.57405 11.4067 6.75 12 6.75C12.7956 6.75 13.5587 6.43393 14.1213 5.87132C14.6839 5.30871 15 4.54565 15 3.75ZM12 5.25C11.7033 5.25 11.4133 5.16203 11.1666 4.99721C10.92 4.83238 10.7277 4.59812 10.6142 4.32403C10.5006 4.04994 10.4709 3.74834 10.5288 3.45737C10.5867 3.16639 10.7296 2.89912 10.9393 2.68934C11.1491 2.47956 11.4164 2.3367 11.7074 2.27882C11.9983 2.22095 12.2999 2.25065 12.574 2.36418C12.8481 2.47771 13.0824 2.66997 13.2472 2.91665C13.412 3.16332 13.5 3.45333 13.5 3.75C13.5 4.14783 13.342 4.52936 13.0607 4.81066C12.7794 5.09197 12.3978 5.25 12 5.25ZM20.4694 12.5672L16.2347 7.76531C15.9531 7.44616 15.6069 7.19057 15.219 7.01552C14.831 6.84046 14.4103 6.74996 13.9847 6.75H10.0153C9.58971 6.74996 9.16898 6.84046 8.78105 7.01552C8.39312 7.19057 8.04687 7.44616 7.76531 7.76531L3.53063 12.5672C3.18673 12.9189 2.99482 13.3917 2.99629 13.8836C2.99775 14.3755 3.19246 14.8471 3.53844 15.1968C3.88442 15.5465 4.35396 15.7462 4.84582 15.7528C5.33768 15.7595 5.81246 15.5726 6.16781 15.2325L7.69594 14.0063L6.14531 19.9013C5.93994 20.3544 5.92298 20.8706 6.09818 21.3362C6.27338 21.8019 6.62638 22.1788 7.07953 22.3842C7.53268 22.5896 8.04885 22.6066 8.5145 22.4314C8.98015 22.2562 9.35712 21.9032 9.5625 21.45L12 17.2434L14.4375 21.45C14.6521 21.8879 15.0288 22.2251 15.4878 22.3898C15.9468 22.5546 16.4519 22.5341 16.896 22.3326C17.3401 22.1311 17.6882 21.7645 17.8665 21.3106C18.0448 20.8566 18.0392 20.3511 17.8509 19.9013L16.3041 14.0063L17.8322 15.2325C18.1875 15.5726 18.6623 15.7595 19.1542 15.7528C19.646 15.7462 20.1156 15.5465 20.4616 15.1968C20.8075 14.8471 21.0023 14.3755 21.0037 13.8836C21.0052 13.3917 20.8133 12.9189 20.4694 12.5672ZM19.3903 14.1394C19.3555 14.1742 19.3141 14.2019 19.2686 14.2208C19.2231 14.2396 19.1743 14.2494 19.125 14.2494C19.0757 14.2494 19.0269 14.2396 18.9814 14.2208C18.9359 14.2019 18.8945 14.1742 18.8597 14.1394C18.84 14.1206 18.8203 14.1019 18.7987 14.085L15.4687 11.415C15.3459 11.3169 15.1952 11.2599 15.0382 11.2521C14.8811 11.2443 14.7256 11.286 14.5935 11.3714C14.4615 11.4568 14.3596 11.5815 14.3024 11.728C14.2451 11.8744 14.2353 12.0352 14.2744 12.1875L16.4194 20.3438C16.4304 20.3872 16.4455 20.4296 16.4644 20.4703C16.486 20.5151 16.4985 20.5636 16.5012 20.6133C16.5039 20.6629 16.4967 20.7126 16.4801 20.7594C16.4634 20.8062 16.4376 20.8492 16.4042 20.886C16.3707 20.9228 16.3303 20.9525 16.2853 20.9735C16.2402 20.9945 16.1914 21.0063 16.1418 21.0083C16.0921 21.0103 16.0426 21.0024 15.996 20.9851C15.9494 20.9677 15.9068 20.9413 15.8705 20.9073C15.8342 20.8734 15.805 20.8325 15.7847 20.7872C15.7755 20.7669 15.7652 20.7472 15.7537 20.7281L12.6487 15.375C12.5828 15.2613 12.4882 15.167 12.3743 15.1014C12.2605 15.0358 12.1314 15.0013 12 15.0013C11.8686 15.0013 11.7395 15.0358 11.6257 15.1014C11.5118 15.167 11.4172 15.2613 11.3512 15.375L8.25 20.7234C8.23858 20.7425 8.22825 20.7622 8.21906 20.7825C8.19824 20.8272 8.1688 20.8673 8.13245 20.9006C8.09609 20.9339 8.05353 20.9597 8.00719 20.9766C7.93745 21.0021 7.86169 21.0064 7.78952 20.9889C7.71735 20.9713 7.65202 20.9327 7.60181 20.878C7.5516 20.8233 7.51877 20.7548 7.50749 20.6814C7.4962 20.608 7.50698 20.5329 7.53844 20.4656C7.55733 20.4249 7.57239 20.3826 7.58344 20.3391L9.72562 12.1875C9.7647 12.0352 9.7549 11.8744 9.69763 11.728C9.64035 11.5815 9.5385 11.4568 9.40646 11.3714C9.27442 11.286 9.11888 11.2443 8.96182 11.2521C8.80477 11.2599 8.65415 11.3169 8.53125 11.415L5.20125 14.085C5.17969 14.1019 5.16 14.1206 5.14031 14.1394C5.10587 14.1757 5.0645 14.2047 5.01865 14.2248C4.9728 14.2449 4.9234 14.2556 4.87335 14.2563C4.8233 14.257 4.77362 14.2476 4.72724 14.2288C4.68086 14.21 4.63872 14.1821 4.60329 14.1467C4.56787 14.1114 4.53988 14.0693 4.52098 14.0229C4.50208 13.9766 4.49265 13.9269 4.49325 13.8769C4.49384 13.8268 4.50445 13.7774 4.52445 13.7315C4.54445 13.6856 4.57343 13.6442 4.60969 13.6097C4.62094 13.5984 4.63125 13.5872 4.64156 13.575L8.89031 8.75719C9.03114 8.5977 9.20428 8.46999 9.39824 8.38255C9.5922 8.2951 9.80255 8.24992 10.0153 8.25H13.9847C14.1975 8.24992 14.4078 8.2951 14.6018 8.38255C14.7957 8.46999 14.9689 8.5977 15.1097 8.75719L19.3584 13.575C19.3687 13.5872 19.3791 13.5984 19.3903 13.6097C19.4604 13.68 19.4998 13.7752 19.4998 13.8745C19.4998 13.9738 19.4604 14.0691 19.3903 14.1394Z" fill="#343330"/>
</svg>
