<svg width="24" height="24" viewBox="0 0 24 24" fill="none" xmlns="http://www.w3.org/2000/svg">
<path d="M12 7.5C12.5933 7.5 13.1734 7.32405 13.6667 6.99441C14.1601 6.66477 14.5446 6.19623 14.7716 5.64805C14.9987 5.09987 15.0581 4.49667 14.9423 3.91473C14.8266 3.33279 14.5409 2.79824 14.1213 2.37868C13.7018 1.95912 13.1672 1.6734 12.5853 1.55765C12.0033 1.44189 11.4001 1.5013 10.8519 1.72836C10.3038 1.95543 9.83523 2.33994 9.50559 2.83329C9.17594 3.32664 8.99999 3.90666 8.99999 4.5C8.99999 5.29565 9.31606 6.05871 9.87867 6.62132C10.4413 7.18393 11.2043 7.5 12 7.5ZM12 3C12.2967 3 12.5867 3.08797 12.8333 3.2528C13.08 3.41762 13.2723 3.65189 13.3858 3.92598C13.4993 4.20007 13.529 4.50167 13.4712 4.79264C13.4133 5.08361 13.2704 5.35088 13.0607 5.56066C12.8509 5.77044 12.5836 5.9133 12.2926 5.97118C12.0017 6.02906 11.7001 5.99935 11.426 5.88582C11.1519 5.77229 10.9176 5.58003 10.7528 5.33336C10.588 5.08668 10.5 4.79667 10.5 4.5C10.5 4.10218 10.658 3.72065 10.9393 3.43934C11.2206 3.15804 11.6022 3 12 3ZM21.6431 12.3863C21.5924 12.471 21.5255 12.5449 21.4461 12.6037C21.3668 12.6624 21.2767 12.705 21.1808 12.7289C21.085 12.7527 20.9854 12.7574 20.8878 12.7427C20.7902 12.728 20.6964 12.6942 20.6119 12.6431C20.5791 12.6234 17.3203 10.7128 12.7481 10.5178V13.9688L18.5606 20.5059C18.626 20.5798 18.6762 20.6658 18.7083 20.7591C18.7404 20.8524 18.7539 20.951 18.7479 21.0495C18.7419 21.148 18.7165 21.2443 18.6733 21.3329C18.6301 21.4216 18.5698 21.5009 18.4959 21.5663C18.4221 21.6316 18.336 21.6818 18.2428 21.7139C18.1495 21.7461 18.0508 21.7595 17.9524 21.7535C17.8539 21.7475 17.7576 21.7222 17.6689 21.6789C17.5803 21.6357 17.501 21.5754 17.4356 21.5016L12 15.375L6.56249 21.4978C6.49712 21.5717 6.41784 21.632 6.32917 21.6752C6.24051 21.7184 6.14419 21.7437 6.04573 21.7498C5.94728 21.7558 5.8486 21.7423 5.75533 21.7102C5.66207 21.6781 5.57605 21.6279 5.50218 21.5625C5.42831 21.4971 5.36804 21.4178 5.32482 21.3292C5.28159 21.2405 5.25625 21.1442 5.25024 21.0457C5.24423 20.9473 5.25768 20.8486 5.28981 20.7553C5.32194 20.6621 5.37212 20.5761 5.43749 20.5022L11.25 13.9688V10.5169C6.65624 10.7119 3.41999 12.6225 3.38624 12.6431C3.30175 12.695 3.20781 12.7297 3.10985 12.745C3.01189 12.7604 2.91185 12.7562 2.81553 12.7326C2.7192 12.7091 2.62851 12.6667 2.54869 12.6078C2.46886 12.549 2.4015 12.4749 2.35049 12.3899C2.29948 12.3049 2.26584 12.2106 2.25152 12.1124C2.23719 12.0143 2.24247 11.9143 2.26704 11.8183C2.29161 11.7222 2.33498 11.6319 2.39466 11.5528C2.45433 11.4736 2.52911 11.407 2.61468 11.3569C2.77499 11.2603 6.60468 9 12 9C17.3953 9 21.225 11.2603 21.3862 11.3569C21.4707 11.4076 21.5444 11.4744 21.603 11.5536C21.6616 11.6328 21.7041 11.7228 21.728 11.8183C21.7518 11.9139 21.7566 12.0133 21.742 12.1107C21.7275 12.2082 21.6939 12.3018 21.6431 12.3863Z" fill="#343330"/>
</svg>
