<svg width="24" height="24" viewBox="0 0 24 24" fill="none" xmlns="http://www.w3.org/2000/svg">
<path d="M22.5 18.375C22.482 18.1579 22.4169 17.9472 22.3092 17.7578C22.2015 17.5684 22.0539 17.4047 21.8766 17.2781L18.3141 14.7328L19.9078 13.1437C20.3426 12.7126 20.6643 12.1807 20.8442 11.5954C21.0241 11.0101 21.0567 10.3894 20.9391 9.78843C20.5028 7.64645 19.3282 5.72566 17.6203 4.36124C15.8859 2.965 13.7183 2.21826 11.4919 2.24999C9.05365 2.29123 6.72682 3.27816 5.00249 5.00249C3.27816 6.72682 2.29123 9.05365 2.25 11.4919C2.22252 13.7155 2.96999 15.8793 4.36406 17.6119C5.72848 19.3197 7.64926 20.4943 9.79125 20.9306C10.3922 21.0482 11.0129 21.0155 11.5982 20.8356C12.1835 20.6557 12.7154 20.3341 13.1466 19.8994L14.7356 18.3056L17.2809 21.8681C17.4064 22.0467 17.5692 22.1957 17.7582 22.3049C17.9472 22.414 18.1577 22.4806 18.375 22.5C18.4162 22.5 18.4575 22.5047 18.4987 22.5047C18.8965 22.5045 19.2779 22.3463 19.5591 22.065L22.0566 19.5675C22.2134 19.4134 22.3343 19.2267 22.411 19.0206C22.4876 18.8145 22.518 18.5941 22.5 18.375ZM5.53125 16.6716C4.35703 15.2116 3.72728 13.3887 3.75 11.5153C3.7847 9.46714 4.61358 7.51252 6.0618 6.06377C7.51002 4.61503 9.46434 3.78543 11.5125 3.74999C13.3857 3.72876 15.2081 4.35834 16.6687 5.53124C17.3617 6.08791 17.9568 6.7565 18.4294 7.50937L7.50937 18.4294C6.75672 17.9577 6.08815 17.3636 5.53125 16.6716ZM18.5016 21L15.4425 16.7166C15.3792 16.628 15.2973 16.5542 15.2026 16.5005C15.1079 16.4467 15.0026 16.4143 14.8941 16.4053C14.8734 16.4053 14.8528 16.4053 14.8322 16.4053C14.7337 16.4052 14.6361 16.4246 14.545 16.4622C14.454 16.4998 14.3713 16.5551 14.3016 16.6247L12.0862 18.84C11.8295 19.1006 11.5124 19.2936 11.163 19.4021C10.8136 19.5105 10.4429 19.531 10.0837 19.4616C9.69126 19.383 9.30566 19.2733 8.93062 19.1334L19.1306 8.93343C19.2704 9.30851 19.3801 9.6941 19.4587 10.0866C19.5282 10.4457 19.5078 10.8165 19.3994 11.1658C19.291 11.5152 19.0978 11.8324 18.8372 12.0891L16.6219 14.3016C16.5448 14.3785 16.4854 14.4714 16.4478 14.5737C16.4102 14.6759 16.3953 14.7852 16.4043 14.8938C16.4132 15.0023 16.4457 15.1077 16.4994 15.2025C16.5532 15.2972 16.627 15.3791 16.7156 15.4425L21 18.5016L18.5016 21Z" fill="#343330"/>
</svg>
