<svg width="24" height="24" viewBox="0 0 24 24" fill="none" xmlns="http://www.w3.org/2000/svg">
<path d="M19.2572 14.9129C18.358 15.4594 17.3254 15.7469 16.2731 15.7435C15.3916 15.7365 14.5201 15.5562 13.7081 15.2129C13.0824 16.0963 12.7475 17.1528 12.75 18.2354V21.0001C12.7502 21.1029 12.7293 21.2046 12.6886 21.299C12.6478 21.3934 12.5881 21.4784 12.5131 21.5488C12.4381 21.6191 12.3494 21.6733 12.2526 21.7079C12.1558 21.7425 12.0529 21.7569 11.9503 21.7501C11.7575 21.7333 11.5782 21.6442 11.4484 21.5008C11.3185 21.3574 11.2476 21.1701 11.25 20.9766V19.8104L7.62938 16.1897C7.09116 16.3905 6.52194 16.4956 5.9475 16.5001C5.1567 16.502 4.3807 16.2856 3.705 15.8747C1.66219 14.6335 0.562504 11.7769 0.775317 8.23037C0.786032 8.04689 0.863748 7.87373 0.993711 7.74376C1.12367 7.6138 1.29683 7.53608 1.48032 7.52537C5.02688 7.31631 7.88344 8.41224 9.12094 10.4551C9.60714 11.2558 9.8194 12.193 9.72563 13.1251C9.7198 13.1973 9.69318 13.2663 9.64898 13.3237C9.60478 13.3811 9.5449 13.4244 9.47657 13.4485C9.40825 13.4726 9.33441 13.4764 9.26397 13.4594C9.19354 13.4425 9.12953 13.4054 9.07969 13.3529L7.27969 11.4685C7.1379 11.3338 6.94908 11.2598 6.75351 11.2623C6.55794 11.2648 6.37108 11.3436 6.23278 11.4819C6.09448 11.6202 6.01568 11.8071 6.01317 12.0026C6.01067 12.1982 6.08466 12.387 6.21938 12.5288L11.2706 17.7085C11.2763 17.6354 11.2828 17.5622 11.2903 17.4901C11.4543 16.0995 12.0679 14.8006 13.0378 13.7907L17.7806 8.77881C17.9214 8.6382 18.0005 8.44745 18.0006 8.24851C18.0006 8.04958 17.9217 7.85876 17.7811 7.71803C17.6405 7.5773 17.4497 7.49819 17.2508 7.4981C17.0519 7.49801 16.861 7.57695 16.7203 7.71756L12.1266 12.5757C12.0806 12.6244 12.0224 12.6599 11.9581 12.6785C11.8937 12.6971 11.8256 12.6981 11.7607 12.6815C11.6958 12.6648 11.6366 12.6311 11.5891 12.5838C11.5417 12.5365 11.5078 12.4774 11.4909 12.4126C11.0466 10.7738 11.2425 9.14256 12.0909 7.74193C13.7653 4.97818 17.6616 3.49881 22.5141 3.78381C22.6975 3.79452 22.8707 3.87224 23.0007 4.0022C23.1306 4.13216 23.2084 4.30533 23.2191 4.48881C23.5003 9.34225 22.0209 13.2385 19.2572 14.9129Z" fill="#343330"/>
</svg>
