<svg width="24" height="24" viewBox="0 0 24 24" fill="none" xmlns="http://www.w3.org/2000/svg">
<path d="M22.979 5.68879C22.2619 4.45223 20.3681 4.17379 17.4947 4.87692C16.0853 3.79133 14.3858 3.14777 12.6109 3.02754C10.836 2.90731 9.06521 3.3158 7.52231 4.20141C5.97941 5.08702 4.73359 6.41002 3.9422 8.0033C3.15081 9.59658 2.84936 11.3887 3.07592 13.1532C0.477173 15.8438 0.514673 17.4375 1.02186 18.3113C1.49999 19.14 2.49749 19.5 3.80999 19.5C4.72126 19.4812 5.62715 19.3553 6.50905 19.125C7.91826 20.2097 9.61723 20.8526 11.3915 20.9726C13.1658 21.0925 14.9358 20.6842 16.4782 19.799C18.0206 18.9139 19.2662 17.5917 20.0578 15.9992C20.8494 14.4068 21.1515 12.6156 20.9259 10.8516C22.0987 9.63286 22.8787 8.47504 23.144 7.48411C23.3278 6.79786 23.2725 6.19411 22.979 5.68879ZM21.6956 7.09504C21.1228 9.23067 17.1347 12.4679 13.4906 14.5613C7.13342 18.2175 2.83874 18.4538 2.31936 17.5613C2.18249 17.326 2.25842 16.8825 2.52749 16.3425C2.79398 15.8371 3.11732 15.3637 3.49124 14.9316C3.64962 15.3898 3.84495 15.8344 4.0753 16.261C4.11041 16.3281 4.16504 16.383 4.23198 16.4185C4.29892 16.454 4.37503 16.4684 4.4503 16.4597C4.98667 16.3936 5.51768 16.2896 6.03936 16.1485C8.02967 15.6282 10.4109 14.6035 12.7444 13.2629C15.0778 11.9222 17.1506 10.3885 18.599 8.93629C18.9802 8.5593 19.3345 8.15613 19.6594 7.72973C19.7045 7.66896 19.7301 7.59596 19.733 7.52033C19.7358 7.44469 19.7157 7.36997 19.6753 7.30598C19.4226 6.89441 19.1373 6.50378 18.8222 6.13786C20.1544 5.91754 21.3881 5.93442 21.6815 6.44161C21.7678 6.58879 21.7725 6.80911 21.6956 7.09598V7.09504Z" fill="#343330"/>
</svg>
