<svg width="24" height="24" viewBox="0 0 24 24" fill="none" xmlns="http://www.w3.org/2000/svg">
<path d="M22.9791 5.68872C22.2619 4.45216 20.3691 4.17372 17.4947 4.87685C16.164 3.84789 14.5713 3.21276 12.8977 3.04363C11.2241 2.87449 9.53657 3.17813 8.02687 3.92004C6.51718 4.66194 5.24582 5.81239 4.35722 7.24067C3.46862 8.66896 2.99841 10.3178 3 12C3.00011 12.3858 3.02454 12.7713 3.07312 13.154C0.477183 15.8437 0.514683 17.4375 1.02187 18.3112C1.5 19.14 2.4975 19.5 3.81 19.5C4.72127 19.4811 5.62716 19.3553 6.50906 19.125C7.83994 20.1529 9.43238 20.7872 11.1056 20.9556C12.7788 21.1241 14.4657 20.8201 15.9748 20.0781C17.4839 19.3361 18.7547 18.1858 19.643 16.7579C20.5313 15.33 21.0014 13.6816 21 12C21.0002 11.616 20.9761 11.2324 20.9278 10.8515C22.0997 9.63278 22.8797 8.47497 23.145 7.48404C23.3278 6.79779 23.2725 6.19404 22.9791 5.68872ZM12 4.49997C13.6987 4.50172 15.3466 5.07928 16.6747 6.13838C18.0029 7.19747 18.9327 8.67552 19.3125 10.3312C17.7131 11.8368 15.5484 13.3809 13.4934 14.5622C10.9106 16.0443 8.67 16.9687 6.88312 17.475C5.78257 16.4485 5.01653 15.1145 4.68474 13.6466C4.35295 12.1787 4.47079 10.6449 5.02289 9.24491C5.575 7.84491 6.53582 6.64356 7.78024 5.79726C9.02467 4.95096 10.4951 4.49891 12 4.49997ZM2.31937 17.5584C2.1825 17.3231 2.25843 16.8797 2.5275 16.3397C2.79357 15.8337 3.11728 15.3603 3.49218 14.9287C3.86381 16.0054 4.43644 17.0018 5.17968 17.865C3.5625 18.1368 2.55375 17.9634 2.31937 17.5584ZM12 19.5C10.7354 19.5013 9.49135 19.1806 8.385 18.5681C10.4157 17.8499 12.3751 16.9441 14.2378 15.8625C16.2609 14.7009 18.0516 13.4418 19.4944 12.1987C19.4409 14.1517 18.6282 16.0069 17.2288 17.3702C15.8294 18.7335 13.9537 19.4975 12 19.5ZM21.6956 7.09591C21.5362 7.68747 21.1153 8.36435 20.5116 9.07685C20.1409 7.99884 19.5682 7.00136 18.8241 6.13779C20.1562 5.91747 21.39 5.93435 21.6834 6.44153C21.7678 6.58872 21.7725 6.80904 21.6956 7.09591Z" fill="#343330"/>
</svg>
