<svg width="24" height="24" viewBox="0 0 24 24" fill="none" xmlns="http://www.w3.org/2000/svg">
<path d="M7.80469 3.75C7.80469 3.55109 7.88371 3.36032 8.02436 3.21967C8.16501 3.07902 8.35578 3 8.55469 3H18C18.1989 3 18.3897 3.07902 18.5303 3.21967C18.671 3.36032 18.75 3.55109 18.75 3.75C18.75 3.94891 18.671 4.13968 18.5303 4.28033C18.3897 4.42098 18.1989 4.5 18 4.5H17.3944L19.1522 14.4656C19.1865 14.6613 19.1419 14.8626 19.028 15.0253C18.9141 15.1881 18.7403 15.299 18.5447 15.3338C18.5014 15.3419 18.4575 15.346 18.4134 15.3459C18.2373 15.3458 18.0668 15.2836 17.9319 15.1702C17.7969 15.0569 17.7062 14.8998 17.6756 14.7263L15.8709 4.5H8.55844C8.45963 4.5005 8.3617 4.48146 8.27027 4.44399C8.17885 4.40652 8.09572 4.35136 8.02568 4.28166C7.95564 4.21197 7.90006 4.12912 7.86213 4.03788C7.82421 3.94664 7.80469 3.84881 7.80469 3.75ZM20.0044 20.805C19.8572 20.9388 19.6629 21.0086 19.4642 20.9991C19.2655 20.9896 19.0788 20.9016 18.945 20.7544L15.7594 17.25H12.75V22.5C12.75 22.6989 12.671 22.8897 12.5303 23.0303C12.3897 23.171 12.1989 23.25 12 23.25C11.8011 23.25 11.6103 23.171 11.4697 23.0303C11.329 22.8897 11.25 22.6989 11.25 22.5V17.25H3.75C3.55109 17.25 3.36032 17.171 3.21967 17.0303C3.07902 16.8897 3 16.6989 3 16.5C3 16.3011 3.07902 16.1103 3.21967 15.9697C3.36032 15.829 3.55109 15.75 3.75 15.75H4.62094L6.21 6.75L3.945 4.25438C3.87738 4.18173 3.82484 4.09639 3.79044 4.00329C3.75604 3.9102 3.74046 3.8112 3.74461 3.71204C3.74875 3.61288 3.77253 3.51552 3.81458 3.42562C3.85662 3.33572 3.91609 3.25506 3.98954 3.18831C4.06299 3.12156 4.14896 3.07005 4.24246 3.03677C4.33596 3.00349 4.43514 2.9891 4.53424 2.99443C4.63335 2.99976 4.73041 3.02471 4.8198 3.06783C4.90919 3.11095 4.98914 3.17138 5.055 3.24563L20.055 19.7456C20.1888 19.8928 20.2586 20.0871 20.2491 20.2858C20.2396 20.4845 20.1516 20.6712 20.0044 20.805ZM14.3953 15.75L7.485 8.14875L6.14438 15.75H14.3953Z" fill="#343330"/>
</svg>
