<svg width="24" height="24" viewBox="0 0 24 24" fill="none" xmlns="http://www.w3.org/2000/svg">
<path d="M22.0613 7.62845L16.3716 1.93971C16.2323 1.80038 16.0669 1.68986 15.8849 1.61446C15.7029 1.53905 15.5078 1.50024 15.3108 1.50024C15.1138 1.50024 14.9187 1.53905 14.7367 1.61446C14.5547 1.68986 14.3893 1.80038 14.25 1.93971L9.2222 6.98345C8.22282 6.67033 5.94095 6.29252 3.5597 8.21533C3.39557 8.34731 3.26107 8.51237 3.16495 8.69978C3.06884 8.88719 3.01328 9.09273 3.00187 9.30304C2.99046 9.51334 3.02347 9.72369 3.09874 9.92039C3.17401 10.1171 3.28987 10.2957 3.43876 10.4447L7.96876 14.9728L3.96939 18.9694C3.82866 19.1101 3.74959 19.301 3.74959 19.5C3.74959 19.699 3.82866 19.8899 3.96939 20.0306C4.11012 20.1714 4.30099 20.2504 4.50001 20.2504C4.69903 20.2504 4.88991 20.1714 5.03064 20.0306L9.0272 16.0313L13.5544 20.5585C13.6936 20.6982 13.8589 20.8092 14.041 20.8849C14.2231 20.9607 14.4184 20.9998 14.6156 21C14.6513 21 14.6859 21 14.7216 21C14.9354 20.9852 15.1435 20.9245 15.3318 20.8221C15.5201 20.7197 15.6842 20.578 15.8128 20.4066C17.6541 17.9597 17.4769 15.9703 17.0494 14.7816L22.0622 9.75002C22.2015 9.61066 22.3119 9.44524 22.3872 9.2632C22.4626 9.08115 22.5013 8.88605 22.5012 8.68904C22.5011 8.49203 22.4622 8.29696 22.3867 8.11499C22.3112 7.93301 22.2006 7.76769 22.0613 7.62845ZM21 8.6897L15.6309 14.0766C15.5201 14.1879 15.4469 14.3312 15.4219 14.4863C15.3968 14.6414 15.4211 14.8004 15.4913 14.941C16.3781 16.7156 15.3225 18.5588 14.6156 19.4991L4.50001 9.38252C5.63251 8.46939 6.71626 8.22845 7.54501 8.22845C8.07088 8.22128 8.59241 8.32443 9.07595 8.53127C9.21702 8.60187 9.37676 8.62619 9.53244 8.60077C9.68813 8.57536 9.83184 8.5015 9.94314 8.3897L15.3113 3.00002L21 8.68877V8.6897Z" fill="#343330"/>
</svg>
