<svg width="24" height="24" viewBox="0 0 24 24" fill="none" xmlns="http://www.w3.org/2000/svg">
<path d="M5.05501 3.24562C4.98914 3.17138 4.9092 3.11094 4.81981 3.06782C4.73041 3.0247 4.63335 2.99976 4.53425 2.99442C4.43514 2.98909 4.33597 3.00348 4.24246 3.03676C4.14896 3.07004 4.063 3.12155 3.98955 3.1883C3.9161 3.25505 3.85663 3.33571 3.81458 3.42562C3.77254 3.51552 3.74875 3.61287 3.74461 3.71203C3.74047 3.81119 3.75605 3.91019 3.79045 4.00329C3.82485 4.09638 3.87738 4.18173 3.94501 4.25437L6.31594 6.8625C5.30392 7.08895 4.36019 7.55262 3.56251 8.21531C3.39837 8.34729 3.26387 8.51235 3.16776 8.69976C3.07165 8.88717 3.01608 9.09271 3.00467 9.30301C2.99327 9.51332 3.02627 9.72367 3.10155 9.92037C3.17682 10.1171 3.29268 10.2957 3.44157 10.4447L7.96876 14.9728L3.96938 18.9694C3.82865 19.1101 3.74959 19.301 3.74959 19.5C3.74959 19.699 3.82865 19.8899 3.96938 20.0306C4.11011 20.1714 4.30098 20.2504 4.50001 20.2504C4.69903 20.2504 4.8899 20.1714 5.03063 20.0306L9.02719 16.0312L13.5544 20.5584C13.6936 20.6982 13.8589 20.8091 14.041 20.8849C14.2231 20.9607 14.4184 20.9998 14.6156 21C14.6513 21 14.6859 21 14.7216 21C14.9354 20.9852 15.1435 20.9245 15.3318 20.8221C15.5201 20.7197 15.6842 20.578 15.8128 20.4066C16.2559 19.8231 16.6208 19.1842 16.8984 18.5062L18.9459 20.7562C19.0118 20.8305 19.0918 20.8909 19.1811 20.934C19.2705 20.9772 19.3676 21.0021 19.4667 21.0074C19.5658 21.0128 19.665 20.9984 19.7585 20.9651C19.852 20.9318 19.938 20.8803 20.0114 20.8136C20.0849 20.7468 20.1443 20.6662 20.1864 20.5763C20.2284 20.4863 20.2522 20.389 20.2563 20.2898C20.2605 20.1907 20.2449 20.0917 20.2105 19.9986C20.1761 19.9055 20.1236 19.8201 20.0559 19.7475L5.05501 3.24562ZM14.6156 19.5L4.50001 9.3825C5.45907 8.60906 6.48751 8.22374 7.56188 8.23218L15.7331 17.2209C15.5241 18.1462 15.0225 18.9591 14.6156 19.5ZM22.0613 9.75L17.8763 13.9491C17.8067 14.0188 17.7241 14.0742 17.6331 14.112C17.5422 14.1498 17.4447 14.1693 17.3462 14.1695C17.2477 14.1696 17.1501 14.1503 17.059 14.1127C16.968 14.0752 16.8852 14.02 16.8155 13.9505C16.7457 13.8809 16.6904 13.7983 16.6526 13.7073C16.6147 13.6164 16.5952 13.5189 16.5951 13.4204C16.5949 13.3219 16.6142 13.2243 16.6518 13.1332C16.6894 13.0422 16.7445 12.9594 16.8141 12.8897L21 8.69062L15.3113 3L11.4469 6.87656C11.3053 7.01154 11.1166 7.08588 10.9211 7.08372C10.7255 7.08157 10.5385 7.0031 10.3999 6.86504C10.2614 6.72698 10.1822 6.54025 10.1794 6.34468C10.1765 6.1491 10.2502 5.96015 10.3847 5.81812L14.25 1.94062C14.3893 1.8013 14.5547 1.69078 14.7367 1.61537C14.9187 1.53997 15.1138 1.50116 15.3108 1.50116C15.5078 1.50116 15.7029 1.53997 15.8849 1.61537C16.0669 1.69078 16.2323 1.8013 16.3716 1.94062L22.0613 7.62937C22.3423 7.91065 22.5002 8.29203 22.5002 8.68968C22.5002 9.08734 22.3423 9.46872 22.0613 9.75Z" fill="#343330"/>
</svg>
