<svg width="24" height="24" viewBox="0 0 24 24" fill="none" xmlns="http://www.w3.org/2000/svg">
<path d="M10.5 15.375C10.5 15.5975 10.434 15.815 10.3104 16C10.1868 16.185 10.0111 16.3292 9.80551 16.4143C9.59994 16.4995 9.37374 16.5218 9.15552 16.4784C8.93729 16.435 8.73683 16.3278 8.5795 16.1705C8.42216 16.0131 8.31502 15.8127 8.27161 15.5945C8.2282 15.3762 8.25048 15.15 8.33563 14.9445C8.42078 14.7389 8.56497 14.5632 8.74998 14.4396C8.93498 14.316 9.15249 14.25 9.37499 14.25C9.67336 14.25 9.95951 14.3685 10.1705 14.5795C10.3815 14.7905 10.5 15.0766 10.5 15.375ZM14.625 14.25C14.4025 14.25 14.185 14.316 14 14.4396C13.815 14.5632 13.6708 14.7389 13.5856 14.9445C13.5005 15.15 13.4782 15.3762 13.5216 15.5945C13.565 15.8127 13.6722 16.0131 13.8295 16.1705C13.9868 16.3278 14.1873 16.435 14.4055 16.4784C14.6237 16.5218 14.8499 16.4995 15.0555 16.4143C15.2611 16.3292 15.4368 16.185 15.5604 16C15.684 15.815 15.75 15.5975 15.75 15.375C15.75 15.0766 15.6315 14.7905 15.4205 14.5795C15.2095 14.3685 14.9234 14.25 14.625 14.25ZM20.25 17.625C20.2499 18.5805 19.969 19.515 19.4422 20.3122C18.9155 21.1095 18.166 21.7343 17.287 22.1091C16.408 22.4838 15.4382 22.592 14.4982 22.4202C13.5583 22.2483 12.6895 21.804 12 21.1425C11.5357 21.5905 10.987 21.9419 10.3858 22.1763C9.78464 22.4107 9.14291 22.5234 8.49785 22.5079C7.85278 22.4924 7.21721 22.349 6.62799 22.086C6.03877 21.823 5.50762 21.4456 5.06535 20.9758C4.62307 20.506 4.27846 19.953 4.0515 19.349C3.82455 18.745 3.71976 18.1019 3.74321 17.4571C3.76667 16.8123 3.9179 16.1785 4.18814 15.5926C4.45838 15.0066 4.84225 14.4802 5.31749 14.0437C5.41337 13.3676 5.61191 12.71 5.90624 12.0937C4.12499 8.5406 3.04968 3.82122 4.27874 1.78872C4.46169 1.46868 4.72706 1.20351 5.04726 1.02082C5.36745 0.838138 5.73076 0.74461 6.09937 0.749974C7.42312 0.749974 8.53687 1.86466 9.51562 4.15872C10.0987 5.52935 10.5328 7.09497 10.8281 8.3531C11.6034 8.21604 12.3966 8.21604 13.1719 8.3531C13.4653 7.09497 13.8994 5.52935 14.4844 4.15872C15.4594 1.86466 16.5769 0.749974 17.9006 0.749974C18.2692 0.74461 18.6325 0.838138 18.9527 1.02082C19.2729 1.20351 19.5383 1.46868 19.7212 1.78872C20.9503 3.82122 19.875 8.5406 18.0937 12.0937C18.3871 12.7089 18.585 13.3652 18.6806 14.04C19.1767 14.4959 19.5725 15.0501 19.8427 15.6673C20.1128 16.2845 20.2516 16.9512 20.25 17.625ZM14.6147 8.77779C15.5875 9.18539 16.4507 9.81613 17.1347 10.619C17.7575 9.2317 18.2238 7.7793 18.525 6.28872C18.8522 4.58904 18.8203 3.19497 18.4378 2.56497C18.3892 2.4654 18.3123 2.38239 18.2168 2.32636C18.1212 2.27032 18.0112 2.24375 17.9006 2.24997C17.2809 2.24997 16.5394 3.15935 15.8644 4.7456C15.3084 6.05247 14.8941 7.56935 14.6147 8.77779ZM6.86531 10.619C7.54926 9.81613 8.41252 9.18539 9.3853 8.77779C9.10405 7.56935 8.69155 6.05247 8.13562 4.74654C7.46062 3.15935 6.71905 2.24997 6.09937 2.24997C5.98876 2.24375 5.87877 2.27032 5.78321 2.32636C5.68764 2.38239 5.61075 2.4654 5.56218 2.56497C5.17968 3.19685 5.1478 4.59372 5.47499 6.28872C5.77622 7.7793 6.24253 9.2317 6.86531 10.619ZM18.75 17.625C18.7512 17.1217 18.6395 16.6246 18.4231 16.1703C18.2066 15.716 17.891 15.3161 17.4994 15C17.4221 14.9372 17.3581 14.8597 17.3111 14.772C17.2641 14.6843 17.2351 14.5881 17.2256 14.489C17.1 13.1902 16.4952 11.9847 15.5291 11.1075C14.563 10.2303 13.3049 9.74435 12 9.74435C10.6951 9.74435 9.43695 10.2303 8.47086 11.1075C7.50476 11.9847 6.89997 13.1902 6.77437 14.489C6.76492 14.5881 6.73585 14.6843 6.68885 14.772C6.64185 14.8597 6.57786 14.9372 6.50062 15C6.14451 15.2842 5.84962 15.6375 5.63374 16.0388C5.41786 16.44 5.28546 16.8808 5.2445 17.3345C5.20355 17.7883 5.2549 18.2457 5.39545 18.6791C5.536 19.1125 5.76285 19.5129 6.06232 19.8563C6.3618 20.1996 6.72769 20.4788 7.13795 20.677C7.54822 20.8751 7.99436 20.9882 8.44948 21.0093C8.90461 21.0304 9.3593 20.9591 9.78614 20.7998C10.213 20.6405 10.6031 20.3963 10.9331 20.0822L10.02 19.3237C9.94428 19.2607 9.88172 19.1834 9.83589 19.0961C9.79006 19.0089 9.76186 18.9136 9.75289 18.8154C9.74392 18.7173 9.75437 18.6184 9.78363 18.5243C9.81289 18.4303 9.8604 18.3429 9.92343 18.2672C9.98646 18.1914 10.0638 18.1289 10.151 18.0831C10.2382 18.0372 10.3336 18.009 10.4317 18.0001C10.5298 17.9911 10.6287 18.0015 10.7228 18.0308C10.8169 18.0601 10.9043 18.1076 10.98 18.1706L12 19.0219L13.02 18.1734C13.1729 18.0461 13.3701 17.9848 13.5683 18.0029C13.7664 18.021 13.9493 18.1171 14.0766 18.27C14.2039 18.4229 14.2652 18.6201 14.2471 18.8183C14.229 19.0164 14.1329 19.1992 13.98 19.3265L13.0669 20.085C13.547 20.535 14.1481 20.8349 14.7964 20.9477C15.4447 21.0605 16.1118 20.9813 16.7157 20.7199C17.3196 20.4585 17.8339 20.0263 18.1953 19.4764C18.5567 18.9265 18.7495 18.283 18.75 17.625Z" fill="#343330"/>
</svg>
