<svg width="24" height="24" viewBox="0 0 24 24" fill="none" xmlns="http://www.w3.org/2000/svg">
<path d="M18.6825 14.0438C18.5866 13.3676 18.3881 12.71 18.0937 12.0938C19.875 8.53689 20.9484 3.81751 19.7194 1.78126C19.5356 1.46289 19.2701 1.19941 18.9503 1.0181C18.6306 0.836788 18.2682 0.744232 17.9006 0.750011C16.5769 0.750011 15.4631 1.8647 14.4844 4.15876C13.9012 5.52939 13.4672 7.09501 13.1719 8.35314C12.3966 8.21608 11.6034 8.21608 10.8281 8.35314C10.5347 7.09501 10.1006 5.52939 9.51562 4.15876C8.54062 1.8647 7.42312 0.750011 6.09937 0.750011C5.73076 0.744646 5.36746 0.838174 5.04726 1.02086C4.72707 1.20355 4.46169 1.46871 4.27874 1.78876C3.04968 3.82126 4.12499 8.54064 5.90624 12.0938C5.61292 12.7089 5.41503 13.3652 5.31937 14.04C4.37752 14.9259 3.82617 16.1497 3.78661 17.4421C3.74705 18.7345 4.22252 19.9897 5.10843 20.9316C5.99434 21.8734 7.21811 22.4248 8.51052 22.4643C9.80294 22.5039 11.0581 22.0284 12 21.1425L10.02 19.3266C9.86708 19.1993 9.771 19.0164 9.75289 18.8183C9.73478 18.6201 9.79613 18.4229 9.92343 18.27C10.0507 18.1171 10.2336 18.021 10.4317 18.0029C10.6299 17.9848 10.8271 18.0461 10.98 18.1734L12 19.0219L13.02 18.1734C13.1729 18.0461 13.3701 17.9848 13.5683 18.0029C13.7664 18.021 13.9493 18.1171 14.0766 18.27C14.2039 18.4229 14.2652 18.6201 14.2471 18.8183C14.229 19.0164 14.1329 19.1993 13.98 19.3266L12 21.1425C12.4643 21.5905 13.013 21.9419 13.6142 22.1763C14.2154 22.4107 14.8571 22.5234 15.5021 22.5079C16.1472 22.4924 16.7828 22.349 17.372 22.086C17.9612 21.823 18.4924 21.4457 18.9346 20.9758C19.3769 20.506 19.7215 19.953 19.9485 19.349C20.1754 18.745 20.2802 18.1019 20.2568 17.4571C20.2333 16.8123 20.0821 16.1785 19.8118 15.5926C19.5416 15.0067 19.1577 14.4802 18.6825 14.0438ZM6.86999 10.6191C6.24561 9.23192 5.77773 7.77953 5.47499 6.28876C5.14781 4.58907 5.17968 3.19501 5.56218 2.56501C5.61075 2.46544 5.68764 2.38243 5.78321 2.32639C5.87877 2.27035 5.98876 2.24378 6.09937 2.25001C6.71906 2.25001 7.46062 3.15939 8.13562 4.74564C8.69156 6.05251 9.10593 7.56939 9.38531 8.77689C8.41252 9.18449 7.54926 9.81523 6.86531 10.6181L6.86999 10.6191ZM9.37499 16.5C9.15249 16.5 8.93498 16.434 8.74998 16.3104C8.56497 16.1868 8.42078 16.0111 8.33563 15.8055C8.25048 15.6 8.2282 15.3738 8.27161 15.1555C8.31502 14.9373 8.42216 14.7368 8.5795 14.5795C8.73683 14.4222 8.93729 14.315 9.15552 14.2716C9.37374 14.2282 9.59995 14.2505 9.80551 14.3356C10.0111 14.4208 10.1868 14.565 10.3104 14.75C10.434 14.935 10.5 15.1525 10.5 15.375C10.5 15.6734 10.3815 15.9595 10.1705 16.1705C9.95951 16.3815 9.67336 16.5 9.37499 16.5ZM14.625 16.5C14.4025 16.5 14.185 16.434 14 16.3104C13.815 16.1868 13.6708 16.0111 13.5856 15.8055C13.5005 15.6 13.4782 15.3738 13.5216 15.1555C13.565 14.9373 13.6722 14.7368 13.8295 14.5795C13.9868 14.4222 14.1873 14.315 14.4055 14.2716C14.6237 14.2282 14.8499 14.2505 15.0555 14.3356C15.2611 14.4208 15.4368 14.565 15.5604 14.75C15.684 14.935 15.75 15.1525 15.75 15.375C15.75 15.6734 15.6315 15.9595 15.4205 16.1705C15.2095 16.3815 14.9234 16.5 14.625 16.5ZM16.5516 10.0153C15.9816 9.49496 15.3264 9.07638 14.6147 8.77782C14.8959 7.56939 15.3084 6.05251 15.8644 4.74657C16.5394 3.15939 17.2809 2.25001 17.9006 2.25001C18.0112 2.24378 18.1212 2.27035 18.2168 2.32639C18.3123 2.38243 18.3892 2.46544 18.4378 2.56501C18.8203 3.19689 18.8522 4.58907 18.525 6.28876C18.2238 7.77934 17.7575 9.23173 17.1347 10.6191C16.9529 10.406 16.7582 10.2044 16.5516 10.0153Z" fill="#343330"/>
</svg>
