<svg width="24" height="24" viewBox="0 0 24 24" fill="none" xmlns="http://www.w3.org/2000/svg">
<path d="M21.5625 2.44216C18.9375 -0.176282 14.2059 0.296219 11.0062 3.49684C8.02594 6.47716 7.41281 10.7878 9.45844 13.4803L6.68719 16.2515L6.62344 16.1878C6.48413 16.0483 6.31869 15.9377 6.1366 15.8622C5.9545 15.7867 5.75931 15.7479 5.56219 15.7479C5.36506 15.7479 5.16987 15.7867 4.98778 15.8622C4.80568 15.9377 4.64025 16.0483 4.50094 16.1878L1.93969 18.75C1.80022 18.8893 1.68958 19.0547 1.6141 19.2368C1.53861 19.4189 1.49976 19.6141 1.49976 19.8112C1.49976 20.0083 1.53861 20.2035 1.6141 20.3856C1.68958 20.5677 1.80022 20.7332 1.93969 20.8725L3.12937 22.0622C3.26867 22.2015 3.43404 22.312 3.61605 22.3874C3.79806 22.4628 3.99314 22.5016 4.19015 22.5016C4.38717 22.5016 4.58225 22.4628 4.76426 22.3874C4.94627 22.312 5.11164 22.2015 5.25094 22.0622L7.81312 19.5C7.95245 19.3607 8.06297 19.1953 8.13837 19.0133C8.21377 18.8313 8.25258 18.6362 8.25258 18.4392C8.25258 18.2422 8.21377 18.0471 8.13837 17.8651C8.06297 17.6831 7.95245 17.5177 7.81312 17.3784L7.74844 17.3137L10.5197 14.5425C11.5781 15.3468 12.8859 15.7415 14.2697 15.7415C16.3997 15.7415 18.6994 14.804 20.5078 12.9947C23.7028 9.79403 24.1762 5.06247 21.5625 2.44216ZM4.19062 21L3 19.8103L5.56219 17.25L6.15562 17.8443L6.75 18.4378L4.19062 21ZM21.0216 9.74997H18.7556V6.74997H21.7556C21.7446 7.79307 21.4934 8.81961 21.0216 9.74997ZM12.75 14.0259C12.0937 13.8291 11.4965 13.4725 11.012 12.988C10.5275 12.5035 10.1708 11.9063 9.97406 11.25H12.75V14.0259ZM9.75 9.74997C9.76123 8.70656 10.0134 7.67985 10.4869 6.74997H12.75V9.74997H9.75ZM14.25 6.74997H17.25V9.74997H14.25V6.74997ZM21.5316 5.24997H18.7556V2.46372C19.413 2.66088 20.0112 3.01814 20.4965 3.50345C20.9818 3.98876 21.3391 4.58694 21.5362 5.24434L21.5316 5.24997ZM17.2359 2.24997H17.2509V5.24997H14.2509V2.97747C15.178 2.50628 16.2008 2.25418 17.2406 2.24059L17.2359 2.24997ZM12.75 3.94309V5.24434H11.4525C11.6448 5.00453 11.8501 4.77543 12.0675 4.55809C12.2841 4.34126 12.5119 4.13598 12.75 3.94309ZM14.25 14.2481V11.25H17.25V13.515C16.3214 13.9871 15.2964 14.2386 14.2547 14.25L14.25 14.2481ZM18.75 12.5475V11.25H20.0625C19.8699 11.4896 19.6646 11.7186 19.4475 11.9362C19.2282 12.1525 18.9973 12.3566 18.7556 12.5475H18.75Z" fill="#343330"/>
</svg>
