<svg width="24" height="24" viewBox="0 0 24 24" fill="none" xmlns="http://www.w3.org/2000/svg">
<path d="M2.25 12C2.25199 10.2104 2.96378 8.49466 4.22922 7.22922C5.49466 5.96378 7.2104 5.25198 9 5.25H19.1897L18.2194 4.28062C18.0786 4.13989 17.9996 3.94902 17.9996 3.75C17.9996 3.55097 18.0786 3.3601 18.2194 3.21937C18.3601 3.07864 18.551 2.99958 18.75 2.99958C18.949 2.99958 19.1399 3.07864 19.2806 3.21937L21.5306 5.46937C21.6004 5.53903 21.6557 5.62174 21.6934 5.71279C21.7312 5.80384 21.7506 5.90144 21.7506 6C21.7506 6.09856 21.7312 6.19615 21.6934 6.2872C21.6557 6.37825 21.6004 6.46097 21.5306 6.53062L19.2806 8.78062C19.1399 8.92135 18.949 9.00041 18.75 9.00041C18.551 9.00041 18.3601 8.92135 18.2194 8.78062C18.0786 8.63989 17.9996 8.44902 17.9996 8.25C17.9996 8.05097 18.0786 7.8601 18.2194 7.71937L19.1897 6.75H9C7.60807 6.75149 6.27358 7.30509 5.28934 8.28933C4.30509 9.27357 3.75149 10.6081 3.75 12C3.75 12.1989 3.67098 12.3897 3.53033 12.5303C3.38968 12.671 3.19891 12.75 3 12.75C2.80109 12.75 2.61032 12.671 2.46967 12.5303C2.32902 12.3897 2.25 12.1989 2.25 12ZM21 11.25C20.8011 11.25 20.6103 11.329 20.4697 11.4697C20.329 11.6103 20.25 11.8011 20.25 12C20.2485 13.3919 19.6949 14.7264 18.7107 15.7107C17.7264 16.6949 16.3919 17.2485 15 17.25H4.81032L5.78063 16.2806C5.85031 16.2109 5.90559 16.1282 5.9433 16.0372C5.98101 15.9461 6.00042 15.8485 6.00042 15.75C6.00042 15.6515 5.98101 15.5539 5.9433 15.4628C5.90559 15.3718 5.85031 15.2891 5.78063 15.2194C5.71094 15.1497 5.62822 15.0944 5.53717 15.0567C5.44613 15.019 5.34855 14.9996 5.25 14.9996C5.15146 14.9996 5.05387 15.019 4.96283 15.0567C4.87179 15.0944 4.78906 15.1497 4.71938 15.2194L2.46938 17.4694C2.39965 17.539 2.34433 17.6217 2.30658 17.7128C2.26884 17.8038 2.24941 17.9014 2.24941 18C2.24941 18.0986 2.26884 18.1962 2.30658 18.2872C2.34433 18.3783 2.39965 18.461 2.46938 18.5306L4.71938 20.7806C4.78906 20.8503 4.87179 20.9056 4.96283 20.9433C5.05387 20.981 5.15146 21.0004 5.25 21.0004C5.34855 21.0004 5.44613 20.981 5.53717 20.9433C5.62822 20.9056 5.71094 20.8503 5.78063 20.7806C5.85031 20.7109 5.90559 20.6282 5.9433 20.5372C5.98101 20.4461 6.00042 20.3485 6.00042 20.25C6.00042 20.1515 5.98101 20.0539 5.9433 19.9628C5.90559 19.8718 5.85031 19.7891 5.78063 19.7194L4.81032 18.75H15C16.7896 18.748 18.5053 18.0362 19.7708 16.7708C21.0362 15.5053 21.748 13.7896 21.75 12C21.75 11.8011 21.671 11.6103 21.5303 11.4697C21.3897 11.329 21.1989 11.25 21 11.25Z" fill="#343330"/>
</svg>
