<svg width="24" height="24" viewBox="0 0 24 24" fill="none" xmlns="http://www.w3.org/2000/svg">
<path d="M2.24999 12C2.25198 10.2104 2.96378 8.49466 4.22922 7.22922C5.49466 5.96378 7.21039 5.25198 9 5.25H19.1897L18.2194 4.28062C18.0786 4.13989 17.9996 3.94902 17.9996 3.75C17.9996 3.55097 18.0786 3.3601 18.2194 3.21937C18.3601 3.07864 18.551 2.99958 18.75 2.99958C18.949 2.99958 19.1399 3.07864 19.2806 3.21937L21.5306 5.46937C21.6004 5.53903 21.6557 5.62174 21.6934 5.71279C21.7312 5.80384 21.7506 5.90144 21.7506 6C21.7506 6.09856 21.7312 6.19615 21.6934 6.2872C21.6557 6.37825 21.6004 6.46097 21.5306 6.53062L19.2806 8.78062C19.1399 8.92135 18.949 9.00041 18.75 9.00041C18.551 9.00041 18.3601 8.92135 18.2194 8.78062C18.0786 8.63989 17.9996 8.44902 17.9996 8.25C17.9996 8.05097 18.0786 7.8601 18.2194 7.71937L19.1897 6.75H9C7.60807 6.75149 6.27357 7.30509 5.28933 8.28933C4.30509 9.27357 3.75148 10.6081 3.74999 12C3.74999 12.1989 3.67098 12.3897 3.53032 12.5303C3.38967 12.671 3.19891 12.75 2.99999 12.75C2.80108 12.75 2.61032 12.671 2.46966 12.5303C2.32901 12.3897 2.24999 12.1989 2.24999 12ZM21 11.25C20.8011 11.25 20.6103 11.329 20.4697 11.4697C20.329 11.6103 20.25 11.8011 20.25 12C20.2485 13.3919 19.6949 14.7264 18.7107 15.7107C17.7264 16.6949 16.3919 17.2485 15 17.25H4.81031L5.78062 16.2806C5.8503 16.2109 5.90558 16.1282 5.94329 16.0372C5.981 15.9461 6.00041 15.8485 6.00041 15.75C6.00041 15.6515 5.981 15.5539 5.94329 15.4628C5.90558 15.3718 5.8503 15.2891 5.78062 15.2194C5.71094 15.1497 5.62821 15.0944 5.53717 15.0567C5.44612 15.019 5.34854 14.9996 5.24999 14.9996C5.15145 14.9996 5.05387 15.019 4.96282 15.0567C4.87178 15.0944 4.78905 15.1497 4.71937 15.2194L2.46937 17.4694C2.39964 17.539 2.34432 17.6217 2.30657 17.7128C2.26883 17.8038 2.2494 17.9014 2.2494 18C2.2494 18.0986 2.26883 18.1962 2.30657 18.2872C2.34432 18.3783 2.39964 18.461 2.46937 18.5306L4.71937 20.7806C4.78905 20.8503 4.87178 20.9056 4.96282 20.9433C5.05387 20.981 5.15145 21.0004 5.24999 21.0004C5.34854 21.0004 5.44612 20.981 5.53717 20.9433C5.62821 20.9056 5.71094 20.8503 5.78062 20.7806C5.8503 20.7109 5.90558 20.6282 5.94329 20.5372C5.981 20.4461 6.00041 20.3485 6.00041 20.25C6.00041 20.1515 5.981 20.0539 5.94329 19.9628C5.90558 19.8718 5.8503 19.7891 5.78062 19.7194L4.81031 18.75H15C16.7896 18.748 18.5053 18.0362 19.7708 16.7708C21.0362 15.5053 21.748 13.7896 21.75 12C21.75 11.8011 21.671 11.6103 21.5303 11.4697C21.3897 11.329 21.1989 11.25 21 11.25ZM12.75 15C12.9489 15 13.1397 14.921 13.2803 14.7803C13.421 14.6397 13.5 14.4489 13.5 14.25V9.75C13.5001 9.62209 13.4675 9.49628 13.4052 9.38454C13.343 9.27279 13.2532 9.17882 13.1444 9.11155C13.0356 9.04428 12.9114 9.00596 12.7837 9.00022C12.6559 8.99447 12.5288 9.02151 12.4144 9.07875L10.9144 9.82875C10.7365 9.91776 10.6012 10.0738 10.5384 10.2625C10.4755 10.4513 10.4902 10.6573 10.5792 10.8352C10.6682 11.0131 10.8243 11.1483 11.013 11.2112C11.2017 11.274 11.4077 11.2593 11.5856 11.1703L12 10.9631V14.25C12 14.4489 12.079 14.6397 12.2197 14.7803C12.3603 14.921 12.5511 15 12.75 15Z" fill="#343330"/>
</svg>
