<svg width="24" height="24" viewBox="0 0 24 24" fill="none" xmlns="http://www.w3.org/2000/svg">
<path d="M20.9784 5.4375C20.7432 5.3089 20.4779 5.24568 20.2099 5.25442C19.942 5.26316 19.6813 5.34354 19.455 5.48719L12 10.2319V6.735C11.9989 6.46797 11.9262 6.20613 11.7894 5.97681C11.6525 5.74749 11.4567 5.55911 11.2222 5.43133C10.9877 5.30355 10.7232 5.24107 10.4563 5.2504C10.1895 5.25973 9.92999 5.34054 9.70501 5.48438L1.4372 10.7494C1.22655 10.8831 1.05309 11.0678 0.932899 11.2864C0.812712 11.5051 0.749695 11.7505 0.749695 12C0.749695 12.2495 0.812712 12.4949 0.932899 12.7136C1.05309 12.9322 1.22655 13.1169 1.4372 13.2506L9.70501 18.5156C9.92999 18.6595 10.1895 18.7403 10.4563 18.7496C10.7232 18.7589 10.9877 18.6965 11.2222 18.5687C11.4567 18.4409 11.6525 18.2525 11.7894 18.0232C11.9262 17.7939 11.9989 17.532 12 17.265V13.7681L19.455 18.5156C19.68 18.6595 19.9395 18.7403 20.2063 18.7496C20.4732 18.7589 20.7377 18.6965 20.9722 18.5687C21.2066 18.4409 21.4025 18.2525 21.5394 18.0232C21.6762 17.7939 21.7489 17.532 21.75 17.265V6.735C21.7492 6.46949 21.6772 6.20904 21.5415 5.98082C21.4058 5.75261 21.2114 5.56498 20.9784 5.4375ZM10.5 17.2434L2.26688 12L10.5 6.75563V17.2434ZM20.25 17.2434L12.0169 12L20.25 6.75563V17.2434Z" fill="#343330"/>
</svg>
