<svg width="24" height="24" viewBox="0 0 24 24" fill="none" xmlns="http://www.w3.org/2000/svg">
<path d="M20.9859 4.41751C20.9637 4.05182 20.8084 3.7069 20.5494 3.44784C20.2903 3.18878 19.9454 3.03348 19.5797 3.01126C18.4003 2.94095 15.3863 3.04876 12.885 5.54907L12.4397 6.00001H6.97126C6.77352 5.9989 6.57753 6.03711 6.3947 6.11243C6.21186 6.18776 6.04583 6.29868 5.90626 6.43876L2.69063 9.65626C2.49343 9.85333 2.35505 10.1015 2.29102 10.3728C2.227 10.6441 2.23986 10.928 2.32817 11.1924C2.41648 11.4568 2.57674 11.6914 2.79096 11.8699C3.00518 12.0483 3.26489 12.1635 3.54094 12.2025L7.14751 12.7059L11.2922 16.8506L11.7956 20.4591C11.8343 20.7351 11.9495 20.9949 12.1281 21.2089C12.3067 21.423 12.5416 21.5828 12.8063 21.6703C12.9604 21.7218 13.1219 21.7481 13.2844 21.7481C13.4812 21.7485 13.6761 21.7099 13.8579 21.6346C14.0397 21.5593 14.2049 21.4488 14.3438 21.3094L17.5613 18.0938C17.7013 17.9542 17.8123 17.7882 17.8876 17.6053C17.9629 17.4225 18.0011 17.2265 18 17.0288V11.5603L18.4472 11.1131C20.9484 8.61188 21.0563 5.59782 20.9859 4.41751ZM6.97126 7.50001H10.9397L7.23376 11.205L3.75001 10.7194L6.97126 7.50001ZM13.9472 6.61407C14.6679 5.88895 15.535 5.32595 16.4906 4.96268C17.4462 4.59941 18.4684 4.44423 19.4888 4.50751C19.5545 5.52843 19.4009 6.55159 19.0384 7.50823C18.6758 8.46487 18.1127 9.33282 17.3869 10.0538L12 15.4388L8.56126 12L13.9472 6.61407ZM16.5 17.0288L13.2816 20.25L12.795 16.7653L16.5 13.0603V17.0288ZM9.54751 17.9194C9.12563 18.8438 7.71469 21 3.75001 21C3.55109 21 3.36033 20.921 3.21968 20.7803C3.07902 20.6397 3.00001 20.4489 3.00001 20.25C3.00001 16.2853 5.15626 14.8744 6.08063 14.4516C6.17026 14.4107 6.26706 14.3879 6.36551 14.3844C6.46395 14.381 6.56212 14.3969 6.65439 14.4314C6.74667 14.4659 6.83126 14.5182 6.90332 14.5853C6.97538 14.6525 7.03351 14.7332 7.07438 14.8228C7.11526 14.9124 7.13808 15.0093 7.14154 15.1077C7.145 15.2061 7.12904 15.3043 7.09457 15.3966C7.06009 15.4889 7.00778 15.5734 6.94062 15.6455C6.87346 15.7176 6.79276 15.7757 6.70313 15.8166C6.10032 16.0913 4.77001 16.9753 4.53563 19.4644C7.02469 19.23 7.91063 17.8997 8.18344 17.2969C8.22432 17.2073 8.28244 17.1266 8.35451 17.0594C8.42657 16.9922 8.51115 16.9399 8.60343 16.9054C8.69571 16.871 8.79387 16.855 8.89232 16.8585C8.99077 16.8619 9.08757 16.8848 9.17719 16.9256C9.26682 16.9665 9.34752 17.0246 9.41468 17.0967C9.48185 17.1688 9.53416 17.2533 9.56863 17.3456C9.6031 17.4379 9.61907 17.5361 9.6156 17.6345C9.61214 17.733 9.58932 17.8298 9.54844 17.9194H9.54751Z" fill="#343330"/>
</svg>
