<svg width="24" height="24" viewBox="0 0 24 24" fill="none" xmlns="http://www.w3.org/2000/svg">
<path d="M14.25 21C14.25 21.1989 14.171 21.3897 14.0303 21.5303C13.8897 21.671 13.6989 21.75 13.5 21.75H10.5C10.3011 21.75 10.1103 21.671 9.96968 21.5303C9.82902 21.3897 9.75001 21.1989 9.75001 21C9.75001 20.8011 9.82902 20.6103 9.96968 20.4697C10.1103 20.329 10.3011 20.25 10.5 20.25H13.5C13.6989 20.25 13.8897 20.329 14.0303 20.4697C14.171 20.6103 14.25 20.8011 14.25 21ZM12 10.5C12.2225 10.5 12.44 10.434 12.625 10.3104C12.81 10.1868 12.9542 10.0111 13.0394 9.80553C13.1245 9.59996 13.1468 9.37376 13.1034 9.15553C13.06 8.9373 12.9528 8.73685 12.7955 8.57951C12.6382 8.42218 12.4377 8.31503 12.2195 8.27163C12.0013 8.22822 11.7751 8.2505 11.5695 8.33565C11.3639 8.42079 11.1882 8.56499 11.0646 8.74999C10.941 8.935 10.875 9.15251 10.875 9.37501C10.875 9.67338 10.9935 9.95953 11.2045 10.1705C11.4155 10.3815 11.7016 10.5 12 10.5ZM20.9644 14.6091L19.8056 19.8244C19.7507 20.072 19.6338 20.3017 19.4659 20.4919C19.298 20.6821 19.0847 20.8266 18.8457 20.912C18.6068 20.9973 18.3502 21.0206 18.0998 20.9798C17.8494 20.9389 17.6135 20.8353 17.4141 20.6784L14.8603 18.75H9.14157L6.58594 20.6784C6.38652 20.8353 6.15059 20.9389 5.90021 20.9798C5.64983 21.0206 5.39318 20.9973 5.15427 20.912C4.91536 20.8266 4.70199 20.6821 4.53411 20.4919C4.36624 20.3017 4.24935 20.072 4.19438 19.8244L3.03563 14.6091C2.98648 14.3853 2.98896 14.1532 3.04289 13.9305C3.09682 13.7078 3.20078 13.5003 3.34688 13.3238L6.02438 10.1119C6.11425 8.93152 6.38523 7.77201 6.82782 6.67407C8.03719 3.6422 10.2028 1.74001 11.0813 1.06313C11.3442 0.859401 11.6674 0.74884 12 0.74884C12.3326 0.74884 12.6558 0.859401 12.9188 1.06313C13.7944 1.74001 15.9628 3.6422 17.1722 6.67407C17.6148 7.77201 17.8858 8.93152 17.9756 10.1119L20.6531 13.3238C20.7992 13.5003 20.9032 13.7078 20.9571 13.9305C21.0111 14.1532 21.0135 14.3853 20.9644 14.6091ZM9.32157 17.25H14.6784C16.6584 13.7306 17.0288 10.3613 15.7791 7.23001C14.6766 4.46626 12.6084 2.71876 12 2.25001C11.3897 2.71876 9.32157 4.46626 8.21907 7.23001C6.97126 10.3613 7.34157 13.7306 9.32157 17.25ZM7.91532 17.7984C6.90594 15.9641 6.29344 14.1613 6.07782 12.39L4.50001 14.2838L5.65876 19.5L5.67563 19.4878L7.91532 17.7984ZM19.5 14.2838L17.9222 12.39C17.7084 14.1575 17.0972 15.9603 16.0884 17.7984L18.3244 19.4859L18.3413 19.4981L19.5 14.2838Z" fill="#343330"/>
</svg>
