<svg width="24" height="24" viewBox="0 0 24 24" fill="none" xmlns="http://www.w3.org/2000/svg">
<path d="M20.25 12.2025C20.2538 12.0675 20.2538 11.9325 20.25 11.7975L21.6488 10.05C21.7221 9.95826 21.7729 9.85057 21.797 9.7356C21.8211 9.62064 21.8178 9.50162 21.7875 9.38814C21.5578 8.52634 21.2148 7.69881 20.7675 6.9272C20.7089 6.82625 20.6275 6.74037 20.5299 6.67641C20.4322 6.61245 20.321 6.57216 20.205 6.55876L17.9813 6.31126C17.8888 6.21376 17.795 6.12001 17.7 6.03001L17.4375 3.80064C17.424 3.68459 17.3836 3.57329 17.3194 3.47563C17.2553 3.37797 17.1693 3.29665 17.0681 3.23814C16.2966 2.79118 15.469 2.44881 14.6072 2.22001C14.4937 2.18969 14.3747 2.18645 14.2597 2.21055C14.1448 2.23465 14.0371 2.28542 13.9453 2.35876L12.2025 3.75001C12.0675 3.75001 11.9325 3.75001 11.7975 3.75001L10.05 2.35407C9.95825 2.28073 9.85055 2.22997 9.73559 2.20587C9.62063 2.18177 9.50161 2.18501 9.38813 2.21532C8.52633 2.44504 7.6988 2.78803 6.92719 3.23532C6.82624 3.29394 6.74036 3.37532 6.6764 3.47297C6.61244 3.57062 6.57215 3.68186 6.55875 3.79782L6.31125 6.02532C6.21375 6.11845 6.12 6.2122 6.03 6.30657L3.80063 6.56251C3.68458 6.57601 3.57328 6.61644 3.47562 6.68057C3.37796 6.7447 3.29664 6.83076 3.23813 6.93189C2.79126 7.7036 2.4486 8.53111 2.21906 9.39283C2.18887 9.50638 2.18579 9.62544 2.21005 9.74041C2.23431 9.85537 2.28525 9.96303 2.35875 10.0547L3.75 11.7975C3.75 11.9325 3.75 12.0675 3.75 12.2025L2.35406 13.95C2.28072 14.0418 2.22996 14.1495 2.20586 14.2644C2.18176 14.3794 2.18499 14.4984 2.21531 14.6119C2.44503 15.4737 2.78802 16.3012 3.23531 17.0728C3.29393 17.1738 3.37531 17.2597 3.47296 17.3236C3.57061 17.3876 3.68185 17.4279 3.79781 17.4413L6.02156 17.6888C6.11469 17.7863 6.20844 17.88 6.30281 17.97L6.5625 20.1994C6.576 20.3154 6.61643 20.4267 6.68056 20.5244C6.74469 20.6221 6.83075 20.7034 6.93188 20.7619C7.70359 21.2088 8.5311 21.5514 9.39281 21.781C9.50637 21.8111 9.62543 21.8142 9.74039 21.79C9.85536 21.7657 9.96302 21.7148 10.0547 21.6413L11.7975 20.25C11.9325 20.2538 12.0675 20.2538 12.2025 20.25L13.95 21.6488C14.0418 21.7221 14.1494 21.7729 14.2644 21.797C14.3794 21.8211 14.4984 21.8178 14.6119 21.7875C15.4738 21.5582 16.3014 21.2152 17.0728 20.7675C17.1738 20.7089 17.2596 20.6275 17.3236 20.5299C17.3876 20.4322 17.4279 20.321 17.4413 20.205L17.6888 17.9813C17.7863 17.8888 17.88 17.795 17.97 17.7L20.1994 17.4375C20.3154 17.424 20.4267 17.3836 20.5244 17.3195C20.622 17.2553 20.7034 17.1693 20.7619 17.0681C21.2087 16.2964 21.5514 15.4689 21.7809 14.6072C21.8111 14.4936 21.8142 14.3746 21.79 14.2596C21.7657 14.1447 21.7148 14.037 21.6413 13.9453L20.25 12.2025ZM12 15.75C11.2583 15.75 10.5333 15.5301 9.91661 15.118C9.29993 14.706 8.81928 14.1203 8.53545 13.4351C8.25162 12.7499 8.17736 11.9959 8.32206 11.2684C8.46675 10.541 8.8239 9.87281 9.34835 9.34836C9.8728 8.82392 10.541 8.46676 11.2684 8.32207C11.9958 8.17737 12.7498 8.25164 13.4351 8.53546C14.1203 8.81929 14.706 9.29994 15.118 9.91662C15.5301 10.5333 15.75 11.2583 15.75 12C15.75 12.9946 15.3549 13.9484 14.6517 14.6517C13.9484 15.3549 12.9946 15.75 12 15.75Z" fill="#343330"/>
</svg>
