<svg width="24" height="24" viewBox="0 0 24 24" fill="none" xmlns="http://www.w3.org/2000/svg">
<path d="M22.2806 16.7194C22.3504 16.789 22.4057 16.8717 22.4434 16.9628C22.4812 17.0538 22.5006 17.1514 22.5006 17.25C22.5006 17.3486 22.4812 17.4462 22.4434 17.5372C22.4057 17.6283 22.3504 17.711 22.2806 17.7806L20.0306 20.0306C19.8899 20.1714 19.699 20.2504 19.5 20.2504C19.301 20.2504 19.1101 20.1714 18.9694 20.0306C18.8286 19.8899 18.7496 19.699 18.7496 19.5C18.7496 19.301 18.8286 19.1101 18.9694 18.9694L19.9397 18H18.8381C17.7639 17.9991 16.7053 17.7422 15.75 17.2507C14.7948 16.7591 13.9705 16.0471 13.3453 15.1734L9.43406 9.69843C8.94778 9.01898 8.30662 8.46517 7.56368 8.08286C6.82074 7.70055 5.99741 7.50074 5.16188 7.5H3C2.80109 7.5 2.61032 7.42098 2.46967 7.28033C2.32902 7.13968 2.25 6.94891 2.25 6.75C2.25 6.55108 2.32902 6.36032 2.46967 6.21967C2.61032 6.07902 2.80109 6 3 6H5.16188C6.23615 6.00089 7.29474 6.25775 8.24996 6.7493C9.20518 7.24085 10.0295 7.95293 10.6547 8.82656L14.5659 14.3016C15.0522 14.981 15.6934 15.5348 16.4363 15.9171C17.1793 16.2994 18.0026 16.4993 18.8381 16.5H19.9397L18.9694 15.5306C18.8286 15.3899 18.7496 15.199 18.7496 15C18.7496 14.801 18.8286 14.6101 18.9694 14.4694C19.1101 14.3286 19.301 14.2496 19.5 14.2496C19.699 14.2496 19.8899 14.3286 20.0306 14.4694L22.2806 16.7194ZM13.4062 10.0312C13.4864 10.0885 13.577 10.1294 13.673 10.1516C13.7689 10.1738 13.8683 10.1769 13.9655 10.1608C14.0626 10.1446 14.1557 10.1094 14.2392 10.0572C14.3228 10.0051 14.3953 9.93702 14.4525 9.85687L14.565 9.70031C15.0512 9.02038 15.6924 8.46613 16.4355 8.08348C17.1786 7.70083 18.0023 7.50081 18.8381 7.5H19.9397L18.9694 8.46937C18.8286 8.6101 18.7496 8.80097 18.7496 9C18.7496 9.19902 18.8286 9.38989 18.9694 9.53062C19.1101 9.67135 19.301 9.75041 19.5 9.75041C19.699 9.75041 19.8899 9.67135 20.0306 9.53062L22.2806 7.28062C22.3504 7.21097 22.4057 7.12825 22.4434 7.0372C22.4812 6.94615 22.5006 6.84856 22.5006 6.75C22.5006 6.65144 22.4812 6.55384 22.4434 6.46279C22.4057 6.37174 22.3504 6.28903 22.2806 6.21937L20.0306 3.96937C19.8899 3.82864 19.699 3.74958 19.5 3.74958C19.301 3.74958 19.1101 3.82864 18.9694 3.96937C18.8286 4.1101 18.7496 4.30097 18.7496 4.5C18.7496 4.69902 18.8286 4.88989 18.9694 5.03062L19.9397 6H18.8381C17.7639 6.00089 16.7053 6.25775 15.75 6.7493C14.7948 7.24085 13.9705 7.95293 13.3453 8.82656L13.2328 8.98312C13.1752 9.06327 13.134 9.15401 13.1116 9.25011C13.0891 9.34622 13.0858 9.44582 13.102 9.54319C13.1181 9.64056 13.1532 9.73379 13.2055 9.81754C13.2577 9.9013 13.3259 9.97392 13.4062 10.0312ZM10.5938 13.9687C10.5136 13.9115 10.423 13.8706 10.327 13.8484C10.2311 13.8262 10.1317 13.8231 10.0345 13.8392C9.93736 13.8554 9.84434 13.8906 9.76078 13.9427C9.67722 13.9949 9.60475 14.063 9.5475 14.1431L9.435 14.2997C8.94883 14.9796 8.30761 15.5339 7.56448 15.9165C6.82136 16.2992 5.99773 16.4992 5.16188 16.5H3C2.80109 16.5 2.61032 16.579 2.46967 16.7197C2.32902 16.8603 2.25 17.0511 2.25 17.25C2.25 17.4489 2.32902 17.6397 2.46967 17.7803C2.61032 17.921 2.80109 18 3 18H5.16188C6.23615 17.9991 7.29474 17.7422 8.24996 17.2507C9.20518 16.7591 10.0295 16.0471 10.6547 15.1734L10.7672 15.0169C10.8248 14.9367 10.866 14.846 10.8884 14.7499C10.9109 14.6538 10.9142 14.5542 10.898 14.4568C10.8819 14.3594 10.8468 14.2662 10.7945 14.1825C10.7423 14.0987 10.6741 14.0261 10.5938 13.9687Z" fill="#343330"/>
</svg>
