<svg width="24" height="24" viewBox="0 0 24 24" fill="none" xmlns="http://www.w3.org/2000/svg">
<path d="M18.7322 3.1875C18.4979 3.05769 18.2332 2.99296 17.9654 3.00005C17.6977 3.00714 17.4368 3.08579 17.2097 3.22782L6 10.2403V3.75C6 3.55109 5.92098 3.36033 5.78033 3.21967C5.63968 3.07902 5.44891 3 5.25 3C5.05109 3 4.86032 3.07902 4.71967 3.21967C4.57902 3.36033 4.5 3.55109 4.5 3.75V20.25C4.5 20.4489 4.57902 20.6397 4.71967 20.7803C4.86032 20.921 5.05109 21 5.25 21C5.44891 21 5.63968 20.921 5.78033 20.7803C5.92098 20.6397 6 20.4489 6 20.25V13.7597L17.2097 20.7703C17.4354 20.912 17.695 20.9908 17.9614 20.9985C18.2278 21.0063 18.4915 20.9426 18.7251 20.8142C18.9586 20.6858 19.1536 20.4973 19.2899 20.2682C19.4261 20.0391 19.4987 19.7778 19.5 19.5113V4.48875C19.5 4.22304 19.4287 3.96218 19.2937 3.73333C19.1587 3.50449 18.9648 3.31601 18.7322 3.1875ZM18 19.5L6.015 12L18 4.50657V19.5Z" fill="#343330"/>
</svg>
