<svg width="24" height="24" viewBox="0 0 24 24" fill="none" xmlns="http://www.w3.org/2000/svg">
<path d="M16.5 13.125C16.5 13.3476 16.434 13.5651 16.3104 13.7501C16.1868 13.9351 16.0111 14.0793 15.8055 14.1644C15.6 14.2496 15.3738 14.2718 15.1555 14.2284C14.9373 14.185 14.7369 14.0779 14.5795 13.9205C14.4222 13.7632 14.315 13.5628 14.2716 13.3445C14.2282 13.1263 14.2505 12.9001 14.3356 12.6945C14.4208 12.489 14.565 12.3133 14.75 12.1896C14.935 12.066 15.1525 12 15.375 12C15.6734 12 15.9595 12.1186 16.1705 12.3296C16.3815 12.5405 16.5 12.8267 16.5 13.125ZM12 8.62505C12 8.40254 11.934 8.18504 11.8104 8.00003C11.6868 7.81503 11.5111 7.67083 11.3055 7.58568C11.1 7.50053 10.8738 7.47826 10.6555 7.52166C10.4373 7.56507 10.2368 7.67222 10.0795 7.82955C9.92218 7.98689 9.81503 8.18734 9.77163 8.40557C9.72822 8.6238 9.7505 8.85 9.83564 9.05557C9.92079 9.26113 10.065 9.43683 10.25 9.56045C10.435 9.68407 10.6525 9.75005 10.875 9.75005C11.1734 9.75005 11.4595 9.63152 11.6705 9.42054C11.8815 9.20956 12 8.92342 12 8.62505ZM18.8438 5.06255C17.0364 3.30534 14.6186 2.31644 12.0978 2.30335C9.57706 2.29027 7.14918 3.25401 5.32363 4.99235C3.49808 6.7307 2.41676 9.10854 2.30654 11.6269C2.19633 14.1453 3.0658 16.6086 4.73251 18.4997C4.79768 18.5749 4.87716 18.6364 4.96632 18.6805C5.05547 18.7247 5.15253 18.7507 5.25182 18.757C5.35112 18.7633 5.45067 18.7497 5.54469 18.7172C5.6387 18.6846 5.7253 18.6336 5.79943 18.5673C5.87356 18.5009 5.93375 18.4205 5.97649 18.3306C6.01923 18.2408 6.04367 18.1433 6.04837 18.0439C6.05308 17.9446 6.03797 17.8452 6.00391 17.7518C5.96985 17.6583 5.91754 17.5725 5.85001 17.4994C4.78838 16.3123 4.09302 14.8433 3.84787 13.2698C3.60272 11.6962 3.81826 10.0853 4.46846 8.63152C5.11866 7.17775 6.17574 5.94323 7.51211 5.07699C8.84847 4.21075 10.407 3.74981 11.9995 3.74981C13.5921 3.74981 15.1506 4.21075 16.487 5.07699C17.8233 5.94323 18.8804 7.17775 19.5306 8.63152C20.1808 10.0853 20.3964 11.6962 20.1512 13.2698C19.9061 14.8433 19.2107 16.3123 18.1491 17.4994C18.0164 17.6477 17.9481 17.8427 17.9592 18.0413C17.9703 18.24 18.0598 18.4261 18.2081 18.5588C18.3564 18.6914 18.5514 18.7597 18.7501 18.7487C18.9487 18.7376 19.1349 18.648 19.2675 18.4997C20.9348 16.6335 21.8207 14.1977 21.7419 11.6964C21.663 9.19515 20.6253 6.81997 18.8438 5.06255ZM14.25 15.75H12.75C10.7119 15.75 8.25001 14.0775 8.25001 12C8.25021 11.7902 8.26746 11.5808 8.30157 11.3738C8.31883 11.2762 8.31658 11.1762 8.29496 11.0795C8.27334 10.9828 8.23278 10.8914 8.17561 10.8105C8.11845 10.7295 8.04582 10.6608 7.96192 10.6081C7.87802 10.5554 7.78451 10.5198 7.68679 10.5035C7.58907 10.4871 7.48908 10.4903 7.3926 10.5128C7.29611 10.5353 7.20504 10.5767 7.12465 10.6346C7.04426 10.6926 6.97615 10.7658 6.92423 10.8502C6.87232 10.9346 6.83764 11.0284 6.8222 11.1263C6.7742 11.4151 6.75006 11.7073 6.75001 12C6.75001 13.395 7.44938 14.731 8.71876 15.7641C9.88126 16.7082 11.3503 17.25 12.75 17.25H14.25C14.4489 17.25 14.6397 17.3291 14.7803 17.4697C14.921 17.6104 15 17.8011 15 18C15 18.199 14.921 18.3897 14.7803 18.5304C14.6397 18.671 14.4489 18.75 14.25 18.75H9.00001C8.40327 18.75 7.83098 18.9871 7.40902 19.4091C6.98706 19.831 6.75001 20.4033 6.75001 21C6.75001 21.5968 6.98706 22.1691 7.40902 22.591C7.83098 23.013 8.40327 23.25 9.00001 23.25C9.19892 23.25 9.38969 23.171 9.53034 23.0304C9.67099 22.8897 9.75001 22.699 9.75001 22.5C9.75001 22.3011 9.67099 22.1104 9.53034 21.9697C9.38969 21.8291 9.19892 21.75 9.00001 21.75C8.8011 21.75 8.61033 21.671 8.46968 21.5304C8.32903 21.3897 8.25001 21.199 8.25001 21C8.25001 20.8011 8.32903 20.6104 8.46968 20.4697C8.61033 20.3291 8.8011 20.25 9.00001 20.25H14.25C14.8467 20.25 15.419 20.013 15.841 19.591C16.263 19.1691 16.5 18.5968 16.5 18C16.5 17.4033 16.263 16.831 15.841 16.4091C15.419 15.9871 14.8467 15.75 14.25 15.75Z" fill="#343330"/>
</svg>
