<svg width="24" height="24" viewBox="0 0 24 24" fill="none" xmlns="http://www.w3.org/2000/svg">
<path d="M12 2.25C10.0716 2.25 8.18657 2.82183 6.58319 3.89317C4.97981 4.96451 3.73013 6.48726 2.99217 8.26884C2.25422 10.0504 2.06113 12.0108 2.43734 13.9021C2.81355 15.7934 3.74214 17.5307 5.10571 18.8943C6.46927 20.2579 8.20655 21.1865 10.0979 21.5627C11.9892 21.9389 13.9496 21.7458 15.7312 21.0078C17.5127 20.2699 19.0355 19.0202 20.1068 17.4168C21.1782 15.8134 21.75 13.9284 21.75 12C21.7473 9.41498 20.7192 6.93661 18.8913 5.10872C17.0634 3.28084 14.585 2.25273 12 2.25ZM15.9722 13.4269L17.7478 12.7931C17.8406 12.76 17.9391 12.7455 18.0375 12.7504C18.136 12.7554 18.2325 12.7796 18.3215 12.8218C18.4106 12.8641 18.4904 12.9234 18.5566 12.9965C18.6227 13.0696 18.6738 13.155 18.7069 13.2478C18.74 13.3406 18.7545 13.4391 18.7496 13.5375C18.7446 13.636 18.7204 13.7325 18.6782 13.8215C18.6359 13.9106 18.5766 13.9904 18.5035 14.0566C18.4304 14.1227 18.345 14.1738 18.2522 14.2069L16.8009 14.7244L17.2247 16.3059C17.2502 16.4011 17.2567 16.5004 17.2439 16.5981C17.231 16.6957 17.199 16.7899 17.1497 16.8753C17.1005 16.9606 17.0348 17.0353 16.9567 17.0953C16.8785 17.1553 16.7892 17.1992 16.6941 17.2247C16.6307 17.2413 16.5655 17.2498 16.5 17.25C16.3348 17.2501 16.1743 17.1956 16.0433 17.0951C15.9122 16.9945 15.818 16.8536 15.7753 16.6941L15.2531 14.7441L12.75 13.2994V16.1897L14.0306 17.4694C14.1003 17.5391 14.1556 17.6218 14.1933 17.7128C14.231 17.8039 14.2504 17.9015 14.2504 18C14.2504 18.0985 14.231 18.1961 14.1933 18.2872C14.1556 18.3782 14.1003 18.4609 14.0306 18.5306C13.9609 18.6003 13.8782 18.6556 13.7872 18.6933C13.6961 18.731 13.5985 18.7504 13.5 18.7504C13.4015 18.7504 13.3039 18.731 13.2128 18.6933C13.1218 18.6556 13.0391 18.6003 12.9694 18.5306L12 17.5603L11.0306 18.5306C10.9609 18.6003 10.8782 18.6556 10.7872 18.6933C10.6961 18.731 10.5985 18.7504 10.5 18.7504C10.4015 18.7504 10.3039 18.731 10.2128 18.6933C10.1218 18.6556 10.0391 18.6003 9.96937 18.5306C9.89969 18.4609 9.84441 18.3782 9.8067 18.2872C9.76899 18.1961 9.74958 18.0985 9.74958 18C9.74958 17.9015 9.76899 17.8039 9.8067 17.7128C9.84441 17.6218 9.89969 17.5391 9.96937 17.4694L11.25 16.1897V13.2994L8.74687 14.7441L8.22468 16.6941C8.18195 16.8536 8.08776 16.9945 7.95673 17.0951C7.82569 17.1956 7.66515 17.2501 7.5 17.25C7.4345 17.2498 7.36929 17.2413 7.30593 17.2247C7.21075 17.1992 7.12152 17.1553 7.04333 17.0953C6.96515 17.0353 6.89954 16.9606 6.85026 16.8753C6.80099 16.7899 6.769 16.6957 6.75614 16.5981C6.74328 16.5004 6.74979 16.4011 6.77531 16.3059L7.19906 14.7244L5.74781 14.2069C5.56033 14.14 5.40711 14.0014 5.32184 13.8215C5.23657 13.6417 5.22624 13.4353 5.29312 13.2478C5.36001 13.0603 5.49863 12.9071 5.67848 12.8218C5.85834 12.7366 6.06471 12.7262 6.25218 12.7931L8.02781 13.4269L10.5 12L8.02781 10.5731L6.25218 11.2069C6.17113 11.2353 6.08588 11.2498 6 11.25C5.823 11.2504 5.65158 11.1881 5.51606 11.0743C5.38053 10.9604 5.28964 10.8023 5.25945 10.6279C5.22926 10.4535 5.26172 10.2741 5.3511 10.1213C5.44047 9.96852 5.58099 9.85228 5.74781 9.79313L7.19906 9.27563L6.77531 7.69406C6.72384 7.50186 6.75083 7.29709 6.85034 7.12479C6.94985 6.95249 7.11374 6.82678 7.30593 6.77531C7.49813 6.72384 7.70291 6.75083 7.87521 6.85035C8.0475 6.94986 8.17322 7.11374 8.22468 7.30594L8.74687 9.25594L11.25 10.7006V7.81031L9.96937 6.53063C9.82864 6.38989 9.74958 6.19902 9.74958 6C9.74958 5.80098 9.82864 5.61011 9.96937 5.46938C10.1101 5.32864 10.301 5.24958 10.5 5.24958C10.699 5.24958 10.8899 5.32864 11.0306 5.46938L12 6.43969L12.9694 5.46938C13.0391 5.39969 13.1218 5.34442 13.2128 5.3067C13.3039 5.26899 13.4015 5.24958 13.5 5.24958C13.5985 5.24958 13.6961 5.26899 13.7872 5.3067C13.8782 5.34442 13.9609 5.39969 14.0306 5.46938C14.1003 5.53906 14.1556 5.62178 14.1933 5.71283C14.231 5.80387 14.2504 5.90145 14.2504 6C14.2504 6.09855 14.231 6.19613 14.1933 6.28717C14.1556 6.37822 14.1003 6.46094 14.0306 6.53063L12.75 7.81031V10.7006L15.2531 9.25594L15.7753 7.30594C15.8268 7.11374 15.9525 6.94986 16.1248 6.85035C16.2971 6.75083 16.5019 6.72384 16.6941 6.77531C16.8863 6.82678 17.0501 6.95249 17.1497 7.12479C17.2492 7.29709 17.2762 7.50186 17.2247 7.69406L16.8009 9.27563L18.2522 9.79313C18.419 9.85228 18.5595 9.96852 18.6489 10.1213C18.7383 10.2741 18.7707 10.4535 18.7405 10.6279C18.7104 10.8023 18.6195 10.9604 18.4839 11.0743C18.3484 11.1881 18.177 11.2504 18 11.25C17.9141 11.2498 17.8289 11.2353 17.7478 11.2069L15.9722 10.5731L13.5 12L15.9722 13.4269Z" fill="#343330"/>
</svg>
