<svg width="24" height="24" viewBox="0 0 24 24" fill="none" xmlns="http://www.w3.org/2000/svg">
<path d="M20.9784 14.071C21.002 14.1666 21.0064 14.266 20.9915 14.3634C20.9767 14.4608 20.9428 14.5543 20.8917 14.6385C20.8407 14.7228 20.7736 14.7962 20.6942 14.8545C20.6148 14.9129 20.5247 14.955 20.4291 14.9785L18.1191 15.541L18.7247 17.8013C18.7502 17.8965 18.7567 17.9957 18.7438 18.0934C18.731 18.1911 18.699 18.2853 18.6497 18.3706C18.6005 18.4559 18.5348 18.5307 18.4567 18.5907C18.3785 18.6506 18.2892 18.6946 18.1941 18.7201C18.1309 18.7383 18.0657 18.7483 18 18.7501C17.835 18.7499 17.6747 18.6953 17.5438 18.5948C17.413 18.4943 17.3189 18.3535 17.2762 18.1941L16.5525 15.4941L12.75 13.2994V17.6897L14.7806 19.7194C14.8503 19.7891 14.9056 19.8718 14.9433 19.9629C14.981 20.0539 15.0004 20.1515 15.0004 20.2501C15.0004 20.3486 14.981 20.4462 14.9433 20.5372C14.9056 20.6283 14.8503 20.711 14.7806 20.7807C14.7109 20.8504 14.6282 20.9056 14.5372 20.9433C14.4461 20.9811 14.3485 21.0005 14.25 21.0005C14.1514 21.0005 14.0539 20.9811 13.9628 20.9433C13.8718 20.9056 13.7891 20.8504 13.7194 20.7807L12 19.0604L10.2806 20.7807C10.2109 20.8504 10.1282 20.9056 10.0372 20.9433C9.94612 20.9811 9.84854 21.0005 9.74999 21.0005C9.65145 21.0005 9.55387 20.9811 9.46282 20.9433C9.37178 20.9056 9.28905 20.8504 9.21937 20.7807C9.14969 20.711 9.09441 20.6283 9.0567 20.5372C9.01899 20.4462 8.99958 20.3486 8.99958 20.2501C8.99958 20.1515 9.01899 20.0539 9.0567 19.9629C9.09441 19.8718 9.14969 19.7891 9.21937 19.7194L11.25 17.6897V13.2994L7.44843 15.4941L6.72468 18.1941C6.68195 18.3536 6.58776 18.4946 6.45673 18.5951C6.32569 18.6956 6.16514 18.7501 5.99999 18.7501C5.93418 18.7499 5.86865 18.7414 5.80499 18.7247C5.70981 18.6993 5.62058 18.6553 5.54239 18.5954C5.46421 18.5354 5.3986 18.4606 5.34932 18.3753C5.30005 18.29 5.26806 18.1958 5.2552 18.0981C5.24234 18.0004 5.24885 17.9012 5.27437 17.806L5.87999 15.5457L3.56999 14.9832C3.3768 14.9357 3.21039 14.8134 3.10736 14.6432C3.00433 14.473 2.97313 14.2689 3.02062 14.0757C3.06811 13.8825 3.1904 13.7161 3.36059 13.613C3.53078 13.51 3.73493 13.4788 3.92812 13.5263L6.68906 14.2041L10.5 12.0001L6.68999 9.80068L3.92906 10.4785C3.87048 10.493 3.81034 10.5002 3.74999 10.5001C3.56661 10.5002 3.38953 10.4331 3.25224 10.3115C3.11496 10.1899 3.02697 10.0223 3.00492 9.84023C2.98287 9.65817 3.02828 9.47435 3.13258 9.32351C3.23687 9.17267 3.39282 9.06527 3.57093 9.02161L5.88093 8.45911L5.27531 6.19411C5.22384 6.00191 5.25083 5.79714 5.35034 5.62484C5.44985 5.45254 5.61373 5.32683 5.80593 5.27536C5.99813 5.22389 6.2029 5.25089 6.3752 5.3504C6.5475 5.44991 6.67321 5.61379 6.72468 5.80599L7.44843 8.50599L11.25 10.7007V6.31036L9.21937 4.28068C9.07864 4.13995 8.99958 3.94907 8.99958 3.75005C8.99958 3.6515 9.01899 3.55392 9.0567 3.46288C9.09441 3.37183 9.14969 3.28911 9.21937 3.21943C9.28905 3.14974 9.37178 3.09447 9.46282 3.05676C9.55387 3.01904 9.65145 2.99963 9.74999 2.99963C9.94902 2.99963 10.1399 3.0787 10.2806 3.21943L12 4.93974L13.7194 3.21943C13.8601 3.0787 14.051 2.99963 14.25 2.99963C14.449 2.99963 14.6399 3.0787 14.7806 3.21943C14.9214 3.36016 15.0004 3.55103 15.0004 3.75005C15.0004 3.94907 14.9214 4.13995 14.7806 4.28068L12.75 6.31036V10.7007L16.5516 8.50599L17.2753 5.80599C17.3268 5.61379 17.4525 5.44991 17.6248 5.3504C17.7971 5.25089 18.0019 5.22389 18.1941 5.27536C18.3863 5.32683 18.5501 5.45254 18.6496 5.62484C18.7492 5.79714 18.7762 6.00191 18.7247 6.19411L18.1191 8.45443L20.4291 9.01693C20.6121 9.05603 20.774 9.16218 20.8828 9.31454C20.9916 9.46689 21.0394 9.65442 21.017 9.84028C20.9946 10.0261 20.9034 10.1969 20.7615 10.319C20.6196 10.4411 20.4371 10.5056 20.25 10.5001C20.1896 10.5002 20.1295 10.493 20.0709 10.4785L17.31 9.80068L13.5 12.0001L17.31 14.1994L20.0709 13.5216C20.1666 13.4981 20.266 13.4936 20.3633 13.5085C20.4607 13.5234 20.5542 13.5573 20.6385 13.6083C20.7228 13.6593 20.7962 13.7264 20.8545 13.8058C20.9128 13.8852 20.9549 13.9753 20.9784 14.071Z" fill="#343330"/>
</svg>
