<svg width="24" height="24" viewBox="0 0 24 24" fill="none" xmlns="http://www.w3.org/2000/svg">
<path d="M14.5791 2.32594C14.4529 2.26448 14.3121 2.23963 14.1726 2.25422C14.033 2.2688 13.9004 2.32223 13.7897 2.40844L7.24219 7.5H3C2.60218 7.5 2.22064 7.65804 1.93934 7.93934C1.65804 8.22065 1.5 8.60218 1.5 9V15C1.5 15.3978 1.65804 15.7794 1.93934 16.0607C2.22064 16.342 2.60218 16.5 3 16.5H7.24219L13.7897 21.5916C13.9005 21.6777 14.0332 21.731 14.1728 21.7455C14.3124 21.7599 14.4533 21.7349 14.5793 21.6733C14.7054 21.6116 14.8117 21.5159 14.8861 21.3969C14.9604 21.2778 14.9999 21.1403 15 21V3C15 2.8595 14.9606 2.72181 14.8861 2.60263C14.8117 2.48346 14.7053 2.38759 14.5791 2.32594ZM3 9H6.75V15H3V9ZM13.5 19.4663L8.25 15.3834V8.61656L13.5 4.53375V19.4663Z" fill="#343330"/>
</svg>
