<svg width="24" height="24" viewBox="0 0 24 24" fill="none" xmlns="http://www.w3.org/2000/svg">
<path d="M18.8972 5.10563C17.5336 3.74209 15.7963 2.81352 13.905 2.43733C12.0137 2.06114 10.0533 2.25424 8.27177 2.9922C6.49021 3.73016 4.96748 4.97985 3.89615 6.58322C2.82481 8.18659 2.25299 10.0716 2.25299 12C2.25299 13.9284 2.82481 15.8134 3.89615 17.4168C4.96748 19.0202 6.49021 20.2698 8.27177 21.0078C10.0533 21.7458 12.0137 21.9389 13.905 21.5627C15.7963 21.1865 17.5336 20.2579 18.8972 18.8944C19.8093 17.9928 20.5335 16.9192 21.0278 15.7357C21.522 14.5523 21.7765 13.2825 21.7765 12C21.7765 10.7175 21.522 9.44772 21.0278 8.26427C20.5335 7.08081 19.8093 6.0072 18.8972 5.10563ZM6.16407 6.16594C7.51404 4.81414 9.29294 3.97508 11.1947 3.79313C11.0114 5.69481 10.1687 7.47246 8.81251 8.81813C7.46502 10.1719 5.68701 11.0125 3.78564 11.1947C3.96915 9.29275 4.81027 7.51437 6.16407 6.16594ZM3.78095 12.7013C6.0839 12.5174 8.24522 11.5162 9.8747 9.87844C11.5135 8.24949 12.5154 6.088 12.6994 3.78469C14.6383 3.94634 16.4572 4.78971 17.8333 6.16512C19.2094 7.54053 20.0536 9.35901 20.2163 11.2978C17.9141 11.4863 15.7537 12.486 14.1199 14.1188C12.486 15.7516 11.485 17.9114 11.295 20.2134C9.35613 20.0518 7.53722 19.2084 6.16112 17.833C4.78502 16.4576 3.94075 14.6391 3.77814 12.7003L3.78095 12.7013ZM17.8359 17.8341C16.4857 19.1855 14.707 20.0245 12.8053 20.2069C12.9926 18.3067 13.8332 16.5303 15.1838 15.1806C16.5343 13.8309 18.3113 12.9914 20.2116 12.8053C20.0288 14.7069 19.1887 16.4852 17.8359 17.8341Z" fill="#343330"/>
</svg>
