<svg width="24" height="24" viewBox="0 0 24 24" fill="none" xmlns="http://www.w3.org/2000/svg">
<path d="M5.68031 16.4287C5.76944 16.4708 5.86598 16.4948 5.9644 16.4995C6.06283 16.5042 6.16121 16.4894 6.25393 16.4561C6.34666 16.4227 6.4319 16.3715 6.50479 16.3052C6.57768 16.2389 6.6368 16.1588 6.67875 16.0697L8.24063 12.75H15.7594L17.3212 16.0697C17.3632 16.1588 17.4224 16.2388 17.4953 16.3051C17.5682 16.3714 17.6534 16.4226 17.7461 16.456C17.8388 16.4893 17.9372 16.5041 18.0356 16.4994C18.134 16.4947 18.2306 16.4707 18.3197 16.4287C18.4088 16.3868 18.4888 16.3276 18.5551 16.2547C18.6214 16.1818 18.6727 16.0966 18.706 16.0039C18.7393 15.9112 18.7541 15.8128 18.7494 15.7144C18.7447 15.616 18.7207 15.5194 18.6788 15.4303L12.6788 2.6803C12.6182 2.55145 12.5222 2.44251 12.402 2.36619C12.2818 2.28988 12.1424 2.24936 12 2.24936C11.8576 2.24936 11.7182 2.28988 11.598 2.36619C11.4778 2.44251 11.3818 2.55145 11.3212 2.6803L5.32125 15.4303C5.27923 15.5194 5.25519 15.616 5.25049 15.7144C5.2458 15.8128 5.26055 15.9112 5.29389 16.0039C5.32724 16.0966 5.37853 16.1819 5.44483 16.2548C5.51114 16.3277 5.59115 16.3868 5.68031 16.4287ZM12 4.76155L15.0534 11.25H8.94656L12 4.76155ZM21 20.25C21 20.4489 20.921 20.6397 20.7803 20.7803C20.6397 20.921 20.4489 21 20.25 21H3.75C3.55109 21 3.36032 20.921 3.21967 20.7803C3.07902 20.6397 3 20.4489 3 20.25C3 20.0511 3.07902 19.8603 3.21967 19.7197C3.36032 19.579 3.55109 19.5 3.75 19.5H20.25C20.4489 19.5 20.6397 19.579 20.7803 19.7197C20.921 19.8603 21 20.0511 21 20.25Z" fill="#343330"/>
</svg>
