<svg width="24" height="24" viewBox="0 0 24 24" fill="none" xmlns="http://www.w3.org/2000/svg">
<path d="M18.5719 5.86777C18.0293 4.57238 17.116 3.46621 15.9468 2.68825C14.7775 1.91029 13.4044 1.49524 12 1.49524C10.5956 1.49524 9.22247 1.91029 8.0532 2.68825C6.88394 3.46621 5.97066 4.57238 5.42812 5.86777C4.25644 6.40331 3.2633 7.26421 2.5669 8.34803C1.8705 9.43185 1.50018 10.6929 1.49999 11.9812C1.49062 15.5625 4.49999 18.6562 8.07562 18.75C9.17543 18.7765 10.2651 18.5342 11.25 18.044V21.75C11.25 21.9489 11.329 22.1396 11.4697 22.2803C11.6103 22.4209 11.8011 22.5 12 22.5C12.1989 22.5 12.3897 22.4209 12.5303 22.2803C12.671 22.1396 12.75 21.9489 12.75 21.75V18.044C13.6824 18.507 14.709 18.7486 15.75 18.75H15.9206C19.5 18.6562 22.5103 15.5625 22.5 11.9812C22.4998 10.6929 22.1295 9.43185 21.4331 8.34803C20.7367 7.26421 19.7435 6.40331 18.5719 5.86777ZM15.8859 17.25C14.7675 17.2791 13.6689 16.9507 12.75 16.3125V12.4687L16.8356 10.4268C16.9238 10.3828 17.0024 10.3218 17.0669 10.2473C17.1315 10.1728 17.1808 10.0864 17.212 9.99291C17.2431 9.89941 17.2556 9.80069 17.2486 9.70238C17.2416 9.60408 17.2153 9.50811 17.1712 9.41996C17.1272 9.33181 17.0662 9.2532 16.9917 9.18863C16.9173 9.12406 16.8308 9.07478 16.7373 9.04361C16.6438 9.01245 16.5451 9 16.4468 9.00699C16.3485 9.01398 16.2525 9.04026 16.1644 9.08433L12.75 10.7868V8.24996C12.75 8.05105 12.671 7.86028 12.5303 7.71963C12.3897 7.57898 12.1989 7.49996 12 7.49996C11.8011 7.49996 11.6103 7.57898 11.4697 7.71963C11.329 7.86028 11.25 8.05105 11.25 8.24996V13.0368L7.83562 11.3287C7.65759 11.2397 7.45149 11.225 7.26267 11.288C7.07384 11.3509 6.91775 11.4863 6.82874 11.6643C6.73973 11.8424 6.72508 12.0485 6.78802 12.2373C6.85096 12.4261 6.98634 12.5822 7.16437 12.6712L11.25 14.7131V16.3068C10.3313 16.9455 9.23256 17.274 8.11405 17.2443C5.33437 17.1778 2.99249 14.7675 2.99999 11.985C2.99928 10.9385 3.3126 9.91591 3.89942 9.04947C4.48624 8.18303 5.31955 7.51262 6.29155 7.12496C6.38906 7.0858 6.47725 7.0266 6.55041 6.95117C6.62358 6.87575 6.68007 6.7858 6.71624 6.68715C7.11185 5.60376 7.83092 4.66817 8.77604 4.00713C9.72116 3.34609 10.8466 2.99155 12 2.99155C13.1533 2.99155 14.2788 3.34609 15.2239 4.00713C16.1691 4.66817 16.8881 5.60376 17.2837 6.68715C17.3199 6.7858 17.3764 6.87575 17.4496 6.95117C17.5227 7.0266 17.6109 7.0858 17.7084 7.12496C18.6803 7.51283 19.5135 8.1833 20.1002 9.04969C20.687 9.91608 21.0004 10.9386 21 11.985C21.0075 14.7675 18.6656 17.1778 15.8859 17.25Z" fill="#343330"/>
</svg>
