<svg width="24" height="24" viewBox="0 0 24 24" fill="none" xmlns="http://www.w3.org/2000/svg">
<path d="M21.5925 17.5397L17.28 12H19.5C19.6401 12 19.7774 11.9608 19.8963 11.8868C20.0153 11.8127 20.1111 11.7069 20.173 11.5812C20.2349 11.4555 20.2603 11.315 20.2464 11.1756C20.2325 11.0362 20.1798 10.9035 20.0944 10.7925L12.5944 1.04247C12.5243 0.951445 12.4343 0.877722 12.3313 0.826991C12.2282 0.776261 12.1149 0.749878 12 0.749878C11.8852 0.749878 11.7718 0.776261 11.6688 0.826991C11.5657 0.877722 11.4757 0.951445 11.4056 1.04247L3.90564 10.7925C3.82018 10.9035 3.76753 11.0362 3.75364 11.1756C3.73975 11.315 3.76517 11.4555 3.82704 11.5812C3.88891 11.7069 3.98475 11.8127 4.10369 11.8868C4.22263 11.9608 4.35992 12 4.50001 12H6.71626L2.40376 17.5397C2.31738 17.6508 2.26401 17.7839 2.24974 17.924C2.23548 18.064 2.2609 18.2052 2.32309 18.3314C2.38529 18.4577 2.48175 18.5639 2.60146 18.6379C2.72116 18.7119 2.85928 18.7507 3.00001 18.75H11.25V22.5C11.25 22.6989 11.329 22.8897 11.4697 23.0303C11.6103 23.171 11.8011 23.25 12 23.25C12.1989 23.25 12.3897 23.171 12.5303 23.0303C12.671 22.8897 12.75 22.6989 12.75 22.5V18.75H21C21.1404 18.75 21.278 18.7107 21.3972 18.6364C21.5164 18.5621 21.6123 18.4559 21.674 18.3297C21.7357 18.2036 21.7608 18.0627 21.7464 17.923C21.732 17.7833 21.6787 17.6505 21.5925 17.5397ZM4.53376 17.25L8.84626 11.7103C8.93264 11.5992 8.98602 11.466 9.00028 11.326C9.01455 11.186 8.98913 11.0448 8.92694 10.9185C8.86474 10.7923 8.76828 10.6861 8.64857 10.6121C8.52887 10.538 8.39075 10.4992 8.25001 10.5H6.02345L12 2.72997L17.9766 10.5H15.75C15.6097 10.5001 15.4722 10.5396 15.3532 10.6139C15.2341 10.6883 15.1384 10.7945 15.0768 10.9206C15.0151 11.0467 14.9901 11.1876 15.0046 11.3272C15.019 11.4667 15.0723 11.5995 15.1585 11.7103L19.4663 17.25H4.53376Z" fill="#343330"/>
</svg>
