<svg width="24" height="24" viewBox="0 0 24 24" fill="none" xmlns="http://www.w3.org/2000/svg">
<path d="M21.6741 18.329C21.6124 18.4553 21.5165 18.5617 21.3974 18.6361C21.2782 18.7105 21.1405 18.75 21 18.75H12.75V22.5C12.75 22.6989 12.671 22.8897 12.5303 23.0303C12.3897 23.171 12.1989 23.25 12 23.25C11.8011 23.25 11.6103 23.171 11.4697 23.0303C11.329 22.8897 11.25 22.6989 11.25 22.5V18.75H3C2.85966 18.7499 2.72217 18.7104 2.60315 18.636C2.48414 18.5617 2.38837 18.4554 2.32674 18.3293C2.26512 18.2032 2.2401 18.0624 2.25455 17.9228C2.26899 17.7832 2.32231 17.6505 2.40844 17.5397L6.72094 12H4.5C4.35991 12 4.22262 11.9608 4.10368 11.8868C3.98473 11.8127 3.8889 11.7069 3.82703 11.5812C3.76516 11.4555 3.73973 11.315 3.75362 11.1756C3.76752 11.0362 3.82017 10.9035 3.90563 10.7925L11.4056 1.04247C11.4757 0.951445 11.5657 0.877722 11.6688 0.826991C11.7718 0.776261 11.8851 0.749878 12 0.749878C12.1149 0.749878 12.2282 0.776261 12.3312 0.826991C12.4343 0.877722 12.5243 0.951445 12.5944 1.04247L20.0944 10.7925C20.1798 10.9035 20.2325 11.0362 20.2464 11.1756C20.2603 11.315 20.2348 11.4555 20.173 11.5812C20.1111 11.7069 20.0153 11.8127 19.8963 11.8868C19.7774 11.9608 19.6401 12 19.5 12H17.2838L21.5916 17.5397C21.6778 17.6504 21.7312 17.783 21.7458 17.9225C21.7604 18.0621 21.7355 18.2029 21.6741 18.329Z" fill="#343330"/>
</svg>
