<svg width="24" height="24" viewBox="0 0 24 24" fill="none" xmlns="http://www.w3.org/2000/svg">
<path d="M12 17.6109C12.2405 17.7711 12.491 17.9158 12.75 18.044V21.75C12.75 21.9489 12.671 22.1396 12.5303 22.2803C12.3897 22.4209 12.1989 22.5 12 22.5C11.8011 22.5 11.6103 22.4209 11.4697 22.2803C11.329 22.1396 11.25 21.9489 11.25 21.75V18.044C11.509 17.9158 11.7595 17.7711 12 17.6109ZM18.5719 5.86777C18.0293 4.57238 17.1161 3.46621 15.9468 2.68825C14.7775 1.91029 13.4044 1.49524 12 1.49524C10.5956 1.49524 9.22248 1.91029 8.05322 2.68825C6.88395 3.46621 5.97068 4.57238 5.42813 5.86777C4.25645 6.40331 3.26331 7.26421 2.56692 8.34803C1.87052 9.43185 1.50019 10.6929 1.50001 11.9812C1.49063 15.5625 4.50001 18.6562 8.07563 18.75C9.17539 18.776 10.2649 18.5337 11.25 18.044V14.7131L7.16438 12.6712C6.98636 12.5822 6.85098 12.4261 6.78804 12.2373C6.7251 12.0485 6.73974 11.8424 6.82876 11.6643C6.91777 11.4863 7.07386 11.3509 7.26268 11.288C7.45151 11.225 7.65761 11.2397 7.83563 11.3287L11.25 13.0368V8.24996C11.25 8.05105 11.329 7.86028 11.4697 7.71963C11.6103 7.57898 11.8011 7.49996 12 7.49996C12.1989 7.49996 12.3897 7.57898 12.5303 7.71963C12.671 7.86028 12.75 8.05105 12.75 8.24996V10.7868L16.1644 9.07871C16.2525 9.03463 16.3485 9.00835 16.4468 9.00137C16.5451 8.99438 16.6438 9.00682 16.7373 9.03799C16.8308 9.06916 16.9173 9.11843 16.9917 9.183C17.0662 9.24758 17.1272 9.32618 17.1713 9.41433C17.2153 9.50248 17.2416 9.59845 17.2486 9.69676C17.2556 9.79506 17.2431 9.89378 17.212 9.98728C17.1808 10.0808 17.1315 10.1672 17.067 10.2417C17.0024 10.3161 16.9238 10.3771 16.8356 10.4212L12.75 12.4631V18.044C13.6824 18.507 14.709 18.7486 15.75 18.75H15.9206C19.5 18.6562 22.5103 15.5625 22.5 11.9812C22.4998 10.6929 22.1295 9.43185 21.4331 8.34803C20.7367 7.26421 19.7436 6.40331 18.5719 5.86777Z" fill="#343330"/>
</svg>
