<svg width="24" height="24" viewBox="0 0 24 24" fill="none" xmlns="http://www.w3.org/2000/svg">
<path d="M20.0484 11.7619L9.54844 23.0119C9.43717 23.1306 9.2903 23.2099 9.12998 23.2379C8.96966 23.2659 8.80461 23.2409 8.65972 23.1668C8.51483 23.0927 8.39796 22.9735 8.32676 22.8272C8.25556 22.6809 8.23388 22.5153 8.265 22.3556L9.63938 15.4809L4.23657 13.4522C4.12053 13.4088 4.01706 13.3373 3.93539 13.2442C3.85372 13.151 3.79639 13.0391 3.76854 12.9184C3.74068 12.7976 3.74316 12.6719 3.77575 12.5524C3.80834 12.4329 3.87004 12.3233 3.95532 12.2334L14.4553 0.983427C14.5666 0.864679 14.7135 0.785344 14.8738 0.757393C15.0341 0.729442 15.1992 0.754392 15.344 0.828478C15.4889 0.902564 15.6058 1.02177 15.677 1.1681C15.7482 1.31443 15.7699 1.47995 15.7388 1.63968L14.3606 8.52186L19.7634 10.5478C19.8786 10.5915 19.9813 10.6629 20.0623 10.7557C20.1433 10.8485 20.2003 10.9598 20.2281 11.0798C20.2559 11.1998 20.2537 11.3248 20.2217 11.4438C20.1897 11.5627 20.1289 11.672 20.0447 11.7619H20.0484Z" fill="#343330"/>
</svg>
