<svg width="24" height="24" viewBox="0 0 24 24" fill="none" xmlns="http://www.w3.org/2000/svg">
<path d="M22.5 11.8716C22.2748 9.24346 21.0705 6.79584 19.1258 5.01379C17.181 3.23174 14.6377 2.24532 12 2.25002C9.36306 2.2465 6.82096 3.23345 4.87721 5.01538C2.93345 6.79731 1.72981 9.24426 1.50469 11.8716C1.48689 12.0787 1.51233 12.2872 1.5794 12.484C1.64648 12.6808 1.75372 12.8614 1.89432 13.0146C2.03492 13.1677 2.20581 13.2899 2.39615 13.3735C2.58649 13.457 2.79212 13.5001 3 13.5H11.25V18.75C11.25 19.5457 11.5661 20.3087 12.1287 20.8713C12.6913 21.4339 13.4543 21.75 14.25 21.75C15.0456 21.75 15.8087 21.4339 16.3713 20.8713C16.9339 20.3087 17.25 19.5457 17.25 18.75C17.25 18.5511 17.171 18.3603 17.0303 18.2197C16.8897 18.079 16.6989 18 16.5 18C16.3011 18 16.1103 18.079 15.9697 18.2197C15.829 18.3603 15.75 18.5511 15.75 18.75C15.75 19.1478 15.592 19.5294 15.3107 19.8107C15.0294 20.092 14.6478 20.25 14.25 20.25C13.8522 20.25 13.4706 20.092 13.1893 19.8107C12.908 19.5294 12.75 19.1478 12.75 18.75V13.5H21C21.2083 13.5008 21.4144 13.4582 21.6053 13.3749C21.7962 13.2916 21.9677 13.1695 22.1088 13.0163C22.2499 12.8631 22.3575 12.6822 22.4249 12.4851C22.4923 12.288 22.5178 12.0791 22.5 11.8716ZM3 12C3.16622 10.068 3.95105 8.24109 5.23797 6.79051C6.5249 5.33994 8.24529 4.34304 10.1437 3.94783C9.045 5.43752 7.67344 8.07283 7.51594 12H3ZM16.4841 12C16.3266 8.07283 14.955 5.43752 13.8591 3.94314C15.7582 4.33802 17.4792 5.3355 18.7658 6.78718C20.0525 8.23886 20.8361 10.0672 21 12H16.4841Z" fill="#343330"/>
</svg>
