<svg width="24" height="24" viewBox="0 0 24 24" fill="none" xmlns="http://www.w3.org/2000/svg">
<path d="M22.5 11.8716C22.3288 9.90836 21.6107 8.03245 20.4271 6.45675C19.2436 4.88106 17.6421 3.66867 15.8044 2.95719C13.9666 2.24572 11.9662 2.06364 10.0302 2.43163C8.09419 2.79963 6.30011 3.70295 4.85156 5.03908C2.91774 6.81564 1.72299 9.25467 1.50469 11.8716C1.48689 12.0787 1.51233 12.2872 1.5794 12.484C1.64648 12.6808 1.75372 12.8614 1.89432 13.0146C2.03492 13.1677 2.20581 13.2899 2.39615 13.3735C2.58649 13.457 2.79212 13.5001 3 13.5H11.25V18.75C11.25 19.5457 11.5661 20.3087 12.1287 20.8713C12.6913 21.4339 13.4543 21.75 14.25 21.75C15.0456 21.75 15.8087 21.4339 16.3713 20.8713C16.9339 20.3087 17.25 19.5457 17.25 18.75C17.25 18.5511 17.171 18.3603 17.0303 18.2197C16.8897 18.079 16.6989 18 16.5 18C16.3011 18 16.1103 18.079 15.9697 18.2197C15.829 18.3603 15.75 18.5511 15.75 18.75C15.75 19.1478 15.592 19.5294 15.3107 19.8107C15.0294 20.092 14.6478 20.25 14.25 20.25C13.8522 20.25 13.4706 20.092 13.1893 19.8107C12.908 19.5294 12.75 19.1478 12.75 18.75V13.5H21C21.2083 13.5008 21.4144 13.4582 21.6053 13.3749C21.7962 13.2916 21.9677 13.1695 22.1088 13.0163C22.2499 12.8631 22.3575 12.6822 22.4249 12.4851C22.4923 12.288 22.5178 12.0791 22.5 11.8716ZM3 12C3.16622 10.068 3.95105 8.24108 5.23797 6.79051C6.5249 5.33994 8.24529 4.34304 10.1437 3.94783C9.045 5.43751 7.67344 8.07283 7.51594 12H3ZM9.01406 12C9.14437 9.11533 10.0012 7.04908 10.7297 5.79001C11.0889 5.16456 11.5148 4.5799 12 4.04626C12.4843 4.57998 12.9093 5.16465 13.2675 5.79001C14.5125 7.94064 14.9062 10.245 14.9831 12H9.01406ZM16.4812 12C16.3237 8.07283 14.9522 5.43751 13.8562 3.94314C15.756 4.33748 17.4775 5.33473 18.7647 6.78646C20.0519 8.23818 20.8359 10.0668 21 12H16.4812Z" fill="#343330"/>
</svg>
