<svg width="24" height="24" viewBox="0 0 24 24" fill="none" xmlns="http://www.w3.org/2000/svg">
<path d="M10.9922 14.8051C11.9974 14.1359 12.7605 13.161 13.1688 12.0245C13.577 10.888 13.6087 9.65036 13.2592 8.49449C12.9096 7.33862 12.1973 6.32593 11.2277 5.60617C10.2581 4.88642 9.08256 4.4978 7.87499 4.4978C6.66741 4.4978 5.4919 4.88642 4.52227 5.60617C3.55264 6.32593 2.84039 7.33862 2.49082 8.49449C2.14126 9.65036 2.17295 10.888 2.5812 12.0245C2.98946 13.161 3.75261 14.1359 4.7578 14.8051C2.93951 15.4752 1.38665 16.7154 0.330923 18.3404C0.275438 18.4229 0.236898 18.5155 0.217543 18.613C0.198188 18.7105 0.198405 18.8109 0.21818 18.9083C0.237956 19.0057 0.276896 19.0982 0.332737 19.1804C0.388577 19.2627 0.460205 19.333 0.543457 19.3873C0.626708 19.4416 0.719922 19.4788 0.817681 19.4967C0.915439 19.5147 1.01579 19.513 1.11291 19.4919C1.21002 19.4707 1.30196 19.4304 1.38338 19.3734C1.4648 19.3164 1.53407 19.2438 1.58717 19.1598C2.26816 18.1124 3.20001 17.2517 4.29808 16.6559C5.39616 16.0601 6.62568 15.748 7.87499 15.748C9.12429 15.748 10.3538 16.0601 11.4519 16.6559C12.55 17.2517 13.4818 18.1124 14.1628 19.1598C14.2728 19.3233 14.4427 19.4369 14.6358 19.4761C14.829 19.5153 15.0297 19.4769 15.1948 19.3693C15.3598 19.2616 15.4759 19.0934 15.5179 18.9008C15.5598 18.7083 15.5243 18.507 15.419 18.3404C14.3633 16.7154 12.8105 15.4752 10.9922 14.8051ZM3.74999 10.1251C3.74999 9.30924 3.99191 8.51171 4.44517 7.83336C4.89843 7.15501 5.54267 6.62629 6.29642 6.31408C7.05016 6.00187 7.87956 5.92018 8.67973 6.07935C9.4799 6.23851 10.2149 6.63138 10.7918 7.20827C11.3687 7.78516 11.7616 8.52017 11.9207 9.32034C12.0799 10.1205 11.9982 10.9499 11.686 11.7037C11.3738 12.4574 10.8451 13.1016 10.1667 13.5549C9.48836 14.0082 8.69083 14.2501 7.87499 14.2501C6.78135 14.2488 5.73286 13.8138 4.95954 13.0405C4.18622 12.2672 3.75123 11.2187 3.74999 10.1251ZM23.4506 19.3782C23.284 19.4868 23.0811 19.5249 22.8865 19.4839C22.6919 19.4429 22.5215 19.3263 22.4128 19.1598C21.7326 18.1118 20.8009 17.2507 19.7026 16.6551C18.6043 16.0596 17.3744 15.7484 16.125 15.7501C15.9261 15.7501 15.7353 15.6711 15.5947 15.5304C15.454 15.3898 15.375 15.199 15.375 15.0001C15.375 14.8012 15.454 14.6104 15.5947 14.4698C15.7353 14.3291 15.9261 14.2501 16.125 14.2501C16.7325 14.2495 17.3323 14.1148 17.8817 13.8555C18.431 13.5962 18.9163 13.2188 19.3029 12.7502C19.6895 12.2817 19.9679 11.7335 20.1181 11.1449C20.2682 10.5563 20.2866 9.94174 20.1717 9.34522C20.0569 8.74871 19.8117 8.18492 19.4537 7.69414C19.0957 7.20337 18.6337 6.79772 18.1008 6.50618C17.5678 6.21464 16.9771 6.04441 16.3707 6.00765C15.7644 5.97089 15.1574 6.0685 14.5931 6.29352C14.5011 6.33329 14.4021 6.35422 14.3018 6.35507C14.2016 6.35591 14.1022 6.33666 14.0096 6.29845C13.9169 6.26024 13.8329 6.20385 13.7624 6.1326C13.6919 6.06135 13.6364 5.9767 13.5992 5.88364C13.5619 5.79058 13.5437 5.691 13.5456 5.59079C13.5476 5.49058 13.5695 5.39177 13.6103 5.3002C13.651 5.20862 13.7097 5.12615 13.7829 5.05764C13.856 4.98913 13.9422 4.93598 14.0362 4.90134C15.3276 4.38632 16.764 4.36779 18.0682 4.84931C19.3724 5.33083 20.4521 6.27829 21.099 7.50891C21.7459 8.73953 21.9141 10.1661 21.5712 11.5134C21.2283 12.8608 20.3986 14.0334 19.2422 14.8051C21.0605 15.4752 22.6133 16.7154 23.669 18.3404C23.7777 18.507 23.8157 18.7099 23.7747 18.9045C23.7338 19.0992 23.6172 19.2695 23.4506 19.3782Z" fill="#343330"/>
</svg>
