<svg width="24" height="24" viewBox="0 0 24 24" fill="none" xmlns="http://www.w3.org/2000/svg">
<path d="M22.95 14.0999C22.8712 14.159 22.7816 14.202 22.6861 14.2265C22.5907 14.2509 22.4914 14.2563 22.3939 14.2424C22.2964 14.2285 22.2026 14.1955 22.1179 14.1453C22.0331 14.0951 21.9591 14.0287 21.9 13.9499C21.448 13.3423 20.8596 12.8493 20.1822 12.5106C19.5048 12.1719 18.7573 11.997 18 11.9999C17.8525 11.9999 17.7083 11.9564 17.5854 11.8749C17.4625 11.7933 17.3664 11.6774 17.3091 11.5415C17.2701 11.4492 17.2501 11.3501 17.2501 11.2499C17.2501 11.1498 17.2701 11.0506 17.3091 10.9584C17.3664 10.8225 17.4625 10.7065 17.5854 10.625C17.7083 10.5434 17.8525 10.4999 18 10.4999C18.4208 10.4999 18.8332 10.3818 19.1903 10.1592C19.5474 9.93653 19.8349 9.61819 20.0201 9.24034C20.2053 8.86248 20.2809 8.44025 20.2382 8.02161C20.1955 7.60296 20.0362 7.20468 19.7785 6.87201C19.5208 6.53933 19.175 6.2856 18.7803 6.13963C18.3856 5.99365 17.9579 5.96129 17.5457 6.04622C17.1336 6.13115 16.7535 6.32996 16.4487 6.62007C16.1438 6.91018 15.9265 7.27997 15.8213 7.68742C15.7966 7.78284 15.7535 7.87247 15.6942 7.95119C15.6349 8.02992 15.5607 8.09621 15.4759 8.14626C15.391 8.19632 15.2971 8.22917 15.1995 8.24293C15.1019 8.2567 15.0026 8.25111 14.9072 8.22649C14.8118 8.20186 14.7222 8.15869 14.6434 8.09943C14.5647 8.04016 14.4984 7.96598 14.4484 7.8811C14.3983 7.79622 14.3655 7.70231 14.3517 7.60474C14.3379 7.50717 14.3435 7.40784 14.3681 7.31242C14.5142 6.74741 14.79 6.22426 15.1738 5.78463C15.5576 5.34499 16.0387 5.00099 16.5788 4.78C17.1189 4.55901 17.7032 4.46713 18.285 4.51167C18.8669 4.55621 19.4304 4.73594 19.9306 5.03656C20.4308 5.33718 20.8539 5.75039 21.1663 6.24332C21.4787 6.73624 21.6717 7.29527 21.7301 7.87593C21.7884 8.45659 21.7104 9.04285 21.5023 9.58806C21.2942 10.1333 20.9617 10.6224 20.5313 11.0165C21.5511 11.458 22.4376 12.1587 23.1028 13.049C23.1619 13.128 23.2048 13.2179 23.2291 13.3135C23.2534 13.4091 23.2587 13.5085 23.2445 13.6062C23.2303 13.7038 23.1969 13.7976 23.1464 13.8824C23.0959 13.9671 23.0291 14.041 22.95 14.0999ZM17.8988 19.8749C17.953 19.9603 17.9895 20.0557 18.0059 20.1556C18.0223 20.2554 18.0184 20.3575 17.9943 20.4557C17.9702 20.554 17.9265 20.6463 17.8658 20.7272C17.8052 20.8082 17.7287 20.876 17.6412 20.9266C17.5536 20.9772 17.4567 21.0096 17.3563 21.0218C17.2558 21.034 17.154 21.0258 17.0569 20.9976C16.9597 20.9694 16.8693 20.9219 16.791 20.8578C16.7127 20.7938 16.6481 20.7146 16.6013 20.6249C16.1288 19.8249 15.4559 19.1619 14.649 18.7014C13.8421 18.2408 12.9291 17.9986 12 17.9986C11.0709 17.9986 10.1579 18.2408 9.35099 18.7014C8.54409 19.1619 7.87122 19.8249 7.39876 20.6249C7.35187 20.7146 7.28734 20.7938 7.20905 20.8578C7.13075 20.9219 7.04031 20.9694 6.94316 20.9976C6.84602 21.0258 6.74417 21.034 6.64376 21.0218C6.54335 21.0096 6.44644 20.9772 6.35886 20.9266C6.27129 20.876 6.19486 20.8082 6.13417 20.7272C6.07349 20.6463 6.0298 20.554 6.00573 20.4557C5.98167 20.3575 5.97772 20.2554 5.99414 20.1556C6.01056 20.0557 6.04699 19.9603 6.10126 19.8749C6.82838 18.6256 7.93707 17.6424 9.26438 17.0699C8.5175 16.4981 7.9686 15.7066 7.69482 14.8066C7.42105 13.9067 7.43617 12.9436 7.73805 12.0527C8.03994 11.1618 8.61342 10.3879 9.37789 9.83981C10.1423 9.29169 11.0594 8.99692 12 8.99692C12.9407 8.99692 13.8577 9.29169 14.6221 9.83981C15.3866 10.3879 15.9601 11.1618 16.262 12.0527C16.5639 12.9436 16.579 13.9067 16.3052 14.8066C16.0314 15.7066 15.4825 16.4981 14.7356 17.0699C16.063 17.6424 17.1716 18.6256 17.8988 19.8749ZM12 16.4999C12.5934 16.4999 13.1734 16.324 13.6667 15.9943C14.1601 15.6647 14.5446 15.1962 14.7716 14.648C14.9987 14.0998 15.0581 13.4966 14.9424 12.9147C14.8266 12.3327 14.5409 11.7982 14.1213 11.3786C13.7018 10.959 13.1672 10.6733 12.5853 10.5576C12.0033 10.4418 11.4001 10.5012 10.852 10.7283C10.3038 10.9553 9.83524 11.3399 9.5056 11.8332C9.17596 12.3266 9.00001 12.9066 9.00001 13.4999C9.00001 14.2956 9.31608 15.0586 9.87869 15.6212C10.4413 16.1839 11.2044 16.4999 12 16.4999ZM6.75001 11.2499C6.75001 11.051 6.67099 10.8602 6.53034 10.7196C6.38969 10.5789 6.19892 10.4999 6.00001 10.4999C5.57919 10.4999 5.16682 10.3818 4.80973 10.1592C4.45264 9.93653 4.16515 9.61819 3.97991 9.24034C3.79468 8.86248 3.71912 8.44025 3.76182 8.02161C3.80452 7.60296 3.96377 7.20468 4.22149 6.87201C4.4792 6.53933 4.82504 6.2856 5.21973 6.13963C5.61442 5.99365 6.04213 5.96129 6.45429 6.04622C6.86645 6.13115 7.24653 6.32996 7.55136 6.62007C7.85619 6.91018 8.07355 7.27997 8.17876 7.68742C8.22849 7.88012 8.35273 8.04517 8.52415 8.14626C8.69557 8.24736 8.90013 8.27621 9.09282 8.22649C9.28552 8.17676 9.45057 8.05252 9.55166 7.8811C9.65276 7.70968 9.68161 7.50512 9.63188 7.31242C9.48586 6.74741 9.20999 6.22426 8.82621 5.78463C8.44243 5.34499 7.96134 5.00099 7.42122 4.78C6.88109 4.55901 6.29685 4.46713 5.71497 4.51167C5.13309 4.55621 4.56964 4.73594 4.06944 5.03656C3.56924 5.33718 3.14611 5.75039 2.83372 6.24332C2.52132 6.73624 2.32828 7.29527 2.26995 7.87593C2.21162 8.45659 2.28962 9.04285 2.49774 9.58806C2.70586 10.1333 3.03835 10.6224 3.46876 11.0165C2.44996 11.4585 1.56443 12.1591 0.90001 13.049C0.780538 13.2081 0.729174 13.4082 0.757216 13.6052C0.785259 13.8022 0.890411 13.98 1.04954 14.0995C1.20867 14.2189 1.40874 14.2703 1.60574 14.2422C1.80275 14.2142 1.98054 14.1091 2.10001 13.9499C2.55206 13.3423 3.14046 12.8493 3.81785 12.5106C4.49523 12.1719 5.24268 11.997 6.00001 11.9999C6.19892 11.9999 6.38969 11.9209 6.53034 11.7803C6.67099 11.6396 6.75001 11.4488 6.75001 11.2499Z" fill="#343330"/>
</svg>
