<svg width="24" height="24" viewBox="0 0 24 24" fill="none" xmlns="http://www.w3.org/2000/svg">
<path d="M23.7806 12.5305L21.5306 14.7805C21.461 14.8502 21.3782 14.9056 21.2872 14.9433C21.1961 14.981 21.0986 15.0005 21 15.0005C20.9014 15.0005 20.8038 14.981 20.7128 14.9433C20.6217 14.9056 20.539 14.8502 20.4694 14.7805L18.2194 12.5305C18.0786 12.3898 17.9996 12.1989 17.9996 11.9999C17.9996 11.8009 18.0786 11.61 18.2194 11.4693C18.3601 11.3285 18.551 11.2495 18.75 11.2495C18.949 11.2495 19.1399 11.3285 19.2806 11.4693L20.25 12.4396V11.9999C20.2509 10.253 19.6972 8.55088 18.6687 7.1388C17.6403 5.72672 16.1901 4.67755 14.5272 4.14242C12.8643 3.6073 11.0744 3.61384 9.41543 4.16111C7.75646 4.70838 6.31403 5.76813 5.29593 7.18769C5.17981 7.34931 5.00425 7.45818 4.80787 7.49035C4.61148 7.52253 4.41036 7.47537 4.24874 7.35925C4.08712 7.24314 3.97825 7.06758 3.94608 6.87119C3.9139 6.67481 3.96106 6.47368 4.07718 6.31207C5.28045 4.63443 6.98519 3.38205 8.94582 2.73533C10.9065 2.08862 13.0218 2.08096 14.987 2.71346C16.9523 3.34596 18.6661 4.58597 19.8815 6.25485C21.0968 7.92373 21.7511 9.93534 21.75 11.9999V12.4396L22.7194 11.4693C22.8601 11.3285 23.051 11.2495 23.25 11.2495C23.449 11.2495 23.6399 11.3285 23.7806 11.4693C23.9213 11.61 24.0004 11.8009 24.0004 11.9999C24.0004 12.1989 23.9213 12.3898 23.7806 12.5305ZM19.92 17.6868C18.7164 19.3631 17.0119 20.6143 15.0519 21.2603C13.0919 21.9063 10.9774 21.9137 9.01296 21.2814C7.04848 20.6492 5.33528 19.4099 4.11996 17.742C2.90465 16.0741 2.24991 14.0636 2.24999 11.9999V11.5602L1.28061 12.5305C1.13988 12.6712 0.949013 12.7503 0.74999 12.7503C0.550967 12.7503 0.360095 12.6712 0.219365 12.5305C0.0786343 12.3898 -0.000427246 12.1989 -0.000427246 11.9999C-0.000427246 11.8009 0.0786343 11.61 0.219365 11.4693L2.46936 9.21925C2.53902 9.14952 2.62174 9.0942 2.71278 9.05646C2.80383 9.01872 2.90143 8.99929 2.99999 8.99929C3.09855 8.99929 3.19615 9.01872 3.28719 9.05646C3.37824 9.0942 3.46096 9.14952 3.53061 9.21925L5.78061 11.4693C5.92135 11.61 6.00041 11.8009 6.00041 11.9999C6.00041 12.1989 5.92135 12.3898 5.78061 12.5305C5.63988 12.6712 5.44901 12.7503 5.24999 12.7503C5.05097 12.7503 4.8601 12.6712 4.71936 12.5305L3.74999 11.5602V11.9999C3.74821 14.0194 4.49047 15.9689 5.83499 17.4758C6.67146 16.2637 7.84763 15.326 9.21562 14.7805C8.48079 14.2017 7.94458 13.4084 7.68156 12.5107C7.41853 11.6131 7.44177 10.6558 7.74804 9.77195C8.05431 8.88813 8.62838 8.12171 9.39042 7.57928C10.1525 7.03684 11.0646 6.74536 12 6.74536C12.9354 6.74536 13.8475 7.03684 14.6096 7.57928C15.3716 8.12171 15.9457 8.88813 16.2519 9.77195C16.5582 10.6558 16.5814 11.6131 16.3184 12.5107C16.0554 13.4084 15.5192 14.2017 14.7844 14.7805C16.1536 15.3261 17.3306 16.2649 18.1669 17.4786C18.3565 17.2657 18.5352 17.0432 18.7022 16.8121C18.8183 16.6505 18.9939 16.5416 19.1902 16.5094C19.3866 16.4772 19.5877 16.5244 19.7494 16.6405C19.911 16.7566 20.0199 16.9322 20.052 17.1286C20.0842 17.325 20.037 17.5261 19.9209 17.6877L19.92 17.6868ZM12 14.2499C12.5933 14.2499 13.1734 14.0739 13.6667 13.7443C14.16 13.4146 14.5446 12.9461 14.7716 12.3979C14.9987 11.8498 15.0581 11.2466 14.9423 10.6646C14.8266 10.0827 14.5409 9.54812 14.1213 9.12856C13.7018 8.709 13.1672 8.42328 12.5853 8.30752C12.0033 8.19177 11.4001 8.25118 10.8519 8.47824C10.3038 8.7053 9.83523 9.08982 9.50558 9.58317C9.17594 10.0765 8.99999 10.6565 8.99999 11.2499C8.99999 12.0455 9.31606 12.8086 9.87867 13.3712C10.4413 13.9338 11.2043 14.2499 12 14.2499ZM12 20.2499C13.8304 20.2475 15.6083 19.6378 17.055 18.5164C16.5124 17.6679 15.765 16.9696 14.8816 16.4859C13.9981 16.0022 13.0072 15.7486 12 15.7486C10.9928 15.7486 10.0018 16.0022 9.11842 16.4859C8.23499 16.9696 7.48755 17.6679 6.94499 18.5164C8.38951 19.6418 10.1688 20.252 12 20.2499Z" fill="#343330"/>
</svg>
