<svg width="24" height="24" viewBox="0 0 24 24" fill="none" xmlns="http://www.w3.org/2000/svg">
<path d="M23.6034 6.84375C23.4838 6.77965 23.3491 6.74919 23.2135 6.75563C23.078 6.76207 22.9467 6.80516 22.8337 6.88031L19.5 9.09844V6.75C19.5 6.35218 19.342 5.97065 19.0607 5.68934C18.7794 5.40804 18.3978 5.25 18 5.25H10.5994C10.4005 5.25 10.2097 5.32902 10.069 5.46967C9.92839 5.61032 9.84937 5.80109 9.84937 6C9.84937 6.19891 9.92839 6.38968 10.069 6.53033C10.2097 6.67098 10.4005 6.75 10.5994 6.75H18V14.9653C18 15.1642 18.079 15.355 18.2197 15.4956C18.3603 15.6363 18.5511 15.7153 18.75 15.7153C18.9489 15.7153 19.1397 15.6363 19.2803 15.4956C19.421 15.355 19.5 15.1642 19.5 14.9653V14.9063L22.8337 17.1291C22.9576 17.2095 23.1024 17.2515 23.25 17.25C23.4489 17.25 23.6397 17.171 23.7803 17.0303C23.921 16.8897 24 16.6989 24 16.5V7.5C23.9991 7.36506 23.9617 7.23287 23.8919 7.11737C23.8221 7.00187 23.7225 6.90734 23.6034 6.84375ZM22.5 15.0984L19.5 13.0988V10.9013L22.5 8.90625V15.0984ZM5.055 3.24563C4.98914 3.17138 4.90919 3.11095 4.8198 3.06783C4.73041 3.02471 4.63335 2.99976 4.53424 2.99443C4.43514 2.9891 4.33596 3.00349 4.24246 3.03677C4.14896 3.07005 4.06299 3.12156 3.98954 3.18831C3.91609 3.25506 3.85662 3.33572 3.81458 3.42562C3.77253 3.51552 3.74875 3.61288 3.74461 3.71204C3.74046 3.8112 3.75604 3.9102 3.79044 4.00329C3.82484 4.09639 3.87738 4.18173 3.945 4.25438L4.84969 5.25H3C2.60218 5.25 2.22064 5.40804 1.93934 5.68934C1.65804 5.97065 1.5 6.35218 1.5 6.75V17.25C1.5 17.6478 1.65804 18.0294 1.93934 18.3107C2.22064 18.592 2.60218 18.75 3 18.75H17.1225L18.945 20.7544C19.0109 20.8286 19.0908 20.8891 19.1802 20.9322C19.2696 20.9753 19.3667 21.0002 19.4658 21.0056C19.5649 21.0109 19.664 20.9965 19.7575 20.9632C19.851 20.93 19.937 20.8784 20.0105 20.8117C20.0839 20.7449 20.1434 20.6643 20.1854 20.5744C20.2275 20.4845 20.2513 20.3871 20.2554 20.288C20.2595 20.1888 20.244 20.0898 20.2096 19.9967C20.1752 19.9036 20.1226 19.8183 20.055 19.7456L5.055 3.24563ZM3 17.25V6.75H6.21375L15.7594 17.25H3Z" fill="#343330"/>
</svg>
