<svg width="24" height="24" viewBox="0 0 24 24" fill="none" xmlns="http://www.w3.org/2000/svg">
<path d="M21.701 17.3835L13.5026 3.14569C13.2977 2.79687 13.0052 2.50764 12.6541 2.30668C12.303 2.10572 11.9055 2 11.501 2C11.0965 2 10.699 2.10572 10.3479 2.30668C9.99679 2.50764 9.70431 2.79687 9.49944 3.14569L1.30101 17.3835C1.10388 17.7209 1 18.1046 1 18.4954C1 18.8861 1.10388 19.2699 1.30101 19.6072C1.50325 19.9582 1.79523 20.249 2.14697 20.4498C2.49871 20.6506 2.89755 20.7543 3.30257 20.7501H19.6994C20.1041 20.7539 20.5026 20.6501 20.854 20.4493C21.2054 20.2485 21.497 19.9579 21.6991 19.6072C21.8965 19.27 22.0007 18.8864 22.0011 18.4956C22.0014 18.1049 21.8978 17.7211 21.701 17.3835ZM10.751 9.50006C10.751 9.30115 10.83 9.11038 10.9707 8.96973C11.1113 8.82908 11.3021 8.75006 11.501 8.75006C11.6999 8.75006 11.8907 8.82908 12.0313 8.96973C12.172 9.11038 12.251 9.30115 12.251 9.50006V13.2501C12.251 13.449 12.172 13.6397 12.0313 13.7804C11.8907 13.921 11.6999 14.0001 11.501 14.0001C11.3021 14.0001 11.1113 13.921 10.9707 13.7804C10.83 13.6397 10.751 13.449 10.751 13.2501V9.50006ZM11.501 17.7501C11.2785 17.7501 11.061 17.6841 10.876 17.5605C10.691 17.4368 10.5468 17.2611 10.4616 17.0556C10.3765 16.85 10.3542 16.6238 10.3976 16.4056C10.441 16.1874 10.5482 15.9869 10.7055 15.8296C10.8628 15.6722 11.0633 15.5651 11.2815 15.5217C11.4998 15.4783 11.726 15.5005 11.9315 15.5857C12.1371 15.6708 12.3128 15.815 12.4364 16C12.56 16.1851 12.626 16.4026 12.626 16.6251C12.626 16.9234 12.5075 17.2096 12.2965 17.4206C12.0855 17.6315 11.7994 17.7501 11.501 17.7501Z" fill="#343330"/>
</svg>
