<svg width="24" height="24" viewBox="0 0 24 24" fill="none" xmlns="http://www.w3.org/2000/svg">
<path d="M11.75 2.25C9.82164 2.25 7.93657 2.82183 6.33319 3.89317C4.72982 4.96452 3.48013 6.48726 2.74218 8.26884C2.00422 10.0504 1.81114 12.0108 2.18735 13.9021C2.56355 15.7934 3.49215 17.5307 4.85571 18.8943C6.21928 20.2579 7.95656 21.1865 9.84787 21.5627C11.7392 21.9389 13.6996 21.7458 15.4812 21.0078C17.2627 20.2699 18.7855 19.0202 19.8568 17.4168C20.9282 15.8134 21.5 13.9284 21.5 12C21.4973 9.41498 20.4692 6.93661 18.6413 5.10872C16.8134 3.28084 14.335 2.25273 11.75 2.25ZM11 7.5C11 7.30109 11.079 7.11032 11.2197 6.96967C11.3603 6.82902 11.5511 6.75 11.75 6.75C11.9489 6.75 12.1397 6.82902 12.2803 6.96967C12.421 7.11032 12.5 7.30109 12.5 7.5V12.75C12.5 12.9489 12.421 13.1397 12.2803 13.2803C12.1397 13.421 11.9489 13.5 11.75 13.5C11.5511 13.5 11.3603 13.421 11.2197 13.2803C11.079 13.1397 11 12.9489 11 12.75V7.5ZM11.75 17.25C11.5275 17.25 11.31 17.184 11.125 17.0604C10.94 16.9368 10.7958 16.7611 10.7106 16.5555C10.6255 16.35 10.6032 16.1238 10.6466 15.9055C10.69 15.6873 10.7972 15.4868 10.9545 15.3295C11.1118 15.1722 11.3123 15.065 11.5305 15.0216C11.7488 14.9782 11.975 15.0005 12.1805 15.0856C12.3861 15.1708 12.5618 15.315 12.6854 15.5C12.809 15.685 12.875 15.9025 12.875 16.125C12.875 16.4234 12.7565 16.7095 12.5455 16.9205C12.3345 17.1315 12.0484 17.25 11.75 17.25Z" fill="#343330"/>
</svg>
