<svg width="24" height="24" viewBox="0 0 24 24" fill="none" xmlns="http://www.w3.org/2000/svg">
<path d="M19.5 12C19.4997 10.8226 19.222 9.66174 18.6894 8.61165C18.1568 7.56156 17.3842 6.65174 16.4344 5.95594L15.8494 2.73281C15.7868 2.38702 15.6048 2.07418 15.3351 1.84887C15.0654 1.62356 14.7252 1.50009 14.3737 1.5H9.62625C9.27483 1.50009 8.9346 1.62356 8.66492 1.84887C8.39523 2.07418 8.21322 2.38702 8.15062 2.73281L7.56562 5.95594C6.6155 6.65151 5.84275 7.56128 5.31007 8.61141C4.77739 9.66156 4.49979 10.8225 4.49979 12C4.49979 13.1775 4.77739 14.3384 5.31007 15.3886C5.84275 16.4387 6.6155 17.3485 7.56562 18.0441L8.15062 21.2672C8.21322 21.613 8.39523 21.9258 8.66492 22.1511C8.9346 22.3764 9.27483 22.4999 9.62625 22.5H14.3737C14.7252 22.4999 15.0654 22.3764 15.3351 22.1511C15.6048 21.9258 15.7868 21.613 15.8494 21.2672L16.4344 18.0441C17.3842 17.3483 18.1568 16.4384 18.6894 15.3883C19.222 14.3383 19.4997 13.1774 19.5 12ZM9.62625 3H14.3737L14.7403 5.02031C12.9793 4.32659 11.0207 4.32659 9.25968 5.02031L9.62625 3ZM6 12C6 10.8133 6.35189 9.65327 7.01118 8.66658C7.67047 7.67988 8.60754 6.91085 9.7039 6.45672C10.8003 6.0026 12.0067 5.88378 13.1705 6.11529C14.3344 6.3468 15.4035 6.91824 16.2426 7.75736C17.0818 8.59647 17.6532 9.66557 17.8847 10.8295C18.1162 11.9933 17.9974 13.1997 17.5433 14.2961C17.0891 15.3925 16.3201 16.3295 15.3334 16.9888C14.3467 17.6481 13.1867 18 12 18C10.4092 17.9983 8.88412 17.3656 7.75927 16.2407C6.63443 15.1159 6.00173 13.5908 6 12ZM14.3737 21H9.62625L9.25968 18.9797C11.0207 19.6734 12.9793 19.6734 14.7403 18.9797L14.3737 21ZM11.25 12V8.25C11.25 8.05109 11.329 7.86032 11.4697 7.71967C11.6103 7.57902 11.8011 7.5 12 7.5C12.1989 7.5 12.3897 7.57902 12.5303 7.71967C12.671 7.86032 12.75 8.05109 12.75 8.25V11.25H15.75C15.9489 11.25 16.1397 11.329 16.2803 11.4697C16.421 11.6103 16.5 11.8011 16.5 12C16.5 12.1989 16.421 12.3897 16.2803 12.5303C16.1397 12.671 15.9489 12.75 15.75 12.75H12C11.8011 12.75 11.6103 12.671 11.4697 12.5303C11.329 12.3897 11.25 12.1989 11.25 12Z" fill="#343330"/>
</svg>
