<svg width="24" height="24" viewBox="0 0 24 24" fill="none" xmlns="http://www.w3.org/2000/svg">
<path d="M16.4344 5.95594L15.8494 2.73281C15.7868 2.38702 15.6048 2.07418 15.3351 1.84887C15.0654 1.62356 14.7252 1.50009 14.3738 1.5H9.62625C9.27483 1.50009 8.93461 1.62356 8.66492 1.84887C8.39524 2.07418 8.21322 2.38702 8.15062 2.73281L7.56562 5.95594C6.61551 6.65151 5.84276 7.56128 5.31007 8.61141C4.77739 9.66156 4.49979 10.8225 4.49979 12C4.49979 13.1775 4.77739 14.3384 5.31007 15.3886C5.84276 16.4387 6.61551 17.3485 7.56562 18.0441L8.15062 21.2672C8.21322 21.613 8.39524 21.9258 8.66492 22.1511C8.93461 22.3764 9.27483 22.4999 9.62625 22.5H14.3738C14.7252 22.4999 15.0654 22.3764 15.3351 22.1511C15.6048 21.9258 15.7868 21.613 15.8494 21.2672L16.4344 18.0441C17.3845 17.3485 18.1572 16.4387 18.6899 15.3886C19.2226 14.3384 19.5002 13.1775 19.5002 12C19.5002 10.8225 19.2226 9.66156 18.6899 8.61141C18.1572 7.56128 17.3845 6.65151 16.4344 5.95594ZM9.62625 3H14.3738L14.7403 5.02031C12.9793 4.32659 11.0207 4.32659 9.25969 5.02031L9.62625 3ZM14.3738 21H9.62625L9.25969 18.9797C11.0207 19.6734 12.9793 19.6734 14.7403 18.9797L14.3738 21ZM15.75 12.75H12C11.8011 12.75 11.6103 12.671 11.4697 12.5303C11.329 12.3897 11.25 12.1989 11.25 12V8.25C11.25 8.05109 11.329 7.86032 11.4697 7.71967C11.6103 7.57902 11.8011 7.5 12 7.5C12.1989 7.5 12.3897 7.57902 12.5303 7.71967C12.671 7.86032 12.75 8.05109 12.75 8.25V11.25H15.75C15.9489 11.25 16.1397 11.329 16.2803 11.4697C16.421 11.6103 16.5 11.8011 16.5 12C16.5 12.1989 16.421 12.3897 16.2803 12.5303C16.1397 12.671 15.9489 12.75 15.75 12.75Z" fill="#343330"/>
</svg>
