<svg width="24" height="24" viewBox="0 0 24 24" fill="none" xmlns="http://www.w3.org/2000/svg">
<path d="M5.25001 9V15C5.25001 15.1989 5.17099 15.3897 5.03034 15.5303C4.88968 15.671 4.69892 15.75 4.50001 15.75C4.30109 15.75 4.11033 15.671 3.96968 15.5303C3.82902 15.3897 3.75001 15.1989 3.75001 15V9C3.75001 8.80109 3.82902 8.61032 3.96968 8.46967C4.11033 8.32902 4.30109 8.25 4.50001 8.25C4.69892 8.25 4.88968 8.32902 5.03034 8.46967C5.17099 8.61032 5.25001 8.80109 5.25001 9ZM5.05501 3.24562C4.98914 3.17138 4.9092 3.11095 4.81981 3.06783C4.73041 3.02471 4.63335 2.99976 4.53425 2.99443C4.43514 2.9891 4.33597 3.00349 4.24246 3.03677C4.14896 3.07005 4.063 3.12156 3.98955 3.18831C3.9161 3.25505 3.85663 3.33572 3.81458 3.42562C3.77254 3.51552 3.74875 3.61288 3.74461 3.71204C3.74047 3.8112 3.75605 3.9102 3.79045 4.00329C3.82485 4.09639 3.87738 4.18173 3.94501 4.25437L7.50001 8.16469V21C7.50001 21.1989 7.57902 21.3897 7.71968 21.5303C7.86033 21.671 8.05109 21.75 8.25001 21.75C8.44892 21.75 8.63968 21.671 8.78034 21.5303C8.92099 21.3897 9.00001 21.1989 9.00001 21V9.81469L11.25 12.2897V18C11.25 18.1989 11.329 18.3897 11.4697 18.5303C11.6103 18.671 11.8011 18.75 12 18.75C12.1989 18.75 12.3897 18.671 12.5303 18.5303C12.671 18.3897 12.75 18.1989 12.75 18V13.9397L18.945 20.7544C19.0109 20.8286 19.0908 20.8891 19.1802 20.9322C19.2696 20.9753 19.3667 21.0002 19.4658 21.0056C19.5649 21.0109 19.664 20.9965 19.7575 20.9632C19.851 20.93 19.937 20.8784 20.0105 20.8117C20.0839 20.7449 20.1434 20.6643 20.1854 20.5744C20.2275 20.4845 20.2513 20.3871 20.2554 20.288C20.2595 20.1888 20.244 20.0898 20.2096 19.9967C20.1752 19.9036 20.1226 19.8183 20.055 19.7456L5.05501 3.24562ZM8.25001 4.16531C8.44892 4.16531 8.63968 4.08629 8.78034 3.94564C8.92099 3.80499 9.00001 3.61422 9.00001 3.41531V3C9.00001 2.80109 8.92099 2.61032 8.78034 2.46967C8.63968 2.32902 8.44892 2.25 8.25001 2.25C8.05109 2.25 7.86033 2.32902 7.71968 2.46967C7.57902 2.61032 7.50001 2.80109 7.50001 3V3.41531C7.50001 3.61422 7.57902 3.80499 7.71968 3.94564C7.86033 4.08629 8.05109 4.16531 8.25001 4.16531ZM12 8.29031C12.1989 8.29031 12.3897 8.21129 12.5303 8.07064C12.671 7.92999 12.75 7.73922 12.75 7.54031V6C12.75 5.80109 12.671 5.61032 12.5303 5.46967C12.3897 5.32902 12.1989 5.25 12 5.25C11.8011 5.25 11.6103 5.32902 11.4697 5.46967C11.329 5.61032 11.25 5.80109 11.25 6V7.54031C11.25 7.73922 11.329 7.92999 11.4697 8.07064C11.6103 8.21129 11.8011 8.29031 12 8.29031ZM15.75 12.4153C15.9489 12.4153 16.1397 12.3363 16.2803 12.1956C16.421 12.055 16.5 11.8642 16.5 11.6653V9C16.5 8.80109 16.421 8.61032 16.2803 8.46967C16.1397 8.32902 15.9489 8.25 15.75 8.25C15.5511 8.25 15.3603 8.32902 15.2197 8.46967C15.079 8.61032 15 8.80109 15 9V11.6653C15 11.8642 15.079 12.055 15.2197 12.1956C15.3603 12.3363 15.5511 12.4153 15.75 12.4153ZM19.5 6.75C19.3011 6.75 19.1103 6.82902 18.9697 6.96967C18.829 7.11032 18.75 7.30109 18.75 7.5V15.7903C18.75 15.9892 18.829 16.18 18.9697 16.3206C19.1103 16.4613 19.3011 16.5403 19.5 16.5403C19.6989 16.5403 19.8897 16.4613 20.0303 16.3206C20.171 16.18 20.25 15.9892 20.25 15.7903V7.5C20.25 7.30109 20.171 7.11032 20.0303 6.96967C19.8897 6.82902 19.6989 6.75 19.5 6.75Z" fill="#343330"/>
</svg>
