<svg width="24" height="24" viewBox="0 0 24 24" fill="none" xmlns="http://www.w3.org/2000/svg">
<path d="M20.8275 16.6171C20.9546 16.7696 21.0161 16.9662 20.9985 17.1638C20.981 17.3615 20.8858 17.5442 20.7338 17.6718C19.1063 19.0209 17.6531 19.4999 16.3275 19.4999C14.5856 19.4999 13.0631 18.6731 11.6466 17.9062C9.27001 16.6162 7.21782 15.5024 4.23376 17.9756C4.1581 18.0394 4.07055 18.0876 3.97616 18.1174C3.88178 18.1472 3.78243 18.1581 3.68383 18.1493C3.58524 18.1406 3.48936 18.1124 3.40171 18.0664C3.31406 18.0204 3.23638 17.9575 3.17316 17.8813C3.10993 17.8052 3.0624 17.7173 3.03332 17.6227C3.00423 17.528 2.99416 17.4286 3.00369 17.3301C3.01321 17.2316 3.04215 17.1359 3.08882 17.0486C3.1355 16.9613 3.19899 16.8841 3.27563 16.8215C7.04157 13.7015 9.86813 15.2353 12.3628 16.589C14.7394 17.8781 16.7916 18.9918 19.7756 16.5196C19.9284 16.3938 20.1246 16.3335 20.3216 16.3518C20.5187 16.37 20.7005 16.4654 20.8275 16.6171ZM19.7709 11.2734C16.7869 13.7465 14.7347 12.6328 12.3581 11.3428C9.86345 9.98994 7.03688 8.4562 3.27095 11.5762C3.11967 11.7038 3.02495 11.886 3.00744 12.0831C2.98993 12.2803 3.05104 12.4763 3.17745 12.6286C3.30386 12.7808 3.48533 12.877 3.68232 12.896C3.8793 12.9151 4.07583 12.8555 4.22907 12.7303C7.21313 10.2571 9.26532 11.3709 11.6419 12.6609C13.0584 13.4287 14.5809 14.2546 16.3228 14.2546C17.6484 14.2546 19.1016 13.7756 20.7291 12.4265C20.8057 12.3639 20.8692 12.2867 20.9159 12.1994C20.9626 12.1121 20.9915 12.0165 21.001 11.9179C21.0105 11.8194 21.0005 11.72 20.9714 11.6254C20.9423 11.5307 20.8948 11.4428 20.8315 11.3667C20.7683 11.2905 20.6906 11.2276 20.603 11.1816C20.5153 11.1356 20.4195 11.1074 20.3209 11.0987C20.2223 11.0899 20.1229 11.1008 20.0285 11.1306C19.9342 11.1604 19.8466 11.2086 19.7709 11.2724V11.2734ZM4.22907 7.4812C7.21313 5.00901 9.26532 6.12276 11.6419 7.41182C13.0584 8.18057 14.5809 9.00557 16.3228 9.00557C17.6484 9.00557 19.1016 8.52557 20.7291 7.17744C20.8057 7.11481 20.8692 7.03763 20.9159 6.95034C20.9626 6.86305 20.9915 6.76739 21.001 6.66887C21.0105 6.57034 21.0005 6.47091 20.9714 6.3763C20.9423 6.28169 20.8948 6.19377 20.8315 6.11761C20.7683 6.04145 20.6906 5.97856 20.603 5.93257C20.5153 5.88658 20.4195 5.85839 20.3209 5.84963C20.2223 5.84087 20.1229 5.85171 20.0285 5.88153C19.9342 5.91136 19.8466 5.95956 19.7709 6.02338C16.7869 8.49651 14.7347 7.38276 12.3581 6.09276C9.86345 4.74182 7.03688 3.20807 3.27095 6.32807C3.19163 6.3898 3.12552 6.46684 3.07656 6.55462C3.0276 6.6424 2.99679 6.73912 2.98594 6.83905C2.9751 6.93897 2.98445 7.04005 3.01345 7.13629C3.04244 7.23253 3.09048 7.32196 3.15471 7.39926C3.21894 7.47657 3.29806 7.54017 3.38736 7.5863C3.47666 7.63243 3.57432 7.66014 3.67454 7.66778C3.77475 7.67543 3.87549 7.66285 3.97075 7.63079C4.06601 7.59874 4.15386 7.54787 4.22907 7.4812Z" fill="#343330"/>
</svg>
