<svg width="24" height="24" viewBox="0 0 24 24" fill="none" xmlns="http://www.w3.org/2000/svg">
<path d="M23.9616 17.7628C23.9304 17.6693 23.8812 17.5829 23.8166 17.5085C23.7521 17.4341 23.6735 17.3731 23.5854 17.3291C23.4973 17.285 23.4014 17.2588 23.3032 17.2518C23.2049 17.2448 23.1063 17.2572 23.0128 17.2884L21.3797 17.8331L18.6703 12.4143C18.608 12.2899 18.5123 12.1852 18.394 12.112C18.2756 12.0388 18.1392 12 18 12H10.5V9.74995H15.75C15.9489 9.74995 16.1397 9.67093 16.2803 9.53028C16.421 9.38963 16.5 9.19887 16.5 8.99995C16.5 8.80104 16.421 8.61027 16.2803 8.46962C16.1397 8.32897 15.9489 8.24995 15.75 8.24995H10.5V7.4062C11.207 7.22366 11.8231 6.78953 12.2329 6.1852C12.6428 5.58086 12.8181 4.84781 12.7261 4.12345C12.6341 3.39909 12.2811 2.73315 11.7332 2.25046C11.1853 1.76777 10.4802 1.50146 9.75 1.50146C9.01982 1.50146 8.3147 1.76777 7.76682 2.25046C7.21894 2.73315 6.86591 3.39909 6.77391 4.12345C6.6819 4.84781 6.85724 5.58086 7.26705 6.1852C7.67686 6.78953 8.293 7.22366 9 7.4062V8.41964C7.38287 8.78925 5.95846 9.74139 4.99865 11.0943C4.03883 12.4473 3.61083 14.1063 3.79632 15.7547C3.98181 17.4032 4.7678 18.9256 6.00429 20.0314C7.24078 21.1372 8.84117 21.749 10.5 21.75C13.6425 21.75 16.4709 19.6209 17.2266 16.6875C17.2512 16.592 17.2568 16.4927 17.243 16.3951C17.2292 16.2976 17.1964 16.2037 17.1463 16.1188C17.0963 16.0339 17.03 15.9597 16.9513 15.9004C16.8725 15.8412 16.7829 15.798 16.6875 15.7734C16.5921 15.7488 16.4928 15.7432 16.3952 15.7569C16.2976 15.7707 16.2037 15.8036 16.1188 15.8536C16.0339 15.9037 15.9598 15.97 15.9005 16.0487C15.8412 16.1274 15.7981 16.217 15.7734 16.3125C15.1959 18.5625 12.9291 20.25 10.5 20.25C9.23925 20.2495 8.02075 19.7954 7.06721 18.9706C6.11368 18.1459 5.4888 17.0055 5.30677 15.7579C5.12475 14.5104 5.39774 13.239 6.07586 12.1762C6.75398 11.1133 7.79193 10.33 9 9.96933V12.75C9 12.9489 9.07902 13.1396 9.21967 13.2803C9.36032 13.4209 9.55109 13.5 9.75 13.5H17.5359L20.3287 19.0856C20.4097 19.247 20.5461 19.3737 20.713 19.4426C20.8799 19.5115 21.066 19.5179 21.2372 19.4606L23.4872 18.7106C23.6757 18.6477 23.8315 18.5125 23.9205 18.3348C24.0094 18.1571 24.0242 17.9514 23.9616 17.7628ZM8.25 4.49995C8.25 4.20328 8.33797 3.91327 8.50279 3.6666C8.66762 3.41992 8.90188 3.22766 9.17597 3.11413C9.45006 3.0006 9.75166 2.9709 10.0426 3.02877C10.3336 3.08665 10.6009 3.22951 10.8107 3.43929C11.0204 3.64907 11.1633 3.91635 11.2212 4.20732C11.2791 4.49829 11.2493 4.79989 11.1358 5.07398C11.0223 5.34807 10.83 5.58233 10.5834 5.74716C10.3367 5.91198 10.0467 5.99995 9.75 5.99995C9.35217 5.99995 8.97064 5.84192 8.68934 5.56061C8.40803 5.27931 8.25 4.89778 8.25 4.49995Z" fill="#343330"/>
</svg>
