<svg width="36" height="36" viewBox="0 0 36 36" fill="none" xmlns="http://www.w3.org/2000/svg">
<path d="M18 11.1818C14.2364 11.1818 11.1818 14.2364 11.1818 18C11.1818 21.7636 14.2364 24.8182 18 24.8182C21.7636 24.8182 24.8182 21.7636 24.8182 18C24.8182 14.2364 21.7636 11.1818 18 11.1818ZM4.36364 19.3636H7.09091C7.84091 19.3636 8.45455 18.75 8.45455 18C8.45455 17.25 7.84091 16.6364 7.09091 16.6364H4.36364C3.61364 16.6364 3 17.25 3 18C3 18.75 3.61364 19.3636 4.36364 19.3636ZM28.9091 19.3636H31.6364C32.3864 19.3636 33 18.75 33 18C33 17.25 32.3864 16.6364 31.6364 16.6364H28.9091C28.1591 16.6364 27.5455 17.25 27.5455 18C27.5455 18.75 28.1591 19.3636 28.9091 19.3636ZM16.6364 4.36364V7.09091C16.6364 7.84091 17.25 8.45455 18 8.45455C18.75 8.45455 19.3636 7.84091 19.3636 7.09091V4.36364C19.3636 3.61364 18.75 3 18 3C17.25 3 16.6364 3.61364 16.6364 4.36364ZM16.6364 28.9091V31.6364C16.6364 32.3864 17.25 33 18 33C18.75 33 19.3636 32.3864 19.3636 31.6364V28.9091C19.3636 28.1591 18.75 27.5455 18 27.5455C17.25 27.5455 16.6364 28.1591 16.6364 28.9091ZM9.80455 7.88182C9.27273 7.35 8.4 7.35 7.88182 7.88182C7.35 8.41364 7.35 9.28636 7.88182 9.80455L9.32727 11.25C9.85909 11.7818 10.7318 11.7818 11.25 11.25C11.7682 10.7182 11.7818 9.84545 11.25 9.32727L9.80455 7.88182ZM26.6727 24.75C26.1409 24.2182 25.2682 24.2182 24.75 24.75C24.2182 25.2818 24.2182 26.1545 24.75 26.6727L26.1955 28.1182C26.7273 28.65 27.6 28.65 28.1182 28.1182C28.65 27.5864 28.65 26.7136 28.1182 26.1955L26.6727 24.75ZM28.1182 9.80455C28.65 9.27273 28.65 8.4 28.1182 7.88182C27.5864 7.35 26.7136 7.35 26.1955 7.88182L24.75 9.32727C24.2182 9.85909 24.2182 10.7318 24.75 11.25C25.2818 11.7682 26.1545 11.7818 26.6727 11.25L28.1182 9.80455ZM11.25 26.6727C11.7818 26.1409 11.7818 25.2682 11.25 24.75C10.7182 24.2182 9.84545 24.2182 9.32727 24.75L7.88182 26.1955C7.35 26.7273 7.35 27.6 7.88182 28.1182C8.41364 28.6364 9.28636 28.65 9.80455 28.1182L11.25 26.6727Z" fill="black"/>
</svg>
