<svg width="36" height="36" viewBox="0 0 36 36" fill="none" xmlns="http://www.w3.org/2000/svg">
<path d="M33.5519 32.3729L31.4225 20.0943H32.1417C32.7202 20.0943 33.1863 19.6282 33.1863 19.0497V11.3354C33.1863 10.7568 32.7202 10.2907 32.1417 10.2907H22.2577V2.97824C22.2577 2.39967 21.7917 1.93359 21.2131 1.93359H14.7845C14.206 1.93359 13.7399 2.39967 13.7399 2.97824V10.2907H3.85595C3.27738 10.2907 2.81131 10.7568 2.81131 11.3354V19.0497C2.81131 19.6282 3.27738 20.0943 3.85595 20.0943H4.57515L2.44568 32.3729C2.41959 32.5228 2.42662 32.6766 2.4663 32.8235C2.50598 32.9704 2.57733 33.1069 2.67535 33.2233C2.77337 33.3397 2.89568 33.4332 3.03369 33.4973C3.17171 33.5614 3.32208 33.5945 3.47425 33.5943H32.5234C32.5836 33.5943 32.6439 33.5903 32.7001 33.5782C32.8354 33.5555 32.9649 33.5062 33.0811 33.4332C33.1972 33.3602 33.2978 33.2649 33.377 33.1529C33.4562 33.0408 33.5124 32.9142 33.5424 32.7804C33.5724 32.6465 33.5757 32.508 33.5519 32.3729ZM5.62381 13.1032H16.5524V4.74609H19.4452V13.1032H30.3738V17.2818H5.62381V13.1032ZM24.4274 30.7818V24.514C24.4274 24.3372 24.2827 24.1925 24.1059 24.1925H22.1774C22.0006 24.1925 21.856 24.3372 21.856 24.514V30.7818H14.1417V24.514C14.1417 24.3372 13.997 24.1925 13.8202 24.1925H11.8917C11.7149 24.1925 11.5702 24.3372 11.5702 24.514V30.7818H5.57559L7.38765 20.3354H28.606L30.418 30.7818H24.4274Z" fill="black" fill-opacity="0.85"/>
</svg>
