<svg width="36" height="36" viewBox="0 0 36 36" fill="none" xmlns="http://www.w3.org/2000/svg">
<path d="M33.0234 17.1367C33.168 16.6546 33.2404 16.1563 33.2404 15.6501C33.2404 14.513 32.8667 13.4202 32.1917 12.5282C32.3363 12.0461 32.4087 11.5479 32.4087 11.0416C32.4087 9.90455 32.035 8.8117 31.36 7.91973C31.5046 7.43759 31.577 6.93937 31.577 6.43312C31.577 4.35991 30.3435 2.49161 28.431 1.67598C28.0948 1.53105 27.7323 1.45718 27.3663 1.45902H3.21491C2.50375 1.45902 1.9292 2.03357 1.9292 2.74473V17.3697C1.9292 18.0809 2.50375 18.6554 3.21491 18.6554H8.41L11.8573 31.1429C12.4118 33.1559 14.26 34.5621 16.3493 34.5621C17.5426 34.5621 18.6555 34.088 19.4792 33.2202C20.3029 32.3563 20.7247 31.2233 20.6645 30.03L20.4234 25.0921H30.0622C30.5484 25.0921 31.0225 24.9635 31.4404 24.7184C33.0636 23.7742 34.0721 22.0626 34.0721 20.2586C34.0721 19.1215 33.6984 18.0287 33.0234 17.1367ZM4.82206 15.7586V4.34786H8.07652V15.7586H4.82206ZM30.0221 22.2032H17.3899L17.7756 30.1746C17.7997 30.6528 17.5868 31.1028 17.189 31.4001C16.9439 31.5809 16.6426 31.6733 16.3413 31.6693C15.9563 31.6656 15.5829 31.537 15.2772 31.303C14.9714 31.069 14.7499 30.7422 14.6457 30.3715L10.648 15.8871V4.34786H27.3381C27.7397 4.52784 28.0808 4.82002 28.3203 5.18924C28.5598 5.55846 28.6875 5.98901 28.6881 6.42911C28.6881 6.81884 28.5957 7.18848 28.4109 7.52598L27.8524 8.54652L28.7323 9.30991C28.98 9.52441 29.1785 9.78977 29.3144 10.0879C29.4503 10.386 29.5204 10.7099 29.5198 11.0376C29.5198 11.4273 29.4274 11.797 29.2426 12.1345L28.6841 13.155L29.564 13.9184C29.8117 14.1329 30.0102 14.3982 30.1461 14.6964C30.282 14.9945 30.3521 15.3184 30.3515 15.6461C30.3515 16.0358 30.2591 16.4054 30.0743 16.7429L29.5118 17.7675L30.3917 18.5309C30.6394 18.7454 30.8379 19.0107 30.9738 19.3089C31.1097 19.607 31.1798 19.9309 31.1792 20.2586C31.1792 21.026 30.7372 21.7653 30.0221 22.2032Z" fill="black" fill-opacity="0.85"/>
</svg>
