<svg width="36" height="36" viewBox="0 0 36 36" fill="none" xmlns="http://www.w3.org/2000/svg">
<path d="M33.5728 8.52948L25.7541 13.3469L18.2568 3.34644C18.2266 3.30619 18.1875 3.27352 18.1425 3.25102C18.0975 3.22851 18.0479 3.2168 17.9976 3.2168C17.9473 3.2168 17.8977 3.22851 17.8527 3.25102C17.8078 3.27352 17.7686 3.30619 17.7385 3.34644L10.2452 13.3469L2.42239 8.52948C2.19338 8.38885 1.89605 8.57769 1.93222 8.84689L5.00186 32.1746C5.04605 32.492 5.31927 32.7371 5.64472 32.7371H30.3586C30.68 32.7371 30.9572 32.496 30.9974 32.1746L34.067 8.84689C34.0992 8.57769 33.8059 8.38885 33.5728 8.52948ZM28.5103 29.9889H7.48489L5.32329 13.5397L10.9403 16.9991L17.9996 7.58126L25.059 16.9991L30.676 13.5397L28.5103 29.9889ZM17.9996 17.871C15.5045 17.871 13.4755 19.9 13.4755 22.3951C13.4755 24.8902 15.5045 26.9192 17.9996 26.9192C20.4947 26.9192 22.5237 24.8902 22.5237 22.3951C22.5237 19.9 20.4947 17.871 17.9996 17.871ZM17.9996 24.3357C16.9309 24.3357 16.063 23.4679 16.063 22.3951C16.063 21.3264 16.9309 20.4545 17.9996 20.4545C19.0684 20.4545 19.9362 21.3223 19.9362 22.3951C19.9362 23.4639 19.0684 24.3357 17.9996 24.3357Z" fill="black" fill-opacity="0.85"/>
</svg>
