<svg width="36" height="36" viewBox="0 0 36 36" fill="none" xmlns="http://www.w3.org/2000/svg">
<path d="M17.7466 23.9791C17.7766 24.0175 17.815 24.0486 17.8589 24.0699C17.9028 24.0913 17.9509 24.1024 17.9997 24.1024C18.0485 24.1024 18.0966 24.0913 18.1405 24.0699C18.1843 24.0486 18.2227 24.0175 18.2528 23.9791L22.7528 18.2858C22.9175 18.0768 22.7689 17.7675 22.4997 17.7675H19.5225V4.17104C19.5225 3.99425 19.3778 3.84961 19.201 3.84961H16.7903C16.6135 3.84961 16.4689 3.99425 16.4689 4.17104V17.7634H13.4997C13.2305 17.7634 13.0818 18.0728 13.2466 18.2818L17.7466 23.9791ZM32.705 22.5728H30.2943C30.1175 22.5728 29.9729 22.7175 29.9729 22.8943V29.0818H6.02647V22.8943C6.02647 22.7175 5.88183 22.5728 5.70504 22.5728H3.29433C3.11754 22.5728 2.9729 22.7175 2.9729 22.8943V30.8496C2.9729 31.5608 3.54745 32.1353 4.25861 32.1353H31.7408C32.4519 32.1353 33.0265 31.5608 33.0265 30.8496V22.8943C33.0265 22.7175 32.8818 22.5728 32.705 22.5728Z" fill="black" fill-opacity="0.85"/>
</svg>
