<svg width="36" height="36" viewBox="0 0 36 36" fill="none" xmlns="http://www.w3.org/2000/svg">
<g clip-path="url(#clip0_806_8493)">
<path d="M22.5002 25.8065H19.5229V16.0712C19.5229 15.8944 19.3783 15.7498 19.2015 15.7498H16.7908C16.614 15.7498 16.4694 15.8944 16.4694 16.0712V25.8065H13.5002C13.231 25.8065 13.0823 26.1159 13.247 26.3248L17.747 32.0181C17.7771 32.0565 17.8155 32.0876 17.8594 32.109C17.9032 32.1303 17.9514 32.1414 18.0002 32.1414C18.049 32.1414 18.0971 32.1303 18.141 32.109C18.1848 32.0876 18.2232 32.0565 18.2533 32.0181L22.7533 26.3248C22.918 26.1159 22.7694 25.8065 22.5002 25.8065Z" fill="black" fill-opacity="0.85"/>
<path d="M30.0295 12.1545C28.1893 7.30095 23.5004 3.84961 18.008 3.84961C12.5156 3.84961 7.82679 7.29693 5.98661 12.1505C2.5433 13.0545 0 16.1925 0 19.921C0 24.3608 3.59598 27.9568 8.0317 27.9568H9.64286C9.81964 27.9568 9.96429 27.8121 9.96429 27.6353V25.2246C9.96429 25.0478 9.81964 24.9032 9.64286 24.9032H8.0317C6.67768 24.9032 5.40402 24.3648 4.4558 23.3884C3.51161 22.4161 3.00937 21.1063 3.05357 19.7483C3.08973 18.6876 3.45134 17.6911 4.10625 16.8514C4.77723 15.9956 5.71741 15.3728 6.76205 15.0956L8.28482 14.6978L8.8433 13.2273C9.18884 12.3112 9.67098 11.4554 10.2777 10.68C10.8766 9.91138 11.5861 9.23575 12.383 8.67506C14.0344 7.5139 15.979 6.89916 18.008 6.89916C20.0371 6.89916 21.9817 7.5139 23.633 8.67506C24.4326 9.23756 25.1397 9.91256 25.7384 10.68C26.3451 11.4554 26.8272 12.3152 27.1728 13.2273L27.7272 14.6938L29.246 15.0956C31.4237 15.6822 32.9464 17.663 32.9464 19.921C32.9464 21.2509 32.4281 22.5045 31.4879 23.4447C31.0269 23.9085 30.4784 24.2762 29.8742 24.5265C29.2701 24.7769 28.6223 24.9049 27.9683 24.9032H26.3571C26.1804 24.9032 26.0357 25.0478 26.0357 25.2246V27.6353C26.0357 27.8121 26.1804 27.9568 26.3571 27.9568H27.9683C32.404 27.9568 36 24.3608 36 19.921C36 16.1965 33.4647 13.0626 30.0295 12.1545Z" fill="black" fill-opacity="0.85"/>
</g>
<defs>
<clipPath id="clip0_806_8493">
<rect width="36" height="36" fill="white"/>
</clipPath>
</defs>
</svg>
