<svg width="36" height="36" viewBox="0 0 36 36" fill="none" xmlns="http://www.w3.org/2000/svg">
<g clip-path="url(#clip0_806_8472)">
<path d="M12.697 25.7078H23.3042C23.481 25.7078 23.6256 25.5631 23.6256 25.3863V22.0113C23.6256 21.8345 23.481 21.6899 23.3042 21.6899H21.6971C21.5203 21.6899 21.3756 21.8345 21.3756 22.0113V23.4578H14.6256V22.0113C14.6256 21.8345 14.481 21.6899 14.3042 21.6899H12.697C12.5203 21.6899 12.3756 21.8345 12.3756 22.0113V25.3863C12.3756 25.5631 12.5203 25.7078 12.697 25.7078ZM26.3578 20.7658C26.3578 21.192 26.5271 21.6008 26.8285 21.9022C27.1299 22.2036 27.5387 22.3729 27.9649 22.3729C28.3911 22.3729 28.7999 22.2036 29.1013 21.9022C29.4027 21.6008 29.5721 21.192 29.5721 20.7658C29.5721 20.3396 29.4027 19.9308 29.1013 19.6294C28.7999 19.328 28.3911 19.1587 27.9649 19.1587C27.5387 19.1587 27.1299 19.328 26.8285 19.6294C26.5271 19.9308 26.3578 20.3396 26.3578 20.7658ZM35.9604 14.0319L35.0082 12.3685C34.9654 12.2951 34.8953 12.2417 34.8133 12.2199C34.7312 12.1981 34.6439 12.2096 34.5703 12.252L32.5332 13.4412L29.3872 4.75463C29.2211 4.23631 28.8946 3.78418 28.4548 3.46353C28.015 3.14287 27.4846 2.97029 26.9404 2.9707H9.53098C8.13678 2.9707 6.89928 3.8707 6.46937 5.20061L3.47205 13.4453L1.43098 12.256C1.35739 12.2136 1.27003 12.2021 1.18798 12.2239C1.10592 12.2458 1.03584 12.2992 0.99303 12.3725L0.0407981 14.0319C-0.0475948 14.1845 0.00463746 14.3774 0.157316 14.4658L2.5841 15.8801L2.00151 17.4872C1.9533 17.6158 1.92919 17.7524 1.92919 17.889V31.8792C1.92919 32.51 2.4033 33.0203 2.98589 33.0203H5.70196C6.19616 33.0203 6.62607 32.6466 6.73053 32.1243L7.03991 30.6095H28.9613L29.2707 32.1243C29.3792 32.6466 29.8051 33.0203 30.2993 33.0203H33.0154C33.5979 33.0203 34.0721 32.51 34.0721 31.8792V17.889C34.0721 17.7524 34.0479 17.6158 33.9997 17.4872L33.4171 15.8801L35.8399 14.4658C35.9128 14.4237 35.9663 14.3546 35.9889 14.2735C36.0114 14.1923 36.0012 14.1056 35.9604 14.0319ZM31.1792 18.1944V27.7167H4.82205V18.1944L5.44883 16.4667H30.5524L31.1792 18.1944ZM9.18946 6.18499L9.20955 6.13276L9.22562 6.08053C9.26982 5.94794 9.39035 5.85954 9.53098 5.85954H26.7113L29.7408 14.2167H6.26848L9.18946 6.18499ZM6.42919 20.7658C6.42919 21.192 6.59851 21.6008 6.89991 21.9022C7.20131 22.2036 7.61009 22.3729 8.03633 22.3729C8.46257 22.3729 8.87136 22.2036 9.17276 21.9022C9.47415 21.6008 9.64348 21.192 9.64348 20.7658C9.64348 20.3396 9.47415 19.9308 9.17276 19.6294C8.87136 19.328 8.46257 19.1587 8.03633 19.1587C7.61009 19.1587 7.20131 19.328 6.89991 19.6294C6.59851 19.9308 6.42919 20.3396 6.42919 20.7658Z" fill="black" fill-opacity="0.85"/>
</g>
<defs>
<clipPath id="clip0_806_8472">
<rect width="36" height="36" fill="white"/>
</clipPath>
</defs>
</svg>
