<svg width="36" height="36" viewBox="0 0 36 36" fill="none" xmlns="http://www.w3.org/2000/svg">
<path d="M32.7863 4.82621H26.0363V2.25478C26.0363 2.07799 25.8917 1.93335 25.7149 1.93335H23.4649C23.2881 1.93335 23.1435 2.07799 23.1435 2.25478V4.82621H12.8578V2.25478C12.8578 2.07799 12.7131 1.93335 12.5363 1.93335H10.2863C10.1096 1.93335 9.96491 2.07799 9.96491 2.25478V4.82621H3.21491C2.50375 4.82621 1.9292 5.40076 1.9292 6.11192V32.7905C1.9292 33.5017 2.50375 34.0762 3.21491 34.0762H32.7863C33.4975 34.0762 34.0721 33.5017 34.0721 32.7905V6.11192C34.0721 5.40076 33.4975 4.82621 32.7863 4.82621ZM31.1792 31.1834H4.82206V15.9155H31.1792V31.1834ZM4.82206 13.1834V7.71906H9.96491V9.64764C9.96491 9.82442 10.1096 9.96906 10.2863 9.96906H12.5363C12.7131 9.96906 12.8578 9.82442 12.8578 9.64764V7.71906H23.1435V9.64764C23.1435 9.82442 23.2881 9.96906 23.4649 9.96906H25.7149C25.8917 9.96906 26.0363 9.82442 26.0363 9.64764V7.71906H31.1792V13.1834H4.82206Z" fill="black" fill-opacity="0.85"/>
</svg>
