<svg width="36" height="36" viewBox="0 0 36 36" fill="none" xmlns="http://www.w3.org/2000/svg">
<g clip-path="url(#clip0_806_8552)">
<path d="M21.3067 21.5884C22.0615 20.7587 22.4786 19.6766 22.4759 18.555C22.4759 16.0679 20.471 14.055 18 14.055C15.529 14.055 13.5241 16.0679 13.5241 18.555C13.5241 19.7242 13.9661 20.7849 14.6933 21.5884C13.8219 22.1284 13.0942 22.8713 12.5723 23.7535C12.0503 24.6358 11.7497 25.6313 11.696 26.655C11.6938 26.6985 11.7005 26.742 11.7157 26.7829C11.7309 26.8238 11.7542 26.8611 11.7842 26.8927C11.8143 26.9243 11.8505 26.9494 11.8906 26.9666C11.9307 26.9837 11.9738 26.9925 12.0174 26.9925H13.7812C13.95 26.9925 14.0866 26.8599 14.0987 26.6911C14.2513 24.6581 15.9469 23.055 18.004 23.055C20.0612 23.055 21.7567 24.6621 21.9094 26.6911C21.9214 26.8599 22.058 26.9925 22.2268 26.9925H23.9866C24.0302 26.9925 24.0734 26.9837 24.1134 26.9666C24.1535 26.9494 24.1897 26.9243 24.2198 26.8927C24.2498 26.8611 24.2732 26.8238 24.2883 26.7829C24.3035 26.742 24.3102 26.6985 24.308 26.655C24.1955 24.5134 23.0223 22.6492 21.3067 21.5884ZM18 20.6443C16.8549 20.6443 15.9228 19.7081 15.9228 18.555C15.9228 17.4018 16.8549 16.4657 18 16.4657C19.1451 16.4657 20.0772 17.4018 20.0772 18.555C20.0772 19.7081 19.1451 20.6443 18 20.6443ZM34.7143 6.42104H28.2857V4.17104C28.2857 3.99425 28.1411 3.84961 27.9643 3.84961H25.7143C25.5375 3.84961 25.3929 3.99425 25.3929 4.17104V6.42104H19.4464V4.17104C19.4464 3.99425 19.3018 3.84961 19.125 3.84961H16.875C16.6982 3.84961 16.5536 3.99425 16.5536 4.17104V6.42104H10.6071V4.17104C10.6071 3.99425 10.4625 3.84961 10.2857 3.84961H8.03571C7.85893 3.84961 7.71429 3.99425 7.71429 4.17104V6.42104H1.28571C0.574554 6.42104 0 6.99559 0 7.70675V30.8496C0 31.5608 0.574554 32.1353 1.28571 32.1353H34.7143C35.4254 32.1353 36 31.5608 36 30.8496V7.70675C36 6.99559 35.4254 6.42104 34.7143 6.42104ZM33.1071 29.2425H2.89286V9.3139H7.71429V11.5639C7.71429 11.7407 7.85893 11.8853 8.03571 11.8853H10.2857C10.4625 11.8853 10.6071 11.7407 10.6071 11.5639V9.3139H16.5536V11.5639C16.5536 11.7407 16.6982 11.8853 16.875 11.8853H19.125C19.3018 11.8853 19.4464 11.7407 19.4464 11.5639V9.3139H25.3929V11.5639C25.3929 11.7407 25.5375 11.8853 25.7143 11.8853H27.9643C28.1411 11.8853 28.2857 11.7407 28.2857 11.5639V9.3139H33.1071V29.2425Z" fill="black" fill-opacity="0.85"/>
</g>
<defs>
<clipPath id="clip0_806_8552">
<rect width="36" height="36" fill="white"/>
</clipPath>
</defs>
</svg>
