<svg width="36" height="36" viewBox="0 0 36 36" fill="none" xmlns="http://www.w3.org/2000/svg">
<path d="M32.1427 7.40039H26.6784L25.3766 3.75218C25.2867 3.50254 25.1219 3.28676 24.9047 3.1343C24.6875 2.98185 24.4286 2.90016 24.1632 2.90039H11.8365C11.294 2.90039 10.8079 3.24191 10.6271 3.75218L9.32128 7.40039H3.85699C2.0811 7.40039 0.642708 8.83879 0.642708 10.6147V28.9361C0.642708 30.712 2.0811 32.1504 3.85699 32.1504H32.1427C33.9186 32.1504 35.357 30.712 35.357 28.9361V10.6147C35.357 8.83879 33.9186 7.40039 32.1427 7.40039ZM32.4641 28.9361C32.4641 29.1129 32.3195 29.2575 32.1427 29.2575H3.85699C3.68021 29.2575 3.53556 29.1129 3.53556 28.9361V10.6147C3.53556 10.4379 3.68021 10.2932 3.85699 10.2932H11.3583L12.0454 8.37271L12.9655 5.79325H23.0302L23.9503 8.37271L24.6374 10.2932H32.1427C32.3195 10.2932 32.4641 10.4379 32.4641 10.6147V28.9361ZM17.9999 12.8647C14.4481 12.8647 11.5713 15.7415 11.5713 19.2933C11.5713 22.845 14.4481 25.7218 17.9999 25.7218C21.5516 25.7218 24.4284 22.845 24.4284 19.2933C24.4284 15.7415 21.5516 12.8647 17.9999 12.8647ZM17.9999 23.1504C15.8704 23.1504 14.1427 21.4227 14.1427 19.2933C14.1427 17.1638 15.8704 15.4361 17.9999 15.4361C20.1293 15.4361 21.857 17.1638 21.857 19.2933C21.857 21.4227 20.1293 23.1504 17.9999 23.1504Z" fill="black" fill-opacity="0.85"/>
</svg>
