<svg width="36" height="36" viewBox="0 0 36 36" fill="none" xmlns="http://www.w3.org/2000/svg">
<path d="M32.7863 4.82645H26.0363V2.25502C26.0363 2.07824 25.8917 1.93359 25.7149 1.93359H23.4649C23.2881 1.93359 23.1435 2.07824 23.1435 2.25502V4.82645H12.8577V2.25502C12.8577 2.07824 12.7131 1.93359 12.5363 1.93359H10.2863C10.1095 1.93359 9.96488 2.07824 9.96488 2.25502V4.82645H3.21488C2.50372 4.82645 1.92917 5.401 1.92917 6.11217V32.7907C1.92917 33.5019 2.50372 34.0765 3.21488 34.0765H32.7863C33.4975 34.0765 34.072 33.5019 34.072 32.7907V6.11217C34.072 5.401 33.4975 4.82645 32.7863 4.82645ZM31.1792 31.1836H4.82203V7.71931H9.96488V9.64788C9.96488 9.82467 10.1095 9.96931 10.2863 9.96931H12.5363C12.7131 9.96931 12.8577 9.82467 12.8577 9.64788V7.71931H23.1435V9.64788C23.1435 9.82467 23.2881 9.96931 23.4649 9.96931H25.7149C25.8917 9.96931 26.0363 9.82467 26.0363 9.64788V7.71931H31.1792V31.1836ZM25.072 14.3086H22.8542C22.6493 14.3086 22.4524 14.409 22.3318 14.5738L16.2689 22.9229L13.6693 19.347C13.5488 19.1823 13.356 19.0818 13.147 19.0818H10.9292C10.668 19.0818 10.5153 19.3791 10.668 19.5921L15.7466 26.5831C15.8066 26.6653 15.8852 26.7322 15.976 26.7783C16.0668 26.8244 16.1671 26.8484 16.2689 26.8484C16.3707 26.8484 16.4711 26.8244 16.5618 26.7783C16.6526 26.7322 16.7312 26.6653 16.7912 26.5831L25.3332 14.8229C25.4859 14.6059 25.3332 14.3086 25.072 14.3086Z" fill="black" fill-opacity="0.85"/>
</svg>
