<svg width="36" height="36" viewBox="0 0 36 36" fill="none" xmlns="http://www.w3.org/2000/svg">
<g clip-path="url(#clip0_806_8498)">
<path d="M30.0295 14.2463C28.1893 9.39275 23.5004 5.94141 18.008 5.94141C12.5156 5.94141 7.82679 9.38873 5.98661 14.2423C2.5433 15.1463 0 18.2802 0 22.0128C0 26.4526 3.59598 30.0485 8.0317 30.0485H27.9683C32.404 30.0485 36 26.4526 36 22.0128C36 18.2883 33.4647 15.1544 30.0295 14.2463ZM31.4879 25.5365C31.0269 26.0003 30.4784 26.368 29.8742 26.6183C29.2701 26.8687 28.6223 26.9967 27.9683 26.995H8.0317C6.70179 26.995 5.45223 26.4767 4.51205 25.5365C4.04821 25.0746 3.6805 24.5254 3.43017 23.9206C3.17983 23.3158 3.05183 22.6674 3.05357 22.0128C3.05357 20.8878 3.4192 19.8311 4.10625 18.9472C4.77907 18.0909 5.71064 17.475 6.76205 17.1914L8.28482 16.7936L8.8433 15.3231C9.18884 14.407 9.67098 13.5512 10.2777 12.7758C10.8766 12.0072 11.5861 11.3316 12.383 10.7709C14.0344 9.60971 15.979 8.99498 18.008 8.99498C20.0371 8.99498 21.9817 9.60971 23.633 10.7709C24.4326 11.3334 25.1397 12.0084 25.7384 12.7758C26.3451 13.5512 26.8272 14.411 27.1728 15.3231L27.7272 16.7896L29.246 17.1914C31.4277 17.774 32.9464 19.7548 32.9464 22.0128C32.9464 23.3427 32.4281 24.5963 31.4879 25.5365Z" fill="black" fill-opacity="0.85"/>
</g>
<defs>
<clipPath id="clip0_806_8498">
<rect width="36" height="36" fill="white"/>
</clipPath>
</defs>
</svg>
