<svg width="36" height="36" viewBox="0 0 36 36" fill="none" xmlns="http://www.w3.org/2000/svg">
<path d="M18.1603 24.4738C18.1603 24.6506 18.2969 24.7952 18.4616 24.7952H25.8946C26.0594 24.7952 26.196 24.6506 26.196 24.4738V22.5452C26.196 22.3684 26.0594 22.2238 25.8946 22.2238H18.4616C18.2969 22.2238 18.1603 22.3684 18.1603 22.5452V24.4738ZM10.3295 24.7189L18.0437 18.2501C18.1964 18.1215 18.1964 17.8845 18.0437 17.7559L10.3295 11.2912C10.2829 11.2516 10.2259 11.2262 10.1654 11.218C10.1048 11.2098 10.0431 11.2191 9.9877 11.245C9.93228 11.2708 9.88543 11.3119 9.85271 11.3636C9.81999 11.4152 9.80278 11.4751 9.80312 11.5363V14.0555C9.80312 14.1519 9.84329 14.2403 9.91963 14.3006L14.3312 18.005L9.91963 21.7095C9.88372 21.7396 9.85472 21.777 9.83461 21.8193C9.8145 21.8616 9.80376 21.9077 9.80312 21.9546V24.4738C9.80312 24.747 10.1205 24.8956 10.3295 24.7189ZM32.7853 1.93359H3.21383C2.50267 1.93359 1.92812 2.50815 1.92812 3.21931V32.7907C1.92812 33.5019 2.50267 34.0765 3.21383 34.0765H32.7853C33.4964 34.0765 34.071 33.5019 34.071 32.7907V3.21931C34.071 2.50815 33.4964 1.93359 32.7853 1.93359ZM31.1781 31.1836H4.82097V4.82645H31.1781V31.1836Z" fill="black" fill-opacity="0.85"/>
</svg>
