<svg width="36" height="36" viewBox="0 0 36 36" fill="none" xmlns="http://www.w3.org/2000/svg">
<path d="M17.9994 2.56641C9.47751 2.56641 2.57082 9.4731 2.57082 17.995V32.4593C2.57082 32.9936 3.00073 33.4236 3.5351 33.4236H10.928C12.3463 33.4236 13.4994 32.2704 13.4994 30.8521V22.495C13.4994 21.0767 12.3463 19.9236 10.928 19.9236H5.46367V17.995C5.46367 11.0722 11.0766 5.45926 17.9994 5.45926C24.9222 5.45926 30.5351 11.0722 30.5351 17.995V19.9236H25.0708C23.6525 19.9236 22.4994 21.0767 22.4994 22.495V30.8521C22.4994 32.2704 23.6525 33.4236 25.0708 33.4236H32.4637C32.9981 33.4236 33.428 32.9936 33.428 32.4593V17.995C33.428 9.4731 26.5213 2.56641 17.9994 2.56641ZM10.6065 22.8164V30.5307H5.46367V22.8164H10.6065ZM30.5351 30.5307H25.3922V22.8164H30.5351V30.5307Z" fill="black" fill-opacity="0.85"/>
</svg>
