<svg width="36" height="36" viewBox="0 0 36 36" fill="none" xmlns="http://www.w3.org/2000/svg">
<g clip-path="url(#clip0_806_8610)">
<path d="M34.7143 3.05859H1.28571C0.574554 3.05859 0 3.63315 0 4.34431V24.2729C0 24.984 0.574554 25.5586 1.28571 25.5586H16.5536V30.0586H9.64286C9.28929 30.0586 9 30.3479 9 30.7015V32.63C9 32.8068 9.14464 32.9515 9.32143 32.9515H26.6786C26.8554 32.9515 27 32.8068 27 32.63V30.7015C27 30.3479 26.7107 30.0586 26.3571 30.0586H19.4464V25.5586H34.7143C35.4254 25.5586 36 24.984 36 24.2729V4.34431C36 3.63315 35.4254 3.05859 34.7143 3.05859ZM33.1071 22.6657H2.89286V5.95145H33.1071V22.6657Z" fill="black" fill-opacity="0.85"/>
</g>
<defs>
<clipPath id="clip0_806_8610">
<rect width="36" height="36" fill="white"/>
</clipPath>
</defs>
</svg>
