<svg width="36" height="36" viewBox="0 0 36 36" fill="none" xmlns="http://www.w3.org/2000/svg">
<g clip-path="url(#clip0_806_8724)">
<path d="M19.5876 17.1362H18.3622C18.1774 17.1362 18.0247 17.2848 18.0247 17.4737V26.3571C18.0247 26.542 18.1734 26.6946 18.3622 26.6946H19.5876C19.7725 26.6946 19.9251 26.546 19.9251 26.3571V17.4737C19.9211 17.2888 19.7725 17.1362 19.5876 17.1362ZM16.6064 21.5357H13.0667C12.8818 21.5357 12.7292 21.6844 12.7292 21.8732V22.8295C12.7292 23.0143 12.8778 23.167 13.0667 23.167H14.9792V23.1951C14.955 24.3964 14.055 25.196 12.7091 25.196C11.1341 25.196 10.1537 23.9625 10.1537 21.9254C10.1537 19.9125 11.114 18.6871 12.6568 18.6871C13.7859 18.6871 14.5653 19.2295 14.8827 20.2259L14.9189 20.3384H16.8957L16.8675 20.1536C16.5501 18.1567 14.8948 16.875 12.6568 16.875C9.89255 16.875 8.11666 18.8598 8.11666 21.9335C8.11666 25.0473 9.87246 27 12.6809 27C15.2684 27 16.9399 25.3808 16.9399 22.8656V21.8692C16.9399 21.6844 16.7912 21.5357 16.6064 21.5357Z" fill="black" fill-opacity="0.85"/>
<path d="M31.7664 9.02411L23.1199 0.377679C22.8789 0.136607 22.5534 0 22.2119 0H5.14405C4.43289 0 3.85834 0.574554 3.85834 1.28571V34.7143C3.85834 35.4254 4.43289 36 5.14405 36H30.8583C31.5695 36 32.1441 35.4254 32.1441 34.7143V9.93616C32.1441 9.59464 32.0074 9.26518 31.7664 9.02411ZM21.6173 2.96518L29.1789 10.5268H21.6173V2.96518ZM29.2512 33.1071H6.75119V2.89286H18.8851V11.5714C18.8851 12.019 19.0629 12.4482 19.3794 12.7647C19.6958 13.0811 20.1251 13.2589 20.5726 13.2589H29.2512V33.1071Z" fill="black" fill-opacity="0.85"/>
<path d="M21.8663 26.6661H23.164C23.3488 26.6661 23.5015 26.5175 23.5015 26.3286V22.9215H27.0292C27.214 22.9215 27.3667 22.7728 27.3667 22.584V21.5594C27.3667 21.3746 27.218 21.2219 27.0292 21.2219H23.5015V18.8554H27.3908C27.5756 18.8554 27.7283 18.7068 27.7283 18.5179V17.4411C27.7283 17.2563 27.5796 17.1036 27.3908 17.1036H21.8663C21.6814 17.1036 21.5288 17.2523 21.5288 17.4411V26.3246C21.5288 26.5175 21.6814 26.6661 21.8663 26.6661Z" fill="black" fill-opacity="0.85"/>
</g>
<defs>
<clipPath id="clip0_806_8724">
<rect width="36" height="36" fill="white"/>
</clipPath>
</defs>
</svg>
